%TF.GenerationSoftware,KiCad,Pcbnew,7.0.1*%
%TF.CreationDate,2023-03-30T14:31:40+01:00*%
%TF.ProjectId,DevBoard,44657642-6f61-4726-942e-6b696361645f,rev?*%
%TF.SameCoordinates,Original*%
%TF.FileFunction,Copper,L3,Inr*%
%TF.FilePolarity,Positive*%
%FSLAX46Y46*%
G04 Gerber Fmt 4.6, Leading zero omitted, Abs format (unit mm)*
G04 Created by KiCad (PCBNEW 7.0.1) date 2023-03-30 14:31:40*
%MOMM*%
%LPD*%
G01*
G04 APERTURE LIST*
%ADD10C,0.300000*%
%TA.AperFunction,NonConductor*%
%ADD11C,0.300000*%
%TD*%
%TA.AperFunction,ComponentPad*%
%ADD12R,1.700000X1.700000*%
%TD*%
%TA.AperFunction,ComponentPad*%
%ADD13O,1.700000X1.700000*%
%TD*%
%TA.AperFunction,ComponentPad*%
%ADD14R,2.775000X2.775000*%
%TD*%
%TA.AperFunction,ComponentPad*%
%ADD15C,2.775000*%
%TD*%
%TA.AperFunction,ComponentPad*%
%ADD16C,1.800000*%
%TD*%
%TA.AperFunction,ComponentPad*%
%ADD17R,1.500000X1.500000*%
%TD*%
%TA.AperFunction,ComponentPad*%
%ADD18C,1.500000*%
%TD*%
%TA.AperFunction,ViaPad*%
%ADD19C,1.200000*%
%TD*%
%TA.AperFunction,ViaPad*%
%ADD20C,0.800000*%
%TD*%
%TA.AperFunction,Conductor*%
%ADD21C,0.400000*%
%TD*%
G04 APERTURE END LIST*
D10*
%TO.C,FID1*%
D11*
X50793928Y-77599999D02*
X50793928Y-76671427D01*
X50793928Y-76671427D02*
X51365357Y-77171427D01*
X51365357Y-77171427D02*
X51365357Y-76957142D01*
X51365357Y-76957142D02*
X51436785Y-76814285D01*
X51436785Y-76814285D02*
X51508214Y-76742856D01*
X51508214Y-76742856D02*
X51651071Y-76671427D01*
X51651071Y-76671427D02*
X52008214Y-76671427D01*
X52008214Y-76671427D02*
X52151071Y-76742856D01*
X52151071Y-76742856D02*
X52222500Y-76814285D01*
X52222500Y-76814285D02*
X52293928Y-76957142D01*
X52293928Y-76957142D02*
X52293928Y-77385713D01*
X52293928Y-77385713D02*
X52222500Y-77528570D01*
X52222500Y-77528570D02*
X52151071Y-77599999D01*
%TD*%
D12*
%TO.N,GND*%
%TO.C,J41*%
X52000000Y-127600000D03*
%TD*%
%TO.N,/EurorackToMCU/CV_In2*%
%TO.C,J49*%
X67200000Y-82700000D03*
D13*
%TO.N,/EurorackToMCU/CV_Scaled_Out2*%
X69740000Y-82700000D03*
%TD*%
D12*
%TO.N,/MCUToEurorack/Audio_In2*%
%TO.C,J3*%
X87500000Y-74900000D03*
D13*
%TO.N,/MCUToEurorack/Audio_Out2*%
X90040000Y-74900000D03*
%TD*%
D12*
%TO.N,/DAC/DAC_OUT_AMP_L*%
%TO.C,J21*%
X113700000Y-119860000D03*
D13*
%TO.N,/DAC/DAC_OUT_AMP_R*%
X116240000Y-119860000D03*
%TD*%
D12*
%TO.N,/Pot4*%
%TO.C,J47*%
X144200000Y-127550000D03*
%TD*%
%TO.N,GND*%
%TO.C,J17*%
X137560000Y-147799665D03*
D13*
%TO.N,Net-(J17-Pin_2)*%
X135020000Y-147799665D03*
%TO.N,-12V*%
X132480000Y-147799665D03*
%TD*%
D12*
%TO.N,GND*%
%TO.C,J15*%
X114260000Y-147799665D03*
D13*
%TO.N,Net-(J15-Pin_2)*%
X111720000Y-147799665D03*
%TO.N,-12V*%
X109180000Y-147799665D03*
%TD*%
D12*
%TO.N,/MCUToEurorack/Audio_In2*%
%TO.C,J4*%
X94792500Y-95700000D03*
D13*
%TO.N,/MCUToEurorack/Audio_Out2*%
X97332500Y-95700000D03*
%TD*%
D12*
%TO.N,/DAC/DAC_LRCLK*%
%TO.C,J26*%
X112000000Y-74900000D03*
D13*
%TO.N,/DAC/DAC_DATA*%
X114540000Y-74900000D03*
%TO.N,/DAC/DAC_BCLK*%
X117080000Y-74900000D03*
%TD*%
%TO.N,/Interconnect5*%
%TO.C,J25*%
X106760000Y-82700000D03*
%TO.N,/Interconnect4*%
X104220000Y-82700000D03*
%TO.N,/Interconnect3*%
X101680000Y-82700000D03*
%TO.N,/Interconnect2*%
X99140000Y-82700000D03*
D12*
%TO.N,/Interconnect1*%
X96600000Y-82700000D03*
%TD*%
D14*
%TO.N,+12V*%
%TO.C,SW2*%
X137215000Y-109900000D03*
D15*
%TO.N,/+12V_IN*%
X137215000Y-114600000D03*
%TO.N,unconnected-(SW2A-C-Pad3)*%
X137215000Y-119300000D03*
%TO.N,-12V*%
X132385000Y-109900000D03*
%TO.N,/-12V_IN*%
X132385000Y-114600000D03*
%TO.N,unconnected-(SW2B-C-Pad6)*%
X132385000Y-119300000D03*
%TD*%
D12*
%TO.N,/MCUToEurorack/Audio_In1*%
%TO.C,J2*%
X81492500Y-95700000D03*
D13*
%TO.N,/MCUToEurorack/Audio_Out1*%
X84032500Y-95700000D03*
%TD*%
D16*
%TO.N,Net-(J14-Pin_2)*%
%TO.C,RV3*%
X114200000Y-143700000D03*
%TO.N,/Pot3*%
X111700000Y-143700000D03*
%TO.N,Net-(J15-Pin_2)*%
X109200000Y-143700000D03*
%TD*%
D12*
%TO.N,/EurorackToMCU/Audio12V_In1*%
%TO.C,J50*%
X55667500Y-95600000D03*
D13*
%TO.N,/EurorackToMCU/Audio_Scaled_Out1*%
X58207500Y-95600000D03*
%TD*%
D16*
%TO.N,Net-(J12-Pin_2)*%
%TO.C,RV2*%
X90900000Y-143700000D03*
%TO.N,/Pot2*%
X88400000Y-143700000D03*
%TO.N,Net-(J13-Pin_2)*%
X85900000Y-143700000D03*
%TD*%
D12*
%TO.N,GND*%
%TO.C,J10*%
X67625000Y-147750000D03*
D13*
%TO.N,Net-(J10-Pin_2)*%
X65085000Y-147750000D03*
%TO.N,-12V*%
X62545000Y-147750000D03*
%TD*%
D12*
%TO.N,/DAC/DAC_LRCLK*%
%TO.C,J18*%
X105255000Y-95735000D03*
D13*
%TO.N,/DAC/DAC_DATA*%
X107795000Y-95735000D03*
%TO.N,/DAC/DAC_BCLK*%
X110335000Y-95735000D03*
%TD*%
D12*
%TO.N,+12V*%
%TO.C,J12*%
X83530000Y-127550000D03*
D13*
%TO.N,Net-(J12-Pin_2)*%
X86070000Y-127550000D03*
%TO.N,+3.3V*%
X88610000Y-127550000D03*
%TD*%
D12*
%TO.N,/MCUToEurorack/CV2_In*%
%TO.C,J8*%
X87500000Y-82700000D03*
D13*
%TO.N,/MCUToEurorack/CV2_Out*%
X90040000Y-82700000D03*
%TD*%
D12*
%TO.N,+12V*%
%TO.C,J14*%
X106865000Y-127550000D03*
D13*
%TO.N,Net-(J14-Pin_2)*%
X109405000Y-127550000D03*
%TO.N,+3.3V*%
X111945000Y-127550000D03*
%TD*%
D12*
%TO.N,/DAC/DAC_OUT_L*%
%TO.C,J19*%
X115100000Y-95700000D03*
D13*
%TO.N,/DAC/DAC_OUT_R*%
X117640000Y-95700000D03*
%TD*%
D12*
%TO.N,GND*%
%TO.C,J39*%
X93400000Y-69300000D03*
%TD*%
%TO.N,/DAC/DAC_OUT_AMP_L*%
%TO.C,J20*%
X113000000Y-82700000D03*
D13*
%TO.N,/DAC/DAC_OUT_AMP_R*%
X115540000Y-82700000D03*
%TD*%
D16*
%TO.N,Net-(J16-Pin_2)*%
%TO.C,RV4*%
X137500000Y-143700000D03*
%TO.N,/Pot4*%
X135000000Y-143700000D03*
%TO.N,Net-(J17-Pin_2)*%
X132500000Y-143700000D03*
%TD*%
D12*
%TO.N,+3.3V*%
%TO.C,J35*%
X127700000Y-69200000D03*
D13*
%TO.N,+3.3VA*%
X130240000Y-69200000D03*
%TO.N,+5V*%
X132780000Y-69200000D03*
%TO.N,-5V*%
X135320000Y-69200000D03*
%TO.N,+12V*%
X137860000Y-69200000D03*
%TO.N,-12V*%
X140400000Y-69200000D03*
%TD*%
D12*
%TO.N,/EurorackToMCU/CV_In2*%
%TO.C,J33*%
X67100000Y-119000000D03*
D13*
%TO.N,/EurorackToMCU/CV_Scaled_Out2*%
X69640000Y-119000000D03*
%TD*%
D12*
%TO.N,/EurorackToMCU/Audio12V_In2*%
%TO.C,J32*%
X67092500Y-95700000D03*
D13*
%TO.N,/EurorackToMCU/Audio_Scaled_Out2*%
X69632500Y-95700000D03*
%TD*%
D12*
%TO.N,/Pot1*%
%TO.C,J52*%
X97800000Y-74900000D03*
D13*
%TO.N,/Pot2*%
X100340000Y-74900000D03*
%TO.N,/Pot3*%
X102880000Y-74900000D03*
%TO.N,/Pot4*%
X105420000Y-74900000D03*
%TD*%
D12*
%TO.N,/EurorackToMCU/Audio12V_In2*%
%TO.C,J51*%
X67200000Y-74900000D03*
D13*
%TO.N,/EurorackToMCU/Audio_Scaled_Out2*%
X69740000Y-74900000D03*
%TD*%
D12*
%TO.N,/Pot2*%
%TO.C,J45*%
X97400000Y-127550000D03*
%TD*%
%TO.N,/Pot3*%
%TO.C,J46*%
X120600000Y-127550000D03*
%TD*%
%TO.N,/EurorackToMCU/CV_In1*%
%TO.C,J30*%
X57800000Y-82700000D03*
D13*
%TO.N,/EurorackToMCU/CV_Scaled_Out1*%
X60340000Y-82700000D03*
%TD*%
D12*
%TO.N,/MCUToEurorack/CV1_In*%
%TO.C,J6*%
X77775000Y-82700000D03*
D13*
%TO.N,/MCUToEurorack/CV1_Out*%
X80315000Y-82700000D03*
%TD*%
D12*
%TO.N,GND*%
%TO.C,J40*%
X121200000Y-69200000D03*
D13*
X123740000Y-69200000D03*
%TD*%
D12*
%TO.N,/MCUToEurorack/Audio_In1*%
%TO.C,J1*%
X77750000Y-74900000D03*
D13*
%TO.N,/MCUToEurorack/Audio_Out1*%
X80290000Y-74900000D03*
%TD*%
D12*
%TO.N,GND*%
%TO.C,J23*%
X73000000Y-69300000D03*
%TD*%
%TO.N,/MCUToEurorack/CV2_In*%
%TO.C,J7*%
X94800000Y-119000000D03*
D13*
%TO.N,/MCUToEurorack/CV2_Out*%
X97340000Y-119000000D03*
%TD*%
D12*
%TO.N,/Pot1*%
%TO.C,J44*%
X74000000Y-127550000D03*
%TD*%
D16*
%TO.N,Net-(J9-Pin_2)*%
%TO.C,RV1*%
X67600000Y-143700000D03*
%TO.N,/Pot1*%
X65100000Y-143700000D03*
%TO.N,Net-(J10-Pin_2)*%
X62600000Y-143700000D03*
%TD*%
D12*
%TO.N,+12V*%
%TO.C,J16*%
X130100000Y-127550000D03*
D13*
%TO.N,Net-(J16-Pin_2)*%
X132640000Y-127550000D03*
%TO.N,+3.3V*%
X135180000Y-127550000D03*
%TD*%
D12*
%TO.N,/EurorackToMCU/Audio12V_In1*%
%TO.C,J31*%
X57800000Y-74900000D03*
D13*
%TO.N,/EurorackToMCU/Audio_Scaled_Out1*%
X60340000Y-74900000D03*
%TD*%
D12*
%TO.N,/MCUToEurorack/CV1_In*%
%TO.C,J5*%
X81500000Y-119000000D03*
D13*
%TO.N,/MCUToEurorack/CV1_Out*%
X84040000Y-119000000D03*
%TD*%
D12*
%TO.N,+12V*%
%TO.C,J9*%
X60230000Y-127550000D03*
D13*
%TO.N,Net-(J9-Pin_2)*%
X62770000Y-127550000D03*
%TO.N,+3.3V*%
X65310000Y-127550000D03*
%TD*%
D12*
%TO.N,/EurorackToMCU/CV_In1*%
%TO.C,J48*%
X55400000Y-119000000D03*
D13*
%TO.N,/EurorackToMCU/CV_Scaled_Out1*%
X57940000Y-119000000D03*
%TD*%
D12*
%TO.N,GND*%
%TO.C,J13*%
X90925000Y-147800000D03*
D13*
%TO.N,Net-(J13-Pin_2)*%
X88385000Y-147800000D03*
%TO.N,-12V*%
X85845000Y-147800000D03*
%TD*%
D12*
%TO.N,/Voltmeter_In*%
%TO.C,J22*%
X121200000Y-77000000D03*
%TD*%
D17*
%TO.N,/Interconnect1*%
%TO.C,J11*%
X135250000Y-94050000D03*
D18*
%TO.N,/Interconnect2*%
X132710000Y-95320000D03*
%TO.N,/Interconnect3*%
X135250000Y-96590000D03*
%TO.N,/Interconnect4*%
X132710000Y-97860000D03*
%TO.N,/Interconnect5*%
X135250000Y-99130000D03*
%TO.N,/-12V_IN*%
X132710000Y-100400000D03*
%TO.N,GND*%
X135250000Y-101670000D03*
%TO.N,/+12V_IN*%
X132710000Y-102940000D03*
%TD*%
D19*
%TO.N,GND*%
X105600000Y-102400000D03*
X53900000Y-107500000D03*
X105600000Y-104400000D03*
X124300000Y-110800000D03*
X98900000Y-112100000D03*
D20*
X80500000Y-101600000D03*
D19*
X105600000Y-107800000D03*
X114500000Y-112100000D03*
X79900000Y-110700000D03*
X122900000Y-96500000D03*
X98400000Y-107700000D03*
X124300000Y-114400000D03*
X113900000Y-102300000D03*
D20*
X116400000Y-105300000D03*
D19*
X117700000Y-98500000D03*
D20*
X113400000Y-104600000D03*
D19*
X123600000Y-99000000D03*
D20*
X98300000Y-101800000D03*
D19*
X80000000Y-107700000D03*
X105700000Y-114800000D03*
D20*
X110700000Y-102900000D03*
D19*
%TO.N,+12V*%
X84900000Y-110800000D03*
X110300000Y-114800000D03*
%TO.N,-12V*%
X119400000Y-113200000D03*
X93800000Y-110900000D03*
%TO.N,+5V*%
X141100000Y-117100000D03*
%TO.N,+3.3VA*%
X119400000Y-106600000D03*
X119400000Y-98200000D03*
X58576901Y-108399500D03*
%TO.N,-5V*%
X52900000Y-105900000D03*
X70700000Y-107400000D03*
%TO.N,+3.3V*%
X110700000Y-106400000D03*
X141100500Y-121800000D03*
%TD*%
D21*
%TO.N,+3.3V*%
X141068915Y-121800000D02*
X141100500Y-121800000D01*
X135180000Y-127688915D02*
X141068915Y-121800000D01*
X114794665Y-124900000D02*
X111945000Y-127749665D01*
X135180000Y-127688915D02*
X132391085Y-124900000D01*
X132391085Y-124900000D02*
X114794665Y-124900000D01*
%TO.N,+12V*%
X147800000Y-79215589D02*
X137860000Y-69275589D01*
X147800000Y-91100000D02*
X147800000Y-79215589D01*
X137860000Y-69275589D02*
X137860000Y-69200000D01*
X83530000Y-127800000D02*
X86100000Y-125230000D01*
X106865000Y-127749665D02*
X106865000Y-118235000D01*
X106865000Y-118235000D02*
X110300000Y-114800000D01*
X86100000Y-112000000D02*
X84900000Y-110800000D01*
X130100000Y-127688915D02*
X129911085Y-127688915D01*
X110115335Y-131000000D02*
X106865000Y-127749665D01*
X129911085Y-127688915D02*
X126600000Y-131000000D01*
X137215000Y-101685000D02*
X147800000Y-91100000D01*
X126600000Y-131000000D02*
X110115335Y-131000000D01*
X137215000Y-109900000D02*
X137215000Y-101685000D01*
X86100000Y-125230000D02*
X86100000Y-112000000D01*
%TO.N,-12V*%
X119400000Y-113200000D02*
X117100000Y-110900000D01*
X117100000Y-110900000D02*
X93800000Y-110900000D01*
%TO.N,+5V*%
X142250000Y-68550000D02*
X142250000Y-71550000D01*
X149300000Y-108900000D02*
X141100000Y-117100000D01*
X141400000Y-67700000D02*
X142250000Y-68550000D01*
X142250000Y-71550000D02*
X149300000Y-78600000D01*
X149300000Y-78600000D02*
X149300000Y-108900000D01*
X132780000Y-69200000D02*
X134280000Y-67700000D01*
X134280000Y-67700000D02*
X141400000Y-67700000D01*
%TO.N,/+12V_IN*%
X137215000Y-113475000D02*
X134800000Y-111060000D01*
X134800000Y-105030000D02*
X132710000Y-102940000D01*
X137215000Y-114600000D02*
X137215000Y-113475000D01*
X134800000Y-111060000D02*
X134800000Y-105030000D01*
%TO.N,+3.3VA*%
X130240000Y-69200000D02*
X125540000Y-73900000D01*
X116700000Y-109300000D02*
X59477401Y-109300000D01*
X118800000Y-76200000D02*
X118800000Y-76600000D01*
X121100000Y-73900000D02*
X118800000Y-76200000D01*
X125540000Y-73900000D02*
X121100000Y-73900000D01*
X119400000Y-106600000D02*
X116700000Y-109300000D01*
X118800000Y-76600000D02*
X118890000Y-76690000D01*
X119400000Y-98200000D02*
X119400000Y-106600000D01*
X118890000Y-76690000D02*
X118890000Y-97690000D01*
X118890000Y-97690000D02*
X119400000Y-98200000D01*
X59477401Y-109300000D02*
X58576901Y-108399500D01*
%TO.N,+3.3V*%
X110100000Y-73400000D02*
X110100000Y-85000000D01*
X125000000Y-71900000D02*
X111600000Y-71900000D01*
X111600000Y-71900000D02*
X110100000Y-73400000D01*
X127700000Y-69200000D02*
X125000000Y-71900000D01*
X112300000Y-104800000D02*
X110700000Y-106400000D01*
X112300000Y-87200000D02*
X112300000Y-104800000D01*
X110100000Y-85000000D02*
X112300000Y-87200000D01*
%TD*%
%TA.AperFunction,Conductor*%
%TO.N,GND*%
G36*
X146403032Y-66600648D02*
G01*
X146552626Y-66607998D01*
X146753811Y-66618542D01*
X146765452Y-66619707D01*
X146934666Y-66644808D01*
X146935603Y-66644952D01*
X147115073Y-66673377D01*
X147125756Y-66675556D01*
X147295381Y-66718045D01*
X147297074Y-66718484D01*
X147468881Y-66764519D01*
X147478541Y-66767537D01*
X147644600Y-66826954D01*
X147647196Y-66827916D01*
X147811582Y-66891018D01*
X147820153Y-66894684D01*
X147980321Y-66970437D01*
X147983592Y-66972043D01*
X148138535Y-67050991D01*
X148139723Y-67051596D01*
X148147174Y-67055721D01*
X148276466Y-67133216D01*
X148299533Y-67147042D01*
X148303317Y-67149404D01*
X148449875Y-67244580D01*
X148456177Y-67248955D01*
X148599101Y-67354955D01*
X148603269Y-67358187D01*
X148738880Y-67468002D01*
X148744083Y-67472459D01*
X148876039Y-67592057D01*
X148880425Y-67596234D01*
X149003764Y-67719573D01*
X149007943Y-67723962D01*
X149127534Y-67855909D01*
X149131996Y-67861118D01*
X149241811Y-67996729D01*
X149245043Y-68000897D01*
X149351032Y-68143806D01*
X149355429Y-68150138D01*
X149450593Y-68296679D01*
X149452956Y-68300465D01*
X149544275Y-68452821D01*
X149548402Y-68460275D01*
X149627951Y-68616398D01*
X149629561Y-68619677D01*
X149705314Y-68779845D01*
X149708983Y-68788423D01*
X149772064Y-68952755D01*
X149773051Y-68955418D01*
X149832458Y-69121448D01*
X149835482Y-69131129D01*
X149881483Y-69302805D01*
X149881992Y-69304769D01*
X149924436Y-69474215D01*
X149926625Y-69484947D01*
X149955024Y-69664252D01*
X149955209Y-69665455D01*
X149980287Y-69834514D01*
X149981459Y-69846220D01*
X149991987Y-70047127D01*
X149991884Y-70047132D01*
X149992009Y-70047531D01*
X149999351Y-70196967D01*
X149999500Y-70203052D01*
X149999500Y-78008328D01*
X149986657Y-78063283D01*
X149950789Y-78106855D01*
X149899326Y-78130018D01*
X149842927Y-78127973D01*
X149793275Y-78101145D01*
X149783326Y-78092331D01*
X149783161Y-78092185D01*
X149777707Y-78087051D01*
X142986819Y-71296162D01*
X142959939Y-71255934D01*
X142950500Y-71208481D01*
X142950500Y-70267764D01*
X144545787Y-70267764D01*
X144575413Y-70537016D01*
X144643928Y-70799087D01*
X144749871Y-71048392D01*
X144890982Y-71279611D01*
X145064253Y-71487818D01*
X145064255Y-71487820D01*
X145265998Y-71668582D01*
X145491910Y-71818044D01*
X145598211Y-71867875D01*
X145737177Y-71933021D01*
X145996562Y-72011058D01*
X145996569Y-72011060D01*
X146264561Y-72050500D01*
X146467631Y-72050500D01*
X146467634Y-72050500D01*
X146670156Y-72035677D01*
X146670156Y-72035676D01*
X146934553Y-71976780D01*
X147187558Y-71880014D01*
X147423777Y-71747441D01*
X147638177Y-71581888D01*
X147826186Y-71386881D01*
X147983799Y-71166579D01*
X148107656Y-70925675D01*
X148195118Y-70669305D01*
X148244319Y-70402933D01*
X148254212Y-70132235D01*
X148224586Y-69862982D01*
X148156072Y-69600912D01*
X148050130Y-69351610D01*
X147977999Y-69233420D01*
X147909017Y-69120388D01*
X147735746Y-68912181D01*
X147630758Y-68818112D01*
X147534002Y-68731418D01*
X147308090Y-68581956D01*
X147293083Y-68574921D01*
X147062822Y-68466978D01*
X146803437Y-68388941D01*
X146803431Y-68388940D01*
X146535439Y-68349500D01*
X146332369Y-68349500D01*
X146332366Y-68349500D01*
X146129843Y-68364322D01*
X145865449Y-68423219D01*
X145612441Y-68519986D01*
X145376223Y-68652559D01*
X145161825Y-68818109D01*
X144973813Y-69013120D01*
X144816201Y-69233420D01*
X144692342Y-69474329D01*
X144604881Y-69730695D01*
X144555680Y-69997066D01*
X144545787Y-70267764D01*
X142950500Y-70267764D01*
X142950500Y-68574921D01*
X142950726Y-68567434D01*
X142951458Y-68555337D01*
X142954358Y-68507394D01*
X142943507Y-68448185D01*
X142942390Y-68440841D01*
X142935140Y-68381128D01*
X142931547Y-68371656D01*
X142925522Y-68350044D01*
X142923695Y-68340069D01*
X142899009Y-68285220D01*
X142896152Y-68278326D01*
X142874818Y-68222070D01*
X142869053Y-68213719D01*
X142858036Y-68194183D01*
X142853878Y-68184944D01*
X142816788Y-68137603D01*
X142812352Y-68131574D01*
X142796018Y-68107910D01*
X142778183Y-68082071D01*
X142733145Y-68042171D01*
X142727707Y-68037051D01*
X141912940Y-67222283D01*
X141907822Y-67216847D01*
X141867929Y-67171817D01*
X141818432Y-67137651D01*
X141812405Y-67133216D01*
X141765054Y-67096120D01*
X141755813Y-67091961D01*
X141736273Y-67080941D01*
X141727930Y-67075182D01*
X141727927Y-67075181D01*
X141727926Y-67075180D01*
X141671701Y-67053856D01*
X141664783Y-67050991D01*
X141609929Y-67026303D01*
X141599952Y-67024475D01*
X141578339Y-67018450D01*
X141568873Y-67014860D01*
X141509172Y-67007610D01*
X141501771Y-67006483D01*
X141442607Y-66995641D01*
X141382566Y-66999274D01*
X141375079Y-66999500D01*
X134304910Y-66999500D01*
X134297423Y-66999274D01*
X134237391Y-66995642D01*
X134178242Y-67006481D01*
X134170843Y-67007608D01*
X134111122Y-67014860D01*
X134101641Y-67018456D01*
X134080036Y-67024479D01*
X134070069Y-67026305D01*
X134015234Y-67050984D01*
X134008318Y-67053848D01*
X133952069Y-67075181D01*
X133943725Y-67080941D01*
X133924183Y-67091963D01*
X133914944Y-67096121D01*
X133867594Y-67133216D01*
X133861566Y-67137652D01*
X133812067Y-67171819D01*
X133772183Y-67216838D01*
X133767051Y-67222290D01*
X133151994Y-67837347D01*
X133096408Y-67869440D01*
X133032222Y-67869441D01*
X133015410Y-67864936D01*
X132779999Y-67844340D01*
X132544592Y-67864936D01*
X132316336Y-67926097D01*
X132102170Y-68025965D01*
X131908598Y-68161505D01*
X131741505Y-68328598D01*
X131611575Y-68514159D01*
X131567257Y-68553025D01*
X131510000Y-68567036D01*
X131452743Y-68553025D01*
X131408425Y-68514159D01*
X131370695Y-68460275D01*
X131278495Y-68328599D01*
X131111401Y-68161505D01*
X130917830Y-68025965D01*
X130703663Y-67926097D01*
X130631074Y-67906647D01*
X130475407Y-67864936D01*
X130240000Y-67844340D01*
X130004592Y-67864936D01*
X129776336Y-67926097D01*
X129562170Y-68025965D01*
X129368601Y-68161503D01*
X129246673Y-68283431D01*
X129193926Y-68314726D01*
X129132634Y-68316915D01*
X129077789Y-68289462D01*
X129042810Y-68239082D01*
X129026061Y-68194176D01*
X128993796Y-68107669D01*
X128907546Y-67992454D01*
X128792331Y-67906204D01*
X128657483Y-67855909D01*
X128597873Y-67849500D01*
X128597869Y-67849500D01*
X126802130Y-67849500D01*
X126742515Y-67855909D01*
X126607669Y-67906204D01*
X126492454Y-67992454D01*
X126406204Y-68107668D01*
X126356852Y-68239987D01*
X126355909Y-68242517D01*
X126350081Y-68296731D01*
X126349500Y-68302131D01*
X126349500Y-69508480D01*
X126340061Y-69555933D01*
X126313181Y-69596161D01*
X124746162Y-71163181D01*
X124705934Y-71190061D01*
X124658481Y-71199500D01*
X111624910Y-71199500D01*
X111617423Y-71199274D01*
X111557391Y-71195642D01*
X111498242Y-71206481D01*
X111490843Y-71207608D01*
X111431122Y-71214860D01*
X111421641Y-71218456D01*
X111400036Y-71224479D01*
X111390069Y-71226305D01*
X111335234Y-71250984D01*
X111328318Y-71253848D01*
X111272069Y-71275181D01*
X111263725Y-71280941D01*
X111244183Y-71291963D01*
X111234944Y-71296121D01*
X111187594Y-71333216D01*
X111181566Y-71337652D01*
X111132067Y-71371819D01*
X111092183Y-71416838D01*
X111087051Y-71422290D01*
X109622290Y-72887051D01*
X109616838Y-72892183D01*
X109571816Y-72932070D01*
X109537649Y-72981568D01*
X109533213Y-72987597D01*
X109496121Y-73034942D01*
X109491961Y-73044186D01*
X109480941Y-73063725D01*
X109475182Y-73072069D01*
X109453853Y-73128305D01*
X109450989Y-73135219D01*
X109426303Y-73190070D01*
X109424475Y-73200047D01*
X109418454Y-73221648D01*
X109414859Y-73231128D01*
X109407609Y-73290827D01*
X109406483Y-73298226D01*
X109395641Y-73357391D01*
X109399274Y-73417434D01*
X109399500Y-73424921D01*
X109399500Y-84975079D01*
X109399274Y-84982566D01*
X109395641Y-85042607D01*
X109406483Y-85101771D01*
X109407610Y-85109172D01*
X109414860Y-85168873D01*
X109418450Y-85178339D01*
X109424475Y-85199952D01*
X109426303Y-85209929D01*
X109450991Y-85264783D01*
X109453856Y-85271701D01*
X109475180Y-85327926D01*
X109475182Y-85327930D01*
X109480941Y-85336273D01*
X109491961Y-85355813D01*
X109496120Y-85365054D01*
X109533216Y-85412405D01*
X109537651Y-85418432D01*
X109571817Y-85467929D01*
X109616847Y-85507822D01*
X109622283Y-85512940D01*
X111563181Y-87453838D01*
X111590061Y-87494066D01*
X111599500Y-87541519D01*
X111599500Y-94793090D01*
X111583953Y-94853206D01*
X111541211Y-94898247D01*
X111481991Y-94916920D01*
X111421144Y-94904541D01*
X111381636Y-94870799D01*
X111381166Y-94871270D01*
X111375194Y-94865298D01*
X111373927Y-94864216D01*
X111373494Y-94863598D01*
X111206404Y-94696508D01*
X111206403Y-94696507D01*
X111206401Y-94696505D01*
X111012830Y-94560965D01*
X110798663Y-94461097D01*
X110737502Y-94444709D01*
X110570407Y-94399936D01*
X110335000Y-94379340D01*
X110099592Y-94399936D01*
X109871336Y-94461097D01*
X109657170Y-94560965D01*
X109463598Y-94696505D01*
X109296505Y-94863598D01*
X109166575Y-95049159D01*
X109122257Y-95088025D01*
X109065000Y-95102036D01*
X109007743Y-95088025D01*
X108963425Y-95049159D01*
X108874507Y-94922171D01*
X108833495Y-94863599D01*
X108666401Y-94696505D01*
X108472830Y-94560965D01*
X108258663Y-94461097D01*
X108197502Y-94444709D01*
X108030407Y-94399936D01*
X107795000Y-94379340D01*
X107559592Y-94399936D01*
X107331336Y-94461097D01*
X107117170Y-94560965D01*
X106923601Y-94696503D01*
X106801673Y-94818431D01*
X106748926Y-94849726D01*
X106687634Y-94851915D01*
X106632789Y-94824462D01*
X106597810Y-94774082D01*
X106570973Y-94702130D01*
X106548796Y-94642669D01*
X106462546Y-94527454D01*
X106347331Y-94441204D01*
X106212483Y-94390909D01*
X106152873Y-94384500D01*
X106152869Y-94384500D01*
X104357130Y-94384500D01*
X104297515Y-94390909D01*
X104162669Y-94441204D01*
X104047454Y-94527454D01*
X103961204Y-94642668D01*
X103923963Y-94742516D01*
X103910909Y-94777517D01*
X103906909Y-94814726D01*
X103904500Y-94837130D01*
X103904500Y-96632869D01*
X103910909Y-96692484D01*
X103914601Y-96702382D01*
X103961204Y-96827331D01*
X104047454Y-96942546D01*
X104162669Y-97028796D01*
X104297517Y-97079091D01*
X104357127Y-97085500D01*
X106152872Y-97085499D01*
X106212483Y-97079091D01*
X106347331Y-97028796D01*
X106462546Y-96942546D01*
X106548796Y-96827331D01*
X106597810Y-96695916D01*
X106632789Y-96645537D01*
X106687634Y-96618084D01*
X106748927Y-96620273D01*
X106801672Y-96651568D01*
X106923599Y-96773495D01*
X107117170Y-96909035D01*
X107331337Y-97008903D01*
X107559592Y-97070063D01*
X107795000Y-97090659D01*
X108030408Y-97070063D01*
X108258663Y-97008903D01*
X108472830Y-96909035D01*
X108666401Y-96773495D01*
X108833495Y-96606401D01*
X108963426Y-96420839D01*
X109007743Y-96381975D01*
X109065000Y-96367964D01*
X109122257Y-96381975D01*
X109166573Y-96420839D01*
X109296505Y-96606401D01*
X109463599Y-96773495D01*
X109657170Y-96909035D01*
X109871337Y-97008903D01*
X110099592Y-97070063D01*
X110335000Y-97090659D01*
X110570408Y-97070063D01*
X110798663Y-97008903D01*
X111012830Y-96909035D01*
X111206401Y-96773495D01*
X111373495Y-96606401D01*
X111373927Y-96605783D01*
X111375194Y-96604701D01*
X111381166Y-96598730D01*
X111381636Y-96599200D01*
X111421144Y-96565459D01*
X111481991Y-96553080D01*
X111541211Y-96571753D01*
X111583953Y-96616794D01*
X111599500Y-96676910D01*
X111599500Y-104458481D01*
X111590061Y-104505934D01*
X111563181Y-104546162D01*
X110846161Y-105263181D01*
X110805933Y-105290061D01*
X110758480Y-105299500D01*
X110598024Y-105299500D01*
X110526121Y-105312941D01*
X110397542Y-105336976D01*
X110207361Y-105410652D01*
X110033958Y-105518018D01*
X109883236Y-105655419D01*
X109760324Y-105818181D01*
X109669418Y-106000748D01*
X109613602Y-106196916D01*
X109594785Y-106400000D01*
X109613602Y-106603083D01*
X109669418Y-106799251D01*
X109760324Y-106981818D01*
X109883236Y-107144580D01*
X110033958Y-107281981D01*
X110207361Y-107389347D01*
X110207363Y-107389348D01*
X110397544Y-107463024D01*
X110598024Y-107500500D01*
X110801974Y-107500500D01*
X110801976Y-107500500D01*
X111002456Y-107463024D01*
X111192637Y-107389348D01*
X111366041Y-107281981D01*
X111516764Y-107144579D01*
X111639673Y-106981821D01*
X111639673Y-106981819D01*
X111639675Y-106981818D01*
X111685719Y-106889347D01*
X111730582Y-106799250D01*
X111786397Y-106603083D01*
X111805215Y-106400000D01*
X111800870Y-106353114D01*
X111807710Y-106299565D01*
X111836658Y-106253997D01*
X112777731Y-105312924D01*
X112783150Y-105307823D01*
X112828183Y-105267929D01*
X112862377Y-105218389D01*
X112866770Y-105212419D01*
X112903878Y-105165056D01*
X112908035Y-105155818D01*
X112919061Y-105136268D01*
X112924818Y-105127930D01*
X112946152Y-105071674D01*
X112948994Y-105064811D01*
X112973695Y-105009931D01*
X112975522Y-104999956D01*
X112981549Y-104978339D01*
X112985140Y-104968872D01*
X112992387Y-104909179D01*
X112993514Y-104901777D01*
X113004358Y-104842606D01*
X113000726Y-104782566D01*
X113000500Y-104775079D01*
X113000500Y-87224921D01*
X113000726Y-87217434D01*
X113000927Y-87214102D01*
X113004358Y-87157394D01*
X112993507Y-87098185D01*
X112992390Y-87090841D01*
X112985140Y-87031128D01*
X112981547Y-87021656D01*
X112975522Y-87000044D01*
X112973695Y-86990069D01*
X112949009Y-86935220D01*
X112946152Y-86928326D01*
X112924818Y-86872070D01*
X112924816Y-86872068D01*
X112924816Y-86872066D01*
X112919062Y-86863731D01*
X112908033Y-86844177D01*
X112903878Y-86834944D01*
X112866780Y-86787591D01*
X112862352Y-86781573D01*
X112828184Y-86732072D01*
X112828183Y-86732071D01*
X112783153Y-86692178D01*
X112777715Y-86687058D01*
X110836819Y-84746162D01*
X110809939Y-84705934D01*
X110800500Y-84658481D01*
X110800500Y-83597869D01*
X111649500Y-83597869D01*
X111655909Y-83657484D01*
X111681056Y-83724907D01*
X111706204Y-83792331D01*
X111792454Y-83907546D01*
X111907669Y-83993796D01*
X112042517Y-84044091D01*
X112102127Y-84050500D01*
X113897872Y-84050499D01*
X113957483Y-84044091D01*
X114092331Y-83993796D01*
X114207546Y-83907546D01*
X114293796Y-83792331D01*
X114342810Y-83660916D01*
X114377789Y-83610537D01*
X114432634Y-83583084D01*
X114493927Y-83585273D01*
X114546673Y-83616569D01*
X114668599Y-83738495D01*
X114862170Y-83874035D01*
X115076337Y-83973903D01*
X115304591Y-84035062D01*
X115304592Y-84035063D01*
X115539999Y-84055659D01*
X115539999Y-84055658D01*
X115540000Y-84055659D01*
X115775408Y-84035063D01*
X116003663Y-83973903D01*
X116217830Y-83874035D01*
X116411401Y-83738495D01*
X116578495Y-83571401D01*
X116714035Y-83377830D01*
X116813903Y-83163663D01*
X116875063Y-82935408D01*
X116895659Y-82700000D01*
X116875063Y-82464592D01*
X116813903Y-82236337D01*
X116714035Y-82022171D01*
X116578495Y-81828599D01*
X116411401Y-81661505D01*
X116217830Y-81525965D01*
X116003663Y-81426097D01*
X115942501Y-81409709D01*
X115775407Y-81364936D01*
X115539999Y-81344340D01*
X115304592Y-81364936D01*
X115076336Y-81426097D01*
X114862170Y-81525965D01*
X114668601Y-81661503D01*
X114546673Y-81783431D01*
X114493926Y-81814726D01*
X114432634Y-81816915D01*
X114377789Y-81789462D01*
X114342810Y-81739082D01*
X114335658Y-81719907D01*
X114293796Y-81607669D01*
X114207546Y-81492454D01*
X114092331Y-81406204D01*
X113957483Y-81355909D01*
X113897873Y-81349500D01*
X113897869Y-81349500D01*
X112102130Y-81349500D01*
X112042515Y-81355909D01*
X111907669Y-81406204D01*
X111792454Y-81492454D01*
X111706204Y-81607668D01*
X111655909Y-81742516D01*
X111649500Y-81802130D01*
X111649500Y-83597869D01*
X110800500Y-83597869D01*
X110800500Y-76332418D01*
X110814624Y-76274943D01*
X110853780Y-76230562D01*
X110909046Y-76209385D01*
X110967833Y-76216236D01*
X111042514Y-76244090D01*
X111042517Y-76244091D01*
X111102127Y-76250500D01*
X112897872Y-76250499D01*
X112957483Y-76244091D01*
X113092331Y-76193796D01*
X113207546Y-76107546D01*
X113293796Y-75992331D01*
X113342810Y-75860916D01*
X113377789Y-75810537D01*
X113432634Y-75783084D01*
X113493927Y-75785273D01*
X113546673Y-75816569D01*
X113668599Y-75938495D01*
X113862170Y-76074035D01*
X114076337Y-76173903D01*
X114304592Y-76235063D01*
X114540000Y-76255659D01*
X114775408Y-76235063D01*
X115003663Y-76173903D01*
X115217830Y-76074035D01*
X115411401Y-75938495D01*
X115578495Y-75771401D01*
X115708426Y-75585839D01*
X115752743Y-75546975D01*
X115810000Y-75532964D01*
X115867257Y-75546975D01*
X115911573Y-75585839D01*
X116041505Y-75771401D01*
X116208599Y-75938495D01*
X116402170Y-76074035D01*
X116616337Y-76173903D01*
X116844592Y-76235063D01*
X117080000Y-76255659D01*
X117315408Y-76235063D01*
X117543663Y-76173903D01*
X117757830Y-76074035D01*
X117914614Y-75964253D01*
X117967158Y-75943228D01*
X118023576Y-75947744D01*
X118072110Y-75976862D01*
X118102649Y-76024515D01*
X118108830Y-76080775D01*
X118107610Y-76090823D01*
X118106483Y-76098226D01*
X118095641Y-76157391D01*
X118099274Y-76217434D01*
X118099500Y-76224921D01*
X118099500Y-76575079D01*
X118099274Y-76582566D01*
X118095641Y-76642607D01*
X118106483Y-76701771D01*
X118107610Y-76709172D01*
X118114860Y-76768873D01*
X118118450Y-76778339D01*
X118124475Y-76799952D01*
X118126303Y-76809929D01*
X118150991Y-76864783D01*
X118153856Y-76871701D01*
X118180521Y-76942007D01*
X118179901Y-76942241D01*
X118183886Y-76950426D01*
X118189500Y-76987313D01*
X118189500Y-94287497D01*
X118176712Y-94342341D01*
X118140986Y-94385873D01*
X118089691Y-94409114D01*
X118033407Y-94407272D01*
X117875407Y-94364936D01*
X117640000Y-94344340D01*
X117404592Y-94364936D01*
X117176336Y-94426097D01*
X116962170Y-94525965D01*
X116768601Y-94661503D01*
X116646673Y-94783431D01*
X116593926Y-94814726D01*
X116532634Y-94816915D01*
X116477789Y-94789462D01*
X116442810Y-94739082D01*
X116432697Y-94711969D01*
X116393796Y-94607669D01*
X116307546Y-94492454D01*
X116192331Y-94406204D01*
X116057483Y-94355909D01*
X115997873Y-94349500D01*
X115997869Y-94349500D01*
X114202130Y-94349500D01*
X114142515Y-94355909D01*
X114007669Y-94406204D01*
X113892454Y-94492454D01*
X113806204Y-94607668D01*
X113755909Y-94742516D01*
X113749500Y-94802130D01*
X113749500Y-96597869D01*
X113755909Y-96657484D01*
X113770244Y-96695917D01*
X113806204Y-96792331D01*
X113892454Y-96907546D01*
X114007669Y-96993796D01*
X114142517Y-97044091D01*
X114202127Y-97050500D01*
X115997872Y-97050499D01*
X116057483Y-97044091D01*
X116192331Y-96993796D01*
X116307546Y-96907546D01*
X116393796Y-96792331D01*
X116442810Y-96660916D01*
X116477789Y-96610537D01*
X116532634Y-96583084D01*
X116593927Y-96585273D01*
X116646672Y-96616568D01*
X116768599Y-96738495D01*
X116962170Y-96874035D01*
X117176337Y-96973903D01*
X117404592Y-97035063D01*
X117640000Y-97055659D01*
X117875408Y-97035063D01*
X117973043Y-97008902D01*
X118033407Y-96992728D01*
X118089691Y-96990886D01*
X118140986Y-97014127D01*
X118176712Y-97057659D01*
X118189500Y-97112503D01*
X118189500Y-97665079D01*
X118189274Y-97672566D01*
X118185641Y-97732607D01*
X118196483Y-97791771D01*
X118197610Y-97799172D01*
X118204860Y-97858873D01*
X118208450Y-97868339D01*
X118214475Y-97889952D01*
X118216303Y-97899929D01*
X118240991Y-97954783D01*
X118243856Y-97961701D01*
X118265180Y-98017926D01*
X118265182Y-98017930D01*
X118270941Y-98026273D01*
X118281962Y-98045814D01*
X118291032Y-98065966D01*
X118301428Y-98128298D01*
X118294784Y-98199999D01*
X118313602Y-98403083D01*
X118369418Y-98599251D01*
X118460324Y-98781818D01*
X118583236Y-98944580D01*
X118659038Y-99013682D01*
X118688934Y-99055233D01*
X118699500Y-99105319D01*
X118699500Y-105694681D01*
X118688934Y-105744767D01*
X118659038Y-105786318D01*
X118583236Y-105855419D01*
X118460324Y-106018181D01*
X118369418Y-106200748D01*
X118313602Y-106396916D01*
X118294785Y-106599999D01*
X118299128Y-106646884D01*
X118292287Y-106700435D01*
X118263338Y-106746003D01*
X116446162Y-108563181D01*
X116405934Y-108590061D01*
X116358481Y-108599500D01*
X71289045Y-108599500D01*
X71227708Y-108583267D01*
X71182430Y-108538818D01*
X71165066Y-108477791D01*
X71180163Y-108416165D01*
X71223767Y-108370073D01*
X71366041Y-108281981D01*
X71516764Y-108144579D01*
X71639673Y-107981821D01*
X71639673Y-107981819D01*
X71639675Y-107981818D01*
X71686390Y-107888000D01*
X71730582Y-107799250D01*
X71786397Y-107603083D01*
X71805215Y-107400000D01*
X71786397Y-107196917D01*
X71730582Y-107000750D01*
X71711797Y-106963024D01*
X71639675Y-106818181D01*
X71516763Y-106655419D01*
X71366041Y-106518018D01*
X71192638Y-106410652D01*
X71002457Y-106336976D01*
X70935629Y-106324484D01*
X70801976Y-106299500D01*
X70598024Y-106299500D01*
X70497784Y-106318237D01*
X70397542Y-106336976D01*
X70207361Y-106410652D01*
X70033958Y-106518018D01*
X69883236Y-106655419D01*
X69760324Y-106818181D01*
X69669418Y-107000748D01*
X69613602Y-107196916D01*
X69594785Y-107400000D01*
X69613602Y-107603083D01*
X69669418Y-107799251D01*
X69760324Y-107981818D01*
X69883236Y-108144580D01*
X70033956Y-108281979D01*
X70033958Y-108281980D01*
X70033959Y-108281981D01*
X70075422Y-108307654D01*
X70176233Y-108370073D01*
X70219837Y-108416165D01*
X70234934Y-108477791D01*
X70217570Y-108538818D01*
X70172292Y-108583267D01*
X70110955Y-108599500D01*
X59818920Y-108599500D01*
X59771467Y-108590061D01*
X59731239Y-108563181D01*
X59713561Y-108545503D01*
X59684611Y-108499933D01*
X59677771Y-108446383D01*
X59682116Y-108399500D01*
X59663298Y-108196417D01*
X59658123Y-108178230D01*
X59641101Y-108118404D01*
X59607483Y-108000250D01*
X59568365Y-107921690D01*
X59516576Y-107817681D01*
X59393664Y-107654919D01*
X59242942Y-107517518D01*
X59069539Y-107410152D01*
X58879358Y-107336476D01*
X58812530Y-107323983D01*
X58678877Y-107299000D01*
X58474925Y-107299000D01*
X58374684Y-107317738D01*
X58274443Y-107336476D01*
X58084262Y-107410152D01*
X57910859Y-107517518D01*
X57760137Y-107654919D01*
X57637225Y-107817681D01*
X57546319Y-108000248D01*
X57490503Y-108196416D01*
X57471686Y-108399500D01*
X57490503Y-108602583D01*
X57546319Y-108798751D01*
X57637225Y-108981318D01*
X57760137Y-109144080D01*
X57910859Y-109281481D01*
X58084262Y-109388847D01*
X58084264Y-109388848D01*
X58274445Y-109462524D01*
X58474925Y-109500000D01*
X58474927Y-109500000D01*
X58635382Y-109500000D01*
X58682835Y-109509439D01*
X58723063Y-109536319D01*
X58964459Y-109777715D01*
X58969579Y-109783153D01*
X59009472Y-109828183D01*
X59009473Y-109828184D01*
X59058970Y-109862349D01*
X59065003Y-109866788D01*
X59112344Y-109903877D01*
X59121575Y-109908031D01*
X59141127Y-109919058D01*
X59149471Y-109924818D01*
X59205723Y-109946151D01*
X59212629Y-109949012D01*
X59267469Y-109973694D01*
X59277431Y-109975519D01*
X59299051Y-109981546D01*
X59308526Y-109985139D01*
X59308529Y-109985140D01*
X59368257Y-109992392D01*
X59375602Y-109993509D01*
X59434795Y-110004357D01*
X59494823Y-110000726D01*
X59502311Y-110000500D01*
X83875685Y-110000500D01*
X83940963Y-110019073D01*
X83986685Y-110069229D01*
X83999156Y-110135942D01*
X83974639Y-110199226D01*
X83974433Y-110199500D01*
X83960324Y-110218181D01*
X83869418Y-110400748D01*
X83813602Y-110596916D01*
X83794785Y-110800000D01*
X83813602Y-111003083D01*
X83869418Y-111199251D01*
X83960324Y-111381818D01*
X84083236Y-111544580D01*
X84233958Y-111681981D01*
X84405184Y-111787999D01*
X84407363Y-111789348D01*
X84597544Y-111863024D01*
X84798024Y-111900500D01*
X84798026Y-111900500D01*
X84958481Y-111900500D01*
X85005934Y-111909939D01*
X85046162Y-111936819D01*
X85363181Y-112253838D01*
X85390061Y-112294066D01*
X85399500Y-112341519D01*
X85399500Y-118193765D01*
X85383953Y-118253881D01*
X85341210Y-118298923D01*
X85281990Y-118317595D01*
X85221142Y-118305215D01*
X85173925Y-118264888D01*
X85128840Y-118200500D01*
X85078495Y-118128599D01*
X84911401Y-117961505D01*
X84717830Y-117825965D01*
X84503663Y-117726097D01*
X84442501Y-117709709D01*
X84275407Y-117664936D01*
X84040000Y-117644340D01*
X83804592Y-117664936D01*
X83576336Y-117726097D01*
X83362170Y-117825965D01*
X83168601Y-117961503D01*
X83046673Y-118083431D01*
X82993926Y-118114726D01*
X82932634Y-118116915D01*
X82877789Y-118089462D01*
X82842810Y-118039082D01*
X82835658Y-118019907D01*
X82793796Y-117907669D01*
X82707546Y-117792454D01*
X82592331Y-117706204D01*
X82457483Y-117655909D01*
X82397873Y-117649500D01*
X82397869Y-117649500D01*
X80602130Y-117649500D01*
X80542515Y-117655909D01*
X80407669Y-117706204D01*
X80292454Y-117792454D01*
X80206204Y-117907668D01*
X80206203Y-117907669D01*
X80206204Y-117907669D01*
X80155909Y-118042517D01*
X80153371Y-118066128D01*
X80149500Y-118102130D01*
X80149500Y-119897869D01*
X80155909Y-119957484D01*
X80181056Y-120024907D01*
X80206204Y-120092331D01*
X80292454Y-120207546D01*
X80407669Y-120293796D01*
X80542517Y-120344091D01*
X80602127Y-120350500D01*
X82397872Y-120350499D01*
X82457483Y-120344091D01*
X82592331Y-120293796D01*
X82707546Y-120207546D01*
X82793796Y-120092331D01*
X82842810Y-119960916D01*
X82877789Y-119910537D01*
X82932634Y-119883084D01*
X82993927Y-119885273D01*
X83046672Y-119916568D01*
X83168599Y-120038495D01*
X83362170Y-120174035D01*
X83576337Y-120273903D01*
X83804592Y-120335063D01*
X84040000Y-120355659D01*
X84275408Y-120335063D01*
X84503663Y-120273903D01*
X84717830Y-120174035D01*
X84911401Y-120038495D01*
X85078495Y-119871401D01*
X85173926Y-119735110D01*
X85221142Y-119694785D01*
X85281990Y-119682406D01*
X85341210Y-119701078D01*
X85383953Y-119746120D01*
X85399500Y-119806236D01*
X85399500Y-124888481D01*
X85390061Y-124935934D01*
X85363181Y-124976162D01*
X84176160Y-126163181D01*
X84135932Y-126190061D01*
X84088479Y-126199500D01*
X82632130Y-126199500D01*
X82572515Y-126205909D01*
X82437669Y-126256204D01*
X82322454Y-126342454D01*
X82236204Y-126457668D01*
X82185909Y-126592516D01*
X82179500Y-126652130D01*
X82179500Y-128447869D01*
X82185909Y-128507484D01*
X82204517Y-128557375D01*
X82236204Y-128642331D01*
X82322454Y-128757546D01*
X82437669Y-128843796D01*
X82572517Y-128894091D01*
X82632127Y-128900500D01*
X84427872Y-128900499D01*
X84487483Y-128894091D01*
X84622331Y-128843796D01*
X84737546Y-128757546D01*
X84823796Y-128642331D01*
X84872810Y-128510916D01*
X84907789Y-128460537D01*
X84962634Y-128433084D01*
X85023927Y-128435273D01*
X85076673Y-128466569D01*
X85198599Y-128588495D01*
X85392170Y-128724035D01*
X85606337Y-128823903D01*
X85834592Y-128885063D01*
X86070000Y-128905659D01*
X86305408Y-128885063D01*
X86533663Y-128823903D01*
X86747830Y-128724035D01*
X86941401Y-128588495D01*
X87108495Y-128421401D01*
X87238426Y-128235839D01*
X87282743Y-128196975D01*
X87340000Y-128182964D01*
X87397257Y-128196975D01*
X87441573Y-128235839D01*
X87571505Y-128421401D01*
X87738599Y-128588495D01*
X87932170Y-128724035D01*
X88146337Y-128823903D01*
X88374592Y-128885063D01*
X88610000Y-128905659D01*
X88845408Y-128885063D01*
X89073663Y-128823903D01*
X89287830Y-128724035D01*
X89481401Y-128588495D01*
X89622027Y-128447869D01*
X96049500Y-128447869D01*
X96055909Y-128507484D01*
X96074517Y-128557375D01*
X96106204Y-128642331D01*
X96192454Y-128757546D01*
X96307669Y-128843796D01*
X96442517Y-128894091D01*
X96502127Y-128900500D01*
X98297872Y-128900499D01*
X98357483Y-128894091D01*
X98492331Y-128843796D01*
X98607546Y-128757546D01*
X98693796Y-128642331D01*
X98744091Y-128507483D01*
X98750500Y-128447873D01*
X98750500Y-128447869D01*
X105514500Y-128447869D01*
X105520909Y-128507484D01*
X105539517Y-128557375D01*
X105571204Y-128642331D01*
X105657454Y-128757546D01*
X105772669Y-128843796D01*
X105907517Y-128894091D01*
X105967127Y-128900500D01*
X106973815Y-128900499D01*
X107021268Y-128909938D01*
X107061496Y-128936818D01*
X109602393Y-131477715D01*
X109607513Y-131483153D01*
X109647406Y-131528183D01*
X109647407Y-131528184D01*
X109696908Y-131562352D01*
X109702926Y-131566780D01*
X109750279Y-131603878D01*
X109759515Y-131608034D01*
X109779066Y-131619062D01*
X109787401Y-131624816D01*
X109787403Y-131624816D01*
X109787405Y-131624818D01*
X109843661Y-131646152D01*
X109850555Y-131649009D01*
X109905404Y-131673695D01*
X109915379Y-131675522D01*
X109936991Y-131681547D01*
X109946463Y-131685140D01*
X110006176Y-131692390D01*
X110013520Y-131693507D01*
X110072729Y-131704358D01*
X110129437Y-131700927D01*
X110132769Y-131700726D01*
X110140256Y-131700500D01*
X126575079Y-131700500D01*
X126582566Y-131700726D01*
X126585706Y-131700915D01*
X126642606Y-131704358D01*
X126701782Y-131693513D01*
X126709181Y-131692387D01*
X126768872Y-131685140D01*
X126778335Y-131681550D01*
X126799958Y-131675522D01*
X126809932Y-131673695D01*
X126864808Y-131648996D01*
X126871673Y-131646152D01*
X126927930Y-131624818D01*
X126936270Y-131619060D01*
X126955819Y-131608035D01*
X126965057Y-131603878D01*
X127012413Y-131566775D01*
X127018426Y-131562352D01*
X127067929Y-131528183D01*
X127107823Y-131483150D01*
X127112924Y-131477731D01*
X129653837Y-128936818D01*
X129694066Y-128909938D01*
X129741519Y-128900499D01*
X130997870Y-128900499D01*
X130997872Y-128900499D01*
X131057483Y-128894091D01*
X131192331Y-128843796D01*
X131307546Y-128757546D01*
X131393796Y-128642331D01*
X131442810Y-128510916D01*
X131477789Y-128460537D01*
X131532634Y-128433084D01*
X131593927Y-128435273D01*
X131646673Y-128466569D01*
X131768599Y-128588495D01*
X131962170Y-128724035D01*
X132176337Y-128823903D01*
X132404592Y-128885063D01*
X132640000Y-128905659D01*
X132875408Y-128885063D01*
X133103663Y-128823903D01*
X133317830Y-128724035D01*
X133511401Y-128588495D01*
X133678495Y-128421401D01*
X133808426Y-128235839D01*
X133852743Y-128196975D01*
X133910000Y-128182964D01*
X133967257Y-128196975D01*
X134011573Y-128235839D01*
X134141505Y-128421401D01*
X134308599Y-128588495D01*
X134502170Y-128724035D01*
X134716337Y-128823903D01*
X134944592Y-128885063D01*
X135180000Y-128905659D01*
X135415408Y-128885063D01*
X135643663Y-128823903D01*
X135857830Y-128724035D01*
X136051401Y-128588495D01*
X136192027Y-128447869D01*
X142849500Y-128447869D01*
X142855909Y-128507484D01*
X142874517Y-128557375D01*
X142906204Y-128642331D01*
X142992454Y-128757546D01*
X143107669Y-128843796D01*
X143242517Y-128894091D01*
X143302127Y-128900500D01*
X145097872Y-128900499D01*
X145157483Y-128894091D01*
X145292331Y-128843796D01*
X145407546Y-128757546D01*
X145493796Y-128642331D01*
X145544091Y-128507483D01*
X145550500Y-128447873D01*
X145550499Y-126652128D01*
X145544091Y-126592517D01*
X145493796Y-126457669D01*
X145407546Y-126342454D01*
X145292331Y-126256204D01*
X145157483Y-126205909D01*
X145097873Y-126199500D01*
X145097869Y-126199500D01*
X143302130Y-126199500D01*
X143242515Y-126205909D01*
X143107669Y-126256204D01*
X142992454Y-126342454D01*
X142906204Y-126457668D01*
X142855909Y-126592516D01*
X142849500Y-126652130D01*
X142849500Y-128447869D01*
X136192027Y-128447869D01*
X136218495Y-128421401D01*
X136354035Y-128227830D01*
X136453903Y-128013663D01*
X136515063Y-127785408D01*
X136535659Y-127550000D01*
X136522508Y-127399700D01*
X136529514Y-127346486D01*
X136558353Y-127301217D01*
X140922752Y-122936818D01*
X140962980Y-122909939D01*
X141010433Y-122900500D01*
X141202474Y-122900500D01*
X141202476Y-122900500D01*
X141402956Y-122863024D01*
X141593137Y-122789348D01*
X141766541Y-122681981D01*
X141917264Y-122544579D01*
X142040173Y-122381821D01*
X142040173Y-122381819D01*
X142040175Y-122381818D01*
X142085813Y-122290161D01*
X142131082Y-122199250D01*
X142186897Y-122003083D01*
X142205715Y-121800000D01*
X142186897Y-121596917D01*
X142131082Y-121400750D01*
X142130709Y-121400001D01*
X142040175Y-121218181D01*
X141917263Y-121055419D01*
X141766541Y-120918018D01*
X141593138Y-120810652D01*
X141402957Y-120736976D01*
X141336129Y-120724484D01*
X141202476Y-120699500D01*
X140998524Y-120699500D01*
X140898283Y-120718238D01*
X140798042Y-120736976D01*
X140607861Y-120810652D01*
X140434458Y-120918018D01*
X140283736Y-121055419D01*
X140160824Y-121218181D01*
X140069918Y-121400748D01*
X140014102Y-121596916D01*
X139995285Y-121800000D01*
X139996950Y-121817977D01*
X139990109Y-121871528D01*
X139961160Y-121917096D01*
X135661553Y-126216703D01*
X135605966Y-126248797D01*
X135541779Y-126248797D01*
X135415406Y-126214936D01*
X135180000Y-126194340D01*
X134944591Y-126214936D01*
X134818218Y-126248797D01*
X134754032Y-126248797D01*
X134698445Y-126216703D01*
X132904025Y-124422283D01*
X132898907Y-124416847D01*
X132859014Y-124371817D01*
X132809514Y-124337649D01*
X132803490Y-124333216D01*
X132756139Y-124296120D01*
X132746898Y-124291961D01*
X132727358Y-124280941D01*
X132719015Y-124275182D01*
X132719012Y-124275181D01*
X132719011Y-124275180D01*
X132662786Y-124253856D01*
X132655868Y-124250991D01*
X132601014Y-124226303D01*
X132591037Y-124224475D01*
X132569424Y-124218450D01*
X132559958Y-124214860D01*
X132500257Y-124207610D01*
X132492856Y-124206483D01*
X132433692Y-124195641D01*
X132373651Y-124199274D01*
X132366164Y-124199500D01*
X114819586Y-124199500D01*
X114812099Y-124199274D01*
X114752056Y-124195641D01*
X114692892Y-124206483D01*
X114685493Y-124207610D01*
X114625789Y-124214860D01*
X114616316Y-124218453D01*
X114594712Y-124224476D01*
X114584734Y-124226305D01*
X114529877Y-124250993D01*
X114522961Y-124253857D01*
X114466735Y-124275181D01*
X114458391Y-124280941D01*
X114438850Y-124291962D01*
X114429606Y-124296122D01*
X114382262Y-124333213D01*
X114376233Y-124337649D01*
X114326735Y-124371816D01*
X114286848Y-124416838D01*
X114281716Y-124422290D01*
X112474465Y-126229541D01*
X112418878Y-126261635D01*
X112354691Y-126261635D01*
X112180407Y-126214936D01*
X111945000Y-126194340D01*
X111709592Y-126214936D01*
X111481336Y-126276097D01*
X111267170Y-126375965D01*
X111073598Y-126511505D01*
X110906508Y-126678595D01*
X110776574Y-126864160D01*
X110732255Y-126903026D01*
X110674999Y-126917036D01*
X110617742Y-126903025D01*
X110573426Y-126864161D01*
X110443495Y-126678599D01*
X110276401Y-126511505D01*
X110082830Y-126375965D01*
X109868663Y-126276097D01*
X109807502Y-126259709D01*
X109640407Y-126214936D01*
X109405000Y-126194340D01*
X109169592Y-126214936D01*
X108941336Y-126276097D01*
X108727170Y-126375965D01*
X108533601Y-126511503D01*
X108411673Y-126633431D01*
X108358926Y-126664726D01*
X108297634Y-126666915D01*
X108242789Y-126639462D01*
X108207810Y-126589082D01*
X108200658Y-126569907D01*
X108158796Y-126457669D01*
X108072546Y-126342454D01*
X107957331Y-126256204D01*
X107822483Y-126205909D01*
X107762873Y-126199500D01*
X107762869Y-126199500D01*
X107689500Y-126199500D01*
X107627500Y-126182887D01*
X107582113Y-126137500D01*
X107565500Y-126075500D01*
X107565500Y-120757869D01*
X112349500Y-120757869D01*
X112355909Y-120817484D01*
X112381056Y-120884906D01*
X112406204Y-120952331D01*
X112492454Y-121067546D01*
X112607669Y-121153796D01*
X112742517Y-121204091D01*
X112802127Y-121210500D01*
X114597872Y-121210499D01*
X114657483Y-121204091D01*
X114792331Y-121153796D01*
X114907546Y-121067546D01*
X114993796Y-120952331D01*
X115042810Y-120820916D01*
X115077789Y-120770537D01*
X115132634Y-120743084D01*
X115193927Y-120745273D01*
X115246673Y-120776569D01*
X115368599Y-120898495D01*
X115562170Y-121034035D01*
X115776337Y-121133903D01*
X116004592Y-121195063D01*
X116240000Y-121215659D01*
X116475408Y-121195063D01*
X116703663Y-121133903D01*
X116917830Y-121034035D01*
X117111401Y-120898495D01*
X117278495Y-120731401D01*
X117414035Y-120537830D01*
X117513903Y-120323663D01*
X117575063Y-120095408D01*
X117595659Y-119860000D01*
X117584732Y-119735112D01*
X117575063Y-119624592D01*
X117560268Y-119569377D01*
X117513903Y-119396337D01*
X117468980Y-119300000D01*
X130492176Y-119300000D01*
X130511443Y-119569377D01*
X130568848Y-119833265D01*
X130568850Y-119833270D01*
X130663228Y-120086307D01*
X130668197Y-120095407D01*
X130792654Y-120323335D01*
X130808192Y-120344091D01*
X130954500Y-120539535D01*
X131145465Y-120730500D01*
X131261661Y-120817483D01*
X131361664Y-120892345D01*
X131408681Y-120918018D01*
X131598693Y-121021772D01*
X131851730Y-121116150D01*
X131851733Y-121116150D01*
X131851734Y-121116151D01*
X131889291Y-121124321D01*
X132115623Y-121173557D01*
X132385000Y-121192823D01*
X132654377Y-121173557D01*
X132918270Y-121116150D01*
X133171307Y-121021772D01*
X133408337Y-120892344D01*
X133624535Y-120730500D01*
X133815500Y-120539535D01*
X133977344Y-120323337D01*
X134106772Y-120086307D01*
X134201150Y-119833270D01*
X134258557Y-119569377D01*
X134277823Y-119300000D01*
X135322176Y-119300000D01*
X135341443Y-119569377D01*
X135398848Y-119833265D01*
X135398850Y-119833270D01*
X135493228Y-120086307D01*
X135498197Y-120095407D01*
X135622654Y-120323335D01*
X135638192Y-120344091D01*
X135784500Y-120539535D01*
X135975465Y-120730500D01*
X136091661Y-120817483D01*
X136191664Y-120892345D01*
X136238681Y-120918018D01*
X136428693Y-121021772D01*
X136681730Y-121116150D01*
X136681733Y-121116150D01*
X136681734Y-121116151D01*
X136719291Y-121124321D01*
X136945623Y-121173557D01*
X137215000Y-121192823D01*
X137484377Y-121173557D01*
X137748270Y-121116150D01*
X138001307Y-121021772D01*
X138238337Y-120892344D01*
X138454535Y-120730500D01*
X138645500Y-120539535D01*
X138807344Y-120323337D01*
X138936772Y-120086307D01*
X139031150Y-119833270D01*
X139088557Y-119569377D01*
X139107823Y-119300000D01*
X139088557Y-119030623D01*
X139031150Y-118766730D01*
X138936772Y-118513693D01*
X138807344Y-118276663D01*
X138798529Y-118264888D01*
X138699968Y-118133226D01*
X138645500Y-118060465D01*
X138454535Y-117869500D01*
X138264422Y-117727183D01*
X138238335Y-117707654D01*
X138068859Y-117615114D01*
X138001307Y-117578228D01*
X137748270Y-117483850D01*
X137748265Y-117483848D01*
X137484377Y-117426443D01*
X137215000Y-117407176D01*
X136945622Y-117426443D01*
X136681734Y-117483848D01*
X136555211Y-117531039D01*
X136428693Y-117578228D01*
X136428690Y-117578229D01*
X136428689Y-117578230D01*
X136191664Y-117707654D01*
X135975462Y-117869502D01*
X135784502Y-118060462D01*
X135622654Y-118276664D01*
X135495517Y-118509501D01*
X135493228Y-118513693D01*
X135469795Y-118576519D01*
X135398848Y-118766734D01*
X135341443Y-119030622D01*
X135322176Y-119300000D01*
X134277823Y-119300000D01*
X134258557Y-119030623D01*
X134201150Y-118766730D01*
X134106772Y-118513693D01*
X133977344Y-118276663D01*
X133968529Y-118264888D01*
X133869968Y-118133226D01*
X133815500Y-118060465D01*
X133624535Y-117869500D01*
X133434422Y-117727183D01*
X133408335Y-117707654D01*
X133238859Y-117615114D01*
X133171307Y-117578228D01*
X132918270Y-117483850D01*
X132918265Y-117483848D01*
X132654377Y-117426443D01*
X132385000Y-117407176D01*
X132115622Y-117426443D01*
X131851734Y-117483848D01*
X131725211Y-117531039D01*
X131598693Y-117578228D01*
X131598690Y-117578229D01*
X131598689Y-117578230D01*
X131361664Y-117707654D01*
X131145462Y-117869502D01*
X130954502Y-118060462D01*
X130792654Y-118276664D01*
X130665517Y-118509501D01*
X130663228Y-118513693D01*
X130639795Y-118576519D01*
X130568848Y-118766734D01*
X130511443Y-119030622D01*
X130492176Y-119300000D01*
X117468980Y-119300000D01*
X117414035Y-119182171D01*
X117278495Y-118988599D01*
X117111401Y-118821505D01*
X116917830Y-118685965D01*
X116703663Y-118586097D01*
X116642501Y-118569709D01*
X116475407Y-118524936D01*
X116240000Y-118504340D01*
X116004592Y-118524936D01*
X115776336Y-118586097D01*
X115562170Y-118685965D01*
X115368601Y-118821503D01*
X115246673Y-118943431D01*
X115193926Y-118974726D01*
X115132634Y-118976915D01*
X115077789Y-118949462D01*
X115042810Y-118899082D01*
X115035658Y-118879907D01*
X114993796Y-118767669D01*
X114907546Y-118652454D01*
X114792331Y-118566204D01*
X114657483Y-118515909D01*
X114597873Y-118509500D01*
X114597869Y-118509500D01*
X112802130Y-118509500D01*
X112742515Y-118515909D01*
X112607669Y-118566204D01*
X112492454Y-118652454D01*
X112406204Y-118767668D01*
X112355909Y-118902516D01*
X112349500Y-118962130D01*
X112349500Y-120757869D01*
X107565500Y-120757869D01*
X107565500Y-118576519D01*
X107574939Y-118529066D01*
X107601819Y-118488838D01*
X110153836Y-115936819D01*
X110194064Y-115909939D01*
X110241517Y-115900500D01*
X110401974Y-115900500D01*
X110401976Y-115900500D01*
X110602456Y-115863024D01*
X110792637Y-115789348D01*
X110966041Y-115681981D01*
X110966040Y-115681981D01*
X111116763Y-115544580D01*
X111239675Y-115381818D01*
X111285313Y-115290161D01*
X111330582Y-115199250D01*
X111386397Y-115003083D01*
X111405215Y-114800000D01*
X111386683Y-114599999D01*
X130492176Y-114599999D01*
X130511443Y-114869377D01*
X130568848Y-115133265D01*
X130568850Y-115133270D01*
X130663228Y-115386307D01*
X130663230Y-115386310D01*
X130792654Y-115623335D01*
X130836556Y-115681981D01*
X130954500Y-115839535D01*
X131145465Y-116030500D01*
X131307613Y-116151882D01*
X131361664Y-116192345D01*
X131408681Y-116218018D01*
X131598693Y-116321772D01*
X131851730Y-116416150D01*
X131851733Y-116416150D01*
X131851734Y-116416151D01*
X131889291Y-116424321D01*
X132115623Y-116473557D01*
X132385000Y-116492823D01*
X132654377Y-116473557D01*
X132918270Y-116416150D01*
X133171307Y-116321772D01*
X133408337Y-116192344D01*
X133624535Y-116030500D01*
X133815500Y-115839535D01*
X133977344Y-115623337D01*
X134106772Y-115386307D01*
X134201150Y-115133270D01*
X134258557Y-114869377D01*
X134277823Y-114600000D01*
X134258557Y-114330623D01*
X134201150Y-114066730D01*
X134106772Y-113813693D01*
X133989678Y-113599251D01*
X133977345Y-113576664D01*
X133847403Y-113403083D01*
X133815500Y-113360465D01*
X133624535Y-113169500D01*
X133470239Y-113053995D01*
X133408335Y-113007654D01*
X133238859Y-112915114D01*
X133171307Y-112878228D01*
X132918270Y-112783850D01*
X132918265Y-112783848D01*
X132654377Y-112726443D01*
X132385000Y-112707176D01*
X132115622Y-112726443D01*
X131851734Y-112783848D01*
X131806419Y-112800750D01*
X131598693Y-112878228D01*
X131598690Y-112878229D01*
X131598689Y-112878230D01*
X131361664Y-113007654D01*
X131145462Y-113169502D01*
X130954502Y-113360462D01*
X130792654Y-113576664D01*
X130663230Y-113813689D01*
X130663228Y-113813693D01*
X130624317Y-113918018D01*
X130568848Y-114066734D01*
X130511443Y-114330622D01*
X130492176Y-114599999D01*
X111386683Y-114599999D01*
X111386397Y-114596917D01*
X111330582Y-114400750D01*
X111280664Y-114300500D01*
X111239675Y-114218181D01*
X111116763Y-114055419D01*
X110966041Y-113918018D01*
X110792638Y-113810652D01*
X110602457Y-113736976D01*
X110535629Y-113724484D01*
X110401976Y-113699500D01*
X110198024Y-113699500D01*
X110097783Y-113718238D01*
X109997542Y-113736976D01*
X109807361Y-113810652D01*
X109633958Y-113918018D01*
X109483236Y-114055419D01*
X109360324Y-114218181D01*
X109269418Y-114400748D01*
X109213602Y-114596916D01*
X109194785Y-114799999D01*
X109199128Y-114846884D01*
X109192287Y-114900435D01*
X109163338Y-114946003D01*
X106387290Y-117722051D01*
X106381838Y-117727183D01*
X106336816Y-117767070D01*
X106302649Y-117816568D01*
X106298213Y-117822597D01*
X106261121Y-117869942D01*
X106256961Y-117879186D01*
X106245941Y-117898725D01*
X106240182Y-117907069D01*
X106218853Y-117963305D01*
X106215989Y-117970219D01*
X106191303Y-118025070D01*
X106189475Y-118035047D01*
X106183454Y-118056648D01*
X106179859Y-118066128D01*
X106172609Y-118125827D01*
X106171483Y-118133226D01*
X106160641Y-118192391D01*
X106164274Y-118252434D01*
X106164500Y-118259921D01*
X106164500Y-126075501D01*
X106147887Y-126137501D01*
X106102500Y-126182888D01*
X106040500Y-126199501D01*
X105967128Y-126199501D01*
X105937322Y-126202705D01*
X105907515Y-126205909D01*
X105772669Y-126256204D01*
X105657454Y-126342454D01*
X105571204Y-126457668D01*
X105520909Y-126592516D01*
X105514500Y-126652130D01*
X105514500Y-128447869D01*
X98750500Y-128447869D01*
X98750499Y-126652128D01*
X98744091Y-126592517D01*
X98693796Y-126457669D01*
X98607546Y-126342454D01*
X98492331Y-126256204D01*
X98357483Y-126205909D01*
X98297873Y-126199500D01*
X98297869Y-126199500D01*
X96502130Y-126199500D01*
X96442515Y-126205909D01*
X96307669Y-126256204D01*
X96192454Y-126342454D01*
X96106204Y-126457668D01*
X96055909Y-126592516D01*
X96049500Y-126652130D01*
X96049500Y-128447869D01*
X89622027Y-128447869D01*
X89648495Y-128421401D01*
X89784035Y-128227830D01*
X89883903Y-128013663D01*
X89945063Y-127785408D01*
X89965659Y-127550000D01*
X89945063Y-127314592D01*
X89883903Y-127086337D01*
X89784035Y-126872171D01*
X89648495Y-126678599D01*
X89481401Y-126511505D01*
X89287830Y-126375965D01*
X89073663Y-126276097D01*
X89012502Y-126259709D01*
X88845407Y-126214936D01*
X88610000Y-126194340D01*
X88374592Y-126214936D01*
X88146336Y-126276097D01*
X87932170Y-126375965D01*
X87738598Y-126511505D01*
X87571508Y-126678595D01*
X87441574Y-126864160D01*
X87397255Y-126903026D01*
X87339999Y-126917036D01*
X87282742Y-126903025D01*
X87238426Y-126864161D01*
X87108495Y-126678599D01*
X86941401Y-126511505D01*
X86747830Y-126375965D01*
X86533663Y-126276097D01*
X86359912Y-126229541D01*
X86355374Y-126228325D01*
X86299786Y-126196231D01*
X86267692Y-126140644D01*
X86267692Y-126076456D01*
X86299784Y-126020871D01*
X86577731Y-125742924D01*
X86583150Y-125737823D01*
X86628183Y-125697929D01*
X86662355Y-125648420D01*
X86666775Y-125642413D01*
X86703878Y-125595057D01*
X86708035Y-125585819D01*
X86719060Y-125566270D01*
X86724818Y-125557930D01*
X86746150Y-125501678D01*
X86748999Y-125494800D01*
X86773695Y-125439931D01*
X86775522Y-125429956D01*
X86781549Y-125408339D01*
X86785140Y-125398872D01*
X86792387Y-125339179D01*
X86793514Y-125331777D01*
X86804358Y-125272606D01*
X86800726Y-125212566D01*
X86800500Y-125205079D01*
X86800500Y-119897869D01*
X93449500Y-119897869D01*
X93455909Y-119957484D01*
X93481056Y-120024907D01*
X93506204Y-120092331D01*
X93592454Y-120207546D01*
X93707669Y-120293796D01*
X93842517Y-120344091D01*
X93902127Y-120350500D01*
X95697872Y-120350499D01*
X95757483Y-120344091D01*
X95892331Y-120293796D01*
X96007546Y-120207546D01*
X96093796Y-120092331D01*
X96142810Y-119960916D01*
X96177789Y-119910537D01*
X96232634Y-119883084D01*
X96293927Y-119885273D01*
X96346672Y-119916568D01*
X96468599Y-120038495D01*
X96662170Y-120174035D01*
X96876337Y-120273903D01*
X97104592Y-120335063D01*
X97340000Y-120355659D01*
X97575408Y-120335063D01*
X97803663Y-120273903D01*
X98017830Y-120174035D01*
X98211401Y-120038495D01*
X98378495Y-119871401D01*
X98514035Y-119677830D01*
X98613903Y-119463663D01*
X98675063Y-119235408D01*
X98695659Y-119000000D01*
X98694661Y-118988598D01*
X98675063Y-118764592D01*
X98645016Y-118652454D01*
X98613903Y-118536337D01*
X98514035Y-118322171D01*
X98378495Y-118128599D01*
X98211401Y-117961505D01*
X98017830Y-117825965D01*
X97803663Y-117726097D01*
X97742501Y-117709709D01*
X97575407Y-117664936D01*
X97340000Y-117644340D01*
X97104592Y-117664936D01*
X96876336Y-117726097D01*
X96662170Y-117825965D01*
X96468601Y-117961503D01*
X96346673Y-118083431D01*
X96293926Y-118114726D01*
X96232634Y-118116915D01*
X96177789Y-118089462D01*
X96142810Y-118039082D01*
X96135658Y-118019907D01*
X96093796Y-117907669D01*
X96007546Y-117792454D01*
X95892331Y-117706204D01*
X95757483Y-117655909D01*
X95697873Y-117649500D01*
X95697869Y-117649500D01*
X93902130Y-117649500D01*
X93842515Y-117655909D01*
X93707669Y-117706204D01*
X93592454Y-117792454D01*
X93506204Y-117907668D01*
X93506203Y-117907669D01*
X93506204Y-117907669D01*
X93455909Y-118042517D01*
X93453371Y-118066128D01*
X93449500Y-118102130D01*
X93449500Y-119897869D01*
X86800500Y-119897869D01*
X86800500Y-112024910D01*
X86800726Y-112017423D01*
X86800793Y-112016303D01*
X86804357Y-111957394D01*
X86793509Y-111898201D01*
X86792392Y-111890856D01*
X86785140Y-111831128D01*
X86785139Y-111831125D01*
X86781546Y-111821650D01*
X86775519Y-111800029D01*
X86773694Y-111790068D01*
X86749012Y-111735228D01*
X86746151Y-111728322D01*
X86724818Y-111672070D01*
X86719058Y-111663726D01*
X86708030Y-111644172D01*
X86705402Y-111638332D01*
X86703877Y-111634943D01*
X86666788Y-111587602D01*
X86662349Y-111581569D01*
X86628184Y-111532072D01*
X86628183Y-111532071D01*
X86583153Y-111492178D01*
X86577715Y-111487058D01*
X86036660Y-110946003D01*
X86007710Y-110900433D01*
X86000870Y-110846883D01*
X86005215Y-110800000D01*
X85986397Y-110596917D01*
X85930582Y-110400750D01*
X85898103Y-110335523D01*
X85839675Y-110218181D01*
X85825567Y-110199500D01*
X85825360Y-110199226D01*
X85800844Y-110135942D01*
X85813315Y-110069229D01*
X85859037Y-110019073D01*
X85924315Y-110000500D01*
X92851201Y-110000500D01*
X92916479Y-110019073D01*
X92962201Y-110069228D01*
X92974672Y-110135941D01*
X92950155Y-110199227D01*
X92860324Y-110318181D01*
X92769418Y-110500748D01*
X92713602Y-110696916D01*
X92694785Y-110900000D01*
X92713602Y-111103083D01*
X92769418Y-111299251D01*
X92860324Y-111481818D01*
X92983236Y-111644580D01*
X93133958Y-111781981D01*
X93264848Y-111863024D01*
X93307363Y-111889348D01*
X93497544Y-111963024D01*
X93698024Y-112000500D01*
X93901974Y-112000500D01*
X93901976Y-112000500D01*
X94102456Y-111963024D01*
X94292637Y-111889348D01*
X94466041Y-111781981D01*
X94586608Y-111672070D01*
X94625256Y-111636838D01*
X94626618Y-111638332D01*
X94656526Y-111613499D01*
X94711796Y-111600500D01*
X116758481Y-111600500D01*
X116805934Y-111609939D01*
X116846162Y-111636819D01*
X118263338Y-113053995D01*
X118292287Y-113099563D01*
X118299128Y-113153114D01*
X118294784Y-113199998D01*
X118313602Y-113403083D01*
X118369418Y-113599251D01*
X118460324Y-113781818D01*
X118583236Y-113944580D01*
X118733958Y-114081981D01*
X118907361Y-114189347D01*
X118907363Y-114189348D01*
X119097544Y-114263024D01*
X119298024Y-114300500D01*
X119501974Y-114300500D01*
X119501976Y-114300500D01*
X119702456Y-114263024D01*
X119892637Y-114189348D01*
X120066041Y-114081981D01*
X120216764Y-113944579D01*
X120339673Y-113781821D01*
X120339673Y-113781819D01*
X120339675Y-113781818D01*
X120385313Y-113690161D01*
X120430582Y-113599250D01*
X120486397Y-113403083D01*
X120505215Y-113200000D01*
X120486397Y-112996917D01*
X120430582Y-112800750D01*
X120392535Y-112724341D01*
X120339675Y-112618181D01*
X120216763Y-112455419D01*
X120066041Y-112318018D01*
X119892638Y-112210652D01*
X119702457Y-112136976D01*
X119635629Y-112124484D01*
X119501976Y-112099500D01*
X119341519Y-112099500D01*
X119294066Y-112090061D01*
X119253838Y-112063181D01*
X117612940Y-110422283D01*
X117607822Y-110416847D01*
X117567929Y-110371817D01*
X117518432Y-110337651D01*
X117512405Y-110333216D01*
X117465054Y-110296120D01*
X117455813Y-110291961D01*
X117436273Y-110280941D01*
X117427930Y-110275182D01*
X117427927Y-110275181D01*
X117427926Y-110275180D01*
X117371701Y-110253856D01*
X117364783Y-110250991D01*
X117309929Y-110226303D01*
X117299952Y-110224475D01*
X117278339Y-110218450D01*
X117268873Y-110214860D01*
X117209172Y-110207610D01*
X117201771Y-110206483D01*
X117142607Y-110195641D01*
X117082566Y-110199274D01*
X117075079Y-110199500D01*
X116985865Y-110199500D01*
X116921716Y-110181617D01*
X116876070Y-110133128D01*
X116862091Y-110068017D01*
X116883812Y-110005064D01*
X116934968Y-109962427D01*
X116936969Y-109961526D01*
X116964815Y-109948993D01*
X116971673Y-109946152D01*
X117027930Y-109924818D01*
X117036270Y-109919060D01*
X117055819Y-109908035D01*
X117065057Y-109903878D01*
X117112413Y-109866775D01*
X117118420Y-109862355D01*
X117167929Y-109828183D01*
X117207823Y-109783150D01*
X117212924Y-109777731D01*
X119253837Y-107736818D01*
X119294065Y-107709939D01*
X119341518Y-107700500D01*
X119501974Y-107700500D01*
X119501976Y-107700500D01*
X119702456Y-107663024D01*
X119892637Y-107589348D01*
X120066041Y-107481981D01*
X120216764Y-107344579D01*
X120339673Y-107181821D01*
X120339673Y-107181819D01*
X120339675Y-107181818D01*
X120429836Y-107000748D01*
X120430582Y-106999250D01*
X120486397Y-106803083D01*
X120505215Y-106600000D01*
X120497618Y-106518018D01*
X120486397Y-106396916D01*
X120457443Y-106295156D01*
X120430582Y-106200750D01*
X120373283Y-106085677D01*
X120339675Y-106018181D01*
X120216763Y-105855419D01*
X120140962Y-105786318D01*
X120111066Y-105744767D01*
X120100500Y-105694681D01*
X120100500Y-99105319D01*
X120111066Y-99055233D01*
X120140962Y-99013682D01*
X120216763Y-98944580D01*
X120216764Y-98944579D01*
X120339673Y-98781821D01*
X120339673Y-98781819D01*
X120339675Y-98781818D01*
X120396908Y-98666877D01*
X120430582Y-98599250D01*
X120486397Y-98403083D01*
X120505215Y-98200000D01*
X120486397Y-97996917D01*
X120430582Y-97800750D01*
X120396651Y-97732606D01*
X120339675Y-97618181D01*
X120216763Y-97455419D01*
X120066041Y-97318018D01*
X119892638Y-97210652D01*
X119818961Y-97182110D01*
X119702456Y-97136976D01*
X119691711Y-97134967D01*
X119639773Y-97112034D01*
X119603500Y-97068352D01*
X119590500Y-97013080D01*
X119590500Y-90600000D01*
X144394317Y-90600000D01*
X144414956Y-90756762D01*
X144475463Y-90902840D01*
X144571717Y-91028282D01*
X144697159Y-91124536D01*
X144843238Y-91185044D01*
X144945181Y-91198465D01*
X144960638Y-91200500D01*
X144960639Y-91200500D01*
X145839361Y-91200500D01*
X145839362Y-91200500D01*
X145853019Y-91198701D01*
X145956762Y-91185044D01*
X146102841Y-91124536D01*
X146228282Y-91028282D01*
X146324536Y-90902841D01*
X146385044Y-90756762D01*
X146405682Y-90600000D01*
X146385044Y-90443238D01*
X146324536Y-90297159D01*
X146324535Y-90297158D01*
X146228282Y-90171717D01*
X146102840Y-90075463D01*
X145956762Y-90014956D01*
X145839362Y-89999500D01*
X145839361Y-89999500D01*
X144960639Y-89999500D01*
X144960638Y-89999500D01*
X144843237Y-90014956D01*
X144697159Y-90075463D01*
X144571717Y-90171717D01*
X144475463Y-90297159D01*
X144414956Y-90443237D01*
X144394317Y-90600000D01*
X119590500Y-90600000D01*
X119590500Y-76714910D01*
X119590726Y-76707423D01*
X119591068Y-76701771D01*
X119594357Y-76647394D01*
X119583509Y-76588201D01*
X119582392Y-76580856D01*
X119575140Y-76521128D01*
X119574528Y-76519516D01*
X119566496Y-76473049D01*
X119576394Y-76426942D01*
X119602787Y-76387868D01*
X119637821Y-76352834D01*
X119687182Y-76322586D01*
X119744898Y-76318044D01*
X119798385Y-76340199D01*
X119835985Y-76384222D01*
X119849500Y-76440517D01*
X119849500Y-77897869D01*
X119849501Y-77897875D01*
X119855909Y-77957483D01*
X119906204Y-78092331D01*
X119992454Y-78207546D01*
X120107669Y-78293796D01*
X120242517Y-78344091D01*
X120302127Y-78350500D01*
X122097872Y-78350499D01*
X122157483Y-78344091D01*
X122292331Y-78293796D01*
X122407546Y-78207546D01*
X122476235Y-78115789D01*
X122523989Y-78077308D01*
X122584346Y-78066418D01*
X122642540Y-78085787D01*
X122684332Y-78130675D01*
X122699500Y-78190102D01*
X122699500Y-88050240D01*
X122699459Y-88050446D01*
X122699459Y-88075000D01*
X122699500Y-88075099D01*
X122699617Y-88075383D01*
X122699618Y-88075384D01*
X122699808Y-88075461D01*
X122700000Y-88075541D01*
X122700002Y-88075539D01*
X122724616Y-88075524D01*
X122724616Y-88075528D01*
X122724760Y-88075500D01*
X145675240Y-88075500D01*
X145675383Y-88075528D01*
X145675384Y-88075524D01*
X145699997Y-88075539D01*
X145700000Y-88075541D01*
X145700383Y-88075383D01*
X145700500Y-88075099D01*
X145700541Y-88075000D01*
X145700541Y-88050446D01*
X145700500Y-88050240D01*
X145700500Y-78406108D01*
X145714015Y-78349813D01*
X145751615Y-78305790D01*
X145805102Y-78283635D01*
X145862818Y-78288177D01*
X145912181Y-78318427D01*
X147063181Y-79469427D01*
X147090061Y-79509655D01*
X147099500Y-79557108D01*
X147099500Y-90758482D01*
X147090061Y-90805935D01*
X147063181Y-90846163D01*
X144045909Y-93863433D01*
X143985189Y-93896785D01*
X143916054Y-93892360D01*
X143860082Y-93851537D01*
X143834745Y-93787060D01*
X143847949Y-93719055D01*
X143957656Y-93505675D01*
X144045118Y-93249305D01*
X144094319Y-92982933D01*
X144104212Y-92712235D01*
X144074586Y-92442982D01*
X144006072Y-92180912D01*
X143900130Y-91931610D01*
X143759018Y-91700390D01*
X143759017Y-91700388D01*
X143585746Y-91492181D01*
X143514037Y-91427930D01*
X143384002Y-91311418D01*
X143158090Y-91161956D01*
X143116813Y-91142606D01*
X142912822Y-91046978D01*
X142653437Y-90968941D01*
X142653431Y-90968940D01*
X142385439Y-90929500D01*
X142182369Y-90929500D01*
X142182366Y-90929500D01*
X141979843Y-90944322D01*
X141715449Y-91003219D01*
X141462441Y-91099986D01*
X141226223Y-91232559D01*
X141011825Y-91398109D01*
X140823813Y-91593120D01*
X140666201Y-91813420D01*
X140542342Y-92054329D01*
X140454881Y-92310695D01*
X140405680Y-92577066D01*
X140395787Y-92847764D01*
X140425413Y-93117016D01*
X140493928Y-93379087D01*
X140599871Y-93628392D01*
X140740982Y-93859611D01*
X140914253Y-94067818D01*
X140914255Y-94067820D01*
X141115998Y-94248582D01*
X141341910Y-94398044D01*
X141433979Y-94441204D01*
X141587177Y-94513021D01*
X141836860Y-94588139D01*
X141846569Y-94591060D01*
X142114561Y-94630500D01*
X142317631Y-94630500D01*
X142317634Y-94630500D01*
X142520156Y-94615677D01*
X142556105Y-94607669D01*
X142784553Y-94556780D01*
X143037558Y-94460014D01*
X143191601Y-94373560D01*
X143248132Y-94357766D01*
X143305599Y-94369743D01*
X143351117Y-94406810D01*
X143374487Y-94460659D01*
X143370469Y-94519223D01*
X143339965Y-94569377D01*
X136737290Y-101172051D01*
X136731838Y-101177183D01*
X136686816Y-101217070D01*
X136652649Y-101266568D01*
X136648206Y-101272606D01*
X136644401Y-101277462D01*
X136589584Y-101317366D01*
X136521974Y-101322472D01*
X136461786Y-101291255D01*
X136436703Y-101249268D01*
X136433688Y-101250675D01*
X136336667Y-101042615D01*
X136293123Y-100980428D01*
X135603553Y-101670000D01*
X136293124Y-102359572D01*
X136296269Y-102359297D01*
X136336142Y-102325243D01*
X136396989Y-102312863D01*
X136456210Y-102331535D01*
X136498953Y-102376577D01*
X136514500Y-102436693D01*
X136514500Y-107888001D01*
X136497887Y-107950001D01*
X136452500Y-107995388D01*
X136390500Y-108012001D01*
X135779628Y-108012001D01*
X135749822Y-108015205D01*
X135720015Y-108018409D01*
X135667833Y-108037872D01*
X135609046Y-108044723D01*
X135553780Y-108023546D01*
X135514624Y-107979165D01*
X135500500Y-107921690D01*
X135500500Y-105054910D01*
X135500726Y-105047423D01*
X135500793Y-105046303D01*
X135504357Y-104987394D01*
X135493509Y-104928201D01*
X135492392Y-104920856D01*
X135485140Y-104861128D01*
X135485139Y-104861125D01*
X135481546Y-104851650D01*
X135475519Y-104830029D01*
X135473694Y-104820068D01*
X135449012Y-104765228D01*
X135446151Y-104758322D01*
X135424818Y-104702070D01*
X135419058Y-104693726D01*
X135408030Y-104674172D01*
X135403877Y-104664943D01*
X135366788Y-104617602D01*
X135362349Y-104611569D01*
X135328184Y-104562072D01*
X135310225Y-104546162D01*
X135283153Y-104522178D01*
X135277715Y-104517058D01*
X133984875Y-103224218D01*
X133956034Y-103178947D01*
X133949028Y-103125730D01*
X133963337Y-102962180D01*
X133965277Y-102940000D01*
X133946207Y-102722023D01*
X133943823Y-102713124D01*
X134560426Y-102713124D01*
X134560427Y-102713125D01*
X134622610Y-102756666D01*
X134820840Y-102849102D01*
X135032113Y-102905712D01*
X135250000Y-102924775D01*
X135467886Y-102905712D01*
X135679159Y-102849102D01*
X135877385Y-102756667D01*
X135939572Y-102713124D01*
X135250001Y-102023553D01*
X135250000Y-102023553D01*
X134560426Y-102713124D01*
X133943823Y-102713124D01*
X133889575Y-102510670D01*
X133797102Y-102312362D01*
X133671598Y-102133123D01*
X133516877Y-101978402D01*
X133337639Y-101852898D01*
X133186417Y-101782382D01*
X133134241Y-101736625D01*
X133114822Y-101670000D01*
X133995224Y-101670000D01*
X134014287Y-101887886D01*
X134070898Y-102099161D01*
X134163331Y-102297386D01*
X134206873Y-102359571D01*
X134206875Y-102359572D01*
X134896447Y-101670001D01*
X134896447Y-101670000D01*
X134206875Y-100980427D01*
X134206874Y-100980428D01*
X134163333Y-101042611D01*
X134070897Y-101240840D01*
X134014287Y-101452113D01*
X133995224Y-101670000D01*
X133114822Y-101670000D01*
X133134241Y-101603375D01*
X133186417Y-101557618D01*
X133189324Y-101556262D01*
X133337639Y-101487102D01*
X133516877Y-101361598D01*
X133671598Y-101206877D01*
X133797102Y-101027639D01*
X133889575Y-100829330D01*
X133946207Y-100617977D01*
X133965277Y-100400000D01*
X133946207Y-100182023D01*
X133889575Y-99970670D01*
X133797102Y-99772362D01*
X133671598Y-99593123D01*
X133516877Y-99438402D01*
X133337639Y-99312898D01*
X133186417Y-99242382D01*
X133134241Y-99196625D01*
X133114822Y-99130000D01*
X133134241Y-99063375D01*
X133186417Y-99017618D01*
X133194858Y-99013682D01*
X133337639Y-98947102D01*
X133516877Y-98821598D01*
X133671598Y-98666877D01*
X133797102Y-98487639D01*
X133889575Y-98289330D01*
X133946207Y-98077977D01*
X133965277Y-97860000D01*
X133946207Y-97642023D01*
X133889575Y-97430670D01*
X133797102Y-97232362D01*
X133671598Y-97053123D01*
X133516877Y-96898402D01*
X133337639Y-96772898D01*
X133186417Y-96702382D01*
X133134241Y-96656625D01*
X133114822Y-96590000D01*
X133134241Y-96523375D01*
X133186417Y-96477618D01*
X133199749Y-96471401D01*
X133337639Y-96407102D01*
X133516877Y-96281598D01*
X133671598Y-96126877D01*
X133797102Y-95947639D01*
X133889575Y-95749330D01*
X133946207Y-95537977D01*
X133961376Y-95364592D01*
X133965277Y-95320002D01*
X133961821Y-95280502D01*
X133969869Y-95224523D01*
X134001939Y-95177940D01*
X134051359Y-95150443D01*
X134107850Y-95147752D01*
X134159658Y-95170425D01*
X134257669Y-95243796D01*
X134392517Y-95294091D01*
X134452127Y-95300500D01*
X134518139Y-95300499D01*
X134578253Y-95316045D01*
X134623295Y-95358788D01*
X134641968Y-95418008D01*
X134629589Y-95478856D01*
X134589262Y-95526073D01*
X134443123Y-95628401D01*
X134288402Y-95783122D01*
X134162898Y-95962361D01*
X134070425Y-96160668D01*
X134013792Y-96372025D01*
X133994722Y-96590000D01*
X134013792Y-96807974D01*
X134070425Y-97019331D01*
X134103686Y-97090659D01*
X134162898Y-97217639D01*
X134288402Y-97396877D01*
X134443123Y-97551598D01*
X134622361Y-97677102D01*
X134721237Y-97723208D01*
X134773582Y-97747618D01*
X134825758Y-97793375D01*
X134845177Y-97860000D01*
X134825758Y-97926625D01*
X134773582Y-97972382D01*
X134622361Y-98042898D01*
X134443122Y-98168402D01*
X134288402Y-98323122D01*
X134162898Y-98502361D01*
X134070425Y-98700668D01*
X134013792Y-98912025D01*
X133994722Y-99129999D01*
X134013792Y-99347974D01*
X134013793Y-99347977D01*
X134070425Y-99559330D01*
X134162898Y-99757639D01*
X134288402Y-99936877D01*
X134443123Y-100091598D01*
X134622361Y-100217102D01*
X134774175Y-100287894D01*
X134826351Y-100333651D01*
X134845770Y-100400276D01*
X134826351Y-100466901D01*
X134774175Y-100512658D01*
X134622612Y-100583333D01*
X134560428Y-100626874D01*
X134560427Y-100626875D01*
X135250000Y-101316447D01*
X135250001Y-101316447D01*
X135939572Y-100626875D01*
X135939571Y-100626873D01*
X135877386Y-100583331D01*
X135725825Y-100512658D01*
X135673649Y-100466901D01*
X135654229Y-100400276D01*
X135673648Y-100333651D01*
X135725822Y-100287895D01*
X135877639Y-100217102D01*
X136056877Y-100091598D01*
X136211598Y-99936877D01*
X136337102Y-99757639D01*
X136429575Y-99559330D01*
X136486207Y-99347977D01*
X136505277Y-99130000D01*
X136486207Y-98912023D01*
X136429575Y-98700670D01*
X136337102Y-98502362D01*
X136211598Y-98323123D01*
X136056877Y-98168402D01*
X135877639Y-98042898D01*
X135726417Y-97972382D01*
X135674241Y-97926625D01*
X135654822Y-97860000D01*
X135674241Y-97793375D01*
X135726417Y-97747618D01*
X135758610Y-97732606D01*
X135877639Y-97677102D01*
X136056877Y-97551598D01*
X136211598Y-97396877D01*
X136337102Y-97217639D01*
X136429575Y-97019330D01*
X136486207Y-96807977D01*
X136505277Y-96590000D01*
X136486207Y-96372023D01*
X136429575Y-96160670D01*
X136337102Y-95962362D01*
X136211598Y-95783123D01*
X136056877Y-95628402D01*
X135910735Y-95526072D01*
X135870410Y-95478857D01*
X135858030Y-95418009D01*
X135876702Y-95358789D01*
X135921744Y-95316046D01*
X135981859Y-95300499D01*
X136047872Y-95300499D01*
X136107483Y-95294091D01*
X136242331Y-95243796D01*
X136357546Y-95157546D01*
X136443796Y-95042331D01*
X136494091Y-94907483D01*
X136500500Y-94847873D01*
X136500499Y-93252128D01*
X136494091Y-93192517D01*
X136443796Y-93057669D01*
X136357546Y-92942454D01*
X136242331Y-92856204D01*
X136107483Y-92805909D01*
X136047873Y-92799500D01*
X136047869Y-92799500D01*
X134452130Y-92799500D01*
X134392515Y-92805909D01*
X134257669Y-92856204D01*
X134142454Y-92942454D01*
X134056204Y-93057668D01*
X134005909Y-93192515D01*
X134005909Y-93192517D01*
X133999804Y-93249305D01*
X133999500Y-93252131D01*
X133999500Y-94588139D01*
X133983953Y-94648255D01*
X133941210Y-94693297D01*
X133881990Y-94711969D01*
X133821142Y-94699589D01*
X133773925Y-94659262D01*
X133766218Y-94648255D01*
X133671598Y-94513123D01*
X133516877Y-94358402D01*
X133337639Y-94232898D01*
X133185358Y-94161888D01*
X133139331Y-94140425D01*
X132927974Y-94083792D01*
X132710000Y-94064722D01*
X132492025Y-94083792D01*
X132280668Y-94140425D01*
X132082361Y-94232898D01*
X131903122Y-94358402D01*
X131748402Y-94513122D01*
X131622898Y-94692361D01*
X131530425Y-94890668D01*
X131473792Y-95102025D01*
X131454722Y-95319999D01*
X131473792Y-95537974D01*
X131473793Y-95537977D01*
X131530425Y-95749330D01*
X131622898Y-95947639D01*
X131748402Y-96126877D01*
X131903123Y-96281598D01*
X132082361Y-96407102D01*
X132181237Y-96453208D01*
X132233582Y-96477618D01*
X132285758Y-96523375D01*
X132305177Y-96590000D01*
X132285758Y-96656625D01*
X132233582Y-96702382D01*
X132082361Y-96772898D01*
X131903122Y-96898402D01*
X131748402Y-97053122D01*
X131622898Y-97232361D01*
X131530425Y-97430668D01*
X131473792Y-97642025D01*
X131454722Y-97860000D01*
X131473792Y-98077974D01*
X131487276Y-98128298D01*
X131530425Y-98289330D01*
X131622898Y-98487639D01*
X131748402Y-98666877D01*
X131903123Y-98821598D01*
X132082361Y-98947102D01*
X132181237Y-98993208D01*
X132233582Y-99017618D01*
X132285758Y-99063375D01*
X132305177Y-99130000D01*
X132285758Y-99196625D01*
X132233582Y-99242382D01*
X132082361Y-99312898D01*
X131903122Y-99438402D01*
X131748402Y-99593122D01*
X131622898Y-99772361D01*
X131530425Y-99970668D01*
X131473792Y-100182025D01*
X131454722Y-100399999D01*
X131473792Y-100617974D01*
X131476176Y-100626873D01*
X131530425Y-100829330D01*
X131622898Y-101027639D01*
X131748402Y-101206877D01*
X131903123Y-101361598D01*
X132082361Y-101487102D01*
X132181237Y-101533208D01*
X132233582Y-101557618D01*
X132285758Y-101603375D01*
X132305177Y-101670000D01*
X132285758Y-101736625D01*
X132233582Y-101782382D01*
X132082361Y-101852898D01*
X131903122Y-101978402D01*
X131748402Y-102133122D01*
X131622898Y-102312361D01*
X131530425Y-102510668D01*
X131473792Y-102722025D01*
X131454722Y-102939999D01*
X131473792Y-103157974D01*
X131507405Y-103283421D01*
X131530425Y-103369330D01*
X131622898Y-103567639D01*
X131748402Y-103746877D01*
X131903123Y-103901598D01*
X132082361Y-104027102D01*
X132280670Y-104119575D01*
X132492023Y-104176207D01*
X132637340Y-104188920D01*
X132709999Y-104195277D01*
X132709999Y-104195276D01*
X132710000Y-104195277D01*
X132895730Y-104179028D01*
X132948947Y-104186034D01*
X132994218Y-104214875D01*
X134063181Y-105283838D01*
X134090061Y-105324066D01*
X134099500Y-105371519D01*
X134099500Y-108667284D01*
X134084332Y-108726711D01*
X134042540Y-108771599D01*
X133984346Y-108790968D01*
X133923989Y-108780079D01*
X133876233Y-108741595D01*
X133865091Y-108726711D01*
X133815500Y-108660465D01*
X133624535Y-108469500D01*
X133491716Y-108370073D01*
X133408335Y-108307654D01*
X133238859Y-108215114D01*
X133171307Y-108178228D01*
X132918270Y-108083850D01*
X132918265Y-108083848D01*
X132654377Y-108026443D01*
X132385000Y-108007176D01*
X132115622Y-108026443D01*
X131851734Y-108083848D01*
X131725211Y-108131039D01*
X131598693Y-108178228D01*
X131598690Y-108178229D01*
X131598689Y-108178230D01*
X131361664Y-108307654D01*
X131145462Y-108469502D01*
X130954502Y-108660462D01*
X130792654Y-108876664D01*
X130663230Y-109113689D01*
X130663228Y-109113693D01*
X130620620Y-109227930D01*
X130568848Y-109366734D01*
X130511443Y-109630622D01*
X130492176Y-109899999D01*
X130511443Y-110169377D01*
X130568848Y-110433265D01*
X130568850Y-110433270D01*
X130663228Y-110686307D01*
X130670500Y-110699625D01*
X130792654Y-110923335D01*
X130852353Y-111003083D01*
X130954500Y-111139535D01*
X131145465Y-111330500D01*
X131259430Y-111415813D01*
X131361664Y-111492345D01*
X131426830Y-111527928D01*
X131598693Y-111621772D01*
X131851730Y-111716150D01*
X131851733Y-111716150D01*
X131851734Y-111716151D01*
X131889291Y-111724321D01*
X132115623Y-111773557D01*
X132385000Y-111792823D01*
X132654377Y-111773557D01*
X132918270Y-111716150D01*
X133171307Y-111621772D01*
X133408337Y-111492344D01*
X133624535Y-111330500D01*
X133815500Y-111139535D01*
X133875908Y-111058838D01*
X133919609Y-111022297D01*
X133975038Y-111009150D01*
X134030497Y-111022175D01*
X134074278Y-111058623D01*
X134097143Y-111110800D01*
X134106483Y-111161771D01*
X134107610Y-111169172D01*
X134114860Y-111228873D01*
X134118450Y-111238339D01*
X134124475Y-111259952D01*
X134126303Y-111269929D01*
X134150991Y-111324783D01*
X134153856Y-111331701D01*
X134172865Y-111381821D01*
X134175182Y-111387930D01*
X134180941Y-111396273D01*
X134191961Y-111415813D01*
X134196120Y-111425054D01*
X134233216Y-111472405D01*
X134237651Y-111478432D01*
X134271817Y-111527929D01*
X134316847Y-111567822D01*
X134322283Y-111572940D01*
X135859473Y-113110130D01*
X135891567Y-113165717D01*
X135891567Y-113229905D01*
X135859473Y-113285492D01*
X135784502Y-113360462D01*
X135622654Y-113576664D01*
X135493230Y-113813689D01*
X135493228Y-113813693D01*
X135454317Y-113918018D01*
X135398848Y-114066734D01*
X135341443Y-114330622D01*
X135322176Y-114599999D01*
X135341443Y-114869377D01*
X135398848Y-115133265D01*
X135398850Y-115133270D01*
X135493228Y-115386307D01*
X135493230Y-115386310D01*
X135622654Y-115623335D01*
X135666556Y-115681981D01*
X135784500Y-115839535D01*
X135975465Y-116030500D01*
X136137613Y-116151882D01*
X136191664Y-116192345D01*
X136238681Y-116218018D01*
X136428693Y-116321772D01*
X136681730Y-116416150D01*
X136681733Y-116416150D01*
X136681734Y-116416151D01*
X136719291Y-116424321D01*
X136945623Y-116473557D01*
X137215000Y-116492823D01*
X137484377Y-116473557D01*
X137748270Y-116416150D01*
X138001307Y-116321772D01*
X138238337Y-116192344D01*
X138454535Y-116030500D01*
X138645500Y-115839535D01*
X138807344Y-115623337D01*
X138936772Y-115386307D01*
X139031150Y-115133270D01*
X139088557Y-114869377D01*
X139107823Y-114600000D01*
X139088557Y-114330623D01*
X139031150Y-114066730D01*
X138936772Y-113813693D01*
X138819678Y-113599251D01*
X138807345Y-113576664D01*
X138677403Y-113403083D01*
X138645500Y-113360465D01*
X138454535Y-113169500D01*
X138300239Y-113053995D01*
X138238335Y-113007654D01*
X138068859Y-112915114D01*
X138001307Y-112878228D01*
X137748270Y-112783850D01*
X137748266Y-112783849D01*
X137485092Y-112726598D01*
X137423770Y-112693113D01*
X136730337Y-111999680D01*
X136700087Y-111950317D01*
X136695545Y-111892601D01*
X136717700Y-111839114D01*
X136761723Y-111801514D01*
X136818018Y-111787999D01*
X138650370Y-111787999D01*
X138650372Y-111787999D01*
X138709983Y-111781591D01*
X138844831Y-111731296D01*
X138960046Y-111645046D01*
X139046296Y-111529831D01*
X139096591Y-111394983D01*
X139103000Y-111335373D01*
X139102999Y-108464628D01*
X139096591Y-108405017D01*
X139046296Y-108270169D01*
X138960046Y-108154954D01*
X138844831Y-108068704D01*
X138709983Y-108018409D01*
X138650373Y-108012000D01*
X138650369Y-108012000D01*
X138039500Y-108012000D01*
X137977500Y-107995387D01*
X137932113Y-107950000D01*
X137915500Y-107888000D01*
X137915500Y-106500000D01*
X144444317Y-106500000D01*
X144464956Y-106656762D01*
X144525463Y-106802840D01*
X144621717Y-106928282D01*
X144716158Y-107000748D01*
X144747159Y-107024536D01*
X144893238Y-107085044D01*
X144995182Y-107098465D01*
X145010638Y-107100500D01*
X145010639Y-107100500D01*
X145889361Y-107100500D01*
X145889362Y-107100500D01*
X145903019Y-107098701D01*
X146006762Y-107085044D01*
X146152841Y-107024536D01*
X146278282Y-106928282D01*
X146374536Y-106802841D01*
X146435044Y-106656762D01*
X146455682Y-106500000D01*
X146435044Y-106343238D01*
X146374536Y-106197159D01*
X146374350Y-106196916D01*
X146278282Y-106071717D01*
X146152840Y-105975463D01*
X146006762Y-105914956D01*
X145889362Y-105899500D01*
X145889361Y-105899500D01*
X145010639Y-105899500D01*
X145010638Y-105899500D01*
X144893237Y-105914956D01*
X144747159Y-105975463D01*
X144621717Y-106071717D01*
X144525463Y-106197159D01*
X144464956Y-106343237D01*
X144444317Y-106500000D01*
X137915500Y-106500000D01*
X137915500Y-104317764D01*
X140395787Y-104317764D01*
X140425413Y-104587016D01*
X140455493Y-104702071D01*
X140493928Y-104849088D01*
X140599870Y-105098390D01*
X140599871Y-105098392D01*
X140740982Y-105329611D01*
X140914253Y-105537818D01*
X140914255Y-105537820D01*
X141115998Y-105718582D01*
X141341910Y-105868044D01*
X141441982Y-105914956D01*
X141587177Y-105983021D01*
X141846562Y-106061058D01*
X141846569Y-106061060D01*
X142114561Y-106100500D01*
X142317631Y-106100500D01*
X142317634Y-106100500D01*
X142520156Y-106085677D01*
X142520155Y-106085677D01*
X142784553Y-106026780D01*
X143037558Y-105930014D01*
X143273777Y-105797441D01*
X143488177Y-105631888D01*
X143676186Y-105436881D01*
X143833799Y-105216579D01*
X143957656Y-104975675D01*
X144045118Y-104719305D01*
X144094319Y-104452933D01*
X144104212Y-104182235D01*
X144074586Y-103912982D01*
X144006072Y-103650912D01*
X143900130Y-103401610D01*
X143759018Y-103170390D01*
X143759017Y-103170388D01*
X143585746Y-102962181D01*
X143560990Y-102940000D01*
X143384002Y-102781418D01*
X143158090Y-102631956D01*
X143158086Y-102631954D01*
X142912822Y-102516978D01*
X142653437Y-102438941D01*
X142653431Y-102438940D01*
X142385439Y-102399500D01*
X142182369Y-102399500D01*
X142182366Y-102399500D01*
X141979843Y-102414322D01*
X141715449Y-102473219D01*
X141462441Y-102569986D01*
X141226223Y-102702559D01*
X141011825Y-102868109D01*
X140823813Y-103063120D01*
X140666201Y-103283420D01*
X140542342Y-103524329D01*
X140454881Y-103780695D01*
X140405680Y-104047066D01*
X140395787Y-104317764D01*
X137915500Y-104317764D01*
X137915500Y-102026519D01*
X137924939Y-101979066D01*
X137951819Y-101938838D01*
X139602763Y-100287894D01*
X148277723Y-91612931D01*
X148283142Y-91607829D01*
X148328183Y-91567929D01*
X148362362Y-91518410D01*
X148366792Y-91512391D01*
X148377893Y-91498223D01*
X148425983Y-91461017D01*
X148485979Y-91451145D01*
X148543456Y-91470980D01*
X148584593Y-91515754D01*
X148599500Y-91574701D01*
X148599500Y-108558481D01*
X148590061Y-108605934D01*
X148563181Y-108646162D01*
X141246161Y-115963181D01*
X141205933Y-115990061D01*
X141158480Y-115999500D01*
X140998024Y-115999500D01*
X140897784Y-116018237D01*
X140797542Y-116036976D01*
X140607361Y-116110652D01*
X140433958Y-116218018D01*
X140283236Y-116355419D01*
X140160324Y-116518181D01*
X140069418Y-116700748D01*
X140013602Y-116896916D01*
X139994785Y-117099999D01*
X140013602Y-117303083D01*
X140069418Y-117499251D01*
X140160324Y-117681818D01*
X140283236Y-117844580D01*
X140433958Y-117981981D01*
X140607361Y-118089347D01*
X140607363Y-118089348D01*
X140797544Y-118163024D01*
X140998024Y-118200500D01*
X141201974Y-118200500D01*
X141201976Y-118200500D01*
X141402456Y-118163024D01*
X141592637Y-118089348D01*
X141766041Y-117981981D01*
X141788504Y-117961503D01*
X141916763Y-117844580D01*
X141916764Y-117844579D01*
X142039673Y-117681821D01*
X142039673Y-117681819D01*
X142039675Y-117681818D01*
X142091256Y-117578228D01*
X142130582Y-117499250D01*
X142186397Y-117303083D01*
X142205215Y-117100000D01*
X142200870Y-117053114D01*
X142207710Y-116999565D01*
X142236658Y-116953997D01*
X149777731Y-109412924D01*
X149783146Y-109407826D01*
X149793280Y-109398849D01*
X149842931Y-109372025D01*
X149899329Y-109369982D01*
X149950791Y-109393145D01*
X149986658Y-109436717D01*
X149999500Y-109491671D01*
X149999500Y-146396948D01*
X149999351Y-146403033D01*
X149992011Y-146552415D01*
X149991990Y-146552819D01*
X149981459Y-146753778D01*
X149980287Y-146765484D01*
X149955209Y-146934543D01*
X149955024Y-146935746D01*
X149926625Y-147115051D01*
X149924436Y-147125783D01*
X149881992Y-147295229D01*
X149881483Y-147297193D01*
X149835482Y-147468869D01*
X149832458Y-147478550D01*
X149773051Y-147644580D01*
X149772064Y-147647243D01*
X149708983Y-147811575D01*
X149705314Y-147820153D01*
X149629561Y-147980321D01*
X149627951Y-147983600D01*
X149548402Y-148139723D01*
X149544275Y-148147177D01*
X149452956Y-148299533D01*
X149450593Y-148303319D01*
X149355429Y-148449860D01*
X149351032Y-148456192D01*
X149245043Y-148599101D01*
X149241811Y-148603269D01*
X149131996Y-148738880D01*
X149127508Y-148744119D01*
X149007961Y-148876018D01*
X149003764Y-148880425D01*
X148880425Y-149003764D01*
X148876018Y-149007961D01*
X148744119Y-149127508D01*
X148738880Y-149131996D01*
X148603269Y-149241811D01*
X148599101Y-149245043D01*
X148456192Y-149351032D01*
X148449860Y-149355429D01*
X148303319Y-149450593D01*
X148299533Y-149452956D01*
X148147177Y-149544275D01*
X148139723Y-149548402D01*
X147983600Y-149627951D01*
X147980321Y-149629561D01*
X147820153Y-149705314D01*
X147811575Y-149708983D01*
X147647243Y-149772064D01*
X147644580Y-149773051D01*
X147478550Y-149832458D01*
X147468869Y-149835482D01*
X147297193Y-149881483D01*
X147295229Y-149881992D01*
X147125783Y-149924436D01*
X147115051Y-149926625D01*
X146935746Y-149955024D01*
X146934543Y-149955209D01*
X146765484Y-149980287D01*
X146753778Y-149981459D01*
X146552819Y-149991990D01*
X146552415Y-149992011D01*
X146403033Y-149999351D01*
X146396948Y-149999500D01*
X138047095Y-149999500D01*
X53851354Y-149994460D01*
X53845645Y-149993327D01*
X53837423Y-149991838D01*
X53802864Y-149993778D01*
X53796503Y-149993971D01*
X53768653Y-149994102D01*
X53652146Y-149994646D01*
X53651727Y-149994647D01*
X53432557Y-149994930D01*
X53420391Y-149994347D01*
X53248112Y-149977588D01*
X53246859Y-149977460D01*
X53056159Y-149956952D01*
X53044952Y-149955225D01*
X52870040Y-149920022D01*
X52867984Y-149919590D01*
X52685841Y-149879709D01*
X52675689Y-149877031D01*
X52503093Y-149823593D01*
X52500294Y-149822690D01*
X52325729Y-149764071D01*
X52316697Y-149760642D01*
X52149328Y-149689504D01*
X52145873Y-149687972D01*
X51979724Y-149611293D01*
X51971850Y-149607314D01*
X51812002Y-149519252D01*
X51807997Y-149516947D01*
X51651658Y-149423060D01*
X51644952Y-149418733D01*
X51494590Y-149314716D01*
X51490168Y-149311511D01*
X51345160Y-149201452D01*
X51339599Y-149196973D01*
X51200425Y-149078115D01*
X51195738Y-149073902D01*
X51063583Y-148948885D01*
X51059118Y-148944440D01*
X50932712Y-148812063D01*
X50927939Y-148806768D01*
X50809992Y-148668073D01*
X50806573Y-148663867D01*
X50694352Y-148519476D01*
X50689674Y-148513040D01*
X50587251Y-148362136D01*
X50584728Y-148358265D01*
X50487937Y-148203552D01*
X50483535Y-148195927D01*
X50422023Y-148080013D01*
X50397728Y-148034232D01*
X50396008Y-148030866D01*
X50315723Y-147867756D01*
X50311802Y-147858940D01*
X50243542Y-147687777D01*
X50242548Y-147685194D01*
X50179587Y-147515745D01*
X50176352Y-147505763D01*
X50168790Y-147478550D01*
X50126395Y-147325988D01*
X50125921Y-147324222D01*
X50081038Y-147151407D01*
X50078692Y-147140315D01*
X50074345Y-147113824D01*
X50047605Y-146950854D01*
X50047472Y-146950018D01*
X50021144Y-146778680D01*
X50019893Y-146766609D01*
X50008015Y-146547738D01*
X50003947Y-146467764D01*
X51745787Y-146467764D01*
X51775413Y-146737016D01*
X51815282Y-146889515D01*
X51843928Y-146999088D01*
X51896233Y-147122171D01*
X51949871Y-147248392D01*
X52090982Y-147479611D01*
X52264219Y-147687777D01*
X52264255Y-147687820D01*
X52465998Y-147868582D01*
X52691910Y-148018044D01*
X52798211Y-148067876D01*
X52937177Y-148133021D01*
X53196562Y-148211058D01*
X53196569Y-148211060D01*
X53464561Y-148250500D01*
X53667631Y-148250500D01*
X53667634Y-148250500D01*
X53870156Y-148235677D01*
X53931410Y-148222032D01*
X54134553Y-148176780D01*
X54387558Y-148080014D01*
X54623777Y-147947441D01*
X54838177Y-147781888D01*
X54868922Y-147749999D01*
X61189340Y-147749999D01*
X61209936Y-147985407D01*
X61223334Y-148035407D01*
X61271097Y-148213663D01*
X61370965Y-148427830D01*
X61506505Y-148621401D01*
X61673599Y-148788495D01*
X61867170Y-148924035D01*
X62081337Y-149023903D01*
X62309592Y-149085063D01*
X62545000Y-149105659D01*
X62780408Y-149085063D01*
X63008663Y-149023903D01*
X63222830Y-148924035D01*
X63416401Y-148788495D01*
X63583495Y-148621401D01*
X63713426Y-148435839D01*
X63757743Y-148396975D01*
X63815000Y-148382964D01*
X63872257Y-148396975D01*
X63916573Y-148435839D01*
X64046505Y-148621401D01*
X64213599Y-148788495D01*
X64407170Y-148924035D01*
X64621337Y-149023903D01*
X64849592Y-149085063D01*
X65085000Y-149105659D01*
X65320408Y-149085063D01*
X65548663Y-149023903D01*
X65762830Y-148924035D01*
X65956401Y-148788495D01*
X66078717Y-148666178D01*
X66131460Y-148634885D01*
X66192752Y-148632696D01*
X66247597Y-148660149D01*
X66282577Y-148710528D01*
X66331647Y-148842088D01*
X66417811Y-148957188D01*
X66532910Y-149043352D01*
X66667624Y-149093597D01*
X66727176Y-149100000D01*
X67375000Y-149100000D01*
X67375000Y-148000000D01*
X67875000Y-148000000D01*
X67875000Y-149100000D01*
X68522824Y-149100000D01*
X68582375Y-149093597D01*
X68717089Y-149043352D01*
X68832188Y-148957188D01*
X68918352Y-148842089D01*
X68968597Y-148707375D01*
X68975000Y-148647824D01*
X68975000Y-148000000D01*
X67875000Y-148000000D01*
X67375000Y-148000000D01*
X67375000Y-147799999D01*
X84489340Y-147799999D01*
X84509936Y-148035407D01*
X84536092Y-148133021D01*
X84571097Y-148263663D01*
X84670965Y-148477830D01*
X84806505Y-148671401D01*
X84973599Y-148838495D01*
X85167170Y-148974035D01*
X85381337Y-149073903D01*
X85609592Y-149135063D01*
X85845000Y-149155659D01*
X86080408Y-149135063D01*
X86308663Y-149073903D01*
X86522830Y-148974035D01*
X86716401Y-148838495D01*
X86883495Y-148671401D01*
X87013426Y-148485839D01*
X87057743Y-148446975D01*
X87115000Y-148432964D01*
X87172257Y-148446975D01*
X87216573Y-148485839D01*
X87346505Y-148671401D01*
X87513599Y-148838495D01*
X87707170Y-148974035D01*
X87921337Y-149073903D01*
X88149592Y-149135063D01*
X88385000Y-149155659D01*
X88620408Y-149135063D01*
X88848663Y-149073903D01*
X89062830Y-148974035D01*
X89256401Y-148838495D01*
X89378717Y-148716178D01*
X89431460Y-148684885D01*
X89492752Y-148682696D01*
X89547597Y-148710149D01*
X89582577Y-148760528D01*
X89631647Y-148892088D01*
X89717811Y-149007188D01*
X89832910Y-149093352D01*
X89967624Y-149143597D01*
X90027176Y-149150000D01*
X90675000Y-149150000D01*
X90675000Y-148050000D01*
X91175000Y-148050000D01*
X91175000Y-149150000D01*
X91822824Y-149150000D01*
X91882375Y-149143597D01*
X92017089Y-149093352D01*
X92132188Y-149007188D01*
X92218352Y-148892089D01*
X92268597Y-148757375D01*
X92275000Y-148697824D01*
X92275000Y-148050000D01*
X91175000Y-148050000D01*
X90675000Y-148050000D01*
X90675000Y-147799665D01*
X107824340Y-147799665D01*
X107844936Y-148035072D01*
X107874975Y-148147177D01*
X107906097Y-148263328D01*
X108005965Y-148477495D01*
X108141505Y-148671066D01*
X108308599Y-148838160D01*
X108502170Y-148973700D01*
X108716337Y-149073568D01*
X108934396Y-149131996D01*
X108944592Y-149134728D01*
X109179999Y-149155324D01*
X109179999Y-149155323D01*
X109180000Y-149155324D01*
X109415408Y-149134728D01*
X109643663Y-149073568D01*
X109857830Y-148973700D01*
X110051401Y-148838160D01*
X110218495Y-148671066D01*
X110348426Y-148485504D01*
X110392743Y-148446640D01*
X110450000Y-148432629D01*
X110507257Y-148446640D01*
X110551573Y-148485504D01*
X110681505Y-148671066D01*
X110848599Y-148838160D01*
X111042170Y-148973700D01*
X111256337Y-149073568D01*
X111474396Y-149131996D01*
X111484592Y-149134728D01*
X111719999Y-149155324D01*
X111719999Y-149155323D01*
X111720000Y-149155324D01*
X111955408Y-149134728D01*
X112183663Y-149073568D01*
X112397830Y-148973700D01*
X112591401Y-148838160D01*
X112713717Y-148715843D01*
X112766460Y-148684550D01*
X112827752Y-148682361D01*
X112882597Y-148709814D01*
X112917577Y-148760193D01*
X112966647Y-148891753D01*
X113052811Y-149006853D01*
X113167910Y-149093017D01*
X113302624Y-149143262D01*
X113362176Y-149149665D01*
X114010000Y-149149665D01*
X114010000Y-148049665D01*
X114510000Y-148049665D01*
X114510000Y-149149665D01*
X115157824Y-149149665D01*
X115217375Y-149143262D01*
X115352089Y-149093017D01*
X115467188Y-149006853D01*
X115553352Y-148891754D01*
X115603597Y-148757040D01*
X115610000Y-148697489D01*
X115610000Y-148049665D01*
X114510000Y-148049665D01*
X114010000Y-148049665D01*
X114010000Y-147799665D01*
X131124340Y-147799665D01*
X131144936Y-148035072D01*
X131174975Y-148147177D01*
X131206097Y-148263328D01*
X131305965Y-148477495D01*
X131441505Y-148671066D01*
X131608599Y-148838160D01*
X131802170Y-148973700D01*
X132016337Y-149073568D01*
X132234396Y-149131996D01*
X132244592Y-149134728D01*
X132479999Y-149155324D01*
X132479999Y-149155323D01*
X132480000Y-149155324D01*
X132715408Y-149134728D01*
X132943663Y-149073568D01*
X133157830Y-148973700D01*
X133351401Y-148838160D01*
X133518495Y-148671066D01*
X133648426Y-148485504D01*
X133692743Y-148446640D01*
X133750000Y-148432629D01*
X133807257Y-148446640D01*
X133851573Y-148485504D01*
X133981505Y-148671066D01*
X134148599Y-148838160D01*
X134342170Y-148973700D01*
X134556337Y-149073568D01*
X134774396Y-149131996D01*
X134784592Y-149134728D01*
X135019999Y-149155324D01*
X135019999Y-149155323D01*
X135020000Y-149155324D01*
X135255408Y-149134728D01*
X135483663Y-149073568D01*
X135697830Y-148973700D01*
X135891401Y-148838160D01*
X136013717Y-148715843D01*
X136066460Y-148684550D01*
X136127752Y-148682361D01*
X136182597Y-148709814D01*
X136217577Y-148760193D01*
X136266647Y-148891753D01*
X136352811Y-149006853D01*
X136467910Y-149093017D01*
X136602624Y-149143262D01*
X136662176Y-149149665D01*
X137310000Y-149149665D01*
X137310000Y-148049665D01*
X137810000Y-148049665D01*
X137810000Y-149149665D01*
X138457824Y-149149665D01*
X138517375Y-149143262D01*
X138652089Y-149093017D01*
X138767188Y-149006853D01*
X138853352Y-148891754D01*
X138903597Y-148757040D01*
X138910000Y-148697489D01*
X138910000Y-148049665D01*
X137810000Y-148049665D01*
X137310000Y-148049665D01*
X137310000Y-146449665D01*
X137810000Y-146449665D01*
X137810000Y-147549665D01*
X138910000Y-147549665D01*
X138910000Y-146901841D01*
X138903597Y-146842289D01*
X138853352Y-146707575D01*
X138767188Y-146592476D01*
X138652089Y-146506312D01*
X138548736Y-146467764D01*
X144545787Y-146467764D01*
X144575413Y-146737016D01*
X144615282Y-146889515D01*
X144643928Y-146999088D01*
X144696233Y-147122171D01*
X144749871Y-147248392D01*
X144890982Y-147479611D01*
X145064219Y-147687777D01*
X145064255Y-147687820D01*
X145265998Y-147868582D01*
X145491910Y-148018044D01*
X145598211Y-148067876D01*
X145737177Y-148133021D01*
X145996562Y-148211058D01*
X145996569Y-148211060D01*
X146264561Y-148250500D01*
X146467631Y-148250500D01*
X146467634Y-148250500D01*
X146670156Y-148235677D01*
X146731410Y-148222032D01*
X146934553Y-148176780D01*
X147187558Y-148080014D01*
X147423777Y-147947441D01*
X147638177Y-147781888D01*
X147826186Y-147586881D01*
X147983799Y-147366579D01*
X148107656Y-147125675D01*
X148195118Y-146869305D01*
X148244319Y-146602933D01*
X148254212Y-146332235D01*
X148224586Y-146062982D01*
X148156072Y-145800912D01*
X148050130Y-145551610D01*
X147909018Y-145320390D01*
X147909017Y-145320388D01*
X147735746Y-145112181D01*
X147630758Y-145018112D01*
X147534002Y-144931418D01*
X147308090Y-144781956D01*
X147308086Y-144781954D01*
X147062822Y-144666978D01*
X146803437Y-144588941D01*
X146803431Y-144588940D01*
X146535439Y-144549500D01*
X146332369Y-144549500D01*
X146332366Y-144549500D01*
X146129843Y-144564322D01*
X145865449Y-144623219D01*
X145612441Y-144719986D01*
X145376223Y-144852559D01*
X145161825Y-145018109D01*
X144973813Y-145213120D01*
X144816201Y-145433420D01*
X144692342Y-145674329D01*
X144604881Y-145930695D01*
X144555680Y-146197066D01*
X144545787Y-146467764D01*
X138548736Y-146467764D01*
X138517375Y-146456067D01*
X138457824Y-146449665D01*
X137810000Y-146449665D01*
X137310000Y-146449665D01*
X136662176Y-146449665D01*
X136602624Y-146456067D01*
X136467910Y-146506312D01*
X136352811Y-146592476D01*
X136266646Y-146707578D01*
X136217576Y-146839137D01*
X136182597Y-146889515D01*
X136127753Y-146916968D01*
X136066460Y-146914779D01*
X136013714Y-146883483D01*
X135891404Y-146761173D01*
X135891401Y-146761170D01*
X135697830Y-146625630D01*
X135483663Y-146525762D01*
X135411074Y-146506312D01*
X135255407Y-146464601D01*
X135020000Y-146444005D01*
X134784592Y-146464601D01*
X134556336Y-146525762D01*
X134342170Y-146625630D01*
X134148598Y-146761170D01*
X133981505Y-146928263D01*
X133851575Y-147113824D01*
X133807257Y-147152690D01*
X133750000Y-147166701D01*
X133692743Y-147152690D01*
X133648425Y-147113824D01*
X133568086Y-146999088D01*
X133518495Y-146928264D01*
X133351401Y-146761170D01*
X133157830Y-146625630D01*
X132943663Y-146525762D01*
X132871074Y-146506312D01*
X132715407Y-146464601D01*
X132480000Y-146444005D01*
X132244592Y-146464601D01*
X132016336Y-146525762D01*
X131802170Y-146625630D01*
X131608598Y-146761170D01*
X131441505Y-146928263D01*
X131305965Y-147121835D01*
X131206097Y-147336001D01*
X131144936Y-147564257D01*
X131124340Y-147799665D01*
X114010000Y-147799665D01*
X114010000Y-146449665D01*
X114510000Y-146449665D01*
X114510000Y-147549665D01*
X115610000Y-147549665D01*
X115610000Y-146901841D01*
X115603597Y-146842289D01*
X115553352Y-146707575D01*
X115467188Y-146592476D01*
X115352089Y-146506312D01*
X115217375Y-146456067D01*
X115157824Y-146449665D01*
X114510000Y-146449665D01*
X114010000Y-146449665D01*
X113362176Y-146449665D01*
X113302624Y-146456067D01*
X113167910Y-146506312D01*
X113052811Y-146592476D01*
X112966646Y-146707578D01*
X112917576Y-146839137D01*
X112882597Y-146889515D01*
X112827753Y-146916968D01*
X112766460Y-146914779D01*
X112713714Y-146883483D01*
X112591404Y-146761173D01*
X112591401Y-146761170D01*
X112397830Y-146625630D01*
X112183663Y-146525762D01*
X112111074Y-146506312D01*
X111955407Y-146464601D01*
X111720000Y-146444005D01*
X111484592Y-146464601D01*
X111256336Y-146525762D01*
X111042170Y-146625630D01*
X110848598Y-146761170D01*
X110681505Y-146928263D01*
X110551575Y-147113824D01*
X110507257Y-147152690D01*
X110450000Y-147166701D01*
X110392743Y-147152690D01*
X110348425Y-147113824D01*
X110268086Y-146999088D01*
X110218495Y-146928264D01*
X110051401Y-146761170D01*
X109857830Y-146625630D01*
X109643663Y-146525762D01*
X109571074Y-146506312D01*
X109415407Y-146464601D01*
X109180000Y-146444005D01*
X108944592Y-146464601D01*
X108716336Y-146525762D01*
X108502170Y-146625630D01*
X108308598Y-146761170D01*
X108141505Y-146928263D01*
X108005965Y-147121835D01*
X107906097Y-147336001D01*
X107844936Y-147564257D01*
X107824340Y-147799665D01*
X90675000Y-147799665D01*
X90675000Y-146450000D01*
X91175000Y-146450000D01*
X91175000Y-147550000D01*
X92275000Y-147550000D01*
X92275000Y-146902176D01*
X92268597Y-146842624D01*
X92218352Y-146707910D01*
X92132188Y-146592811D01*
X92017089Y-146506647D01*
X91882375Y-146456402D01*
X91822824Y-146450000D01*
X91175000Y-146450000D01*
X90675000Y-146450000D01*
X90027176Y-146450000D01*
X89967624Y-146456402D01*
X89832910Y-146506647D01*
X89717811Y-146592811D01*
X89631646Y-146707913D01*
X89582576Y-146839472D01*
X89547597Y-146889850D01*
X89492753Y-146917303D01*
X89431460Y-146915114D01*
X89378714Y-146883818D01*
X89256404Y-146761508D01*
X89256401Y-146761505D01*
X89062830Y-146625965D01*
X88848663Y-146526097D01*
X88776074Y-146506647D01*
X88620407Y-146464936D01*
X88385000Y-146444340D01*
X88149592Y-146464936D01*
X87921336Y-146526097D01*
X87707170Y-146625965D01*
X87513598Y-146761505D01*
X87346505Y-146928598D01*
X87216575Y-147114159D01*
X87172257Y-147153025D01*
X87115000Y-147167036D01*
X87057743Y-147153025D01*
X87013425Y-147114159D01*
X86899078Y-146950854D01*
X86883495Y-146928599D01*
X86716401Y-146761505D01*
X86522830Y-146625965D01*
X86308663Y-146526097D01*
X86236074Y-146506647D01*
X86080407Y-146464936D01*
X85845000Y-146444340D01*
X85609592Y-146464936D01*
X85381336Y-146526097D01*
X85167170Y-146625965D01*
X84973598Y-146761505D01*
X84806505Y-146928598D01*
X84670965Y-147122170D01*
X84571097Y-147336336D01*
X84509936Y-147564592D01*
X84489340Y-147799999D01*
X67375000Y-147799999D01*
X67375000Y-146400000D01*
X67875000Y-146400000D01*
X67875000Y-147500000D01*
X68975000Y-147500000D01*
X68975000Y-146852176D01*
X68968597Y-146792624D01*
X68918352Y-146657910D01*
X68832188Y-146542811D01*
X68717089Y-146456647D01*
X68582375Y-146406402D01*
X68522824Y-146400000D01*
X67875000Y-146400000D01*
X67375000Y-146400000D01*
X66727176Y-146400000D01*
X66667624Y-146406402D01*
X66532910Y-146456647D01*
X66417811Y-146542811D01*
X66331646Y-146657913D01*
X66282576Y-146789472D01*
X66247597Y-146839850D01*
X66192753Y-146867303D01*
X66131460Y-146865114D01*
X66078714Y-146833818D01*
X65956404Y-146711508D01*
X65956401Y-146711505D01*
X65762830Y-146575965D01*
X65548663Y-146476097D01*
X65476074Y-146456647D01*
X65320407Y-146414936D01*
X65085000Y-146394340D01*
X64849592Y-146414936D01*
X64621336Y-146476097D01*
X64407170Y-146575965D01*
X64213598Y-146711505D01*
X64046508Y-146878595D01*
X64046507Y-146878597D01*
X64046505Y-146878599D01*
X64011495Y-146928599D01*
X63916574Y-147064160D01*
X63872255Y-147103026D01*
X63814999Y-147117036D01*
X63757742Y-147103025D01*
X63713426Y-147064161D01*
X63583495Y-146878599D01*
X63416401Y-146711505D01*
X63222830Y-146575965D01*
X63008663Y-146476097D01*
X62936074Y-146456647D01*
X62780407Y-146414936D01*
X62545000Y-146394340D01*
X62309592Y-146414936D01*
X62081336Y-146476097D01*
X61867170Y-146575965D01*
X61673598Y-146711505D01*
X61506505Y-146878598D01*
X61370965Y-147072170D01*
X61271097Y-147286336D01*
X61209936Y-147514592D01*
X61189340Y-147749999D01*
X54868922Y-147749999D01*
X55026186Y-147586881D01*
X55183799Y-147366579D01*
X55307656Y-147125675D01*
X55395118Y-146869305D01*
X55444319Y-146602933D01*
X55454212Y-146332235D01*
X55424586Y-146062982D01*
X55356072Y-145800912D01*
X55250130Y-145551610D01*
X55109018Y-145320390D01*
X55109017Y-145320388D01*
X54935746Y-145112181D01*
X54830758Y-145018112D01*
X54734002Y-144931418D01*
X54508090Y-144781956D01*
X54508086Y-144781954D01*
X54262822Y-144666978D01*
X54003437Y-144588941D01*
X54003431Y-144588940D01*
X53735439Y-144549500D01*
X53532369Y-144549500D01*
X53532366Y-144549500D01*
X53329843Y-144564322D01*
X53065449Y-144623219D01*
X52812441Y-144719986D01*
X52576223Y-144852559D01*
X52361825Y-145018109D01*
X52173813Y-145213120D01*
X52016201Y-145433420D01*
X51892342Y-145674329D01*
X51804881Y-145930695D01*
X51755680Y-146197066D01*
X51745787Y-146467764D01*
X50003947Y-146467764D01*
X50000659Y-146403124D01*
X50000500Y-146396829D01*
X50000500Y-143700000D01*
X61194699Y-143700000D01*
X61213865Y-143931299D01*
X61213865Y-143931301D01*
X61213866Y-143931305D01*
X61270843Y-144156300D01*
X61364076Y-144368849D01*
X61491021Y-144563153D01*
X61648216Y-144733913D01*
X61831374Y-144876470D01*
X62035497Y-144986936D01*
X62126301Y-145018109D01*
X62255015Y-145062297D01*
X62255017Y-145062297D01*
X62255019Y-145062298D01*
X62483951Y-145100500D01*
X62716048Y-145100500D01*
X62716049Y-145100500D01*
X62944981Y-145062298D01*
X63164503Y-144986936D01*
X63368626Y-144876470D01*
X63551784Y-144733913D01*
X63708979Y-144563153D01*
X63746193Y-144506191D01*
X63790980Y-144464962D01*
X63849998Y-144450016D01*
X63909016Y-144464961D01*
X63953807Y-144506194D01*
X63982101Y-144549500D01*
X63991021Y-144563153D01*
X64148216Y-144733913D01*
X64331374Y-144876470D01*
X64535497Y-144986936D01*
X64626301Y-145018109D01*
X64755015Y-145062297D01*
X64755017Y-145062297D01*
X64755019Y-145062298D01*
X64983951Y-145100500D01*
X65216048Y-145100500D01*
X65216049Y-145100500D01*
X65444981Y-145062298D01*
X65664503Y-144986936D01*
X65868626Y-144876470D01*
X66051784Y-144733913D01*
X66208979Y-144563153D01*
X66246193Y-144506191D01*
X66290980Y-144464962D01*
X66349998Y-144450016D01*
X66409016Y-144464961D01*
X66453807Y-144506194D01*
X66482101Y-144549500D01*
X66491021Y-144563153D01*
X66648216Y-144733913D01*
X66831374Y-144876470D01*
X67035497Y-144986936D01*
X67126301Y-145018109D01*
X67255015Y-145062297D01*
X67255017Y-145062297D01*
X67255019Y-145062298D01*
X67483951Y-145100500D01*
X67716048Y-145100500D01*
X67716049Y-145100500D01*
X67944981Y-145062298D01*
X68164503Y-144986936D01*
X68368626Y-144876470D01*
X68551784Y-144733913D01*
X68708979Y-144563153D01*
X68835924Y-144368849D01*
X68929157Y-144156300D01*
X68986134Y-143931305D01*
X69005300Y-143700000D01*
X84494699Y-143700000D01*
X84513865Y-143931299D01*
X84513865Y-143931301D01*
X84513866Y-143931305D01*
X84570843Y-144156300D01*
X84664076Y-144368849D01*
X84791021Y-144563153D01*
X84948216Y-144733913D01*
X85131374Y-144876470D01*
X85335497Y-144986936D01*
X85426301Y-145018109D01*
X85555015Y-145062297D01*
X85555017Y-145062297D01*
X85555019Y-145062298D01*
X85783951Y-145100500D01*
X86016048Y-145100500D01*
X86016049Y-145100500D01*
X86244981Y-145062298D01*
X86464503Y-144986936D01*
X86668626Y-144876470D01*
X86851784Y-144733913D01*
X87008979Y-144563153D01*
X87046193Y-144506191D01*
X87090980Y-144464962D01*
X87149998Y-144450016D01*
X87209016Y-144464961D01*
X87253807Y-144506194D01*
X87282101Y-144549500D01*
X87291021Y-144563153D01*
X87448216Y-144733913D01*
X87631374Y-144876470D01*
X87835497Y-144986936D01*
X87926301Y-145018109D01*
X88055015Y-145062297D01*
X88055017Y-145062297D01*
X88055019Y-145062298D01*
X88283951Y-145100500D01*
X88516048Y-145100500D01*
X88516049Y-145100500D01*
X88744981Y-145062298D01*
X88964503Y-144986936D01*
X89168626Y-144876470D01*
X89351784Y-144733913D01*
X89508979Y-144563153D01*
X89546193Y-144506191D01*
X89590980Y-144464962D01*
X89649998Y-144450016D01*
X89709016Y-144464961D01*
X89753807Y-144506194D01*
X89782101Y-144549500D01*
X89791021Y-144563153D01*
X89948216Y-144733913D01*
X90131374Y-144876470D01*
X90335497Y-144986936D01*
X90426301Y-145018109D01*
X90555015Y-145062297D01*
X90555017Y-145062297D01*
X90555019Y-145062298D01*
X90783951Y-145100500D01*
X91016048Y-145100500D01*
X91016049Y-145100500D01*
X91244981Y-145062298D01*
X91464503Y-144986936D01*
X91668626Y-144876470D01*
X91851784Y-144733913D01*
X92008979Y-144563153D01*
X92135924Y-144368849D01*
X92229157Y-144156300D01*
X92286134Y-143931305D01*
X92305300Y-143700000D01*
X107794699Y-143700000D01*
X107813865Y-143931299D01*
X107813865Y-143931301D01*
X107813866Y-143931305D01*
X107870843Y-144156300D01*
X107964076Y-144368849D01*
X108091021Y-144563153D01*
X108248216Y-144733913D01*
X108431374Y-144876470D01*
X108635497Y-144986936D01*
X108726301Y-145018109D01*
X108855015Y-145062297D01*
X108855017Y-145062297D01*
X108855019Y-145062298D01*
X109083951Y-145100500D01*
X109316048Y-145100500D01*
X109316049Y-145100500D01*
X109544981Y-145062298D01*
X109764503Y-144986936D01*
X109968626Y-144876470D01*
X110151784Y-144733913D01*
X110308979Y-144563153D01*
X110346193Y-144506191D01*
X110390980Y-144464962D01*
X110449998Y-144450016D01*
X110509016Y-144464961D01*
X110553807Y-144506194D01*
X110582101Y-144549500D01*
X110591021Y-144563153D01*
X110748216Y-144733913D01*
X110931374Y-144876470D01*
X111135497Y-144986936D01*
X111226301Y-145018109D01*
X111355015Y-145062297D01*
X111355017Y-145062297D01*
X111355019Y-145062298D01*
X111583951Y-145100500D01*
X111816048Y-145100500D01*
X111816049Y-145100500D01*
X112044981Y-145062298D01*
X112264503Y-144986936D01*
X112468626Y-144876470D01*
X112651784Y-144733913D01*
X112808979Y-144563153D01*
X112846193Y-144506191D01*
X112890980Y-144464962D01*
X112949998Y-144450016D01*
X113009016Y-144464961D01*
X113053807Y-144506194D01*
X113082101Y-144549500D01*
X113091021Y-144563153D01*
X113248216Y-144733913D01*
X113431374Y-144876470D01*
X113635497Y-144986936D01*
X113726301Y-145018109D01*
X113855015Y-145062297D01*
X113855017Y-145062297D01*
X113855019Y-145062298D01*
X114083951Y-145100500D01*
X114316048Y-145100500D01*
X114316049Y-145100500D01*
X114544981Y-145062298D01*
X114764503Y-144986936D01*
X114968626Y-144876470D01*
X115151784Y-144733913D01*
X115308979Y-144563153D01*
X115435924Y-144368849D01*
X115529157Y-144156300D01*
X115586134Y-143931305D01*
X115605300Y-143700000D01*
X131094699Y-143700000D01*
X131113865Y-143931299D01*
X131113865Y-143931301D01*
X131113866Y-143931305D01*
X131170843Y-144156300D01*
X131264076Y-144368849D01*
X131391021Y-144563153D01*
X131548216Y-144733913D01*
X131731374Y-144876470D01*
X131935497Y-144986936D01*
X132026301Y-145018109D01*
X132155015Y-145062297D01*
X132155017Y-145062297D01*
X132155019Y-145062298D01*
X132383951Y-145100500D01*
X132616048Y-145100500D01*
X132616049Y-145100500D01*
X132844981Y-145062298D01*
X133064503Y-144986936D01*
X133268626Y-144876470D01*
X133451784Y-144733913D01*
X133608979Y-144563153D01*
X133646193Y-144506191D01*
X133690980Y-144464962D01*
X133749998Y-144450016D01*
X133809016Y-144464961D01*
X133853807Y-144506194D01*
X133882101Y-144549500D01*
X133891021Y-144563153D01*
X134048216Y-144733913D01*
X134231374Y-144876470D01*
X134435497Y-144986936D01*
X134526301Y-145018109D01*
X134655015Y-145062297D01*
X134655017Y-145062297D01*
X134655019Y-145062298D01*
X134883951Y-145100500D01*
X135116048Y-145100500D01*
X135116049Y-145100500D01*
X135344981Y-145062298D01*
X135564503Y-144986936D01*
X135768626Y-144876470D01*
X135951784Y-144733913D01*
X136108979Y-144563153D01*
X136146192Y-144506193D01*
X136190982Y-144464961D01*
X136250000Y-144450016D01*
X136309018Y-144464961D01*
X136353807Y-144506193D01*
X136391021Y-144563153D01*
X136548216Y-144733913D01*
X136731374Y-144876470D01*
X136935497Y-144986936D01*
X137026301Y-145018109D01*
X137155015Y-145062297D01*
X137155017Y-145062297D01*
X137155019Y-145062298D01*
X137383951Y-145100500D01*
X137616048Y-145100500D01*
X137616049Y-145100500D01*
X137844981Y-145062298D01*
X138064503Y-144986936D01*
X138268626Y-144876470D01*
X138451784Y-144733913D01*
X138608979Y-144563153D01*
X138735924Y-144368849D01*
X138829157Y-144156300D01*
X138886134Y-143931305D01*
X138905300Y-143700000D01*
X138886134Y-143468695D01*
X138829157Y-143243700D01*
X138735924Y-143031151D01*
X138608979Y-142836847D01*
X138451784Y-142666087D01*
X138268626Y-142523530D01*
X138064503Y-142413064D01*
X138064499Y-142413062D01*
X138064498Y-142413062D01*
X137844984Y-142337702D01*
X137673281Y-142309050D01*
X137616049Y-142299500D01*
X137383951Y-142299500D01*
X137338164Y-142307140D01*
X137155015Y-142337702D01*
X136935501Y-142413062D01*
X136731372Y-142523531D01*
X136548215Y-142666087D01*
X136402590Y-142824279D01*
X136391021Y-142836847D01*
X136391021Y-142836848D01*
X136353809Y-142893805D01*
X136309017Y-142935038D01*
X136250000Y-142949983D01*
X136190983Y-142935038D01*
X136146191Y-142893805D01*
X136108979Y-142836847D01*
X135951784Y-142666087D01*
X135768626Y-142523530D01*
X135564503Y-142413064D01*
X135564499Y-142413062D01*
X135564498Y-142413062D01*
X135344984Y-142337702D01*
X135173281Y-142309050D01*
X135116049Y-142299500D01*
X134883951Y-142299500D01*
X134838164Y-142307140D01*
X134655015Y-142337702D01*
X134435501Y-142413062D01*
X134231372Y-142523531D01*
X134048215Y-142666087D01*
X133902590Y-142824279D01*
X133891021Y-142836847D01*
X133891021Y-142836848D01*
X133853809Y-142893805D01*
X133809017Y-142935038D01*
X133750000Y-142949983D01*
X133690983Y-142935038D01*
X133646191Y-142893805D01*
X133608979Y-142836847D01*
X133451784Y-142666087D01*
X133268626Y-142523530D01*
X133064503Y-142413064D01*
X133064499Y-142413062D01*
X133064498Y-142413062D01*
X132844984Y-142337702D01*
X132673281Y-142309050D01*
X132616049Y-142299500D01*
X132383951Y-142299500D01*
X132338164Y-142307140D01*
X132155015Y-142337702D01*
X131935501Y-142413062D01*
X131731372Y-142523531D01*
X131548215Y-142666087D01*
X131391020Y-142836848D01*
X131264076Y-143031150D01*
X131170844Y-143243696D01*
X131113865Y-143468700D01*
X131094699Y-143700000D01*
X115605300Y-143700000D01*
X115586134Y-143468695D01*
X115529157Y-143243700D01*
X115435924Y-143031151D01*
X115308979Y-142836847D01*
X115151784Y-142666087D01*
X114968626Y-142523530D01*
X114764503Y-142413064D01*
X114764499Y-142413062D01*
X114764498Y-142413062D01*
X114544984Y-142337702D01*
X114373281Y-142309050D01*
X114316049Y-142299500D01*
X114083951Y-142299500D01*
X114038164Y-142307140D01*
X113855015Y-142337702D01*
X113635501Y-142413062D01*
X113431372Y-142523531D01*
X113248215Y-142666087D01*
X113102590Y-142824279D01*
X113091021Y-142836847D01*
X113091021Y-142836848D01*
X113053809Y-142893805D01*
X113009017Y-142935038D01*
X112950000Y-142949983D01*
X112890983Y-142935038D01*
X112846191Y-142893805D01*
X112808979Y-142836847D01*
X112651784Y-142666087D01*
X112468626Y-142523530D01*
X112264503Y-142413064D01*
X112264499Y-142413062D01*
X112264498Y-142413062D01*
X112044984Y-142337702D01*
X111873281Y-142309050D01*
X111816049Y-142299500D01*
X111583951Y-142299500D01*
X111538164Y-142307140D01*
X111355015Y-142337702D01*
X111135501Y-142413062D01*
X110931372Y-142523531D01*
X110748215Y-142666087D01*
X110602590Y-142824279D01*
X110591021Y-142836847D01*
X110591021Y-142836848D01*
X110553809Y-142893805D01*
X110509017Y-142935038D01*
X110450000Y-142949983D01*
X110390983Y-142935038D01*
X110346191Y-142893805D01*
X110308979Y-142836847D01*
X110151784Y-142666087D01*
X109968626Y-142523530D01*
X109764503Y-142413064D01*
X109764499Y-142413062D01*
X109764498Y-142413062D01*
X109544984Y-142337702D01*
X109373281Y-142309050D01*
X109316049Y-142299500D01*
X109083951Y-142299500D01*
X109038164Y-142307140D01*
X108855015Y-142337702D01*
X108635501Y-142413062D01*
X108431372Y-142523531D01*
X108248215Y-142666087D01*
X108091020Y-142836848D01*
X107964076Y-143031150D01*
X107870844Y-143243696D01*
X107813865Y-143468700D01*
X107794699Y-143700000D01*
X92305300Y-143700000D01*
X92286134Y-143468695D01*
X92229157Y-143243700D01*
X92135924Y-143031151D01*
X92008979Y-142836847D01*
X91851784Y-142666087D01*
X91668626Y-142523530D01*
X91464503Y-142413064D01*
X91464499Y-142413062D01*
X91464498Y-142413062D01*
X91244984Y-142337702D01*
X91073281Y-142309050D01*
X91016049Y-142299500D01*
X90783951Y-142299500D01*
X90738164Y-142307140D01*
X90555015Y-142337702D01*
X90335501Y-142413062D01*
X90131372Y-142523531D01*
X89948215Y-142666087D01*
X89802590Y-142824279D01*
X89791021Y-142836847D01*
X89791021Y-142836848D01*
X89753809Y-142893805D01*
X89709017Y-142935038D01*
X89650000Y-142949983D01*
X89590983Y-142935038D01*
X89546191Y-142893805D01*
X89508979Y-142836847D01*
X89351784Y-142666087D01*
X89168626Y-142523530D01*
X88964503Y-142413064D01*
X88964499Y-142413062D01*
X88964498Y-142413062D01*
X88744984Y-142337702D01*
X88573281Y-142309050D01*
X88516049Y-142299500D01*
X88283951Y-142299500D01*
X88238164Y-142307140D01*
X88055015Y-142337702D01*
X87835501Y-142413062D01*
X87631372Y-142523531D01*
X87448215Y-142666087D01*
X87302590Y-142824279D01*
X87291021Y-142836847D01*
X87291021Y-142836848D01*
X87253809Y-142893805D01*
X87209017Y-142935038D01*
X87150000Y-142949983D01*
X87090983Y-142935038D01*
X87046191Y-142893805D01*
X87008979Y-142836847D01*
X86851784Y-142666087D01*
X86668626Y-142523530D01*
X86464503Y-142413064D01*
X86464499Y-142413062D01*
X86464498Y-142413062D01*
X86244984Y-142337702D01*
X86073281Y-142309050D01*
X86016049Y-142299500D01*
X85783951Y-142299500D01*
X85738164Y-142307140D01*
X85555015Y-142337702D01*
X85335501Y-142413062D01*
X85131372Y-142523531D01*
X84948215Y-142666087D01*
X84791020Y-142836848D01*
X84664076Y-143031150D01*
X84570844Y-143243696D01*
X84513865Y-143468700D01*
X84494699Y-143700000D01*
X69005300Y-143700000D01*
X68986134Y-143468695D01*
X68929157Y-143243700D01*
X68835924Y-143031151D01*
X68708979Y-142836847D01*
X68551784Y-142666087D01*
X68368626Y-142523530D01*
X68164503Y-142413064D01*
X68164499Y-142413062D01*
X68164498Y-142413062D01*
X67944984Y-142337702D01*
X67773281Y-142309050D01*
X67716049Y-142299500D01*
X67483951Y-142299500D01*
X67438164Y-142307140D01*
X67255015Y-142337702D01*
X67035501Y-142413062D01*
X66831372Y-142523531D01*
X66648215Y-142666087D01*
X66502590Y-142824279D01*
X66491021Y-142836847D01*
X66491021Y-142836848D01*
X66453809Y-142893805D01*
X66409017Y-142935038D01*
X66350000Y-142949983D01*
X66290983Y-142935038D01*
X66246191Y-142893805D01*
X66208979Y-142836847D01*
X66051784Y-142666087D01*
X65868626Y-142523530D01*
X65664503Y-142413064D01*
X65664499Y-142413062D01*
X65664498Y-142413062D01*
X65444984Y-142337702D01*
X65273281Y-142309050D01*
X65216049Y-142299500D01*
X64983951Y-142299500D01*
X64938164Y-142307140D01*
X64755015Y-142337702D01*
X64535501Y-142413062D01*
X64331372Y-142523531D01*
X64148215Y-142666087D01*
X64002590Y-142824279D01*
X63991021Y-142836847D01*
X63991021Y-142836848D01*
X63953809Y-142893805D01*
X63909017Y-142935038D01*
X63850000Y-142949983D01*
X63790983Y-142935038D01*
X63746191Y-142893805D01*
X63708979Y-142836847D01*
X63551784Y-142666087D01*
X63368626Y-142523530D01*
X63164503Y-142413064D01*
X63164499Y-142413062D01*
X63164498Y-142413062D01*
X62944984Y-142337702D01*
X62773281Y-142309050D01*
X62716049Y-142299500D01*
X62483951Y-142299500D01*
X62438164Y-142307140D01*
X62255015Y-142337702D01*
X62035501Y-142413062D01*
X61831372Y-142523531D01*
X61648215Y-142666087D01*
X61491020Y-142836848D01*
X61364076Y-143031150D01*
X61270844Y-143243696D01*
X61213865Y-143468700D01*
X61194699Y-143700000D01*
X50000500Y-143700000D01*
X50000500Y-136756328D01*
X59445709Y-136756328D01*
X59475925Y-136979388D01*
X59511211Y-137087988D01*
X59545483Y-137193464D01*
X59652148Y-137391681D01*
X59792492Y-137567666D01*
X59962004Y-137715765D01*
X59962006Y-137715766D01*
X60155237Y-137831216D01*
X60273214Y-137875493D01*
X60365976Y-137910307D01*
X60587453Y-137950500D01*
X60756153Y-137950500D01*
X60756155Y-137950500D01*
X60924188Y-137935377D01*
X61141170Y-137875493D01*
X61343973Y-137777829D01*
X61526078Y-137645522D01*
X61681632Y-137482825D01*
X61805635Y-137294968D01*
X61894103Y-137087988D01*
X61944191Y-136868537D01*
X61949230Y-136756328D01*
X68245709Y-136756328D01*
X68275925Y-136979388D01*
X68311211Y-137087988D01*
X68345483Y-137193464D01*
X68452148Y-137391681D01*
X68592492Y-137567666D01*
X68762004Y-137715765D01*
X68762006Y-137715766D01*
X68955237Y-137831216D01*
X69073214Y-137875493D01*
X69165976Y-137910307D01*
X69387453Y-137950500D01*
X69556153Y-137950500D01*
X69556155Y-137950500D01*
X69724188Y-137935377D01*
X69941170Y-137875493D01*
X70143973Y-137777829D01*
X70326078Y-137645522D01*
X70481632Y-137482825D01*
X70605635Y-137294968D01*
X70694103Y-137087988D01*
X70744191Y-136868537D01*
X70749230Y-136756328D01*
X82745709Y-136756328D01*
X82775925Y-136979388D01*
X82811211Y-137087988D01*
X82845483Y-137193464D01*
X82952148Y-137391681D01*
X83092492Y-137567666D01*
X83262004Y-137715765D01*
X83262006Y-137715766D01*
X83455237Y-137831216D01*
X83573214Y-137875493D01*
X83665976Y-137910307D01*
X83887453Y-137950500D01*
X84056153Y-137950500D01*
X84056155Y-137950500D01*
X84224188Y-137935377D01*
X84441170Y-137875493D01*
X84643973Y-137777829D01*
X84826078Y-137645522D01*
X84981632Y-137482825D01*
X85105635Y-137294968D01*
X85194103Y-137087988D01*
X85244191Y-136868537D01*
X85249230Y-136756328D01*
X91545709Y-136756328D01*
X91575925Y-136979388D01*
X91611211Y-137087988D01*
X91645483Y-137193464D01*
X91752148Y-137391681D01*
X91892492Y-137567666D01*
X92062004Y-137715765D01*
X92062006Y-137715766D01*
X92255237Y-137831216D01*
X92373214Y-137875493D01*
X92465976Y-137910307D01*
X92687453Y-137950500D01*
X92856153Y-137950500D01*
X92856155Y-137950500D01*
X93024188Y-137935377D01*
X93241170Y-137875493D01*
X93443973Y-137777829D01*
X93626078Y-137645522D01*
X93781632Y-137482825D01*
X93905635Y-137294968D01*
X93994103Y-137087988D01*
X94044191Y-136868537D01*
X94049230Y-136756328D01*
X106045709Y-136756328D01*
X106075925Y-136979388D01*
X106111211Y-137087988D01*
X106145483Y-137193464D01*
X106252148Y-137391681D01*
X106392492Y-137567666D01*
X106562004Y-137715765D01*
X106562006Y-137715766D01*
X106755237Y-137831216D01*
X106873214Y-137875493D01*
X106965976Y-137910307D01*
X107187453Y-137950500D01*
X107356153Y-137950500D01*
X107356155Y-137950500D01*
X107524188Y-137935377D01*
X107741170Y-137875493D01*
X107943973Y-137777829D01*
X108126078Y-137645522D01*
X108281632Y-137482825D01*
X108405635Y-137294968D01*
X108494103Y-137087988D01*
X108544191Y-136868537D01*
X108549230Y-136756328D01*
X114845709Y-136756328D01*
X114875925Y-136979388D01*
X114911211Y-137087988D01*
X114945483Y-137193464D01*
X115052148Y-137391681D01*
X115192492Y-137567666D01*
X115362004Y-137715765D01*
X115362006Y-137715766D01*
X115555237Y-137831216D01*
X115673214Y-137875493D01*
X115765976Y-137910307D01*
X115987453Y-137950500D01*
X116156153Y-137950500D01*
X116156155Y-137950500D01*
X116324188Y-137935377D01*
X116541170Y-137875493D01*
X116743973Y-137777829D01*
X116926078Y-137645522D01*
X117081632Y-137482825D01*
X117205635Y-137294968D01*
X117294103Y-137087988D01*
X117344191Y-136868537D01*
X117349230Y-136756328D01*
X129345709Y-136756328D01*
X129375925Y-136979388D01*
X129411211Y-137087988D01*
X129445483Y-137193464D01*
X129552148Y-137391681D01*
X129692492Y-137567666D01*
X129862004Y-137715765D01*
X129862006Y-137715766D01*
X130055237Y-137831216D01*
X130173214Y-137875493D01*
X130265976Y-137910307D01*
X130487453Y-137950500D01*
X130656153Y-137950500D01*
X130656155Y-137950500D01*
X130824188Y-137935377D01*
X131041170Y-137875493D01*
X131243973Y-137777829D01*
X131426078Y-137645522D01*
X131581632Y-137482825D01*
X131705635Y-137294968D01*
X131794103Y-137087988D01*
X131844191Y-136868537D01*
X131849230Y-136756328D01*
X138145709Y-136756328D01*
X138175925Y-136979388D01*
X138211211Y-137087988D01*
X138245483Y-137193464D01*
X138352148Y-137391681D01*
X138492492Y-137567666D01*
X138662004Y-137715765D01*
X138662006Y-137715766D01*
X138855237Y-137831216D01*
X138973214Y-137875493D01*
X139065976Y-137910307D01*
X139287453Y-137950500D01*
X139456153Y-137950500D01*
X139456155Y-137950500D01*
X139624188Y-137935377D01*
X139841170Y-137875493D01*
X140043973Y-137777829D01*
X140226078Y-137645522D01*
X140381632Y-137482825D01*
X140505635Y-137294968D01*
X140594103Y-137087988D01*
X140644191Y-136868537D01*
X140654290Y-136643670D01*
X140624075Y-136420613D01*
X140554517Y-136206536D01*
X140447852Y-136008319D01*
X140307508Y-135832334D01*
X140137996Y-135684235D01*
X140137993Y-135684233D01*
X139944762Y-135568783D01*
X139734025Y-135489693D01*
X139512547Y-135449500D01*
X139343845Y-135449500D01*
X139276631Y-135455549D01*
X139175809Y-135464623D01*
X138958828Y-135524507D01*
X138756027Y-135622170D01*
X138573925Y-135754475D01*
X138418365Y-135917178D01*
X138294365Y-136105031D01*
X138205896Y-136312012D01*
X138155809Y-136531462D01*
X138145709Y-136756328D01*
X131849230Y-136756328D01*
X131854290Y-136643670D01*
X131824075Y-136420613D01*
X131754517Y-136206536D01*
X131647852Y-136008319D01*
X131507508Y-135832334D01*
X131337996Y-135684235D01*
X131337993Y-135684233D01*
X131144762Y-135568783D01*
X130934025Y-135489693D01*
X130712547Y-135449500D01*
X130543845Y-135449500D01*
X130476631Y-135455549D01*
X130375809Y-135464623D01*
X130158828Y-135524507D01*
X129956027Y-135622170D01*
X129773925Y-135754475D01*
X129618365Y-135917178D01*
X129494365Y-136105031D01*
X129405896Y-136312012D01*
X129355809Y-136531462D01*
X129345709Y-136756328D01*
X117349230Y-136756328D01*
X117354290Y-136643670D01*
X117324075Y-136420613D01*
X117254517Y-136206536D01*
X117147852Y-136008319D01*
X117007508Y-135832334D01*
X116837996Y-135684235D01*
X116837993Y-135684233D01*
X116644762Y-135568783D01*
X116434025Y-135489693D01*
X116212547Y-135449500D01*
X116043845Y-135449500D01*
X115976631Y-135455549D01*
X115875809Y-135464623D01*
X115658828Y-135524507D01*
X115456027Y-135622170D01*
X115273925Y-135754475D01*
X115118365Y-135917178D01*
X114994365Y-136105031D01*
X114905896Y-136312012D01*
X114855809Y-136531462D01*
X114845709Y-136756328D01*
X108549230Y-136756328D01*
X108554290Y-136643670D01*
X108524075Y-136420613D01*
X108454517Y-136206536D01*
X108347852Y-136008319D01*
X108207508Y-135832334D01*
X108037996Y-135684235D01*
X108037993Y-135684233D01*
X107844762Y-135568783D01*
X107634025Y-135489693D01*
X107412547Y-135449500D01*
X107243845Y-135449500D01*
X107176631Y-135455549D01*
X107075809Y-135464623D01*
X106858828Y-135524507D01*
X106656027Y-135622170D01*
X106473925Y-135754475D01*
X106318365Y-135917178D01*
X106194365Y-136105031D01*
X106105896Y-136312012D01*
X106055809Y-136531462D01*
X106045709Y-136756328D01*
X94049230Y-136756328D01*
X94054290Y-136643670D01*
X94024075Y-136420613D01*
X93954517Y-136206536D01*
X93847852Y-136008319D01*
X93707508Y-135832334D01*
X93537996Y-135684235D01*
X93537993Y-135684233D01*
X93344762Y-135568783D01*
X93134025Y-135489693D01*
X92912547Y-135449500D01*
X92743845Y-135449500D01*
X92676631Y-135455549D01*
X92575809Y-135464623D01*
X92358828Y-135524507D01*
X92156027Y-135622170D01*
X91973925Y-135754475D01*
X91818365Y-135917178D01*
X91694365Y-136105031D01*
X91605896Y-136312012D01*
X91555809Y-136531462D01*
X91545709Y-136756328D01*
X85249230Y-136756328D01*
X85254290Y-136643670D01*
X85224075Y-136420613D01*
X85154517Y-136206536D01*
X85047852Y-136008319D01*
X84907508Y-135832334D01*
X84737996Y-135684235D01*
X84737993Y-135684233D01*
X84544762Y-135568783D01*
X84334025Y-135489693D01*
X84112547Y-135449500D01*
X83943845Y-135449500D01*
X83876631Y-135455549D01*
X83775809Y-135464623D01*
X83558828Y-135524507D01*
X83356027Y-135622170D01*
X83173925Y-135754475D01*
X83018365Y-135917178D01*
X82894365Y-136105031D01*
X82805896Y-136312012D01*
X82755809Y-136531462D01*
X82745709Y-136756328D01*
X70749230Y-136756328D01*
X70754290Y-136643670D01*
X70724075Y-136420613D01*
X70654517Y-136206536D01*
X70547852Y-136008319D01*
X70407508Y-135832334D01*
X70237996Y-135684235D01*
X70237993Y-135684233D01*
X70044762Y-135568783D01*
X69834025Y-135489693D01*
X69612547Y-135449500D01*
X69443845Y-135449500D01*
X69376631Y-135455549D01*
X69275809Y-135464623D01*
X69058828Y-135524507D01*
X68856027Y-135622170D01*
X68673925Y-135754475D01*
X68518365Y-135917178D01*
X68394365Y-136105031D01*
X68305896Y-136312012D01*
X68255809Y-136531462D01*
X68245709Y-136756328D01*
X61949230Y-136756328D01*
X61954290Y-136643670D01*
X61924075Y-136420613D01*
X61854517Y-136206536D01*
X61747852Y-136008319D01*
X61607508Y-135832334D01*
X61437996Y-135684235D01*
X61437993Y-135684233D01*
X61244762Y-135568783D01*
X61034025Y-135489693D01*
X60812547Y-135449500D01*
X60643845Y-135449500D01*
X60576631Y-135455549D01*
X60475809Y-135464623D01*
X60258828Y-135524507D01*
X60056027Y-135622170D01*
X59873925Y-135754475D01*
X59718365Y-135917178D01*
X59594365Y-136105031D01*
X59505896Y-136312012D01*
X59455809Y-136531462D01*
X59445709Y-136756328D01*
X50000500Y-136756328D01*
X50000500Y-127850000D01*
X50650000Y-127850000D01*
X50650000Y-128497824D01*
X50656402Y-128557375D01*
X50706647Y-128692089D01*
X50792811Y-128807188D01*
X50907910Y-128893352D01*
X51042624Y-128943597D01*
X51102176Y-128950000D01*
X51750000Y-128950000D01*
X51750000Y-127850000D01*
X52250000Y-127850000D01*
X52250000Y-128950000D01*
X52897824Y-128950000D01*
X52957375Y-128943597D01*
X53092089Y-128893352D01*
X53207188Y-128807188D01*
X53293352Y-128692089D01*
X53343597Y-128557375D01*
X53350000Y-128497824D01*
X53350000Y-128447869D01*
X58879500Y-128447869D01*
X58885909Y-128507484D01*
X58904517Y-128557375D01*
X58936204Y-128642331D01*
X59022454Y-128757546D01*
X59137669Y-128843796D01*
X59272517Y-128894091D01*
X59332127Y-128900500D01*
X61127872Y-128900499D01*
X61187483Y-128894091D01*
X61322331Y-128843796D01*
X61437546Y-128757546D01*
X61523796Y-128642331D01*
X61572810Y-128510916D01*
X61607789Y-128460537D01*
X61662634Y-128433084D01*
X61723927Y-128435273D01*
X61776673Y-128466569D01*
X61898599Y-128588495D01*
X62092170Y-128724035D01*
X62306337Y-128823903D01*
X62534592Y-128885063D01*
X62770000Y-128905659D01*
X63005408Y-128885063D01*
X63233663Y-128823903D01*
X63447830Y-128724035D01*
X63641401Y-128588495D01*
X63808495Y-128421401D01*
X63938426Y-128235839D01*
X63982743Y-128196976D01*
X64040000Y-128182965D01*
X64097257Y-128196976D01*
X64141573Y-128235839D01*
X64271505Y-128421401D01*
X64438599Y-128588495D01*
X64632170Y-128724035D01*
X64846337Y-128823903D01*
X65074592Y-128885063D01*
X65310000Y-128905659D01*
X65545408Y-128885063D01*
X65773663Y-128823903D01*
X65987830Y-128724035D01*
X66181401Y-128588495D01*
X66322027Y-128447869D01*
X72649500Y-128447869D01*
X72655909Y-128507484D01*
X72674517Y-128557375D01*
X72706204Y-128642331D01*
X72792454Y-128757546D01*
X72907669Y-128843796D01*
X73042517Y-128894091D01*
X73102127Y-128900500D01*
X74897872Y-128900499D01*
X74957483Y-128894091D01*
X75092331Y-128843796D01*
X75207546Y-128757546D01*
X75293796Y-128642331D01*
X75344091Y-128507483D01*
X75350500Y-128447873D01*
X75350499Y-126652128D01*
X75344091Y-126592517D01*
X75293796Y-126457669D01*
X75207546Y-126342454D01*
X75092331Y-126256204D01*
X74957483Y-126205909D01*
X74897873Y-126199500D01*
X74897869Y-126199500D01*
X73102130Y-126199500D01*
X73042515Y-126205909D01*
X72907669Y-126256204D01*
X72792454Y-126342454D01*
X72706204Y-126457668D01*
X72655909Y-126592516D01*
X72649500Y-126652130D01*
X72649500Y-128447869D01*
X66322027Y-128447869D01*
X66348495Y-128421401D01*
X66484035Y-128227830D01*
X66583903Y-128013663D01*
X66645063Y-127785408D01*
X66665659Y-127550000D01*
X66645063Y-127314592D01*
X66583903Y-127086337D01*
X66484035Y-126872171D01*
X66348495Y-126678599D01*
X66181401Y-126511505D01*
X65987830Y-126375965D01*
X65773663Y-126276097D01*
X65712502Y-126259709D01*
X65545407Y-126214936D01*
X65310000Y-126194340D01*
X65074592Y-126214936D01*
X64846336Y-126276097D01*
X64632170Y-126375965D01*
X64438598Y-126511505D01*
X64271508Y-126678595D01*
X64141574Y-126864160D01*
X64097255Y-126903026D01*
X64039999Y-126917036D01*
X63982742Y-126903025D01*
X63938426Y-126864161D01*
X63808495Y-126678599D01*
X63641401Y-126511505D01*
X63447830Y-126375965D01*
X63233663Y-126276097D01*
X63172502Y-126259709D01*
X63005407Y-126214936D01*
X62770000Y-126194340D01*
X62534592Y-126214936D01*
X62306336Y-126276097D01*
X62092170Y-126375965D01*
X61898601Y-126511503D01*
X61776673Y-126633431D01*
X61723926Y-126664726D01*
X61662634Y-126666915D01*
X61607789Y-126639462D01*
X61572810Y-126589082D01*
X61565658Y-126569907D01*
X61523796Y-126457669D01*
X61437546Y-126342454D01*
X61322331Y-126256204D01*
X61187483Y-126205909D01*
X61127873Y-126199500D01*
X61127869Y-126199500D01*
X59332130Y-126199500D01*
X59272515Y-126205909D01*
X59137669Y-126256204D01*
X59022454Y-126342454D01*
X58936204Y-126457668D01*
X58885909Y-126592516D01*
X58879500Y-126652130D01*
X58879500Y-128447869D01*
X53350000Y-128447869D01*
X53350000Y-127850000D01*
X52250000Y-127850000D01*
X51750000Y-127850000D01*
X50650000Y-127850000D01*
X50000500Y-127850000D01*
X50000500Y-127350000D01*
X50650000Y-127350000D01*
X51750000Y-127350000D01*
X51750000Y-126250000D01*
X52250000Y-126250000D01*
X52250000Y-127350000D01*
X53350000Y-127350000D01*
X53350000Y-126702176D01*
X53343597Y-126642624D01*
X53293352Y-126507910D01*
X53207188Y-126392811D01*
X53092089Y-126306647D01*
X52957375Y-126256402D01*
X52897824Y-126250000D01*
X52250000Y-126250000D01*
X51750000Y-126250000D01*
X51102176Y-126250000D01*
X51042624Y-126256402D01*
X50907910Y-126306647D01*
X50792811Y-126392811D01*
X50706647Y-126507910D01*
X50656402Y-126642624D01*
X50650000Y-126702176D01*
X50650000Y-127350000D01*
X50000500Y-127350000D01*
X50000500Y-119897869D01*
X54049500Y-119897869D01*
X54055909Y-119957484D01*
X54081056Y-120024907D01*
X54106204Y-120092331D01*
X54192454Y-120207546D01*
X54307669Y-120293796D01*
X54442517Y-120344091D01*
X54502127Y-120350500D01*
X56297872Y-120350499D01*
X56357483Y-120344091D01*
X56492331Y-120293796D01*
X56607546Y-120207546D01*
X56693796Y-120092331D01*
X56742810Y-119960916D01*
X56777789Y-119910537D01*
X56832634Y-119883084D01*
X56893927Y-119885273D01*
X56946672Y-119916568D01*
X57068599Y-120038495D01*
X57262170Y-120174035D01*
X57476337Y-120273903D01*
X57704592Y-120335063D01*
X57940000Y-120355659D01*
X58175408Y-120335063D01*
X58403663Y-120273903D01*
X58617830Y-120174035D01*
X58811401Y-120038495D01*
X58952027Y-119897869D01*
X65749500Y-119897869D01*
X65755909Y-119957484D01*
X65781056Y-120024907D01*
X65806204Y-120092331D01*
X65892454Y-120207546D01*
X66007669Y-120293796D01*
X66142517Y-120344091D01*
X66202127Y-120350500D01*
X67997872Y-120350499D01*
X68057483Y-120344091D01*
X68192331Y-120293796D01*
X68307546Y-120207546D01*
X68393796Y-120092331D01*
X68442810Y-119960916D01*
X68477789Y-119910537D01*
X68532634Y-119883084D01*
X68593927Y-119885273D01*
X68646672Y-119916568D01*
X68768599Y-120038495D01*
X68962170Y-120174035D01*
X69176337Y-120273903D01*
X69404592Y-120335063D01*
X69640000Y-120355659D01*
X69875408Y-120335063D01*
X70103663Y-120273903D01*
X70317830Y-120174035D01*
X70511401Y-120038495D01*
X70678495Y-119871401D01*
X70814035Y-119677830D01*
X70913903Y-119463663D01*
X70975063Y-119235408D01*
X70995659Y-119000000D01*
X70994661Y-118988598D01*
X70975063Y-118764592D01*
X70945016Y-118652454D01*
X70913903Y-118536337D01*
X70814035Y-118322171D01*
X70678495Y-118128599D01*
X70511401Y-117961505D01*
X70317830Y-117825965D01*
X70103663Y-117726097D01*
X70042501Y-117709709D01*
X69875407Y-117664936D01*
X69640000Y-117644340D01*
X69404592Y-117664936D01*
X69176336Y-117726097D01*
X68962170Y-117825965D01*
X68768601Y-117961503D01*
X68646673Y-118083431D01*
X68593926Y-118114726D01*
X68532634Y-118116915D01*
X68477789Y-118089462D01*
X68442810Y-118039082D01*
X68435658Y-118019907D01*
X68393796Y-117907669D01*
X68307546Y-117792454D01*
X68192331Y-117706204D01*
X68057483Y-117655909D01*
X67997873Y-117649500D01*
X67997869Y-117649500D01*
X66202130Y-117649500D01*
X66142515Y-117655909D01*
X66007669Y-117706204D01*
X65892454Y-117792454D01*
X65806204Y-117907668D01*
X65806203Y-117907669D01*
X65806204Y-117907669D01*
X65755909Y-118042517D01*
X65753371Y-118066128D01*
X65749500Y-118102130D01*
X65749500Y-119897869D01*
X58952027Y-119897869D01*
X58978495Y-119871401D01*
X59114035Y-119677830D01*
X59213903Y-119463663D01*
X59275063Y-119235408D01*
X59295659Y-119000000D01*
X59294661Y-118988598D01*
X59275063Y-118764592D01*
X59245016Y-118652454D01*
X59213903Y-118536337D01*
X59114035Y-118322171D01*
X58978495Y-118128599D01*
X58811401Y-117961505D01*
X58617830Y-117825965D01*
X58403663Y-117726097D01*
X58342501Y-117709709D01*
X58175407Y-117664936D01*
X57940000Y-117644340D01*
X57704592Y-117664936D01*
X57476336Y-117726097D01*
X57262170Y-117825965D01*
X57068601Y-117961503D01*
X56946673Y-118083431D01*
X56893926Y-118114726D01*
X56832634Y-118116915D01*
X56777789Y-118089462D01*
X56742810Y-118039082D01*
X56735658Y-118019907D01*
X56693796Y-117907669D01*
X56607546Y-117792454D01*
X56492331Y-117706204D01*
X56357483Y-117655909D01*
X56297873Y-117649500D01*
X56297869Y-117649500D01*
X54502130Y-117649500D01*
X54442515Y-117655909D01*
X54307669Y-117706204D01*
X54192454Y-117792454D01*
X54106204Y-117907668D01*
X54106203Y-117907669D01*
X54106204Y-117907669D01*
X54055909Y-118042517D01*
X54053371Y-118066128D01*
X54049500Y-118102130D01*
X54049500Y-119897869D01*
X50000500Y-119897869D01*
X50000500Y-105900000D01*
X51794785Y-105900000D01*
X51813602Y-106103083D01*
X51869418Y-106299251D01*
X51960324Y-106481818D01*
X52083236Y-106644580D01*
X52233958Y-106781981D01*
X52407361Y-106889347D01*
X52407363Y-106889348D01*
X52597544Y-106963024D01*
X52798024Y-107000500D01*
X53001974Y-107000500D01*
X53001976Y-107000500D01*
X53202456Y-106963024D01*
X53392637Y-106889348D01*
X53566041Y-106781981D01*
X53605507Y-106746003D01*
X53716763Y-106644580D01*
X53750429Y-106599999D01*
X53839673Y-106481821D01*
X53839673Y-106481819D01*
X53839675Y-106481818D01*
X53903759Y-106353118D01*
X53930582Y-106299250D01*
X53986397Y-106103083D01*
X54005215Y-105900000D01*
X53986397Y-105696917D01*
X53930582Y-105500750D01*
X53930209Y-105500001D01*
X53839675Y-105318181D01*
X53716763Y-105155419D01*
X53566041Y-105018018D01*
X53392638Y-104910652D01*
X53202457Y-104836976D01*
X53135629Y-104824484D01*
X53001976Y-104799500D01*
X52798024Y-104799500D01*
X52697783Y-104818238D01*
X52597542Y-104836976D01*
X52407361Y-104910652D01*
X52233958Y-105018018D01*
X52083236Y-105155419D01*
X51960324Y-105318181D01*
X51869418Y-105500748D01*
X51813602Y-105696916D01*
X51794785Y-105900000D01*
X50000500Y-105900000D01*
X50000500Y-96497869D01*
X54317000Y-96497869D01*
X54323409Y-96557484D01*
X54333774Y-96585273D01*
X54373704Y-96692331D01*
X54459954Y-96807546D01*
X54575169Y-96893796D01*
X54710017Y-96944091D01*
X54769627Y-96950500D01*
X56565372Y-96950499D01*
X56624983Y-96944091D01*
X56759831Y-96893796D01*
X56875046Y-96807546D01*
X56961296Y-96692331D01*
X57010310Y-96560916D01*
X57045289Y-96510537D01*
X57100134Y-96483084D01*
X57161427Y-96485273D01*
X57214173Y-96516569D01*
X57336099Y-96638495D01*
X57529670Y-96774035D01*
X57743837Y-96873903D01*
X57972092Y-96935063D01*
X58207500Y-96955659D01*
X58442908Y-96935063D01*
X58671163Y-96873903D01*
X58885330Y-96774035D01*
X59078901Y-96638495D01*
X59119527Y-96597869D01*
X65742000Y-96597869D01*
X65748409Y-96657484D01*
X65762744Y-96695917D01*
X65798704Y-96792331D01*
X65884954Y-96907546D01*
X66000169Y-96993796D01*
X66135017Y-97044091D01*
X66194627Y-97050500D01*
X67990372Y-97050499D01*
X68049983Y-97044091D01*
X68184831Y-96993796D01*
X68300046Y-96907546D01*
X68386296Y-96792331D01*
X68435310Y-96660916D01*
X68470289Y-96610537D01*
X68525134Y-96583084D01*
X68586427Y-96585273D01*
X68639172Y-96616568D01*
X68761099Y-96738495D01*
X68954670Y-96874035D01*
X69168837Y-96973903D01*
X69397092Y-97035063D01*
X69632500Y-97055659D01*
X69867908Y-97035063D01*
X70096163Y-96973903D01*
X70310330Y-96874035D01*
X70503901Y-96738495D01*
X70644527Y-96597869D01*
X80142000Y-96597869D01*
X80148409Y-96657484D01*
X80162744Y-96695917D01*
X80198704Y-96792331D01*
X80284954Y-96907546D01*
X80400169Y-96993796D01*
X80535017Y-97044091D01*
X80594627Y-97050500D01*
X82390372Y-97050499D01*
X82449983Y-97044091D01*
X82584831Y-96993796D01*
X82700046Y-96907546D01*
X82786296Y-96792331D01*
X82835310Y-96660916D01*
X82870289Y-96610537D01*
X82925134Y-96583084D01*
X82986427Y-96585273D01*
X83039172Y-96616568D01*
X83161099Y-96738495D01*
X83354670Y-96874035D01*
X83568837Y-96973903D01*
X83797092Y-97035063D01*
X84032500Y-97055659D01*
X84267908Y-97035063D01*
X84496163Y-96973903D01*
X84710330Y-96874035D01*
X84903901Y-96738495D01*
X85044527Y-96597869D01*
X93442000Y-96597869D01*
X93448409Y-96657484D01*
X93462744Y-96695917D01*
X93498704Y-96792331D01*
X93584954Y-96907546D01*
X93700169Y-96993796D01*
X93835017Y-97044091D01*
X93894627Y-97050500D01*
X95690372Y-97050499D01*
X95749983Y-97044091D01*
X95884831Y-96993796D01*
X96000046Y-96907546D01*
X96086296Y-96792331D01*
X96135310Y-96660916D01*
X96170289Y-96610537D01*
X96225134Y-96583084D01*
X96286427Y-96585273D01*
X96339172Y-96616568D01*
X96461099Y-96738495D01*
X96654670Y-96874035D01*
X96868837Y-96973903D01*
X97097092Y-97035063D01*
X97332500Y-97055659D01*
X97567908Y-97035063D01*
X97796163Y-96973903D01*
X98010330Y-96874035D01*
X98203901Y-96738495D01*
X98370995Y-96571401D01*
X98506535Y-96377830D01*
X98606403Y-96163663D01*
X98667563Y-95935408D01*
X98688159Y-95700000D01*
X98667563Y-95464592D01*
X98606403Y-95236337D01*
X98506535Y-95022171D01*
X98370995Y-94828599D01*
X98203901Y-94661505D01*
X98010330Y-94525965D01*
X97796163Y-94426097D01*
X97724182Y-94406810D01*
X97567907Y-94364936D01*
X97332500Y-94344340D01*
X97097092Y-94364936D01*
X96868836Y-94426097D01*
X96654670Y-94525965D01*
X96461101Y-94661503D01*
X96339173Y-94783431D01*
X96286426Y-94814726D01*
X96225134Y-94816915D01*
X96170289Y-94789462D01*
X96135310Y-94739082D01*
X96125197Y-94711969D01*
X96086296Y-94607669D01*
X96000046Y-94492454D01*
X95884831Y-94406204D01*
X95749983Y-94355909D01*
X95690373Y-94349500D01*
X95690369Y-94349500D01*
X93894630Y-94349500D01*
X93835015Y-94355909D01*
X93700169Y-94406204D01*
X93584954Y-94492454D01*
X93498704Y-94607668D01*
X93448409Y-94742516D01*
X93442000Y-94802130D01*
X93442000Y-96597869D01*
X85044527Y-96597869D01*
X85070995Y-96571401D01*
X85206535Y-96377830D01*
X85306403Y-96163663D01*
X85367563Y-95935408D01*
X85388159Y-95700000D01*
X85367563Y-95464592D01*
X85306403Y-95236337D01*
X85206535Y-95022171D01*
X85070995Y-94828599D01*
X84903901Y-94661505D01*
X84710330Y-94525965D01*
X84496163Y-94426097D01*
X84424182Y-94406810D01*
X84267907Y-94364936D01*
X84032500Y-94344340D01*
X83797092Y-94364936D01*
X83568836Y-94426097D01*
X83354670Y-94525965D01*
X83161101Y-94661503D01*
X83039173Y-94783431D01*
X82986426Y-94814726D01*
X82925134Y-94816915D01*
X82870289Y-94789462D01*
X82835310Y-94739082D01*
X82825197Y-94711969D01*
X82786296Y-94607669D01*
X82700046Y-94492454D01*
X82584831Y-94406204D01*
X82449983Y-94355909D01*
X82390373Y-94349500D01*
X82390369Y-94349500D01*
X80594630Y-94349500D01*
X80535015Y-94355909D01*
X80400169Y-94406204D01*
X80284954Y-94492454D01*
X80198704Y-94607668D01*
X80148409Y-94742516D01*
X80142000Y-94802130D01*
X80142000Y-96597869D01*
X70644527Y-96597869D01*
X70670995Y-96571401D01*
X70806535Y-96377830D01*
X70906403Y-96163663D01*
X70967563Y-95935408D01*
X70988159Y-95700000D01*
X70967563Y-95464592D01*
X70906403Y-95236337D01*
X70806535Y-95022171D01*
X70670995Y-94828599D01*
X70503901Y-94661505D01*
X70310330Y-94525965D01*
X70096163Y-94426097D01*
X70024182Y-94406810D01*
X69867907Y-94364936D01*
X69632500Y-94344340D01*
X69397092Y-94364936D01*
X69168836Y-94426097D01*
X68954670Y-94525965D01*
X68761101Y-94661503D01*
X68639173Y-94783431D01*
X68586426Y-94814726D01*
X68525134Y-94816915D01*
X68470289Y-94789462D01*
X68435310Y-94739082D01*
X68425197Y-94711969D01*
X68386296Y-94607669D01*
X68300046Y-94492454D01*
X68184831Y-94406204D01*
X68049983Y-94355909D01*
X67990373Y-94349500D01*
X67990369Y-94349500D01*
X66194630Y-94349500D01*
X66135015Y-94355909D01*
X66000169Y-94406204D01*
X65884954Y-94492454D01*
X65798704Y-94607668D01*
X65748409Y-94742516D01*
X65742000Y-94802130D01*
X65742000Y-96597869D01*
X59119527Y-96597869D01*
X59245995Y-96471401D01*
X59381535Y-96277830D01*
X59481403Y-96063663D01*
X59542563Y-95835408D01*
X59563159Y-95600000D01*
X59542563Y-95364592D01*
X59481403Y-95136337D01*
X59381535Y-94922171D01*
X59245995Y-94728599D01*
X59078901Y-94561505D01*
X58885330Y-94425965D01*
X58671163Y-94326097D01*
X58610002Y-94309709D01*
X58442907Y-94264936D01*
X58207500Y-94244340D01*
X57972092Y-94264936D01*
X57743836Y-94326097D01*
X57529670Y-94425965D01*
X57336101Y-94561503D01*
X57214173Y-94683431D01*
X57161426Y-94714726D01*
X57100134Y-94716915D01*
X57045289Y-94689462D01*
X57010310Y-94639082D01*
X57001580Y-94615677D01*
X56961296Y-94507669D01*
X56875046Y-94392454D01*
X56759831Y-94306204D01*
X56624983Y-94255909D01*
X56565373Y-94249500D01*
X56565369Y-94249500D01*
X54769630Y-94249500D01*
X54710015Y-94255909D01*
X54575169Y-94306204D01*
X54459954Y-94392454D01*
X54373704Y-94507668D01*
X54333419Y-94615677D01*
X54323409Y-94642517D01*
X54317605Y-94696505D01*
X54317000Y-94702130D01*
X54317000Y-96497869D01*
X50000500Y-96497869D01*
X50000500Y-83597869D01*
X56449500Y-83597869D01*
X56455909Y-83657484D01*
X56481056Y-83724906D01*
X56506204Y-83792331D01*
X56592454Y-83907546D01*
X56707669Y-83993796D01*
X56842517Y-84044091D01*
X56902127Y-84050500D01*
X58697872Y-84050499D01*
X58757483Y-84044091D01*
X58892331Y-83993796D01*
X59007546Y-83907546D01*
X59093796Y-83792331D01*
X59142810Y-83660916D01*
X59177789Y-83610537D01*
X59232634Y-83583084D01*
X59293927Y-83585273D01*
X59346673Y-83616569D01*
X59468599Y-83738495D01*
X59662170Y-83874035D01*
X59876337Y-83973903D01*
X60104591Y-84035062D01*
X60104592Y-84035063D01*
X60339999Y-84055659D01*
X60339999Y-84055658D01*
X60340000Y-84055659D01*
X60575408Y-84035063D01*
X60803663Y-83973903D01*
X61017830Y-83874035D01*
X61211401Y-83738495D01*
X61352027Y-83597869D01*
X65849500Y-83597869D01*
X65855909Y-83657484D01*
X65881056Y-83724906D01*
X65906204Y-83792331D01*
X65992454Y-83907546D01*
X66107669Y-83993796D01*
X66242517Y-84044091D01*
X66302127Y-84050500D01*
X68097872Y-84050499D01*
X68157483Y-84044091D01*
X68292331Y-83993796D01*
X68407546Y-83907546D01*
X68493796Y-83792331D01*
X68542810Y-83660916D01*
X68577789Y-83610537D01*
X68632634Y-83583084D01*
X68693927Y-83585273D01*
X68746673Y-83616569D01*
X68868599Y-83738495D01*
X69062170Y-83874035D01*
X69276337Y-83973903D01*
X69504591Y-84035062D01*
X69504592Y-84035063D01*
X69739999Y-84055659D01*
X69739999Y-84055658D01*
X69740000Y-84055659D01*
X69975408Y-84035063D01*
X70203663Y-83973903D01*
X70417830Y-83874035D01*
X70611401Y-83738495D01*
X70752027Y-83597869D01*
X76424500Y-83597869D01*
X76430909Y-83657484D01*
X76456056Y-83724906D01*
X76481204Y-83792331D01*
X76567454Y-83907546D01*
X76682669Y-83993796D01*
X76817517Y-84044091D01*
X76877127Y-84050500D01*
X78672872Y-84050499D01*
X78732483Y-84044091D01*
X78867331Y-83993796D01*
X78982546Y-83907546D01*
X79068796Y-83792331D01*
X79117810Y-83660916D01*
X79152789Y-83610537D01*
X79207634Y-83583084D01*
X79268927Y-83585273D01*
X79321673Y-83616569D01*
X79443599Y-83738495D01*
X79637170Y-83874035D01*
X79851337Y-83973903D01*
X80079591Y-84035062D01*
X80079592Y-84035063D01*
X80314999Y-84055659D01*
X80314999Y-84055658D01*
X80315000Y-84055659D01*
X80550408Y-84035063D01*
X80778663Y-83973903D01*
X80992830Y-83874035D01*
X81186401Y-83738495D01*
X81327027Y-83597869D01*
X86149500Y-83597869D01*
X86155909Y-83657484D01*
X86181056Y-83724906D01*
X86206204Y-83792331D01*
X86292454Y-83907546D01*
X86407669Y-83993796D01*
X86542517Y-84044091D01*
X86602127Y-84050500D01*
X88397872Y-84050499D01*
X88457483Y-84044091D01*
X88592331Y-83993796D01*
X88707546Y-83907546D01*
X88793796Y-83792331D01*
X88842810Y-83660916D01*
X88877789Y-83610537D01*
X88932634Y-83583084D01*
X88993927Y-83585273D01*
X89046673Y-83616569D01*
X89168599Y-83738495D01*
X89362170Y-83874035D01*
X89576337Y-83973903D01*
X89804591Y-84035062D01*
X89804592Y-84035063D01*
X90039999Y-84055659D01*
X90039999Y-84055658D01*
X90040000Y-84055659D01*
X90275408Y-84035063D01*
X90503663Y-83973903D01*
X90717830Y-83874035D01*
X90911401Y-83738495D01*
X91052027Y-83597869D01*
X95249500Y-83597869D01*
X95255909Y-83657484D01*
X95281056Y-83724906D01*
X95306204Y-83792331D01*
X95392454Y-83907546D01*
X95507669Y-83993796D01*
X95642517Y-84044091D01*
X95702127Y-84050500D01*
X97497872Y-84050499D01*
X97557483Y-84044091D01*
X97692331Y-83993796D01*
X97807546Y-83907546D01*
X97893796Y-83792331D01*
X97942810Y-83660916D01*
X97977789Y-83610537D01*
X98032634Y-83583084D01*
X98093927Y-83585273D01*
X98146673Y-83616569D01*
X98268599Y-83738495D01*
X98462170Y-83874035D01*
X98676337Y-83973903D01*
X98904591Y-84035062D01*
X98904592Y-84035063D01*
X99139999Y-84055659D01*
X99139999Y-84055658D01*
X99140000Y-84055659D01*
X99375408Y-84035063D01*
X99603663Y-83973903D01*
X99817830Y-83874035D01*
X100011401Y-83738495D01*
X100178495Y-83571401D01*
X100308426Y-83385839D01*
X100352743Y-83346975D01*
X100410000Y-83332964D01*
X100467257Y-83346975D01*
X100511573Y-83385839D01*
X100641505Y-83571401D01*
X100808599Y-83738495D01*
X101002170Y-83874035D01*
X101216337Y-83973903D01*
X101444591Y-84035062D01*
X101444592Y-84035063D01*
X101679999Y-84055659D01*
X101679999Y-84055658D01*
X101680000Y-84055659D01*
X101915408Y-84035063D01*
X102143663Y-83973903D01*
X102357830Y-83874035D01*
X102551401Y-83738495D01*
X102718495Y-83571401D01*
X102848426Y-83385839D01*
X102892743Y-83346975D01*
X102950000Y-83332964D01*
X103007257Y-83346975D01*
X103051573Y-83385839D01*
X103181505Y-83571401D01*
X103348599Y-83738495D01*
X103542170Y-83874035D01*
X103756337Y-83973903D01*
X103984591Y-84035062D01*
X103984592Y-84035063D01*
X104219999Y-84055659D01*
X104219999Y-84055658D01*
X104220000Y-84055659D01*
X104455408Y-84035063D01*
X104683663Y-83973903D01*
X104897830Y-83874035D01*
X105091401Y-83738495D01*
X105258495Y-83571401D01*
X105388426Y-83385839D01*
X105432743Y-83346975D01*
X105490000Y-83332964D01*
X105547257Y-83346975D01*
X105591573Y-83385839D01*
X105721505Y-83571401D01*
X105888599Y-83738495D01*
X106082170Y-83874035D01*
X106296337Y-83973903D01*
X106524591Y-84035062D01*
X106524592Y-84035063D01*
X106759999Y-84055659D01*
X106759999Y-84055658D01*
X106760000Y-84055659D01*
X106995408Y-84035063D01*
X107223663Y-83973903D01*
X107437830Y-83874035D01*
X107631401Y-83738495D01*
X107798495Y-83571401D01*
X107934035Y-83377830D01*
X108033903Y-83163663D01*
X108095063Y-82935408D01*
X108115659Y-82700000D01*
X108095063Y-82464592D01*
X108033903Y-82236337D01*
X107934035Y-82022171D01*
X107798495Y-81828599D01*
X107631401Y-81661505D01*
X107437830Y-81525965D01*
X107223663Y-81426097D01*
X107162501Y-81409709D01*
X106995407Y-81364936D01*
X106759999Y-81344340D01*
X106524592Y-81364936D01*
X106296336Y-81426097D01*
X106082170Y-81525965D01*
X105888598Y-81661505D01*
X105721505Y-81828598D01*
X105591575Y-82014159D01*
X105547257Y-82053025D01*
X105490000Y-82067036D01*
X105432743Y-82053025D01*
X105388425Y-82014159D01*
X105258494Y-81828598D01*
X105091404Y-81661508D01*
X105091401Y-81661505D01*
X104897830Y-81525965D01*
X104683663Y-81426097D01*
X104622501Y-81409709D01*
X104455407Y-81364936D01*
X104219999Y-81344340D01*
X103984592Y-81364936D01*
X103756336Y-81426097D01*
X103542170Y-81525965D01*
X103348598Y-81661505D01*
X103181505Y-81828598D01*
X103051575Y-82014159D01*
X103007257Y-82053025D01*
X102950000Y-82067036D01*
X102892743Y-82053025D01*
X102848425Y-82014159D01*
X102718494Y-81828598D01*
X102551404Y-81661508D01*
X102551401Y-81661505D01*
X102357830Y-81525965D01*
X102143663Y-81426097D01*
X102082501Y-81409709D01*
X101915407Y-81364936D01*
X101679999Y-81344340D01*
X101444592Y-81364936D01*
X101216336Y-81426097D01*
X101002170Y-81525965D01*
X100808598Y-81661505D01*
X100641505Y-81828598D01*
X100511575Y-82014159D01*
X100467257Y-82053025D01*
X100410000Y-82067036D01*
X100352743Y-82053025D01*
X100308425Y-82014159D01*
X100178494Y-81828598D01*
X100011404Y-81661508D01*
X100011401Y-81661505D01*
X99817830Y-81525965D01*
X99603663Y-81426097D01*
X99542501Y-81409709D01*
X99375407Y-81364936D01*
X99139999Y-81344340D01*
X98904592Y-81364936D01*
X98676336Y-81426097D01*
X98462170Y-81525965D01*
X98268601Y-81661503D01*
X98146673Y-81783431D01*
X98093926Y-81814726D01*
X98032634Y-81816915D01*
X97977789Y-81789462D01*
X97942810Y-81739082D01*
X97935658Y-81719907D01*
X97893796Y-81607669D01*
X97807546Y-81492454D01*
X97692331Y-81406204D01*
X97557483Y-81355909D01*
X97497873Y-81349500D01*
X97497869Y-81349500D01*
X95702130Y-81349500D01*
X95642515Y-81355909D01*
X95507669Y-81406204D01*
X95392454Y-81492454D01*
X95306204Y-81607668D01*
X95255909Y-81742516D01*
X95249500Y-81802130D01*
X95249500Y-83597869D01*
X91052027Y-83597869D01*
X91078495Y-83571401D01*
X91214035Y-83377830D01*
X91313903Y-83163663D01*
X91375063Y-82935408D01*
X91395659Y-82700000D01*
X91375063Y-82464592D01*
X91313903Y-82236337D01*
X91214035Y-82022171D01*
X91078495Y-81828599D01*
X90911401Y-81661505D01*
X90717830Y-81525965D01*
X90503663Y-81426097D01*
X90442501Y-81409709D01*
X90275407Y-81364936D01*
X90039999Y-81344340D01*
X89804592Y-81364936D01*
X89576336Y-81426097D01*
X89362170Y-81525965D01*
X89168601Y-81661503D01*
X89046673Y-81783431D01*
X88993926Y-81814726D01*
X88932634Y-81816915D01*
X88877789Y-81789462D01*
X88842810Y-81739082D01*
X88835658Y-81719907D01*
X88793796Y-81607669D01*
X88707546Y-81492454D01*
X88592331Y-81406204D01*
X88457483Y-81355909D01*
X88397873Y-81349500D01*
X88397869Y-81349500D01*
X86602130Y-81349500D01*
X86542515Y-81355909D01*
X86407669Y-81406204D01*
X86292454Y-81492454D01*
X86206204Y-81607668D01*
X86155909Y-81742516D01*
X86149500Y-81802130D01*
X86149500Y-83597869D01*
X81327027Y-83597869D01*
X81353495Y-83571401D01*
X81489035Y-83377830D01*
X81588903Y-83163663D01*
X81650063Y-82935408D01*
X81670659Y-82700000D01*
X81650063Y-82464592D01*
X81588903Y-82236337D01*
X81489035Y-82022171D01*
X81353495Y-81828599D01*
X81186401Y-81661505D01*
X80992830Y-81525965D01*
X80778663Y-81426097D01*
X80717501Y-81409709D01*
X80550407Y-81364936D01*
X80314999Y-81344340D01*
X80079592Y-81364936D01*
X79851336Y-81426097D01*
X79637170Y-81525965D01*
X79443601Y-81661503D01*
X79321673Y-81783431D01*
X79268926Y-81814726D01*
X79207634Y-81816915D01*
X79152789Y-81789462D01*
X79117810Y-81739082D01*
X79110658Y-81719907D01*
X79068796Y-81607669D01*
X78982546Y-81492454D01*
X78867331Y-81406204D01*
X78732483Y-81355909D01*
X78672873Y-81349500D01*
X78672869Y-81349500D01*
X76877130Y-81349500D01*
X76817515Y-81355909D01*
X76682669Y-81406204D01*
X76567454Y-81492454D01*
X76481204Y-81607668D01*
X76430909Y-81742516D01*
X76424500Y-81802130D01*
X76424500Y-83597869D01*
X70752027Y-83597869D01*
X70778495Y-83571401D01*
X70914035Y-83377830D01*
X71013903Y-83163663D01*
X71075063Y-82935408D01*
X71095659Y-82700000D01*
X71075063Y-82464592D01*
X71013903Y-82236337D01*
X70914035Y-82022171D01*
X70778495Y-81828599D01*
X70611401Y-81661505D01*
X70417830Y-81525965D01*
X70203663Y-81426097D01*
X70142501Y-81409709D01*
X69975407Y-81364936D01*
X69739999Y-81344340D01*
X69504592Y-81364936D01*
X69276336Y-81426097D01*
X69062170Y-81525965D01*
X68868601Y-81661503D01*
X68746673Y-81783431D01*
X68693926Y-81814726D01*
X68632634Y-81816915D01*
X68577789Y-81789462D01*
X68542810Y-81739082D01*
X68535658Y-81719907D01*
X68493796Y-81607669D01*
X68407546Y-81492454D01*
X68292331Y-81406204D01*
X68157483Y-81355909D01*
X68097873Y-81349500D01*
X68097869Y-81349500D01*
X66302130Y-81349500D01*
X66242515Y-81355909D01*
X66107669Y-81406204D01*
X65992454Y-81492454D01*
X65906204Y-81607668D01*
X65855909Y-81742516D01*
X65849500Y-81802130D01*
X65849500Y-83597869D01*
X61352027Y-83597869D01*
X61378495Y-83571401D01*
X61514035Y-83377830D01*
X61613903Y-83163663D01*
X61675063Y-82935408D01*
X61695659Y-82700000D01*
X61675063Y-82464592D01*
X61613903Y-82236337D01*
X61514035Y-82022171D01*
X61378495Y-81828599D01*
X61211401Y-81661505D01*
X61017830Y-81525965D01*
X60803663Y-81426097D01*
X60742501Y-81409709D01*
X60575407Y-81364936D01*
X60339999Y-81344340D01*
X60104592Y-81364936D01*
X59876336Y-81426097D01*
X59662170Y-81525965D01*
X59468601Y-81661503D01*
X59346673Y-81783431D01*
X59293926Y-81814726D01*
X59232634Y-81816915D01*
X59177789Y-81789462D01*
X59142810Y-81739082D01*
X59135658Y-81719907D01*
X59093796Y-81607669D01*
X59007546Y-81492454D01*
X58892331Y-81406204D01*
X58757483Y-81355909D01*
X58697873Y-81349500D01*
X58697869Y-81349500D01*
X56902130Y-81349500D01*
X56842515Y-81355909D01*
X56707669Y-81406204D01*
X56592454Y-81492454D01*
X56506204Y-81607668D01*
X56455909Y-81742516D01*
X56449500Y-81802130D01*
X56449500Y-83597869D01*
X50000500Y-83597869D01*
X50000500Y-78878071D01*
X50017113Y-78816071D01*
X50062500Y-78770684D01*
X50124500Y-78754071D01*
X50376000Y-78754071D01*
X50438000Y-78770684D01*
X50483387Y-78816071D01*
X50500000Y-78878071D01*
X50500000Y-82200000D01*
X52700000Y-82200000D01*
X52700000Y-78878071D01*
X52716613Y-78816071D01*
X52762000Y-78770684D01*
X52824000Y-78754071D01*
X53439786Y-78754071D01*
X53439786Y-75797869D01*
X56449500Y-75797869D01*
X56455909Y-75857484D01*
X56474627Y-75907669D01*
X56506204Y-75992331D01*
X56592454Y-76107546D01*
X56707669Y-76193796D01*
X56842517Y-76244091D01*
X56902127Y-76250500D01*
X58697872Y-76250499D01*
X58757483Y-76244091D01*
X58892331Y-76193796D01*
X59007546Y-76107546D01*
X59093796Y-75992331D01*
X59142810Y-75860916D01*
X59177789Y-75810537D01*
X59232634Y-75783084D01*
X59293927Y-75785273D01*
X59346673Y-75816569D01*
X59468599Y-75938495D01*
X59662170Y-76074035D01*
X59876337Y-76173903D01*
X60104592Y-76235063D01*
X60340000Y-76255659D01*
X60575408Y-76235063D01*
X60803663Y-76173903D01*
X61017830Y-76074035D01*
X61211401Y-75938495D01*
X61352027Y-75797869D01*
X65849500Y-75797869D01*
X65855909Y-75857484D01*
X65874627Y-75907669D01*
X65906204Y-75992331D01*
X65992454Y-76107546D01*
X66107669Y-76193796D01*
X66242517Y-76244091D01*
X66302127Y-76250500D01*
X68097872Y-76250499D01*
X68157483Y-76244091D01*
X68292331Y-76193796D01*
X68407546Y-76107546D01*
X68493796Y-75992331D01*
X68542810Y-75860916D01*
X68577789Y-75810537D01*
X68632634Y-75783084D01*
X68693927Y-75785273D01*
X68746673Y-75816569D01*
X68868599Y-75938495D01*
X69062170Y-76074035D01*
X69276337Y-76173903D01*
X69504592Y-76235063D01*
X69740000Y-76255659D01*
X69975408Y-76235063D01*
X70203663Y-76173903D01*
X70417830Y-76074035D01*
X70611401Y-75938495D01*
X70752027Y-75797869D01*
X76399500Y-75797869D01*
X76405909Y-75857484D01*
X76424627Y-75907669D01*
X76456204Y-75992331D01*
X76542454Y-76107546D01*
X76657669Y-76193796D01*
X76792517Y-76244091D01*
X76852127Y-76250500D01*
X78647872Y-76250499D01*
X78707483Y-76244091D01*
X78842331Y-76193796D01*
X78957546Y-76107546D01*
X79043796Y-75992331D01*
X79092810Y-75860916D01*
X79127789Y-75810537D01*
X79182634Y-75783084D01*
X79243927Y-75785273D01*
X79296673Y-75816569D01*
X79418599Y-75938495D01*
X79612170Y-76074035D01*
X79826337Y-76173903D01*
X80054592Y-76235063D01*
X80290000Y-76255659D01*
X80525408Y-76235063D01*
X80753663Y-76173903D01*
X80967830Y-76074035D01*
X81161401Y-75938495D01*
X81302027Y-75797869D01*
X86149500Y-75797869D01*
X86155909Y-75857484D01*
X86174627Y-75907669D01*
X86206204Y-75992331D01*
X86292454Y-76107546D01*
X86407669Y-76193796D01*
X86542517Y-76244091D01*
X86602127Y-76250500D01*
X88397872Y-76250499D01*
X88457483Y-76244091D01*
X88592331Y-76193796D01*
X88707546Y-76107546D01*
X88793796Y-75992331D01*
X88842810Y-75860916D01*
X88877789Y-75810537D01*
X88932634Y-75783084D01*
X88993927Y-75785273D01*
X89046673Y-75816569D01*
X89168599Y-75938495D01*
X89362170Y-76074035D01*
X89576337Y-76173903D01*
X89804592Y-76235063D01*
X90040000Y-76255659D01*
X90275408Y-76235063D01*
X90503663Y-76173903D01*
X90717830Y-76074035D01*
X90911401Y-75938495D01*
X91052027Y-75797869D01*
X96449500Y-75797869D01*
X96455909Y-75857484D01*
X96474627Y-75907669D01*
X96506204Y-75992331D01*
X96592454Y-76107546D01*
X96707669Y-76193796D01*
X96842517Y-76244091D01*
X96902127Y-76250500D01*
X98697872Y-76250499D01*
X98757483Y-76244091D01*
X98892331Y-76193796D01*
X99007546Y-76107546D01*
X99093796Y-75992331D01*
X99142810Y-75860916D01*
X99177789Y-75810537D01*
X99232634Y-75783084D01*
X99293927Y-75785273D01*
X99346673Y-75816569D01*
X99468599Y-75938495D01*
X99662170Y-76074035D01*
X99876337Y-76173903D01*
X100104592Y-76235063D01*
X100340000Y-76255659D01*
X100575408Y-76235063D01*
X100803663Y-76173903D01*
X101017830Y-76074035D01*
X101211401Y-75938495D01*
X101378495Y-75771401D01*
X101508426Y-75585839D01*
X101552743Y-75546975D01*
X101610000Y-75532964D01*
X101667257Y-75546975D01*
X101711573Y-75585839D01*
X101841505Y-75771401D01*
X102008599Y-75938495D01*
X102202170Y-76074035D01*
X102416337Y-76173903D01*
X102644592Y-76235063D01*
X102880000Y-76255659D01*
X103115408Y-76235063D01*
X103343663Y-76173903D01*
X103557830Y-76074035D01*
X103751401Y-75938495D01*
X103918495Y-75771401D01*
X104048426Y-75585839D01*
X104092743Y-75546975D01*
X104150000Y-75532964D01*
X104207257Y-75546975D01*
X104251573Y-75585839D01*
X104381505Y-75771401D01*
X104548599Y-75938495D01*
X104742170Y-76074035D01*
X104956337Y-76173903D01*
X105184592Y-76235063D01*
X105420000Y-76255659D01*
X105655408Y-76235063D01*
X105883663Y-76173903D01*
X106097830Y-76074035D01*
X106291401Y-75938495D01*
X106458495Y-75771401D01*
X106594035Y-75577830D01*
X106693903Y-75363663D01*
X106755063Y-75135408D01*
X106775659Y-74900000D01*
X106755063Y-74664592D01*
X106693903Y-74436337D01*
X106594035Y-74222171D01*
X106458495Y-74028599D01*
X106291401Y-73861505D01*
X106097830Y-73725965D01*
X105883663Y-73626097D01*
X105822501Y-73609709D01*
X105655407Y-73564936D01*
X105420000Y-73544340D01*
X105184592Y-73564936D01*
X104956336Y-73626097D01*
X104742170Y-73725965D01*
X104548598Y-73861505D01*
X104381508Y-74028595D01*
X104251574Y-74214160D01*
X104207255Y-74253026D01*
X104149999Y-74267036D01*
X104092742Y-74253025D01*
X104048426Y-74214161D01*
X103918495Y-74028599D01*
X103751401Y-73861505D01*
X103557830Y-73725965D01*
X103343663Y-73626097D01*
X103282501Y-73609709D01*
X103115407Y-73564936D01*
X102880000Y-73544340D01*
X102644592Y-73564936D01*
X102416336Y-73626097D01*
X102202170Y-73725965D01*
X102008598Y-73861505D01*
X101841508Y-74028595D01*
X101711574Y-74214160D01*
X101667255Y-74253026D01*
X101609999Y-74267036D01*
X101552742Y-74253025D01*
X101508426Y-74214161D01*
X101378495Y-74028599D01*
X101211401Y-73861505D01*
X101017830Y-73725965D01*
X100803663Y-73626097D01*
X100742501Y-73609709D01*
X100575407Y-73564936D01*
X100340000Y-73544340D01*
X100104592Y-73564936D01*
X99876336Y-73626097D01*
X99662170Y-73725965D01*
X99468601Y-73861503D01*
X99346673Y-73983431D01*
X99293926Y-74014726D01*
X99232634Y-74016915D01*
X99177789Y-73989462D01*
X99142810Y-73939082D01*
X99135658Y-73919907D01*
X99093796Y-73807669D01*
X99007546Y-73692454D01*
X98892331Y-73606204D01*
X98757483Y-73555909D01*
X98697873Y-73549500D01*
X98697869Y-73549500D01*
X96902130Y-73549500D01*
X96842515Y-73555909D01*
X96707669Y-73606204D01*
X96592454Y-73692454D01*
X96506204Y-73807668D01*
X96455909Y-73942516D01*
X96449500Y-74002130D01*
X96449500Y-75797869D01*
X91052027Y-75797869D01*
X91078495Y-75771401D01*
X91214035Y-75577830D01*
X91313903Y-75363663D01*
X91375063Y-75135408D01*
X91395659Y-74900000D01*
X91375063Y-74664592D01*
X91313903Y-74436337D01*
X91214035Y-74222171D01*
X91078495Y-74028599D01*
X90911401Y-73861505D01*
X90717830Y-73725965D01*
X90503663Y-73626097D01*
X90442501Y-73609709D01*
X90275407Y-73564936D01*
X90040000Y-73544340D01*
X89804592Y-73564936D01*
X89576336Y-73626097D01*
X89362170Y-73725965D01*
X89168601Y-73861503D01*
X89046673Y-73983431D01*
X88993926Y-74014726D01*
X88932634Y-74016915D01*
X88877789Y-73989462D01*
X88842810Y-73939082D01*
X88835658Y-73919907D01*
X88793796Y-73807669D01*
X88707546Y-73692454D01*
X88592331Y-73606204D01*
X88457483Y-73555909D01*
X88397873Y-73549500D01*
X88397869Y-73549500D01*
X86602130Y-73549500D01*
X86542515Y-73555909D01*
X86407669Y-73606204D01*
X86292454Y-73692454D01*
X86206204Y-73807668D01*
X86155909Y-73942516D01*
X86149500Y-74002130D01*
X86149500Y-75797869D01*
X81302027Y-75797869D01*
X81328495Y-75771401D01*
X81464035Y-75577830D01*
X81563903Y-75363663D01*
X81625063Y-75135408D01*
X81645659Y-74900000D01*
X81625063Y-74664592D01*
X81563903Y-74436337D01*
X81464035Y-74222171D01*
X81328495Y-74028599D01*
X81161401Y-73861505D01*
X80967830Y-73725965D01*
X80753663Y-73626097D01*
X80692501Y-73609709D01*
X80525407Y-73564936D01*
X80290000Y-73544340D01*
X80054592Y-73564936D01*
X79826336Y-73626097D01*
X79612170Y-73725965D01*
X79418601Y-73861503D01*
X79296673Y-73983431D01*
X79243926Y-74014726D01*
X79182634Y-74016915D01*
X79127789Y-73989462D01*
X79092810Y-73939082D01*
X79085658Y-73919907D01*
X79043796Y-73807669D01*
X78957546Y-73692454D01*
X78842331Y-73606204D01*
X78707483Y-73555909D01*
X78647873Y-73549500D01*
X78647869Y-73549500D01*
X76852130Y-73549500D01*
X76792515Y-73555909D01*
X76657669Y-73606204D01*
X76542454Y-73692454D01*
X76456204Y-73807668D01*
X76405909Y-73942516D01*
X76399500Y-74002130D01*
X76399500Y-75797869D01*
X70752027Y-75797869D01*
X70778495Y-75771401D01*
X70914035Y-75577830D01*
X71013903Y-75363663D01*
X71075063Y-75135408D01*
X71095659Y-74900000D01*
X71075063Y-74664592D01*
X71013903Y-74436337D01*
X70914035Y-74222171D01*
X70778495Y-74028599D01*
X70611401Y-73861505D01*
X70417830Y-73725965D01*
X70203663Y-73626097D01*
X70142501Y-73609709D01*
X69975407Y-73564936D01*
X69740000Y-73544340D01*
X69504592Y-73564936D01*
X69276336Y-73626097D01*
X69062170Y-73725965D01*
X68868601Y-73861503D01*
X68746673Y-73983431D01*
X68693926Y-74014726D01*
X68632634Y-74016915D01*
X68577789Y-73989462D01*
X68542810Y-73939082D01*
X68535658Y-73919907D01*
X68493796Y-73807669D01*
X68407546Y-73692454D01*
X68292331Y-73606204D01*
X68157483Y-73555909D01*
X68097873Y-73549500D01*
X68097869Y-73549500D01*
X66302130Y-73549500D01*
X66242515Y-73555909D01*
X66107669Y-73606204D01*
X65992454Y-73692454D01*
X65906204Y-73807668D01*
X65855909Y-73942516D01*
X65849500Y-74002130D01*
X65849500Y-75797869D01*
X61352027Y-75797869D01*
X61378495Y-75771401D01*
X61514035Y-75577830D01*
X61613903Y-75363663D01*
X61675063Y-75135408D01*
X61695659Y-74900000D01*
X61675063Y-74664592D01*
X61613903Y-74436337D01*
X61514035Y-74222171D01*
X61378495Y-74028599D01*
X61211401Y-73861505D01*
X61017830Y-73725965D01*
X60803663Y-73626097D01*
X60742501Y-73609709D01*
X60575407Y-73564936D01*
X60340000Y-73544340D01*
X60104592Y-73564936D01*
X59876336Y-73626097D01*
X59662170Y-73725965D01*
X59468601Y-73861503D01*
X59346673Y-73983431D01*
X59293926Y-74014726D01*
X59232634Y-74016915D01*
X59177789Y-73989462D01*
X59142810Y-73939082D01*
X59135658Y-73919907D01*
X59093796Y-73807669D01*
X59007546Y-73692454D01*
X58892331Y-73606204D01*
X58757483Y-73555909D01*
X58697873Y-73549500D01*
X58697869Y-73549500D01*
X56902130Y-73549500D01*
X56842515Y-73555909D01*
X56707669Y-73606204D01*
X56592454Y-73692454D01*
X56506204Y-73807668D01*
X56455909Y-73942516D01*
X56449500Y-74002130D01*
X56449500Y-75797869D01*
X53439786Y-75797869D01*
X53439786Y-75445928D01*
X52824000Y-75445928D01*
X52762000Y-75429315D01*
X52716613Y-75383928D01*
X52700000Y-75321928D01*
X52700000Y-74000000D01*
X50500000Y-74000000D01*
X50500000Y-75321928D01*
X50483387Y-75383928D01*
X50438000Y-75429315D01*
X50376000Y-75445928D01*
X50124500Y-75445928D01*
X50062500Y-75429315D01*
X50017113Y-75383928D01*
X50000500Y-75321928D01*
X50000500Y-70267764D01*
X51745787Y-70267764D01*
X51775413Y-70537016D01*
X51843928Y-70799087D01*
X51949871Y-71048392D01*
X52090982Y-71279611D01*
X52264253Y-71487818D01*
X52264255Y-71487820D01*
X52465998Y-71668582D01*
X52691910Y-71818044D01*
X52798211Y-71867875D01*
X52937177Y-71933021D01*
X53196562Y-72011058D01*
X53196569Y-72011060D01*
X53464561Y-72050500D01*
X53667631Y-72050500D01*
X53667634Y-72050500D01*
X53870156Y-72035677D01*
X53870156Y-72035676D01*
X54134553Y-71976780D01*
X54387558Y-71880014D01*
X54623777Y-71747441D01*
X54838177Y-71581888D01*
X55026186Y-71386881D01*
X55183799Y-71166579D01*
X55307656Y-70925675D01*
X55395118Y-70669305D01*
X55444319Y-70402933D01*
X55454212Y-70132235D01*
X55424586Y-69862982D01*
X55356072Y-69600912D01*
X55334437Y-69550000D01*
X71650000Y-69550000D01*
X71650000Y-70197824D01*
X71656402Y-70257375D01*
X71706647Y-70392089D01*
X71792811Y-70507188D01*
X71907910Y-70593352D01*
X72042624Y-70643597D01*
X72102176Y-70650000D01*
X72750000Y-70650000D01*
X72750000Y-69550000D01*
X73250000Y-69550000D01*
X73250000Y-70650000D01*
X73897824Y-70650000D01*
X73957375Y-70643597D01*
X74092089Y-70593352D01*
X74207188Y-70507188D01*
X74293352Y-70392089D01*
X74343597Y-70257375D01*
X74350000Y-70197824D01*
X74350000Y-69550000D01*
X92050000Y-69550000D01*
X92050000Y-70197824D01*
X92056402Y-70257375D01*
X92106647Y-70392089D01*
X92192811Y-70507188D01*
X92307910Y-70593352D01*
X92442624Y-70643597D01*
X92502176Y-70650000D01*
X93150000Y-70650000D01*
X93150000Y-69550000D01*
X93650000Y-69550000D01*
X93650000Y-70650000D01*
X94297824Y-70650000D01*
X94357375Y-70643597D01*
X94492089Y-70593352D01*
X94607188Y-70507188D01*
X94693352Y-70392089D01*
X94743597Y-70257375D01*
X94750000Y-70197824D01*
X94750000Y-69550000D01*
X93650000Y-69550000D01*
X93150000Y-69550000D01*
X92050000Y-69550000D01*
X74350000Y-69550000D01*
X73250000Y-69550000D01*
X72750000Y-69550000D01*
X71650000Y-69550000D01*
X55334437Y-69550000D01*
X55291941Y-69450000D01*
X119850000Y-69450000D01*
X119850000Y-70097824D01*
X119856402Y-70157375D01*
X119906647Y-70292089D01*
X119992811Y-70407188D01*
X120107910Y-70493352D01*
X120242624Y-70543597D01*
X120302176Y-70550000D01*
X120950000Y-70550000D01*
X120950000Y-69450000D01*
X121450000Y-69450000D01*
X121450000Y-70550000D01*
X122097824Y-70550000D01*
X122157375Y-70543597D01*
X122292089Y-70493352D01*
X122407188Y-70407188D01*
X122493352Y-70292088D01*
X122542614Y-70160013D01*
X122577593Y-70109633D01*
X122632438Y-70082180D01*
X122693731Y-70084369D01*
X122746477Y-70115665D01*
X122868918Y-70238106D01*
X123062423Y-70373600D01*
X123276507Y-70473430D01*
X123489999Y-70530635D01*
X123490000Y-70530636D01*
X123490000Y-69450000D01*
X123990000Y-69450000D01*
X123990000Y-70530635D01*
X124203492Y-70473430D01*
X124417576Y-70373600D01*
X124611081Y-70238106D01*
X124778106Y-70071081D01*
X124913600Y-69877576D01*
X125013430Y-69663492D01*
X125070636Y-69450000D01*
X123990000Y-69450000D01*
X123490000Y-69450000D01*
X121450000Y-69450000D01*
X120950000Y-69450000D01*
X119850000Y-69450000D01*
X55291941Y-69450000D01*
X55250130Y-69351610D01*
X55177999Y-69233420D01*
X55109017Y-69120388D01*
X55050440Y-69050000D01*
X71650000Y-69050000D01*
X72750000Y-69050000D01*
X72750000Y-67950000D01*
X73250000Y-67950000D01*
X73250000Y-69050000D01*
X74350000Y-69050000D01*
X92050000Y-69050000D01*
X93150000Y-69050000D01*
X93150000Y-67950000D01*
X93650000Y-67950000D01*
X93650000Y-69050000D01*
X94750000Y-69050000D01*
X94750000Y-68950000D01*
X119850000Y-68950000D01*
X120950000Y-68950000D01*
X120950000Y-67850000D01*
X121450000Y-67850000D01*
X121450000Y-68950000D01*
X123490000Y-68950000D01*
X123490000Y-67869364D01*
X123990000Y-67869364D01*
X123990000Y-68950000D01*
X125070636Y-68950000D01*
X125070635Y-68949999D01*
X125013430Y-68736507D01*
X124913599Y-68522421D01*
X124778109Y-68328921D01*
X124611081Y-68161893D01*
X124417576Y-68026399D01*
X124203492Y-67926569D01*
X123990000Y-67869364D01*
X123490000Y-67869364D01*
X123489999Y-67869364D01*
X123276507Y-67926569D01*
X123062421Y-68026400D01*
X122868924Y-68161888D01*
X122746477Y-68284335D01*
X122693730Y-68315630D01*
X122632438Y-68317819D01*
X122577593Y-68290366D01*
X122542614Y-68239987D01*
X122493352Y-68107910D01*
X122407188Y-67992811D01*
X122292089Y-67906647D01*
X122157375Y-67856402D01*
X122097824Y-67850000D01*
X121450000Y-67850000D01*
X120950000Y-67850000D01*
X120302176Y-67850000D01*
X120242624Y-67856402D01*
X120107910Y-67906647D01*
X119992811Y-67992811D01*
X119906647Y-68107910D01*
X119856402Y-68242624D01*
X119850000Y-68302176D01*
X119850000Y-68950000D01*
X94750000Y-68950000D01*
X94750000Y-68402176D01*
X94743597Y-68342624D01*
X94693352Y-68207910D01*
X94607188Y-68092811D01*
X94492089Y-68006647D01*
X94357375Y-67956402D01*
X94297824Y-67950000D01*
X93650000Y-67950000D01*
X93150000Y-67950000D01*
X92502176Y-67950000D01*
X92442624Y-67956402D01*
X92307910Y-68006647D01*
X92192811Y-68092811D01*
X92106647Y-68207910D01*
X92056402Y-68342624D01*
X92050000Y-68402176D01*
X92050000Y-69050000D01*
X74350000Y-69050000D01*
X74350000Y-68402176D01*
X74343597Y-68342624D01*
X74293352Y-68207910D01*
X74207188Y-68092811D01*
X74092089Y-68006647D01*
X73957375Y-67956402D01*
X73897824Y-67950000D01*
X73250000Y-67950000D01*
X72750000Y-67950000D01*
X72102176Y-67950000D01*
X72042624Y-67956402D01*
X71907910Y-68006647D01*
X71792811Y-68092811D01*
X71706647Y-68207910D01*
X71656402Y-68342624D01*
X71650000Y-68402176D01*
X71650000Y-69050000D01*
X55050440Y-69050000D01*
X54935746Y-68912181D01*
X54830758Y-68818112D01*
X54734002Y-68731418D01*
X54508090Y-68581956D01*
X54493083Y-68574921D01*
X54262822Y-68466978D01*
X54003437Y-68388941D01*
X54003431Y-68388940D01*
X53735439Y-68349500D01*
X53532369Y-68349500D01*
X53532366Y-68349500D01*
X53329843Y-68364322D01*
X53065449Y-68423219D01*
X52812441Y-68519986D01*
X52576223Y-68652559D01*
X52361825Y-68818109D01*
X52173813Y-69013120D01*
X52016201Y-69233420D01*
X51892342Y-69474329D01*
X51804881Y-69730695D01*
X51755680Y-69997066D01*
X51745787Y-70267764D01*
X50000500Y-70267764D01*
X50000500Y-70203051D01*
X50000649Y-70196967D01*
X50002464Y-70160013D01*
X50007998Y-70047368D01*
X50018542Y-69846184D01*
X50019707Y-69834552D01*
X50044820Y-69665250D01*
X50044941Y-69664462D01*
X50073378Y-69484917D01*
X50075554Y-69474252D01*
X50118062Y-69304551D01*
X50118468Y-69302984D01*
X50164523Y-69131104D01*
X50167532Y-69121472D01*
X50226975Y-68955341D01*
X50227895Y-68952859D01*
X50291025Y-68788397D01*
X50294676Y-68779863D01*
X50370468Y-68619612D01*
X50372016Y-68616460D01*
X50451611Y-68460247D01*
X50455707Y-68452849D01*
X50547074Y-68300413D01*
X50549372Y-68296731D01*
X50644600Y-68150093D01*
X50648934Y-68143851D01*
X50754993Y-68000847D01*
X50758166Y-67996755D01*
X50868033Y-67861080D01*
X50872428Y-67855951D01*
X50992095Y-67723918D01*
X50996194Y-67719614D01*
X51119614Y-67596194D01*
X51123918Y-67592095D01*
X51255951Y-67472428D01*
X51261080Y-67468033D01*
X51396755Y-67358166D01*
X51400847Y-67354993D01*
X51543851Y-67248934D01*
X51550093Y-67244600D01*
X51696731Y-67149372D01*
X51700413Y-67147074D01*
X51852849Y-67055707D01*
X51860247Y-67051611D01*
X52016460Y-66972016D01*
X52019612Y-66970468D01*
X52179863Y-66894676D01*
X52188397Y-66891025D01*
X52352859Y-66827895D01*
X52355341Y-66826975D01*
X52521472Y-66767532D01*
X52531104Y-66764523D01*
X52702984Y-66718468D01*
X52704551Y-66718062D01*
X52874252Y-66675554D01*
X52884917Y-66673378D01*
X53064462Y-66644941D01*
X53065250Y-66644820D01*
X53234552Y-66619707D01*
X53246184Y-66618542D01*
X53447515Y-66607991D01*
X53596967Y-66600648D01*
X53603051Y-66600500D01*
X146396949Y-66600500D01*
X146403032Y-66600648D01*
G37*
%TD.AperFunction*%
%TD*%
M02*
