%TF.GenerationSoftware,KiCad,Pcbnew,7.0.1*%
%TF.CreationDate,2023-03-30T14:31:40+01:00*%
%TF.ProjectId,DevBoard,44657642-6f61-4726-942e-6b696361645f,rev?*%
%TF.SameCoordinates,Original*%
%TF.FileFunction,Paste,Top*%
%TF.FilePolarity,Positive*%
%FSLAX46Y46*%
G04 Gerber Fmt 4.6, Leading zero omitted, Abs format (unit mm)*
G04 Created by KiCad (PCBNEW 7.0.1) date 2023-03-30 14:31:40*
%MOMM*%
%LPD*%
G01*
G04 APERTURE LIST*
G04 Aperture macros list*
%AMRoundRect*
0 Rectangle with rounded corners*
0 $1 Rounding radius*
0 $2 $3 $4 $5 $6 $7 $8 $9 X,Y pos of 4 corners*
0 Add a 4 corners polygon primitive as box body*
4,1,4,$2,$3,$4,$5,$6,$7,$8,$9,$2,$3,0*
0 Add four circle primitives for the rounded corners*
1,1,$1+$1,$2,$3*
1,1,$1+$1,$4,$5*
1,1,$1+$1,$6,$7*
1,1,$1+$1,$8,$9*
0 Add four rect primitives between the rounded corners*
20,1,$1+$1,$2,$3,$4,$5,0*
20,1,$1+$1,$4,$5,$6,$7,0*
20,1,$1+$1,$6,$7,$8,$9,0*
20,1,$1+$1,$8,$9,$2,$3,0*%
G04 Aperture macros list end*
%ADD10RoundRect,0.250000X0.262500X0.450000X-0.262500X0.450000X-0.262500X-0.450000X0.262500X-0.450000X0*%
%ADD11RoundRect,0.250000X-0.250000X-0.475000X0.250000X-0.475000X0.250000X0.475000X-0.250000X0.475000X0*%
%ADD12RoundRect,0.250000X-0.262500X-0.450000X0.262500X-0.450000X0.262500X0.450000X-0.262500X0.450000X0*%
%ADD13RoundRect,0.150000X-0.825000X-0.150000X0.825000X-0.150000X0.825000X0.150000X-0.825000X0.150000X0*%
%ADD14RoundRect,0.218750X0.218750X0.256250X-0.218750X0.256250X-0.218750X-0.256250X0.218750X-0.256250X0*%
%ADD15RoundRect,0.250000X0.250000X0.475000X-0.250000X0.475000X-0.250000X-0.475000X0.250000X-0.475000X0*%
%ADD16RoundRect,0.100000X0.637500X0.100000X-0.637500X0.100000X-0.637500X-0.100000X0.637500X-0.100000X0*%
%ADD17RoundRect,0.218750X-0.218750X-0.256250X0.218750X-0.256250X0.218750X0.256250X-0.218750X0.256250X0*%
%ADD18RoundRect,0.150000X0.825000X0.150000X-0.825000X0.150000X-0.825000X-0.150000X0.825000X-0.150000X0*%
G04 APERTURE END LIST*
D10*
%TO.C,R5*%
X56912500Y-109500000D03*
X55087500Y-109500000D03*
%TD*%
D11*
%TO.C,C24*%
X122950000Y-110800000D03*
X121050000Y-110800000D03*
%TD*%
D12*
%TO.C,R14*%
X95387500Y-111700000D03*
X97212500Y-111700000D03*
%TD*%
D13*
%TO.C,U1*%
X60425000Y-103690000D03*
X60425000Y-104960000D03*
X60425000Y-106230000D03*
X60425000Y-107500000D03*
X60425000Y-108770000D03*
X60425000Y-110040000D03*
X60425000Y-111310000D03*
X65375000Y-111310000D03*
X65375000Y-110040000D03*
X65375000Y-108770000D03*
X65375000Y-107500000D03*
X65375000Y-106230000D03*
X65375000Y-104960000D03*
X65375000Y-103690000D03*
%TD*%
D14*
%TO.C,D3*%
X144167500Y-119200000D03*
X142592500Y-119200000D03*
%TD*%
D11*
%TO.C,C25*%
X109050000Y-110835000D03*
X107150000Y-110835000D03*
%TD*%
D15*
%TO.C,C29*%
X121050000Y-112800000D03*
X122950000Y-112800000D03*
%TD*%
%TO.C,C8*%
X97250000Y-109700000D03*
X95350000Y-109700000D03*
%TD*%
D14*
%TO.C,D1*%
X144167500Y-110700000D03*
X142592500Y-110700000D03*
%TD*%
D11*
%TO.C,C9*%
X55042500Y-107500000D03*
X56942500Y-107500000D03*
%TD*%
D15*
%TO.C,C22*%
X107150000Y-106435000D03*
X109050000Y-106435000D03*
%TD*%
D12*
%TO.C,R36*%
X142487500Y-117400000D03*
X144312500Y-117400000D03*
%TD*%
D10*
%TO.C,R11*%
X56912500Y-111500000D03*
X55087500Y-111500000D03*
%TD*%
%TO.C,R19*%
X83412500Y-113700000D03*
X81587500Y-113700000D03*
%TD*%
%TO.C,R6*%
X56912500Y-113500000D03*
X55087500Y-113500000D03*
%TD*%
%TO.C,R25*%
X83412500Y-99700000D03*
X81587500Y-99700000D03*
%TD*%
D12*
%TO.C,R31*%
X109012500Y-108835000D03*
X107187500Y-108835000D03*
%TD*%
D10*
%TO.C,R17*%
X83412500Y-101700000D03*
X81587500Y-101700000D03*
%TD*%
D15*
%TO.C,C1*%
X56950000Y-99500000D03*
X55050000Y-99500000D03*
%TD*%
D11*
%TO.C,C3*%
X55050000Y-115500000D03*
X56950000Y-115500000D03*
%TD*%
%TO.C,C16*%
X122950000Y-106400000D03*
X121050000Y-106400000D03*
%TD*%
D16*
%TO.C,U6*%
X117862500Y-105325000D03*
X117862500Y-104675000D03*
X117862500Y-104025000D03*
X117862500Y-103375000D03*
X117862500Y-102725000D03*
X117862500Y-102075000D03*
X117862500Y-101425000D03*
X117862500Y-100775000D03*
X117862500Y-100125000D03*
X117862500Y-99475000D03*
X112137500Y-99475000D03*
X112137500Y-100125000D03*
X112137500Y-100775000D03*
X112137500Y-101425000D03*
X112137500Y-102075000D03*
X112137500Y-102725000D03*
X112137500Y-103375000D03*
X112137500Y-104025000D03*
X112137500Y-104675000D03*
X112137500Y-105325000D03*
%TD*%
D12*
%TO.C,R20*%
X95387500Y-113700000D03*
X97212500Y-113700000D03*
%TD*%
%TO.C,R26*%
X95387500Y-99700000D03*
X97212500Y-99700000D03*
%TD*%
D10*
%TO.C,R1*%
X56912500Y-105500000D03*
X55087500Y-105500000D03*
%TD*%
D15*
%TO.C,C20*%
X121050000Y-104200000D03*
X122950000Y-104200000D03*
%TD*%
D17*
%TO.C,D2*%
X142612500Y-114900000D03*
X144187500Y-114900000D03*
%TD*%
D15*
%TO.C,C27*%
X107150000Y-118835000D03*
X109050000Y-118835000D03*
%TD*%
D12*
%TO.C,R32*%
X122912500Y-114800000D03*
X121087500Y-114800000D03*
%TD*%
D14*
%TO.C,D4*%
X144167500Y-123500000D03*
X142592500Y-123500000D03*
%TD*%
D10*
%TO.C,R15*%
X83412500Y-107700000D03*
X81587500Y-107700000D03*
%TD*%
%TO.C,R13*%
X83412500Y-111700000D03*
X81587500Y-111700000D03*
%TD*%
%TO.C,R9*%
X56912500Y-103500000D03*
X55087500Y-103500000D03*
%TD*%
D11*
%TO.C,C23*%
X109050000Y-102435000D03*
X107150000Y-102435000D03*
%TD*%
D13*
%TO.C,U2*%
X86925000Y-105890000D03*
X86925000Y-107160000D03*
X86925000Y-108430000D03*
X86925000Y-109700000D03*
X86925000Y-110970000D03*
X86925000Y-112240000D03*
X86925000Y-113510000D03*
X91875000Y-113510000D03*
X91875000Y-112240000D03*
X91875000Y-110970000D03*
X91875000Y-109700000D03*
X91875000Y-108430000D03*
X91875000Y-107160000D03*
X91875000Y-105890000D03*
%TD*%
D12*
%TO.C,R8*%
X68887500Y-113500000D03*
X70712500Y-113500000D03*
%TD*%
%TO.C,R37*%
X142487500Y-121700000D03*
X144312500Y-121700000D03*
%TD*%
%TO.C,R7*%
X68887500Y-109500000D03*
X70712500Y-109500000D03*
%TD*%
D10*
%TO.C,R23*%
X83412500Y-115700000D03*
X81587500Y-115700000D03*
%TD*%
%TO.C,R33*%
X107187500Y-112835000D03*
X109012500Y-112835000D03*
%TD*%
D18*
%TO.C,U8*%
X117475000Y-115705000D03*
X117475000Y-114435000D03*
X117475000Y-113165000D03*
X117475000Y-111895000D03*
X112525000Y-111895000D03*
X112525000Y-113165000D03*
X112525000Y-114435000D03*
X112525000Y-115705000D03*
%TD*%
D12*
%TO.C,R16*%
X95387500Y-107700000D03*
X97212500Y-107700000D03*
%TD*%
D11*
%TO.C,C26*%
X122950000Y-116800000D03*
X121050000Y-116800000D03*
%TD*%
%TO.C,C6*%
X95350000Y-105700000D03*
X97250000Y-105700000D03*
%TD*%
%TO.C,C18*%
X122950000Y-97900000D03*
X121050000Y-97900000D03*
%TD*%
%TO.C,C7*%
X81550000Y-109700000D03*
X83450000Y-109700000D03*
%TD*%
%TO.C,C4*%
X68850000Y-111500000D03*
X70750000Y-111500000D03*
%TD*%
%TO.C,C17*%
X122950000Y-99900000D03*
X121050000Y-99900000D03*
%TD*%
D12*
%TO.C,R18*%
X95387500Y-101700000D03*
X97212500Y-101700000D03*
%TD*%
%TO.C,R4*%
X68887500Y-101500000D03*
X70712500Y-101500000D03*
%TD*%
D10*
%TO.C,R2*%
X56912500Y-101500000D03*
X55087500Y-101500000D03*
%TD*%
D11*
%TO.C,C21*%
X122950000Y-102100000D03*
X121050000Y-102100000D03*
%TD*%
%TO.C,C2*%
X68850000Y-99500000D03*
X70750000Y-99500000D03*
%TD*%
D12*
%TO.C,R21*%
X81587500Y-103700000D03*
X83412500Y-103700000D03*
%TD*%
%TO.C,R34*%
X122912500Y-118800000D03*
X121087500Y-118800000D03*
%TD*%
D15*
%TO.C,C19*%
X107150000Y-104435000D03*
X109050000Y-104435000D03*
%TD*%
D10*
%TO.C,R12*%
X70712500Y-115500000D03*
X68887500Y-115500000D03*
%TD*%
D12*
%TO.C,R10*%
X68887500Y-103500000D03*
X70712500Y-103500000D03*
%TD*%
%TO.C,R30*%
X122912500Y-108800000D03*
X121087500Y-108800000D03*
%TD*%
%TO.C,R27*%
X142487500Y-108900000D03*
X144312500Y-108900000D03*
%TD*%
D10*
%TO.C,R22*%
X97212500Y-103700000D03*
X95387500Y-103700000D03*
%TD*%
D15*
%TO.C,C5*%
X83450000Y-105700000D03*
X81550000Y-105700000D03*
%TD*%
D10*
%TO.C,R35*%
X107187500Y-116835000D03*
X109012500Y-116835000D03*
%TD*%
D12*
%TO.C,R28*%
X142487500Y-113100000D03*
X144312500Y-113100000D03*
%TD*%
D11*
%TO.C,C28*%
X109050000Y-114835000D03*
X107150000Y-114835000D03*
%TD*%
D12*
%TO.C,R3*%
X68887500Y-105500000D03*
X70712500Y-105500000D03*
%TD*%
%TO.C,R24*%
X95387500Y-115700000D03*
X97212500Y-115700000D03*
%TD*%
M02*
