%TF.GenerationSoftware,KiCad,Pcbnew,7.0.1*%
%TF.CreationDate,2023-03-30T14:31:40+01:00*%
%TF.ProjectId,DevBoard,44657642-6f61-4726-942e-6b696361645f,rev?*%
%TF.SameCoordinates,Original*%
%TF.FileFunction,Soldermask,Top*%
%TF.FilePolarity,Negative*%
%FSLAX46Y46*%
G04 Gerber Fmt 4.6, Leading zero omitted, Abs format (unit mm)*
G04 Created by KiCad (PCBNEW 7.0.1) date 2023-03-30 14:31:40*
%MOMM*%
%LPD*%
G01*
G04 APERTURE LIST*
G04 Aperture macros list*
%AMRoundRect*
0 Rectangle with rounded corners*
0 $1 Rounding radius*
0 $2 $3 $4 $5 $6 $7 $8 $9 X,Y pos of 4 corners*
0 Add a 4 corners polygon primitive as box body*
4,1,4,$2,$3,$4,$5,$6,$7,$8,$9,$2,$3,0*
0 Add four circle primitives for the rounded corners*
1,1,$1+$1,$2,$3*
1,1,$1+$1,$4,$5*
1,1,$1+$1,$6,$7*
1,1,$1+$1,$8,$9*
0 Add four rect primitives between the rounded corners*
20,1,$1+$1,$2,$3,$4,$5,0*
20,1,$1+$1,$4,$5,$6,$7,0*
20,1,$1+$1,$6,$7,$8,$9,0*
20,1,$1+$1,$8,$9,$2,$3,0*%
G04 Aperture macros list end*
%ADD10C,0.100000*%
%ADD11RoundRect,0.250000X0.262500X0.450000X-0.262500X0.450000X-0.262500X-0.450000X0.262500X-0.450000X0*%
%ADD12RoundRect,0.250000X-0.250000X-0.475000X0.250000X-0.475000X0.250000X0.475000X-0.250000X0.475000X0*%
%ADD13C,3.200000*%
%ADD14RoundRect,0.250000X-0.262500X-0.450000X0.262500X-0.450000X0.262500X0.450000X-0.262500X0.450000X0*%
%ADD15R,1.700000X1.700000*%
%ADD16O,1.700000X1.700000*%
%ADD17RoundRect,0.150000X-0.825000X-0.150000X0.825000X-0.150000X0.825000X0.150000X-0.825000X0.150000X0*%
%ADD18RoundRect,0.218750X0.218750X0.256250X-0.218750X0.256250X-0.218750X-0.256250X0.218750X-0.256250X0*%
%ADD19RoundRect,0.250000X0.250000X0.475000X-0.250000X0.475000X-0.250000X-0.475000X0.250000X-0.475000X0*%
%ADD20R,2.775000X2.775000*%
%ADD21C,2.775000*%
%ADD22RoundRect,0.100000X0.637500X0.100000X-0.637500X0.100000X-0.637500X-0.100000X0.637500X-0.100000X0*%
%ADD23C,3.500000*%
%ADD24C,1.800000*%
%ADD25RoundRect,0.218750X-0.218750X-0.256250X0.218750X-0.256250X0.218750X0.256250X-0.218750X0.256250X0*%
%ADD26RoundRect,0.150000X0.825000X0.150000X-0.825000X0.150000X-0.825000X-0.150000X0.825000X-0.150000X0*%
%ADD27O,2.000000X1.200000*%
%ADD28R,1.500000X1.500000*%
%ADD29C,1.500000*%
G04 APERTURE END LIST*
%TO.C,FID1*%
D10*
X52600000Y-82100000D02*
X50600000Y-82100000D01*
X50600000Y-74100000D01*
X52600000Y-74100000D01*
X52600000Y-82100000D01*
G36*
X52600000Y-82100000D02*
G01*
X50600000Y-82100000D01*
X50600000Y-74100000D01*
X52600000Y-74100000D01*
X52600000Y-82100000D01*
G37*
%TD*%
D11*
%TO.C,R5*%
X56912500Y-109500000D03*
X55087500Y-109500000D03*
%TD*%
D12*
%TO.C,C24*%
X122950000Y-110800000D03*
X121050000Y-110800000D03*
%TD*%
D13*
%TO.C,H1*%
X53600000Y-70200000D03*
%TD*%
%TO.C,H3*%
X53600000Y-146400000D03*
%TD*%
D14*
%TO.C,R14*%
X95387500Y-111700000D03*
X97212500Y-111700000D03*
%TD*%
D15*
%TO.C,J41*%
X52000000Y-127600000D03*
%TD*%
%TO.C,J49*%
X67200000Y-82700000D03*
D16*
X69740000Y-82700000D03*
%TD*%
D13*
%TO.C,H4*%
X146400000Y-146400000D03*
%TD*%
D17*
%TO.C,U1*%
X60425000Y-103690000D03*
X60425000Y-104960000D03*
X60425000Y-106230000D03*
X60425000Y-107500000D03*
X60425000Y-108770000D03*
X60425000Y-110040000D03*
X60425000Y-111310000D03*
X65375000Y-111310000D03*
X65375000Y-110040000D03*
X65375000Y-108770000D03*
X65375000Y-107500000D03*
X65375000Y-106230000D03*
X65375000Y-104960000D03*
X65375000Y-103690000D03*
%TD*%
D18*
%TO.C,D3*%
X144167500Y-119200000D03*
X142592500Y-119200000D03*
%TD*%
D15*
%TO.C,J3*%
X87500000Y-74900000D03*
D16*
X90040000Y-74900000D03*
%TD*%
D12*
%TO.C,C25*%
X109050000Y-110835000D03*
X107150000Y-110835000D03*
%TD*%
D19*
%TO.C,C29*%
X121050000Y-112800000D03*
X122950000Y-112800000D03*
%TD*%
%TO.C,C8*%
X97250000Y-109700000D03*
X95350000Y-109700000D03*
%TD*%
D18*
%TO.C,D1*%
X144167500Y-110700000D03*
X142592500Y-110700000D03*
%TD*%
D12*
%TO.C,C9*%
X55042500Y-107500000D03*
X56942500Y-107500000D03*
%TD*%
D19*
%TO.C,C22*%
X107150000Y-106435000D03*
X109050000Y-106435000D03*
%TD*%
D14*
%TO.C,R36*%
X142487500Y-117400000D03*
X144312500Y-117400000D03*
%TD*%
D11*
%TO.C,R11*%
X56912500Y-111500000D03*
X55087500Y-111500000D03*
%TD*%
%TO.C,R19*%
X83412500Y-113700000D03*
X81587500Y-113700000D03*
%TD*%
D15*
%TO.C,J21*%
X113700000Y-119860000D03*
D16*
X116240000Y-119860000D03*
%TD*%
D15*
%TO.C,J47*%
X144200000Y-127550000D03*
%TD*%
D11*
%TO.C,R6*%
X56912500Y-113500000D03*
X55087500Y-113500000D03*
%TD*%
D15*
%TO.C,J17*%
X137560000Y-147799665D03*
D16*
X135020000Y-147799665D03*
X132480000Y-147799665D03*
%TD*%
D11*
%TO.C,R25*%
X83412500Y-99700000D03*
X81587500Y-99700000D03*
%TD*%
D15*
%TO.C,J15*%
X114260000Y-147799665D03*
D16*
X111720000Y-147799665D03*
X109180000Y-147799665D03*
%TD*%
D15*
%TO.C,J4*%
X94792500Y-95700000D03*
D16*
X97332500Y-95700000D03*
%TD*%
D14*
%TO.C,R31*%
X109012500Y-108835000D03*
X107187500Y-108835000D03*
%TD*%
D11*
%TO.C,R17*%
X83412500Y-101700000D03*
X81587500Y-101700000D03*
%TD*%
D15*
%TO.C,J26*%
X112000000Y-74900000D03*
D16*
X114540000Y-74900000D03*
X117080000Y-74900000D03*
%TD*%
D19*
%TO.C,C1*%
X56950000Y-99500000D03*
X55050000Y-99500000D03*
%TD*%
D12*
%TO.C,C3*%
X55050000Y-115500000D03*
X56950000Y-115500000D03*
%TD*%
D16*
%TO.C,J25*%
X106760000Y-82700000D03*
X104220000Y-82700000D03*
X101680000Y-82700000D03*
X99140000Y-82700000D03*
D15*
X96600000Y-82700000D03*
%TD*%
D12*
%TO.C,C16*%
X122950000Y-106400000D03*
X121050000Y-106400000D03*
%TD*%
D20*
%TO.C,SW2*%
X137215000Y-109900000D03*
D21*
X137215000Y-114600000D03*
X137215000Y-119300000D03*
X132385000Y-109900000D03*
X132385000Y-114600000D03*
X132385000Y-119300000D03*
%TD*%
D22*
%TO.C,U6*%
X117862500Y-105325000D03*
X117862500Y-104675000D03*
X117862500Y-104025000D03*
X117862500Y-103375000D03*
X117862500Y-102725000D03*
X117862500Y-102075000D03*
X117862500Y-101425000D03*
X117862500Y-100775000D03*
X117862500Y-100125000D03*
X117862500Y-99475000D03*
X112137500Y-99475000D03*
X112137500Y-100125000D03*
X112137500Y-100775000D03*
X112137500Y-101425000D03*
X112137500Y-102075000D03*
X112137500Y-102725000D03*
X112137500Y-103375000D03*
X112137500Y-104025000D03*
X112137500Y-104675000D03*
X112137500Y-105325000D03*
%TD*%
D14*
%TO.C,R20*%
X95387500Y-113700000D03*
X97212500Y-113700000D03*
%TD*%
%TO.C,R26*%
X95387500Y-99700000D03*
X97212500Y-99700000D03*
%TD*%
D11*
%TO.C,R1*%
X56912500Y-105500000D03*
X55087500Y-105500000D03*
%TD*%
D15*
%TO.C,J2*%
X81492500Y-95700000D03*
D16*
X84032500Y-95700000D03*
%TD*%
D23*
%TO.C,RV3*%
X107300000Y-136700000D03*
X116100000Y-136700000D03*
D24*
X114200000Y-143700000D03*
X111700000Y-143700000D03*
X109200000Y-143700000D03*
%TD*%
D19*
%TO.C,C20*%
X121050000Y-104200000D03*
X122950000Y-104200000D03*
%TD*%
D15*
%TO.C,J50*%
X55667500Y-95600000D03*
D16*
X58207500Y-95600000D03*
%TD*%
D25*
%TO.C,D2*%
X142612500Y-114900000D03*
X144187500Y-114900000D03*
%TD*%
D23*
%TO.C,RV2*%
X84000000Y-136700000D03*
X92800000Y-136700000D03*
D24*
X90900000Y-143700000D03*
X88400000Y-143700000D03*
X85900000Y-143700000D03*
%TD*%
D15*
%TO.C,J10*%
X67625000Y-147750000D03*
D16*
X65085000Y-147750000D03*
X62545000Y-147750000D03*
%TD*%
D15*
%TO.C,J18*%
X105255000Y-95735000D03*
D16*
X107795000Y-95735000D03*
X110335000Y-95735000D03*
%TD*%
D19*
%TO.C,C27*%
X107150000Y-118835000D03*
X109050000Y-118835000D03*
%TD*%
D14*
%TO.C,R32*%
X122912500Y-114800000D03*
X121087500Y-114800000D03*
%TD*%
D18*
%TO.C,D4*%
X144167500Y-123500000D03*
X142592500Y-123500000D03*
%TD*%
D11*
%TO.C,R15*%
X83412500Y-107700000D03*
X81587500Y-107700000D03*
%TD*%
%TO.C,R13*%
X83412500Y-111700000D03*
X81587500Y-111700000D03*
%TD*%
%TO.C,R9*%
X56912500Y-103500000D03*
X55087500Y-103500000D03*
%TD*%
D15*
%TO.C,J12*%
X83530000Y-127550000D03*
D16*
X86070000Y-127550000D03*
X88610000Y-127550000D03*
%TD*%
D15*
%TO.C,J8*%
X87500000Y-82700000D03*
D16*
X90040000Y-82700000D03*
%TD*%
D15*
%TO.C,J14*%
X106865000Y-127550000D03*
D16*
X109405000Y-127550000D03*
X111945000Y-127550000D03*
%TD*%
D12*
%TO.C,C23*%
X109050000Y-102435000D03*
X107150000Y-102435000D03*
%TD*%
D17*
%TO.C,U2*%
X86925000Y-105890000D03*
X86925000Y-107160000D03*
X86925000Y-108430000D03*
X86925000Y-109700000D03*
X86925000Y-110970000D03*
X86925000Y-112240000D03*
X86925000Y-113510000D03*
X91875000Y-113510000D03*
X91875000Y-112240000D03*
X91875000Y-110970000D03*
X91875000Y-109700000D03*
X91875000Y-108430000D03*
X91875000Y-107160000D03*
X91875000Y-105890000D03*
%TD*%
D14*
%TO.C,R8*%
X68887500Y-113500000D03*
X70712500Y-113500000D03*
%TD*%
%TO.C,R37*%
X142487500Y-121700000D03*
X144312500Y-121700000D03*
%TD*%
D15*
%TO.C,J19*%
X115100000Y-95700000D03*
D16*
X117640000Y-95700000D03*
%TD*%
D14*
%TO.C,R7*%
X68887500Y-109500000D03*
X70712500Y-109500000D03*
%TD*%
D11*
%TO.C,R23*%
X83412500Y-115700000D03*
X81587500Y-115700000D03*
%TD*%
D15*
%TO.C,J39*%
X93400000Y-69300000D03*
%TD*%
%TO.C,J20*%
X113000000Y-82700000D03*
D16*
X115540000Y-82700000D03*
%TD*%
D11*
%TO.C,R33*%
X107187500Y-112835000D03*
X109012500Y-112835000D03*
%TD*%
D26*
%TO.C,U8*%
X117475000Y-115705000D03*
X117475000Y-114435000D03*
X117475000Y-113165000D03*
X117475000Y-111895000D03*
X112525000Y-111895000D03*
X112525000Y-113165000D03*
X112525000Y-114435000D03*
X112525000Y-115705000D03*
%TD*%
D14*
%TO.C,R16*%
X95387500Y-107700000D03*
X97212500Y-107700000D03*
%TD*%
D12*
%TO.C,C26*%
X122950000Y-116800000D03*
X121050000Y-116800000D03*
%TD*%
%TO.C,C6*%
X95350000Y-105700000D03*
X97250000Y-105700000D03*
%TD*%
%TO.C,C18*%
X122950000Y-97900000D03*
X121050000Y-97900000D03*
%TD*%
%TO.C,C7*%
X81550000Y-109700000D03*
X83450000Y-109700000D03*
%TD*%
%TO.C,C4*%
X68850000Y-111500000D03*
X70750000Y-111500000D03*
%TD*%
D23*
%TO.C,RV4*%
X130600000Y-136700000D03*
X139400000Y-136700000D03*
D24*
X137500000Y-143700000D03*
X135000000Y-143700000D03*
X132500000Y-143700000D03*
%TD*%
D15*
%TO.C,J35*%
X127700000Y-69200000D03*
D16*
X130240000Y-69200000D03*
X132780000Y-69200000D03*
X135320000Y-69200000D03*
X137860000Y-69200000D03*
X140400000Y-69200000D03*
%TD*%
D12*
%TO.C,C17*%
X122950000Y-99900000D03*
X121050000Y-99900000D03*
%TD*%
D14*
%TO.C,R18*%
X95387500Y-101700000D03*
X97212500Y-101700000D03*
%TD*%
D15*
%TO.C,J33*%
X67100000Y-119000000D03*
D16*
X69640000Y-119000000D03*
%TD*%
D13*
%TO.C,H2*%
X146400000Y-70200000D03*
%TD*%
D15*
%TO.C,J32*%
X67092500Y-95700000D03*
D16*
X69632500Y-95700000D03*
%TD*%
D15*
%TO.C,J52*%
X97800000Y-74900000D03*
D16*
X100340000Y-74900000D03*
X102880000Y-74900000D03*
X105420000Y-74900000D03*
%TD*%
D15*
%TO.C,J51*%
X67200000Y-74900000D03*
D16*
X69740000Y-74900000D03*
%TD*%
D14*
%TO.C,R4*%
X68887500Y-101500000D03*
X70712500Y-101500000D03*
%TD*%
D15*
%TO.C,J45*%
X97400000Y-127550000D03*
%TD*%
%TO.C,J46*%
X120600000Y-127550000D03*
%TD*%
%TO.C,J30*%
X57800000Y-82700000D03*
D16*
X60340000Y-82700000D03*
%TD*%
D11*
%TO.C,R2*%
X56912500Y-101500000D03*
X55087500Y-101500000D03*
%TD*%
D12*
%TO.C,C21*%
X122950000Y-102100000D03*
X121050000Y-102100000D03*
%TD*%
D15*
%TO.C,J6*%
X77775000Y-82700000D03*
D16*
X80315000Y-82700000D03*
%TD*%
D12*
%TO.C,C2*%
X68850000Y-99500000D03*
X70750000Y-99500000D03*
%TD*%
D14*
%TO.C,R21*%
X81587500Y-103700000D03*
X83412500Y-103700000D03*
%TD*%
D15*
%TO.C,J40*%
X121200000Y-69200000D03*
D16*
X123740000Y-69200000D03*
%TD*%
D15*
%TO.C,J1*%
X77750000Y-74900000D03*
D16*
X80290000Y-74900000D03*
%TD*%
D15*
%TO.C,J23*%
X73000000Y-69300000D03*
%TD*%
%TO.C,J7*%
X94800000Y-119000000D03*
D16*
X97340000Y-119000000D03*
%TD*%
D14*
%TO.C,R34*%
X122912500Y-118800000D03*
X121087500Y-118800000D03*
%TD*%
D19*
%TO.C,C19*%
X107150000Y-104435000D03*
X109050000Y-104435000D03*
%TD*%
D11*
%TO.C,R12*%
X70712500Y-115500000D03*
X68887500Y-115500000D03*
%TD*%
D14*
%TO.C,R10*%
X68887500Y-103500000D03*
X70712500Y-103500000D03*
%TD*%
D15*
%TO.C,J44*%
X74000000Y-127550000D03*
%TD*%
D23*
%TO.C,RV1*%
X60700000Y-136700000D03*
X69500000Y-136700000D03*
D24*
X67600000Y-143700000D03*
X65100000Y-143700000D03*
X62600000Y-143700000D03*
%TD*%
D14*
%TO.C,R30*%
X122912500Y-108800000D03*
X121087500Y-108800000D03*
%TD*%
%TO.C,R27*%
X142487500Y-108900000D03*
X144312500Y-108900000D03*
%TD*%
D15*
%TO.C,J16*%
X130100000Y-127550000D03*
D16*
X132640000Y-127550000D03*
X135180000Y-127550000D03*
%TD*%
D11*
%TO.C,R22*%
X97212500Y-103700000D03*
X95387500Y-103700000D03*
%TD*%
D15*
%TO.C,J31*%
X57800000Y-74900000D03*
D16*
X60340000Y-74900000D03*
%TD*%
D19*
%TO.C,C5*%
X83450000Y-105700000D03*
X81550000Y-105700000D03*
%TD*%
D15*
%TO.C,J5*%
X81500000Y-119000000D03*
D16*
X84040000Y-119000000D03*
%TD*%
D11*
%TO.C,R35*%
X107187500Y-116835000D03*
X109012500Y-116835000D03*
%TD*%
D14*
%TO.C,R28*%
X142487500Y-113100000D03*
X144312500Y-113100000D03*
%TD*%
D15*
%TO.C,J9*%
X60230000Y-127550000D03*
D16*
X62770000Y-127550000D03*
X65310000Y-127550000D03*
%TD*%
D15*
%TO.C,J48*%
X55400000Y-119000000D03*
D16*
X57940000Y-119000000D03*
%TD*%
D15*
%TO.C,J13*%
X90925000Y-147800000D03*
D16*
X88385000Y-147800000D03*
X85845000Y-147800000D03*
%TD*%
D12*
%TO.C,C28*%
X109050000Y-114835000D03*
X107150000Y-114835000D03*
%TD*%
D15*
%TO.C,J22*%
X121200000Y-77000000D03*
%TD*%
D14*
%TO.C,R3*%
X68887500Y-105500000D03*
X70712500Y-105500000D03*
%TD*%
%TO.C,R24*%
X95387500Y-115700000D03*
X97212500Y-115700000D03*
%TD*%
D27*
%TO.C,J11*%
X145400000Y-90600000D03*
D13*
X142250000Y-92780000D03*
X142250000Y-104250000D03*
D27*
X145450000Y-106500000D03*
D28*
X135250000Y-94050000D03*
D29*
X132710000Y-95320000D03*
X135250000Y-96590000D03*
X132710000Y-97860000D03*
X135250000Y-99130000D03*
X132710000Y-100400000D03*
X135250000Y-101670000D03*
X132710000Y-102940000D03*
%TD*%
M02*
