M48
; DRILL file {KiCad 7.0.1} date Thu Mar 30 14:31:43 2023
; FORMAT={-:-/ absolute / inch / decimal}
; #@! TF.CreationDate,2023-03-30T14:31:43+01:00
; #@! TF.GenerationSoftware,Kicad,Pcbnew,7.0.1
; #@! TF.FileFunction,Plated,1,4,PTH
FMAT,2
INCH
; #@! TA.AperFunction,Plated,PTH,ViaDrill
T1C0.0157
; #@! TA.AperFunction,Plated,PTH,ViaDrill
T2C0.0236
; #@! TA.AperFunction,Plated,PTH,ComponentDrill
T3C0.0299
; #@! TA.AperFunction,Plated,PTH,ComponentDrill
T4C0.0394
; #@! TA.AperFunction,Plated,PTH,ComponentDrill
T5C0.0728
%
G90
G05
T1
X3.1693Y-4.0
X3.8701Y-4.0079
X4.3583Y-4.0512
X4.4646Y-4.1181
X4.5827Y-4.1457
T2
X2.0827Y-4.1693
X2.122Y-4.2323
X2.3062Y-4.2677
X2.7835Y-4.2283
X3.1457Y-4.3583
X3.1496Y-4.2402
X3.3425Y-4.3622
X3.6929Y-4.3661
X3.874Y-4.2402
X3.8937Y-4.4134
X4.1575Y-4.0315
X4.1575Y-4.1102
X4.1575Y-4.2441
X4.1614Y-4.5197
X4.3425Y-4.5197
X4.3583Y-4.189
X4.4843Y-4.0276
X4.5079Y-4.4134
X4.6339Y-3.878
X4.7008Y-3.8661
X4.7008Y-4.1969
X4.7008Y-4.4567
X4.8386Y-3.7992
X4.8661Y-3.8976
X4.8937Y-4.3622
X4.8937Y-4.5039
X5.5551Y-4.6102
X5.5551Y-4.7953
T3
X5.2248Y-3.7528
X5.2248Y-3.8528
X5.2248Y-3.9528
X5.2248Y-4.0528
X5.3248Y-3.7028
X5.3248Y-3.8028
X5.3248Y-3.9028
X5.3248Y-4.0028
T4
X2.0472Y-5.0236
X2.1811Y-4.685
X2.1916Y-3.7638
X2.2756Y-2.9488
X2.2756Y-3.2559
X2.2811Y-4.685
X2.2916Y-3.7638
X2.3713Y-5.0217
X2.3756Y-2.9488
X2.3756Y-3.2559
X2.4624Y-5.8169
X2.4646Y-5.6575
X2.4713Y-5.0217
X2.5624Y-5.8169
X2.563Y-5.6575
X2.5713Y-5.0217
X2.6414Y-3.7677
X2.6417Y-4.685
X2.6457Y-2.9488
X2.6457Y-3.2559
X2.6614Y-5.6575
X2.6624Y-5.8169
X2.7414Y-3.7677
X2.7417Y-4.685
X2.7457Y-2.9488
X2.7457Y-3.2559
X2.874Y-2.7283
X2.9134Y-5.0217
X3.061Y-2.9488
X3.062Y-3.2559
X3.161Y-2.9488
X3.162Y-3.2559
X3.2084Y-3.7677
X3.2087Y-4.685
X3.2886Y-5.0217
X3.3084Y-3.7677
X3.3087Y-4.685
X3.3797Y-5.8189
X3.3819Y-5.6575
X3.3886Y-5.0217
X3.4449Y-2.9488
X3.4449Y-3.2559
X3.4797Y-5.8189
X3.4803Y-5.6575
X3.4886Y-5.0217
X3.5449Y-2.9488
X3.5449Y-3.2559
X3.5787Y-5.6575
X3.5797Y-5.8189
X3.6772Y-2.7283
X3.732Y-3.7677
X3.7323Y-4.685
X3.8031Y-3.2559
X3.832Y-3.7677
X3.8323Y-4.685
X3.8346Y-5.0217
X3.8504Y-2.9488
X3.9031Y-3.2559
X3.9504Y-2.9488
X4.0031Y-3.2559
X4.0504Y-2.9488
X4.1031Y-3.2559
X4.1439Y-3.7691
X4.1504Y-2.9488
X4.2031Y-3.2559
X4.2073Y-5.0217
X4.2439Y-3.7691
X4.2984Y-5.8189
X4.2992Y-5.6575
X4.3073Y-5.0217
X4.3439Y-3.7691
X4.3976Y-5.6575
X4.3984Y-5.8189
X4.4073Y-5.0217
X4.4094Y-2.9488
X4.4488Y-3.2559
X4.4764Y-4.7189
X4.4961Y-5.6575
X4.4984Y-5.8189
X4.5094Y-2.9488
X4.5315Y-3.7677
X4.5488Y-3.2559
X4.5764Y-4.7189
X4.6094Y-2.9488
X4.6315Y-3.7677
X4.748Y-5.0217
X4.7717Y-2.7244
X4.7717Y-3.0315
X4.8717Y-2.7244
X5.0276Y-2.7244
X5.122Y-5.0217
X5.1276Y-2.7244
X5.2157Y-5.8189
X5.2165Y-5.6575
X5.222Y-5.0217
X5.2276Y-2.7244
X5.315Y-5.6575
X5.3157Y-5.8189
X5.322Y-5.0217
X5.3276Y-2.7244
X5.4134Y-5.6575
X5.4157Y-5.8189
X5.4276Y-2.7244
X5.5276Y-2.7244
X5.6772Y-5.0217
T5
X5.212Y-4.3268
X5.212Y-4.5118
X5.212Y-4.6969
X5.4022Y-4.3268
X5.4022Y-4.5118
X5.4022Y-4.6969
T0
M30
