G04 #@! TF.GenerationSoftware,KiCad,Pcbnew,(5.0.1)-4*
G04 #@! TF.CreationDate,2018-12-03T17:05:39+00:00*
G04 #@! TF.ProjectId,DevBoard_Panel,446576426F6172645F50616E656C2E6B,rev?*
G04 #@! TF.SameCoordinates,Original*
G04 #@! TF.FileFunction,Copper,L2,Bot,Signal*
G04 #@! TF.FilePolarity,Positive*
%FSLAX46Y46*%
G04 Gerber Fmt 4.6, Leading zero omitted, Abs format (unit mm)*
G04 Created by KiCad (PCBNEW (5.0.1)-4) date 03/12/2018 17:05:39*
%MOMM*%
%LPD*%
G01*
G04 APERTURE LIST*
G04 #@! TA.AperFunction,NonConductor*
%ADD10C,0.254000*%
G04 #@! TD*
G04 APERTURE END LIST*
D10*
G36*
X69610001Y-177790000D02*
X50710000Y-177790000D01*
X50710000Y-175500000D01*
X59641214Y-175500000D01*
X59814676Y-176372054D01*
X60308655Y-177111345D01*
X61047946Y-177605324D01*
X61699872Y-177735000D01*
X63940128Y-177735000D01*
X64592054Y-177605324D01*
X65331345Y-177111345D01*
X65825324Y-176372054D01*
X65998786Y-175500000D01*
X65825324Y-174627946D01*
X65331345Y-173888655D01*
X64592054Y-173394676D01*
X63940128Y-173265000D01*
X61699872Y-173265000D01*
X61047946Y-173394676D01*
X60308655Y-173888655D01*
X59814676Y-174627946D01*
X59641214Y-175500000D01*
X50710000Y-175500000D01*
X50710000Y-161712854D01*
X51811052Y-161712854D01*
X51815000Y-161722535D01*
X51815000Y-161732992D01*
X52091686Y-162400970D01*
X52364654Y-163070291D01*
X52375898Y-163087119D01*
X52376008Y-163087385D01*
X52376212Y-163087589D01*
X52387455Y-163104416D01*
X52407883Y-163119260D01*
X53380740Y-164092117D01*
X53395584Y-164112545D01*
X53405222Y-164116599D01*
X53412615Y-164123992D01*
X54080532Y-164400652D01*
X54746892Y-164680941D01*
X54757347Y-164680998D01*
X54767008Y-164685000D01*
X55490034Y-164685000D01*
X56212854Y-164688948D01*
X56222535Y-164685000D01*
X56232992Y-164685000D01*
X56900970Y-164408314D01*
X57570291Y-164135346D01*
X57587119Y-164124102D01*
X57587385Y-164123992D01*
X57587589Y-164123788D01*
X57604416Y-164112545D01*
X57619260Y-164092117D01*
X58592117Y-163119260D01*
X58612545Y-163104416D01*
X58616599Y-163094778D01*
X58623992Y-163087385D01*
X58900652Y-162419468D01*
X59180941Y-161753108D01*
X59180998Y-161742653D01*
X59185000Y-161732992D01*
X59185000Y-161009966D01*
X59188948Y-160287146D01*
X59185000Y-160277465D01*
X59185000Y-160267008D01*
X58908314Y-159599030D01*
X58635346Y-158929709D01*
X58624102Y-158912881D01*
X58623992Y-158912615D01*
X58623788Y-158912411D01*
X58612545Y-158895584D01*
X58592117Y-158880740D01*
X57619260Y-157907883D01*
X57604416Y-157887455D01*
X57594778Y-157883401D01*
X57587385Y-157876008D01*
X56919468Y-157599348D01*
X56253108Y-157319059D01*
X56242653Y-157319002D01*
X56232992Y-157315000D01*
X55509966Y-157315000D01*
X54787146Y-157311052D01*
X54777465Y-157315000D01*
X54767008Y-157315000D01*
X54099030Y-157591686D01*
X53429709Y-157864654D01*
X53412881Y-157875898D01*
X53412615Y-157876008D01*
X53412411Y-157876212D01*
X53395584Y-157887455D01*
X53380740Y-157907883D01*
X52407883Y-158880740D01*
X52387455Y-158895584D01*
X52383401Y-158905222D01*
X52376008Y-158912615D01*
X52099348Y-159580532D01*
X51819059Y-160246892D01*
X51819002Y-160257347D01*
X51815000Y-160267008D01*
X51815000Y-160990034D01*
X51811052Y-161712854D01*
X50710000Y-161712854D01*
X50710000Y-147012854D01*
X51811052Y-147012854D01*
X51815000Y-147022535D01*
X51815000Y-147032992D01*
X52091686Y-147700970D01*
X52364654Y-148370291D01*
X52375898Y-148387119D01*
X52376008Y-148387385D01*
X52376212Y-148387589D01*
X52387455Y-148404416D01*
X52407883Y-148419260D01*
X53380740Y-149392117D01*
X53395584Y-149412545D01*
X53405222Y-149416599D01*
X53412615Y-149423992D01*
X54080532Y-149700652D01*
X54746892Y-149980941D01*
X54757347Y-149980998D01*
X54767008Y-149985000D01*
X55490034Y-149985000D01*
X56212854Y-149988948D01*
X56222535Y-149985000D01*
X56232992Y-149985000D01*
X56900970Y-149708314D01*
X57570291Y-149435346D01*
X57587119Y-149424102D01*
X57587385Y-149423992D01*
X57587589Y-149423788D01*
X57604416Y-149412545D01*
X57619260Y-149392117D01*
X58592117Y-148419260D01*
X58612545Y-148404416D01*
X58616599Y-148394778D01*
X58623992Y-148387385D01*
X58900652Y-147719468D01*
X59180941Y-147053108D01*
X59180998Y-147042653D01*
X59185000Y-147032992D01*
X59185000Y-146309966D01*
X59188948Y-145587146D01*
X59185000Y-145577465D01*
X59185000Y-145567008D01*
X58908314Y-144899030D01*
X58635346Y-144229709D01*
X58624102Y-144212881D01*
X58623992Y-144212615D01*
X58623788Y-144212411D01*
X58612545Y-144195584D01*
X58592117Y-144180740D01*
X57619260Y-143207883D01*
X57604416Y-143187455D01*
X57594778Y-143183401D01*
X57587385Y-143176008D01*
X56919468Y-142899348D01*
X56253108Y-142619059D01*
X56242653Y-142619002D01*
X56232992Y-142615000D01*
X55509966Y-142615000D01*
X54787146Y-142611052D01*
X54777465Y-142615000D01*
X54767008Y-142615000D01*
X54099030Y-142891686D01*
X53429709Y-143164654D01*
X53412881Y-143175898D01*
X53412615Y-143176008D01*
X53412411Y-143176212D01*
X53395584Y-143187455D01*
X53380740Y-143207883D01*
X52407883Y-144180740D01*
X52387455Y-144195584D01*
X52383401Y-144205222D01*
X52376008Y-144212615D01*
X52099348Y-144880532D01*
X51819059Y-145546892D01*
X51819002Y-145557347D01*
X51815000Y-145567008D01*
X51815000Y-146290034D01*
X51811052Y-147012854D01*
X50710000Y-147012854D01*
X50710000Y-132212854D01*
X51811052Y-132212854D01*
X51815000Y-132222535D01*
X51815000Y-132232992D01*
X52091686Y-132900970D01*
X52364654Y-133570291D01*
X52375898Y-133587119D01*
X52376008Y-133587385D01*
X52376212Y-133587589D01*
X52387455Y-133604416D01*
X52407883Y-133619260D01*
X53380740Y-134592117D01*
X53395584Y-134612545D01*
X53405222Y-134616599D01*
X53412615Y-134623992D01*
X54080532Y-134900652D01*
X54746892Y-135180941D01*
X54757347Y-135180998D01*
X54767008Y-135185000D01*
X55490034Y-135185000D01*
X56212854Y-135188948D01*
X56222535Y-135185000D01*
X56232992Y-135185000D01*
X56900970Y-134908314D01*
X57570291Y-134635346D01*
X57587119Y-134624102D01*
X57587385Y-134623992D01*
X57587589Y-134623788D01*
X57604416Y-134612545D01*
X57619260Y-134592117D01*
X58592117Y-133619260D01*
X58612545Y-133604416D01*
X58616599Y-133594778D01*
X58623992Y-133587385D01*
X58900652Y-132919468D01*
X59180941Y-132253108D01*
X59180998Y-132242653D01*
X59185000Y-132232992D01*
X59185000Y-131509966D01*
X59188948Y-130787146D01*
X59185000Y-130777465D01*
X59185000Y-130767008D01*
X58908314Y-130099030D01*
X58635346Y-129429709D01*
X58624102Y-129412881D01*
X58623992Y-129412615D01*
X58623788Y-129412411D01*
X58612545Y-129395584D01*
X58592117Y-129380740D01*
X57619260Y-128407883D01*
X57604416Y-128387455D01*
X57594778Y-128383401D01*
X57587385Y-128376008D01*
X56919468Y-128099348D01*
X56253108Y-127819059D01*
X56242653Y-127819002D01*
X56232992Y-127815000D01*
X55509966Y-127815000D01*
X54787146Y-127811052D01*
X54777465Y-127815000D01*
X54767008Y-127815000D01*
X54099030Y-128091686D01*
X53429709Y-128364654D01*
X53412881Y-128375898D01*
X53412615Y-128376008D01*
X53412411Y-128376212D01*
X53395584Y-128387455D01*
X53380740Y-128407883D01*
X52407883Y-129380740D01*
X52387455Y-129395584D01*
X52383401Y-129405222D01*
X52376008Y-129412615D01*
X52099348Y-130080532D01*
X51819059Y-130746892D01*
X51819002Y-130757347D01*
X51815000Y-130767008D01*
X51815000Y-131490034D01*
X51811052Y-132212854D01*
X50710000Y-132212854D01*
X50710000Y-94200000D01*
X51726091Y-94200000D01*
X51740000Y-94269926D01*
X51740001Y-110180069D01*
X51726091Y-110250000D01*
X51781195Y-110527028D01*
X51938119Y-110761881D01*
X52172972Y-110918805D01*
X52380074Y-110960000D01*
X68519926Y-110960000D01*
X68727028Y-110918805D01*
X68961881Y-110761881D01*
X69066421Y-110605426D01*
X69089803Y-110589803D01*
X69117333Y-110548601D01*
X69127000Y-110500000D01*
X69127000Y-110485829D01*
X69173909Y-110250000D01*
X69160000Y-110180074D01*
X69160000Y-94269926D01*
X69173909Y-94200000D01*
X69118805Y-93922972D01*
X68961881Y-93688119D01*
X68727028Y-93531195D01*
X68519926Y-93490000D01*
X68519925Y-93490000D01*
X68450000Y-93476091D01*
X68380074Y-93490000D01*
X52519925Y-93490000D01*
X52450000Y-93476091D01*
X52380074Y-93490000D01*
X52172972Y-93531195D01*
X51938119Y-93688119D01*
X51781195Y-93922972D01*
X51726091Y-94200000D01*
X50710000Y-94200000D01*
X50710000Y-68200000D01*
X52976091Y-68200000D01*
X52990001Y-68269931D01*
X52990000Y-88530074D01*
X52976091Y-88600000D01*
X53031195Y-88877028D01*
X53188119Y-89111881D01*
X53422972Y-89268805D01*
X53700000Y-89323909D01*
X53769925Y-89310000D01*
X56230075Y-89310000D01*
X56300000Y-89323909D01*
X56577028Y-89268805D01*
X56811881Y-89111881D01*
X56968805Y-88877028D01*
X57010000Y-88669926D01*
X57010000Y-88669925D01*
X57023909Y-88600000D01*
X57010000Y-88530074D01*
X57010000Y-68269926D01*
X57023909Y-68200000D01*
X56968805Y-67922972D01*
X56811881Y-67688119D01*
X56577028Y-67531195D01*
X56369926Y-67490000D01*
X56369925Y-67490000D01*
X56300000Y-67476091D01*
X56230074Y-67490000D01*
X53769926Y-67490000D01*
X53700000Y-67476091D01*
X53630075Y-67490000D01*
X53630074Y-67490000D01*
X53422972Y-67531195D01*
X53188119Y-67688119D01*
X53031195Y-67922972D01*
X52976091Y-68200000D01*
X50710000Y-68200000D01*
X50710000Y-53000000D01*
X54321214Y-53000000D01*
X54494676Y-53872054D01*
X54988655Y-54611345D01*
X55727946Y-55105324D01*
X56379872Y-55235000D01*
X58620128Y-55235000D01*
X59272054Y-55105324D01*
X60011345Y-54611345D01*
X60505324Y-53872054D01*
X60678786Y-53000000D01*
X60505324Y-52127946D01*
X60011345Y-51388655D01*
X59272054Y-50894676D01*
X58620128Y-50765000D01*
X56379872Y-50765000D01*
X55727946Y-50894676D01*
X54988655Y-51388655D01*
X54494676Y-52127946D01*
X54321214Y-53000000D01*
X50710000Y-53000000D01*
X50710000Y-50710000D01*
X69610000Y-50710000D01*
X69610001Y-177790000D01*
X69610001Y-177790000D01*
G37*
X69610001Y-177790000D02*
X50710000Y-177790000D01*
X50710000Y-175500000D01*
X59641214Y-175500000D01*
X59814676Y-176372054D01*
X60308655Y-177111345D01*
X61047946Y-177605324D01*
X61699872Y-177735000D01*
X63940128Y-177735000D01*
X64592054Y-177605324D01*
X65331345Y-177111345D01*
X65825324Y-176372054D01*
X65998786Y-175500000D01*
X65825324Y-174627946D01*
X65331345Y-173888655D01*
X64592054Y-173394676D01*
X63940128Y-173265000D01*
X61699872Y-173265000D01*
X61047946Y-173394676D01*
X60308655Y-173888655D01*
X59814676Y-174627946D01*
X59641214Y-175500000D01*
X50710000Y-175500000D01*
X50710000Y-161712854D01*
X51811052Y-161712854D01*
X51815000Y-161722535D01*
X51815000Y-161732992D01*
X52091686Y-162400970D01*
X52364654Y-163070291D01*
X52375898Y-163087119D01*
X52376008Y-163087385D01*
X52376212Y-163087589D01*
X52387455Y-163104416D01*
X52407883Y-163119260D01*
X53380740Y-164092117D01*
X53395584Y-164112545D01*
X53405222Y-164116599D01*
X53412615Y-164123992D01*
X54080532Y-164400652D01*
X54746892Y-164680941D01*
X54757347Y-164680998D01*
X54767008Y-164685000D01*
X55490034Y-164685000D01*
X56212854Y-164688948D01*
X56222535Y-164685000D01*
X56232992Y-164685000D01*
X56900970Y-164408314D01*
X57570291Y-164135346D01*
X57587119Y-164124102D01*
X57587385Y-164123992D01*
X57587589Y-164123788D01*
X57604416Y-164112545D01*
X57619260Y-164092117D01*
X58592117Y-163119260D01*
X58612545Y-163104416D01*
X58616599Y-163094778D01*
X58623992Y-163087385D01*
X58900652Y-162419468D01*
X59180941Y-161753108D01*
X59180998Y-161742653D01*
X59185000Y-161732992D01*
X59185000Y-161009966D01*
X59188948Y-160287146D01*
X59185000Y-160277465D01*
X59185000Y-160267008D01*
X58908314Y-159599030D01*
X58635346Y-158929709D01*
X58624102Y-158912881D01*
X58623992Y-158912615D01*
X58623788Y-158912411D01*
X58612545Y-158895584D01*
X58592117Y-158880740D01*
X57619260Y-157907883D01*
X57604416Y-157887455D01*
X57594778Y-157883401D01*
X57587385Y-157876008D01*
X56919468Y-157599348D01*
X56253108Y-157319059D01*
X56242653Y-157319002D01*
X56232992Y-157315000D01*
X55509966Y-157315000D01*
X54787146Y-157311052D01*
X54777465Y-157315000D01*
X54767008Y-157315000D01*
X54099030Y-157591686D01*
X53429709Y-157864654D01*
X53412881Y-157875898D01*
X53412615Y-157876008D01*
X53412411Y-157876212D01*
X53395584Y-157887455D01*
X53380740Y-157907883D01*
X52407883Y-158880740D01*
X52387455Y-158895584D01*
X52383401Y-158905222D01*
X52376008Y-158912615D01*
X52099348Y-159580532D01*
X51819059Y-160246892D01*
X51819002Y-160257347D01*
X51815000Y-160267008D01*
X51815000Y-160990034D01*
X51811052Y-161712854D01*
X50710000Y-161712854D01*
X50710000Y-147012854D01*
X51811052Y-147012854D01*
X51815000Y-147022535D01*
X51815000Y-147032992D01*
X52091686Y-147700970D01*
X52364654Y-148370291D01*
X52375898Y-148387119D01*
X52376008Y-148387385D01*
X52376212Y-148387589D01*
X52387455Y-148404416D01*
X52407883Y-148419260D01*
X53380740Y-149392117D01*
X53395584Y-149412545D01*
X53405222Y-149416599D01*
X53412615Y-149423992D01*
X54080532Y-149700652D01*
X54746892Y-149980941D01*
X54757347Y-149980998D01*
X54767008Y-149985000D01*
X55490034Y-149985000D01*
X56212854Y-149988948D01*
X56222535Y-149985000D01*
X56232992Y-149985000D01*
X56900970Y-149708314D01*
X57570291Y-149435346D01*
X57587119Y-149424102D01*
X57587385Y-149423992D01*
X57587589Y-149423788D01*
X57604416Y-149412545D01*
X57619260Y-149392117D01*
X58592117Y-148419260D01*
X58612545Y-148404416D01*
X58616599Y-148394778D01*
X58623992Y-148387385D01*
X58900652Y-147719468D01*
X59180941Y-147053108D01*
X59180998Y-147042653D01*
X59185000Y-147032992D01*
X59185000Y-146309966D01*
X59188948Y-145587146D01*
X59185000Y-145577465D01*
X59185000Y-145567008D01*
X58908314Y-144899030D01*
X58635346Y-144229709D01*
X58624102Y-144212881D01*
X58623992Y-144212615D01*
X58623788Y-144212411D01*
X58612545Y-144195584D01*
X58592117Y-144180740D01*
X57619260Y-143207883D01*
X57604416Y-143187455D01*
X57594778Y-143183401D01*
X57587385Y-143176008D01*
X56919468Y-142899348D01*
X56253108Y-142619059D01*
X56242653Y-142619002D01*
X56232992Y-142615000D01*
X55509966Y-142615000D01*
X54787146Y-142611052D01*
X54777465Y-142615000D01*
X54767008Y-142615000D01*
X54099030Y-142891686D01*
X53429709Y-143164654D01*
X53412881Y-143175898D01*
X53412615Y-143176008D01*
X53412411Y-143176212D01*
X53395584Y-143187455D01*
X53380740Y-143207883D01*
X52407883Y-144180740D01*
X52387455Y-144195584D01*
X52383401Y-144205222D01*
X52376008Y-144212615D01*
X52099348Y-144880532D01*
X51819059Y-145546892D01*
X51819002Y-145557347D01*
X51815000Y-145567008D01*
X51815000Y-146290034D01*
X51811052Y-147012854D01*
X50710000Y-147012854D01*
X50710000Y-132212854D01*
X51811052Y-132212854D01*
X51815000Y-132222535D01*
X51815000Y-132232992D01*
X52091686Y-132900970D01*
X52364654Y-133570291D01*
X52375898Y-133587119D01*
X52376008Y-133587385D01*
X52376212Y-133587589D01*
X52387455Y-133604416D01*
X52407883Y-133619260D01*
X53380740Y-134592117D01*
X53395584Y-134612545D01*
X53405222Y-134616599D01*
X53412615Y-134623992D01*
X54080532Y-134900652D01*
X54746892Y-135180941D01*
X54757347Y-135180998D01*
X54767008Y-135185000D01*
X55490034Y-135185000D01*
X56212854Y-135188948D01*
X56222535Y-135185000D01*
X56232992Y-135185000D01*
X56900970Y-134908314D01*
X57570291Y-134635346D01*
X57587119Y-134624102D01*
X57587385Y-134623992D01*
X57587589Y-134623788D01*
X57604416Y-134612545D01*
X57619260Y-134592117D01*
X58592117Y-133619260D01*
X58612545Y-133604416D01*
X58616599Y-133594778D01*
X58623992Y-133587385D01*
X58900652Y-132919468D01*
X59180941Y-132253108D01*
X59180998Y-132242653D01*
X59185000Y-132232992D01*
X59185000Y-131509966D01*
X59188948Y-130787146D01*
X59185000Y-130777465D01*
X59185000Y-130767008D01*
X58908314Y-130099030D01*
X58635346Y-129429709D01*
X58624102Y-129412881D01*
X58623992Y-129412615D01*
X58623788Y-129412411D01*
X58612545Y-129395584D01*
X58592117Y-129380740D01*
X57619260Y-128407883D01*
X57604416Y-128387455D01*
X57594778Y-128383401D01*
X57587385Y-128376008D01*
X56919468Y-128099348D01*
X56253108Y-127819059D01*
X56242653Y-127819002D01*
X56232992Y-127815000D01*
X55509966Y-127815000D01*
X54787146Y-127811052D01*
X54777465Y-127815000D01*
X54767008Y-127815000D01*
X54099030Y-128091686D01*
X53429709Y-128364654D01*
X53412881Y-128375898D01*
X53412615Y-128376008D01*
X53412411Y-128376212D01*
X53395584Y-128387455D01*
X53380740Y-128407883D01*
X52407883Y-129380740D01*
X52387455Y-129395584D01*
X52383401Y-129405222D01*
X52376008Y-129412615D01*
X52099348Y-130080532D01*
X51819059Y-130746892D01*
X51819002Y-130757347D01*
X51815000Y-130767008D01*
X51815000Y-131490034D01*
X51811052Y-132212854D01*
X50710000Y-132212854D01*
X50710000Y-94200000D01*
X51726091Y-94200000D01*
X51740000Y-94269926D01*
X51740001Y-110180069D01*
X51726091Y-110250000D01*
X51781195Y-110527028D01*
X51938119Y-110761881D01*
X52172972Y-110918805D01*
X52380074Y-110960000D01*
X68519926Y-110960000D01*
X68727028Y-110918805D01*
X68961881Y-110761881D01*
X69066421Y-110605426D01*
X69089803Y-110589803D01*
X69117333Y-110548601D01*
X69127000Y-110500000D01*
X69127000Y-110485829D01*
X69173909Y-110250000D01*
X69160000Y-110180074D01*
X69160000Y-94269926D01*
X69173909Y-94200000D01*
X69118805Y-93922972D01*
X68961881Y-93688119D01*
X68727028Y-93531195D01*
X68519926Y-93490000D01*
X68519925Y-93490000D01*
X68450000Y-93476091D01*
X68380074Y-93490000D01*
X52519925Y-93490000D01*
X52450000Y-93476091D01*
X52380074Y-93490000D01*
X52172972Y-93531195D01*
X51938119Y-93688119D01*
X51781195Y-93922972D01*
X51726091Y-94200000D01*
X50710000Y-94200000D01*
X50710000Y-68200000D01*
X52976091Y-68200000D01*
X52990001Y-68269931D01*
X52990000Y-88530074D01*
X52976091Y-88600000D01*
X53031195Y-88877028D01*
X53188119Y-89111881D01*
X53422972Y-89268805D01*
X53700000Y-89323909D01*
X53769925Y-89310000D01*
X56230075Y-89310000D01*
X56300000Y-89323909D01*
X56577028Y-89268805D01*
X56811881Y-89111881D01*
X56968805Y-88877028D01*
X57010000Y-88669926D01*
X57010000Y-88669925D01*
X57023909Y-88600000D01*
X57010000Y-88530074D01*
X57010000Y-68269926D01*
X57023909Y-68200000D01*
X56968805Y-67922972D01*
X56811881Y-67688119D01*
X56577028Y-67531195D01*
X56369926Y-67490000D01*
X56369925Y-67490000D01*
X56300000Y-67476091D01*
X56230074Y-67490000D01*
X53769926Y-67490000D01*
X53700000Y-67476091D01*
X53630075Y-67490000D01*
X53630074Y-67490000D01*
X53422972Y-67531195D01*
X53188119Y-67688119D01*
X53031195Y-67922972D01*
X52976091Y-68200000D01*
X50710000Y-68200000D01*
X50710000Y-53000000D01*
X54321214Y-53000000D01*
X54494676Y-53872054D01*
X54988655Y-54611345D01*
X55727946Y-55105324D01*
X56379872Y-55235000D01*
X58620128Y-55235000D01*
X59272054Y-55105324D01*
X60011345Y-54611345D01*
X60505324Y-53872054D01*
X60678786Y-53000000D01*
X60505324Y-52127946D01*
X60011345Y-51388655D01*
X59272054Y-50894676D01*
X58620128Y-50765000D01*
X56379872Y-50765000D01*
X55727946Y-50894676D01*
X54988655Y-51388655D01*
X54494676Y-52127946D01*
X54321214Y-53000000D01*
X50710000Y-53000000D01*
X50710000Y-50710000D01*
X69610000Y-50710000D01*
X69610001Y-177790000D01*
M02*
