G04 #@! TF.GenerationSoftware,KiCad,Pcbnew,(5.0.1)-4*
G04 #@! TF.CreationDate,2018-12-03T15:58:59+00:00*
G04 #@! TF.ProjectId,DevBoard,446576426F6172642E6B696361645F70,rev?*
G04 #@! TF.SameCoordinates,Original*
G04 #@! TF.FileFunction,Legend,Top*
G04 #@! TF.FilePolarity,Positive*
%FSLAX46Y46*%
G04 Gerber Fmt 4.6, Leading zero omitted, Abs format (unit mm)*
G04 Created by KiCad (PCBNEW (5.0.1)-4) date 03/12/2018 15:58:59*
%MOMM*%
%LPD*%
G01*
G04 APERTURE LIST*
%ADD10C,0.300000*%
%ADD11C,0.120000*%
%ADD12C,0.150000*%
G04 APERTURE END LIST*
D10*
X51642857Y-61678571D02*
X51642857Y-60178571D01*
X52000000Y-60178571D01*
X52214285Y-60250000D01*
X52357142Y-60392857D01*
X52428571Y-60535714D01*
X52500000Y-60821428D01*
X52500000Y-61035714D01*
X52428571Y-61321428D01*
X52357142Y-61464285D01*
X52214285Y-61607142D01*
X52000000Y-61678571D01*
X51642857Y-61678571D01*
X53714285Y-61607142D02*
X53571428Y-61678571D01*
X53285714Y-61678571D01*
X53142857Y-61607142D01*
X53071428Y-61464285D01*
X53071428Y-60892857D01*
X53142857Y-60750000D01*
X53285714Y-60678571D01*
X53571428Y-60678571D01*
X53714285Y-60750000D01*
X53785714Y-60892857D01*
X53785714Y-61035714D01*
X53071428Y-61178571D01*
X54285714Y-60678571D02*
X54642857Y-61678571D01*
X55000000Y-60678571D01*
X57214285Y-60892857D02*
X57428571Y-60964285D01*
X57500000Y-61035714D01*
X57571428Y-61178571D01*
X57571428Y-61392857D01*
X57500000Y-61535714D01*
X57428571Y-61607142D01*
X57285714Y-61678571D01*
X56714285Y-61678571D01*
X56714285Y-60178571D01*
X57214285Y-60178571D01*
X57357142Y-60250000D01*
X57428571Y-60321428D01*
X57500000Y-60464285D01*
X57500000Y-60607142D01*
X57428571Y-60750000D01*
X57357142Y-60821428D01*
X57214285Y-60892857D01*
X56714285Y-60892857D01*
X58428571Y-61678571D02*
X58285714Y-61607142D01*
X58214285Y-61535714D01*
X58142857Y-61392857D01*
X58142857Y-60964285D01*
X58214285Y-60821428D01*
X58285714Y-60750000D01*
X58428571Y-60678571D01*
X58642857Y-60678571D01*
X58785714Y-60750000D01*
X58857142Y-60821428D01*
X58928571Y-60964285D01*
X58928571Y-61392857D01*
X58857142Y-61535714D01*
X58785714Y-61607142D01*
X58642857Y-61678571D01*
X58428571Y-61678571D01*
X60214285Y-61678571D02*
X60214285Y-60892857D01*
X60142857Y-60750000D01*
X60000000Y-60678571D01*
X59714285Y-60678571D01*
X59571428Y-60750000D01*
X60214285Y-61607142D02*
X60071428Y-61678571D01*
X59714285Y-61678571D01*
X59571428Y-61607142D01*
X59500000Y-61464285D01*
X59500000Y-61321428D01*
X59571428Y-61178571D01*
X59714285Y-61107142D01*
X60071428Y-61107142D01*
X60214285Y-61035714D01*
X60928571Y-61678571D02*
X60928571Y-60678571D01*
X60928571Y-60964285D02*
X61000000Y-60821428D01*
X61071428Y-60750000D01*
X61214285Y-60678571D01*
X61357142Y-60678571D01*
X62500000Y-61678571D02*
X62500000Y-60178571D01*
X62500000Y-61607142D02*
X62357142Y-61678571D01*
X62071428Y-61678571D01*
X61928571Y-61607142D01*
X61857142Y-61535714D01*
X61785714Y-61392857D01*
X61785714Y-60964285D01*
X61857142Y-60821428D01*
X61928571Y-60750000D01*
X62071428Y-60678571D01*
X62357142Y-60678571D01*
X62500000Y-60750000D01*
X64214285Y-60678571D02*
X64571428Y-61678571D01*
X64928571Y-60678571D01*
X66285714Y-61678571D02*
X65428571Y-61678571D01*
X65857142Y-61678571D02*
X65857142Y-60178571D01*
X65714285Y-60392857D01*
X65571428Y-60535714D01*
X65428571Y-60607142D01*
X66928571Y-61535714D02*
X67000000Y-61607142D01*
X66928571Y-61678571D01*
X66857142Y-61607142D01*
X66928571Y-61535714D01*
X66928571Y-61678571D01*
X67928571Y-60178571D02*
X68071428Y-60178571D01*
X68214285Y-60250000D01*
X68285714Y-60321428D01*
X68357142Y-60464285D01*
X68428571Y-60750000D01*
X68428571Y-61107142D01*
X68357142Y-61392857D01*
X68285714Y-61535714D01*
X68214285Y-61607142D01*
X68071428Y-61678571D01*
X67928571Y-61678571D01*
X67785714Y-61607142D01*
X67714285Y-61535714D01*
X67642857Y-61392857D01*
X67571428Y-61107142D01*
X67571428Y-60750000D01*
X67642857Y-60464285D01*
X67714285Y-60321428D01*
X67785714Y-60250000D01*
X67928571Y-60178571D01*
D11*
G04 #@! TO.C,J7*
X52830000Y-104760000D02*
X52830000Y-111470000D01*
X68060000Y-104770000D02*
X68070000Y-111470000D01*
X52830000Y-93440000D02*
X52830000Y-102440000D01*
X68070000Y-93440000D02*
X52830000Y-93440000D01*
X68070000Y-93440000D02*
X68060000Y-102430000D01*
X52830000Y-111470000D02*
X68070000Y-111470000D01*
D12*
G04 #@! TO.C,J1*
X51055000Y-135310000D02*
X53595000Y-135310000D01*
X53595000Y-135310000D02*
X53595000Y-135945000D01*
X53595000Y-135945000D02*
X57405000Y-135945000D01*
X57405000Y-135945000D02*
X57405000Y-135310000D01*
X57405000Y-135310000D02*
X59945000Y-135310000D01*
X57405000Y-133405000D02*
G75*
G03X57405000Y-129595000I-1905000J1905000D01*
G01*
X53595000Y-129595000D02*
G75*
G03X53595000Y-133405000I1905000J-1905000D01*
G01*
X57405000Y-133405000D02*
X53595000Y-133405000D01*
X53595000Y-129595000D02*
X57405000Y-129595000D01*
X57296051Y-131500000D02*
G75*
G03X57296051Y-131500000I-1796051J0D01*
G01*
X60000000Y-125500000D02*
X60000000Y-136000000D01*
X51000000Y-125500000D02*
X51000000Y-136000000D01*
X51000000Y-136000000D02*
X60000000Y-136000000D01*
X51000000Y-125500000D02*
X60000000Y-125500000D01*
X56800000Y-131500000D02*
G75*
G03X56800000Y-131500000I-1300000J0D01*
G01*
G04 #@! TO.C,J2*
X66050000Y-146250000D02*
G75*
G03X66050000Y-146250000I-1300000J0D01*
G01*
X60250000Y-140250000D02*
X69250000Y-140250000D01*
X60250000Y-150750000D02*
X69250000Y-150750000D01*
X60250000Y-140250000D02*
X60250000Y-150750000D01*
X69250000Y-140250000D02*
X69250000Y-150750000D01*
X66546051Y-146250000D02*
G75*
G03X66546051Y-146250000I-1796051J0D01*
G01*
X62845000Y-144345000D02*
X66655000Y-144345000D01*
X66655000Y-148155000D02*
X62845000Y-148155000D01*
X62845000Y-144345000D02*
G75*
G03X62845000Y-148155000I1905000J-1905000D01*
G01*
X66655000Y-148155000D02*
G75*
G03X66655000Y-144345000I-1905000J1905000D01*
G01*
X66655000Y-150060000D02*
X69195000Y-150060000D01*
X66655000Y-150695000D02*
X66655000Y-150060000D01*
X62845000Y-150695000D02*
X66655000Y-150695000D01*
X62845000Y-150060000D02*
X62845000Y-150695000D01*
X60305000Y-150060000D02*
X62845000Y-150060000D01*
G04 #@! TO.C,J3*
X51055000Y-150060000D02*
X53595000Y-150060000D01*
X53595000Y-150060000D02*
X53595000Y-150695000D01*
X53595000Y-150695000D02*
X57405000Y-150695000D01*
X57405000Y-150695000D02*
X57405000Y-150060000D01*
X57405000Y-150060000D02*
X59945000Y-150060000D01*
X57405000Y-148155000D02*
G75*
G03X57405000Y-144345000I-1905000J1905000D01*
G01*
X53595000Y-144345000D02*
G75*
G03X53595000Y-148155000I1905000J-1905000D01*
G01*
X57405000Y-148155000D02*
X53595000Y-148155000D01*
X53595000Y-144345000D02*
X57405000Y-144345000D01*
X57296051Y-146250000D02*
G75*
G03X57296051Y-146250000I-1796051J0D01*
G01*
X60000000Y-140250000D02*
X60000000Y-150750000D01*
X51000000Y-140250000D02*
X51000000Y-150750000D01*
X51000000Y-150750000D02*
X60000000Y-150750000D01*
X51000000Y-140250000D02*
X60000000Y-140250000D01*
X56800000Y-146250000D02*
G75*
G03X56800000Y-146250000I-1300000J0D01*
G01*
G04 #@! TO.C,J4*
X56800000Y-161000000D02*
G75*
G03X56800000Y-161000000I-1300000J0D01*
G01*
X51000000Y-155000000D02*
X60000000Y-155000000D01*
X51000000Y-165500000D02*
X60000000Y-165500000D01*
X51000000Y-155000000D02*
X51000000Y-165500000D01*
X60000000Y-155000000D02*
X60000000Y-165500000D01*
X57296051Y-161000000D02*
G75*
G03X57296051Y-161000000I-1796051J0D01*
G01*
X53595000Y-159095000D02*
X57405000Y-159095000D01*
X57405000Y-162905000D02*
X53595000Y-162905000D01*
X53595000Y-159095000D02*
G75*
G03X53595000Y-162905000I1905000J-1905000D01*
G01*
X57405000Y-162905000D02*
G75*
G03X57405000Y-159095000I-1905000J1905000D01*
G01*
X57405000Y-164810000D02*
X59945000Y-164810000D01*
X57405000Y-165445000D02*
X57405000Y-164810000D01*
X53595000Y-165445000D02*
X57405000Y-165445000D01*
X53595000Y-164810000D02*
X53595000Y-165445000D01*
X51055000Y-164810000D02*
X53595000Y-164810000D01*
G04 #@! TO.C,J5*
X60305000Y-164810000D02*
X62845000Y-164810000D01*
X62845000Y-164810000D02*
X62845000Y-165445000D01*
X62845000Y-165445000D02*
X66655000Y-165445000D01*
X66655000Y-165445000D02*
X66655000Y-164810000D01*
X66655000Y-164810000D02*
X69195000Y-164810000D01*
X66655000Y-162905000D02*
G75*
G03X66655000Y-159095000I-1905000J1905000D01*
G01*
X62845000Y-159095000D02*
G75*
G03X62845000Y-162905000I1905000J-1905000D01*
G01*
X66655000Y-162905000D02*
X62845000Y-162905000D01*
X62845000Y-159095000D02*
X66655000Y-159095000D01*
X66546051Y-161000000D02*
G75*
G03X66546051Y-161000000I-1796051J0D01*
G01*
X69250000Y-155000000D02*
X69250000Y-165500000D01*
X60250000Y-155000000D02*
X60250000Y-165500000D01*
X60250000Y-165500000D02*
X69250000Y-165500000D01*
X60250000Y-155000000D02*
X69250000Y-155000000D01*
X66050000Y-161000000D02*
G75*
G03X66050000Y-161000000I-1300000J0D01*
G01*
D11*
G04 #@! TO.C,J8*
X53670000Y-68170000D02*
X55000000Y-68170000D01*
X53670000Y-69500000D02*
X53670000Y-68170000D01*
X53670000Y-70770000D02*
X56330000Y-70770000D01*
X56330000Y-70770000D02*
X56330000Y-88610000D01*
X53670000Y-70770000D02*
X53670000Y-88610000D01*
X53670000Y-88610000D02*
X56330000Y-88610000D01*
G04 #@! TO.C,J7*
D12*
X60366666Y-107882380D02*
X60366666Y-108596666D01*
X60319047Y-108739523D01*
X60223809Y-108834761D01*
X60080952Y-108882380D01*
X59985714Y-108882380D01*
X60747619Y-107882380D02*
X61414285Y-107882380D01*
X60985714Y-108882380D01*
G04 #@! TO.C,J1*
X58976666Y-137302380D02*
X58976666Y-138016666D01*
X58929047Y-138159523D01*
X58833809Y-138254761D01*
X58690952Y-138302380D01*
X58595714Y-138302380D01*
X59976666Y-138302380D02*
X59405238Y-138302380D01*
X59690952Y-138302380D02*
X59690952Y-137302380D01*
X59595714Y-137445238D01*
X59500476Y-137540476D01*
X59405238Y-137588095D01*
G04 #@! TO.C,J2*
X68226666Y-152052380D02*
X68226666Y-152766666D01*
X68179047Y-152909523D01*
X68083809Y-153004761D01*
X67940952Y-153052380D01*
X67845714Y-153052380D01*
X68655238Y-152147619D02*
X68702857Y-152100000D01*
X68798095Y-152052380D01*
X69036190Y-152052380D01*
X69131428Y-152100000D01*
X69179047Y-152147619D01*
X69226666Y-152242857D01*
X69226666Y-152338095D01*
X69179047Y-152480952D01*
X68607619Y-153052380D01*
X69226666Y-153052380D01*
G04 #@! TO.C,J3*
X58976666Y-152052380D02*
X58976666Y-152766666D01*
X58929047Y-152909523D01*
X58833809Y-153004761D01*
X58690952Y-153052380D01*
X58595714Y-153052380D01*
X59357619Y-152052380D02*
X59976666Y-152052380D01*
X59643333Y-152433333D01*
X59786190Y-152433333D01*
X59881428Y-152480952D01*
X59929047Y-152528571D01*
X59976666Y-152623809D01*
X59976666Y-152861904D01*
X59929047Y-152957142D01*
X59881428Y-153004761D01*
X59786190Y-153052380D01*
X59500476Y-153052380D01*
X59405238Y-153004761D01*
X59357619Y-152957142D01*
G04 #@! TO.C,J4*
X58976666Y-166802380D02*
X58976666Y-167516666D01*
X58929047Y-167659523D01*
X58833809Y-167754761D01*
X58690952Y-167802380D01*
X58595714Y-167802380D01*
X59881428Y-167135714D02*
X59881428Y-167802380D01*
X59643333Y-166754761D02*
X59405238Y-167469047D01*
X60024285Y-167469047D01*
G04 #@! TO.C,J5*
X68226666Y-166802380D02*
X68226666Y-167516666D01*
X68179047Y-167659523D01*
X68083809Y-167754761D01*
X67940952Y-167802380D01*
X67845714Y-167802380D01*
X69179047Y-166802380D02*
X68702857Y-166802380D01*
X68655238Y-167278571D01*
X68702857Y-167230952D01*
X68798095Y-167183333D01*
X69036190Y-167183333D01*
X69131428Y-167230952D01*
X69179047Y-167278571D01*
X69226666Y-167373809D01*
X69226666Y-167611904D01*
X69179047Y-167707142D01*
X69131428Y-167754761D01*
X69036190Y-167802380D01*
X68798095Y-167802380D01*
X68702857Y-167754761D01*
X68655238Y-167707142D01*
G04 #@! TO.C,J8*
X54666666Y-66622380D02*
X54666666Y-67336666D01*
X54619047Y-67479523D01*
X54523809Y-67574761D01*
X54380952Y-67622380D01*
X54285714Y-67622380D01*
X55285714Y-67050952D02*
X55190476Y-67003333D01*
X55142857Y-66955714D01*
X55095238Y-66860476D01*
X55095238Y-66812857D01*
X55142857Y-66717619D01*
X55190476Y-66670000D01*
X55285714Y-66622380D01*
X55476190Y-66622380D01*
X55571428Y-66670000D01*
X55619047Y-66717619D01*
X55666666Y-66812857D01*
X55666666Y-66860476D01*
X55619047Y-66955714D01*
X55571428Y-67003333D01*
X55476190Y-67050952D01*
X55285714Y-67050952D01*
X55190476Y-67098571D01*
X55142857Y-67146190D01*
X55095238Y-67241428D01*
X55095238Y-67431904D01*
X55142857Y-67527142D01*
X55190476Y-67574761D01*
X55285714Y-67622380D01*
X55476190Y-67622380D01*
X55571428Y-67574761D01*
X55619047Y-67527142D01*
X55666666Y-67431904D01*
X55666666Y-67241428D01*
X55619047Y-67146190D01*
X55571428Y-67098571D01*
X55476190Y-67050952D01*
G04 #@! TD*
M02*
