G04 #@! TF.GenerationSoftware,KiCad,Pcbnew,(5.0.1)-4*
G04 #@! TF.CreationDate,2018-12-03T15:58:59+00:00*
G04 #@! TF.ProjectId,DevBoard,446576426F6172642E6B696361645F70,rev?*
G04 #@! TF.SameCoordinates,Original*
G04 #@! TF.FileFunction,Soldermask,Top*
G04 #@! TF.FilePolarity,Negative*
%FSLAX46Y46*%
G04 Gerber Fmt 4.6, Leading zero omitted, Abs format (unit mm)*
G04 Created by KiCad (PCBNEW (5.0.1)-4) date 03/12/2018 15:58:59*
%MOMM*%
%LPD*%
G01*
G04 APERTURE LIST*
%ADD10C,0.100000*%
G04 APERTURE END LIST*
D10*
G36*
X66051000Y-168031000D02*
X63449000Y-168031000D01*
X63449000Y-166929000D01*
X66051000Y-166929000D01*
X66051000Y-168031000D01*
X66051000Y-168031000D01*
G37*
G36*
X56801000Y-168031000D02*
X54199000Y-168031000D01*
X54199000Y-166929000D01*
X56801000Y-166929000D01*
X56801000Y-168031000D01*
X56801000Y-168031000D01*
G37*
G36*
X56801000Y-164931000D02*
X54199000Y-164931000D01*
X54199000Y-163829000D01*
X56801000Y-163829000D01*
X56801000Y-164931000D01*
X56801000Y-164931000D01*
G37*
G36*
X66051000Y-164931000D02*
X63449000Y-164931000D01*
X63449000Y-163829000D01*
X66051000Y-163829000D01*
X66051000Y-164931000D01*
X66051000Y-164931000D01*
G37*
G36*
X55879485Y-159748996D02*
X55879487Y-159748997D01*
X55879488Y-159748997D01*
X56116255Y-159847069D01*
X56329342Y-159989449D01*
X56510551Y-160170658D01*
X56652931Y-160383745D01*
X56751004Y-160620515D01*
X56801000Y-160871861D01*
X56801000Y-161128139D01*
X56751004Y-161379485D01*
X56652931Y-161616255D01*
X56510551Y-161829342D01*
X56329342Y-162010551D01*
X56329339Y-162010553D01*
X56116255Y-162152931D01*
X55879488Y-162251003D01*
X55879487Y-162251003D01*
X55879485Y-162251004D01*
X55628139Y-162301000D01*
X55371861Y-162301000D01*
X55120515Y-162251004D01*
X55120513Y-162251003D01*
X55120512Y-162251003D01*
X54883745Y-162152931D01*
X54670661Y-162010553D01*
X54670658Y-162010551D01*
X54489449Y-161829342D01*
X54347069Y-161616255D01*
X54248996Y-161379485D01*
X54199000Y-161128139D01*
X54199000Y-160871861D01*
X54248996Y-160620515D01*
X54347069Y-160383745D01*
X54489449Y-160170658D01*
X54670658Y-159989449D01*
X54883745Y-159847069D01*
X55120512Y-159748997D01*
X55120513Y-159748997D01*
X55120515Y-159748996D01*
X55371861Y-159699000D01*
X55628139Y-159699000D01*
X55879485Y-159748996D01*
X55879485Y-159748996D01*
G37*
G36*
X65129485Y-159748996D02*
X65129487Y-159748997D01*
X65129488Y-159748997D01*
X65366255Y-159847069D01*
X65579342Y-159989449D01*
X65760551Y-160170658D01*
X65902931Y-160383745D01*
X66001004Y-160620515D01*
X66051000Y-160871861D01*
X66051000Y-161128139D01*
X66001004Y-161379485D01*
X65902931Y-161616255D01*
X65760551Y-161829342D01*
X65579342Y-162010551D01*
X65579339Y-162010553D01*
X65366255Y-162152931D01*
X65129488Y-162251003D01*
X65129487Y-162251003D01*
X65129485Y-162251004D01*
X64878139Y-162301000D01*
X64621861Y-162301000D01*
X64370515Y-162251004D01*
X64370513Y-162251003D01*
X64370512Y-162251003D01*
X64133745Y-162152931D01*
X63920661Y-162010553D01*
X63920658Y-162010551D01*
X63739449Y-161829342D01*
X63597069Y-161616255D01*
X63498996Y-161379485D01*
X63449000Y-161128139D01*
X63449000Y-160871861D01*
X63498996Y-160620515D01*
X63597069Y-160383745D01*
X63739449Y-160170658D01*
X63920658Y-159989449D01*
X64133745Y-159847069D01*
X64370512Y-159748997D01*
X64370513Y-159748997D01*
X64370515Y-159748996D01*
X64621861Y-159699000D01*
X64878139Y-159699000D01*
X65129485Y-159748996D01*
X65129485Y-159748996D01*
G37*
G36*
X56801000Y-156631000D02*
X54199000Y-156631000D01*
X54199000Y-155529000D01*
X56801000Y-155529000D01*
X56801000Y-156631000D01*
X56801000Y-156631000D01*
G37*
G36*
X66051000Y-156631000D02*
X63449000Y-156631000D01*
X63449000Y-155529000D01*
X66051000Y-155529000D01*
X66051000Y-156631000D01*
X66051000Y-156631000D01*
G37*
G36*
X66051000Y-153281000D02*
X63449000Y-153281000D01*
X63449000Y-152179000D01*
X66051000Y-152179000D01*
X66051000Y-153281000D01*
X66051000Y-153281000D01*
G37*
G36*
X56801000Y-153281000D02*
X54199000Y-153281000D01*
X54199000Y-152179000D01*
X56801000Y-152179000D01*
X56801000Y-153281000D01*
X56801000Y-153281000D01*
G37*
G36*
X56801000Y-150181000D02*
X54199000Y-150181000D01*
X54199000Y-149079000D01*
X56801000Y-149079000D01*
X56801000Y-150181000D01*
X56801000Y-150181000D01*
G37*
G36*
X66051000Y-150181000D02*
X63449000Y-150181000D01*
X63449000Y-149079000D01*
X66051000Y-149079000D01*
X66051000Y-150181000D01*
X66051000Y-150181000D01*
G37*
G36*
X55879485Y-144998996D02*
X55879487Y-144998997D01*
X55879488Y-144998997D01*
X56116255Y-145097069D01*
X56329342Y-145239449D01*
X56510551Y-145420658D01*
X56652931Y-145633745D01*
X56751004Y-145870515D01*
X56801000Y-146121861D01*
X56801000Y-146378139D01*
X56751004Y-146629485D01*
X56652931Y-146866255D01*
X56510551Y-147079342D01*
X56329342Y-147260551D01*
X56329339Y-147260553D01*
X56116255Y-147402931D01*
X55879488Y-147501003D01*
X55879487Y-147501003D01*
X55879485Y-147501004D01*
X55628139Y-147551000D01*
X55371861Y-147551000D01*
X55120515Y-147501004D01*
X55120513Y-147501003D01*
X55120512Y-147501003D01*
X54883745Y-147402931D01*
X54670661Y-147260553D01*
X54670658Y-147260551D01*
X54489449Y-147079342D01*
X54347069Y-146866255D01*
X54248996Y-146629485D01*
X54199000Y-146378139D01*
X54199000Y-146121861D01*
X54248996Y-145870515D01*
X54347069Y-145633745D01*
X54489449Y-145420658D01*
X54670658Y-145239449D01*
X54883745Y-145097069D01*
X55120512Y-144998997D01*
X55120513Y-144998997D01*
X55120515Y-144998996D01*
X55371861Y-144949000D01*
X55628139Y-144949000D01*
X55879485Y-144998996D01*
X55879485Y-144998996D01*
G37*
G36*
X65129485Y-144998996D02*
X65129487Y-144998997D01*
X65129488Y-144998997D01*
X65366255Y-145097069D01*
X65579342Y-145239449D01*
X65760551Y-145420658D01*
X65902931Y-145633745D01*
X66001004Y-145870515D01*
X66051000Y-146121861D01*
X66051000Y-146378139D01*
X66001004Y-146629485D01*
X65902931Y-146866255D01*
X65760551Y-147079342D01*
X65579342Y-147260551D01*
X65579339Y-147260553D01*
X65366255Y-147402931D01*
X65129488Y-147501003D01*
X65129487Y-147501003D01*
X65129485Y-147501004D01*
X64878139Y-147551000D01*
X64621861Y-147551000D01*
X64370515Y-147501004D01*
X64370513Y-147501003D01*
X64370512Y-147501003D01*
X64133745Y-147402931D01*
X63920661Y-147260553D01*
X63920658Y-147260551D01*
X63739449Y-147079342D01*
X63597069Y-146866255D01*
X63498996Y-146629485D01*
X63449000Y-146378139D01*
X63449000Y-146121861D01*
X63498996Y-145870515D01*
X63597069Y-145633745D01*
X63739449Y-145420658D01*
X63920658Y-145239449D01*
X64133745Y-145097069D01*
X64370512Y-144998997D01*
X64370513Y-144998997D01*
X64370515Y-144998996D01*
X64621861Y-144949000D01*
X64878139Y-144949000D01*
X65129485Y-144998996D01*
X65129485Y-144998996D01*
G37*
G36*
X66051000Y-141881000D02*
X63449000Y-141881000D01*
X63449000Y-140779000D01*
X66051000Y-140779000D01*
X66051000Y-141881000D01*
X66051000Y-141881000D01*
G37*
G36*
X56801000Y-141881000D02*
X54199000Y-141881000D01*
X54199000Y-140779000D01*
X56801000Y-140779000D01*
X56801000Y-141881000D01*
X56801000Y-141881000D01*
G37*
G36*
X56801000Y-138531000D02*
X54199000Y-138531000D01*
X54199000Y-137429000D01*
X56801000Y-137429000D01*
X56801000Y-138531000D01*
X56801000Y-138531000D01*
G37*
G36*
X56801000Y-135431000D02*
X54199000Y-135431000D01*
X54199000Y-134329000D01*
X56801000Y-134329000D01*
X56801000Y-135431000D01*
X56801000Y-135431000D01*
G37*
G36*
X55879485Y-130248996D02*
X55879487Y-130248997D01*
X55879488Y-130248997D01*
X56116255Y-130347069D01*
X56329342Y-130489449D01*
X56510551Y-130670658D01*
X56652931Y-130883745D01*
X56751004Y-131120515D01*
X56801000Y-131371861D01*
X56801000Y-131628139D01*
X56751004Y-131879485D01*
X56652931Y-132116255D01*
X56510551Y-132329342D01*
X56329342Y-132510551D01*
X56329339Y-132510553D01*
X56116255Y-132652931D01*
X55879488Y-132751003D01*
X55879487Y-132751003D01*
X55879485Y-132751004D01*
X55628139Y-132801000D01*
X55371861Y-132801000D01*
X55120515Y-132751004D01*
X55120513Y-132751003D01*
X55120512Y-132751003D01*
X54883745Y-132652931D01*
X54670661Y-132510553D01*
X54670658Y-132510551D01*
X54489449Y-132329342D01*
X54347069Y-132116255D01*
X54248996Y-131879485D01*
X54199000Y-131628139D01*
X54199000Y-131371861D01*
X54248996Y-131120515D01*
X54347069Y-130883745D01*
X54489449Y-130670658D01*
X54670658Y-130489449D01*
X54883745Y-130347069D01*
X55120512Y-130248997D01*
X55120513Y-130248997D01*
X55120515Y-130248996D01*
X55371861Y-130199000D01*
X55628139Y-130199000D01*
X55879485Y-130248996D01*
X55879485Y-130248996D01*
G37*
G36*
X56801000Y-127131000D02*
X54199000Y-127131000D01*
X54199000Y-126029000D01*
X56801000Y-126029000D01*
X56801000Y-127131000D01*
X56801000Y-127131000D01*
G37*
G36*
X55006160Y-101964368D02*
X55006162Y-101964369D01*
X55006163Y-101964369D01*
X55120514Y-102011735D01*
X55315726Y-102092594D01*
X55594327Y-102278749D01*
X55831251Y-102515673D01*
X56017406Y-102794274D01*
X56145632Y-103103840D01*
X56211000Y-103432465D01*
X56211000Y-103767535D01*
X56145632Y-104096160D01*
X56017406Y-104405726D01*
X55831251Y-104684327D01*
X55594327Y-104921251D01*
X55315726Y-105107406D01*
X55120514Y-105188265D01*
X55006163Y-105235631D01*
X55006162Y-105235631D01*
X55006160Y-105235632D01*
X54677535Y-105301000D01*
X54342465Y-105301000D01*
X54013840Y-105235632D01*
X54013838Y-105235631D01*
X54013837Y-105235631D01*
X53899486Y-105188265D01*
X53704274Y-105107406D01*
X53425673Y-104921251D01*
X53188749Y-104684327D01*
X53002594Y-104405726D01*
X52874368Y-104096160D01*
X52809000Y-103767535D01*
X52809000Y-103432465D01*
X52874368Y-103103840D01*
X53002594Y-102794274D01*
X53188749Y-102515673D01*
X53425673Y-102278749D01*
X53704274Y-102092594D01*
X53899486Y-102011735D01*
X54013837Y-101964369D01*
X54013838Y-101964369D01*
X54013840Y-101964368D01*
X54342465Y-101899000D01*
X54677535Y-101899000D01*
X55006160Y-101964368D01*
X55006160Y-101964368D01*
G37*
G36*
X66876160Y-101964368D02*
X66876162Y-101964369D01*
X66876163Y-101964369D01*
X66990514Y-102011735D01*
X67185726Y-102092594D01*
X67464327Y-102278749D01*
X67701251Y-102515673D01*
X67887406Y-102794274D01*
X68015632Y-103103840D01*
X68081000Y-103432465D01*
X68081000Y-103767535D01*
X68015632Y-104096160D01*
X67887406Y-104405726D01*
X67701251Y-104684327D01*
X67464327Y-104921251D01*
X67185726Y-105107406D01*
X66990514Y-105188265D01*
X66876163Y-105235631D01*
X66876162Y-105235631D01*
X66876160Y-105235632D01*
X66547535Y-105301000D01*
X66212465Y-105301000D01*
X65883840Y-105235632D01*
X65883838Y-105235631D01*
X65883837Y-105235631D01*
X65769486Y-105188265D01*
X65574274Y-105107406D01*
X65295673Y-104921251D01*
X65058749Y-104684327D01*
X64872594Y-104405726D01*
X64744368Y-104096160D01*
X64679000Y-103767535D01*
X64679000Y-103432465D01*
X64744368Y-103103840D01*
X64872594Y-102794274D01*
X65058749Y-102515673D01*
X65295673Y-102278749D01*
X65574274Y-102092594D01*
X65769486Y-102011735D01*
X65883837Y-101964369D01*
X65883838Y-101964369D01*
X65883840Y-101964368D01*
X66212465Y-101899000D01*
X66547535Y-101899000D01*
X66876160Y-101964368D01*
X66876160Y-101964368D01*
G37*
G36*
X63853643Y-96479781D02*
X63999415Y-96540162D01*
X64130611Y-96627824D01*
X64242176Y-96739389D01*
X64329838Y-96870585D01*
X64390219Y-97016357D01*
X64421000Y-97171107D01*
X64421000Y-97328893D01*
X64390219Y-97483643D01*
X64329838Y-97629415D01*
X64242176Y-97760611D01*
X64130611Y-97872176D01*
X63999415Y-97959838D01*
X63853643Y-98020219D01*
X63698893Y-98051000D01*
X63541107Y-98051000D01*
X63386357Y-98020219D01*
X63240585Y-97959838D01*
X63109389Y-97872176D01*
X62997824Y-97760611D01*
X62910162Y-97629415D01*
X62849781Y-97483643D01*
X62819000Y-97328893D01*
X62819000Y-97171107D01*
X62849781Y-97016357D01*
X62910162Y-96870585D01*
X62997824Y-96739389D01*
X63109389Y-96627824D01*
X63240585Y-96540162D01*
X63386357Y-96479781D01*
X63541107Y-96449000D01*
X63698893Y-96449000D01*
X63853643Y-96479781D01*
X63853643Y-96479781D01*
G37*
G36*
X61313643Y-96479781D02*
X61459415Y-96540162D01*
X61590611Y-96627824D01*
X61702176Y-96739389D01*
X61789838Y-96870585D01*
X61850219Y-97016357D01*
X61881000Y-97171107D01*
X61881000Y-97328893D01*
X61850219Y-97483643D01*
X61789838Y-97629415D01*
X61702176Y-97760611D01*
X61590611Y-97872176D01*
X61459415Y-97959838D01*
X61313643Y-98020219D01*
X61158893Y-98051000D01*
X61001107Y-98051000D01*
X60846357Y-98020219D01*
X60700585Y-97959838D01*
X60569389Y-97872176D01*
X60457824Y-97760611D01*
X60370162Y-97629415D01*
X60309781Y-97483643D01*
X60279000Y-97328893D01*
X60279000Y-97171107D01*
X60309781Y-97016357D01*
X60370162Y-96870585D01*
X60457824Y-96739389D01*
X60569389Y-96627824D01*
X60700585Y-96540162D01*
X60846357Y-96479781D01*
X61001107Y-96449000D01*
X61158893Y-96449000D01*
X61313643Y-96479781D01*
X61313643Y-96479781D01*
G37*
G36*
X58773643Y-96479781D02*
X58919415Y-96540162D01*
X59050611Y-96627824D01*
X59162176Y-96739389D01*
X59249838Y-96870585D01*
X59310219Y-97016357D01*
X59341000Y-97171107D01*
X59341000Y-97328893D01*
X59310219Y-97483643D01*
X59249838Y-97629415D01*
X59162176Y-97760611D01*
X59050611Y-97872176D01*
X58919415Y-97959838D01*
X58773643Y-98020219D01*
X58618893Y-98051000D01*
X58461107Y-98051000D01*
X58306357Y-98020219D01*
X58160585Y-97959838D01*
X58029389Y-97872176D01*
X57917824Y-97760611D01*
X57830162Y-97629415D01*
X57769781Y-97483643D01*
X57739000Y-97328893D01*
X57739000Y-97171107D01*
X57769781Y-97016357D01*
X57830162Y-96870585D01*
X57917824Y-96739389D01*
X58029389Y-96627824D01*
X58160585Y-96540162D01*
X58306357Y-96479781D01*
X58461107Y-96449000D01*
X58618893Y-96449000D01*
X58773643Y-96479781D01*
X58773643Y-96479781D01*
G37*
G36*
X56801000Y-98051000D02*
X55199000Y-98051000D01*
X55199000Y-96449000D01*
X56801000Y-96449000D01*
X56801000Y-98051000D01*
X56801000Y-98051000D01*
G37*
G36*
X65123643Y-93939781D02*
X65269415Y-94000162D01*
X65400611Y-94087824D01*
X65512176Y-94199389D01*
X65599838Y-94330585D01*
X65660219Y-94476357D01*
X65691000Y-94631107D01*
X65691000Y-94788893D01*
X65660219Y-94943643D01*
X65599838Y-95089415D01*
X65512176Y-95220611D01*
X65400611Y-95332176D01*
X65269415Y-95419838D01*
X65123643Y-95480219D01*
X64968893Y-95511000D01*
X64811107Y-95511000D01*
X64656357Y-95480219D01*
X64510585Y-95419838D01*
X64379389Y-95332176D01*
X64267824Y-95220611D01*
X64180162Y-95089415D01*
X64119781Y-94943643D01*
X64089000Y-94788893D01*
X64089000Y-94631107D01*
X64119781Y-94476357D01*
X64180162Y-94330585D01*
X64267824Y-94199389D01*
X64379389Y-94087824D01*
X64510585Y-94000162D01*
X64656357Y-93939781D01*
X64811107Y-93909000D01*
X64968893Y-93909000D01*
X65123643Y-93939781D01*
X65123643Y-93939781D01*
G37*
G36*
X60043643Y-93939781D02*
X60189415Y-94000162D01*
X60320611Y-94087824D01*
X60432176Y-94199389D01*
X60519838Y-94330585D01*
X60580219Y-94476357D01*
X60611000Y-94631107D01*
X60611000Y-94788893D01*
X60580219Y-94943643D01*
X60519838Y-95089415D01*
X60432176Y-95220611D01*
X60320611Y-95332176D01*
X60189415Y-95419838D01*
X60043643Y-95480219D01*
X59888893Y-95511000D01*
X59731107Y-95511000D01*
X59576357Y-95480219D01*
X59430585Y-95419838D01*
X59299389Y-95332176D01*
X59187824Y-95220611D01*
X59100162Y-95089415D01*
X59039781Y-94943643D01*
X59009000Y-94788893D01*
X59009000Y-94631107D01*
X59039781Y-94476357D01*
X59100162Y-94330585D01*
X59187824Y-94199389D01*
X59299389Y-94087824D01*
X59430585Y-94000162D01*
X59576357Y-93939781D01*
X59731107Y-93909000D01*
X59888893Y-93909000D01*
X60043643Y-93939781D01*
X60043643Y-93939781D01*
G37*
G36*
X57503643Y-93939781D02*
X57649415Y-94000162D01*
X57780611Y-94087824D01*
X57892176Y-94199389D01*
X57979838Y-94330585D01*
X58040219Y-94476357D01*
X58071000Y-94631107D01*
X58071000Y-94788893D01*
X58040219Y-94943643D01*
X57979838Y-95089415D01*
X57892176Y-95220611D01*
X57780611Y-95332176D01*
X57649415Y-95419838D01*
X57503643Y-95480219D01*
X57348893Y-95511000D01*
X57191107Y-95511000D01*
X57036357Y-95480219D01*
X56890585Y-95419838D01*
X56759389Y-95332176D01*
X56647824Y-95220611D01*
X56560162Y-95089415D01*
X56499781Y-94943643D01*
X56469000Y-94788893D01*
X56469000Y-94631107D01*
X56499781Y-94476357D01*
X56560162Y-94330585D01*
X56647824Y-94199389D01*
X56759389Y-94087824D01*
X56890585Y-94000162D01*
X57036357Y-93939781D01*
X57191107Y-93909000D01*
X57348893Y-93909000D01*
X57503643Y-93939781D01*
X57503643Y-93939781D01*
G37*
G36*
X62583643Y-93939781D02*
X62729415Y-94000162D01*
X62860611Y-94087824D01*
X62972176Y-94199389D01*
X63059838Y-94330585D01*
X63120219Y-94476357D01*
X63151000Y-94631107D01*
X63151000Y-94788893D01*
X63120219Y-94943643D01*
X63059838Y-95089415D01*
X62972176Y-95220611D01*
X62860611Y-95332176D01*
X62729415Y-95419838D01*
X62583643Y-95480219D01*
X62428893Y-95511000D01*
X62271107Y-95511000D01*
X62116357Y-95480219D01*
X61970585Y-95419838D01*
X61839389Y-95332176D01*
X61727824Y-95220611D01*
X61640162Y-95089415D01*
X61579781Y-94943643D01*
X61549000Y-94788893D01*
X61549000Y-94631107D01*
X61579781Y-94476357D01*
X61640162Y-94330585D01*
X61727824Y-94199389D01*
X61839389Y-94087824D01*
X61970585Y-94000162D01*
X62116357Y-93939781D01*
X62271107Y-93909000D01*
X62428893Y-93909000D01*
X62583643Y-93939781D01*
X62583643Y-93939781D01*
G37*
G36*
X55110443Y-86385519D02*
X55176627Y-86392037D01*
X55289853Y-86426384D01*
X55346467Y-86443557D01*
X55451782Y-86499850D01*
X55502991Y-86527222D01*
X55538729Y-86556552D01*
X55640186Y-86639814D01*
X55690399Y-86701000D01*
X55752778Y-86777009D01*
X55752779Y-86777011D01*
X55836443Y-86933533D01*
X55836443Y-86933534D01*
X55887963Y-87103373D01*
X55905359Y-87280000D01*
X55887963Y-87456627D01*
X55853616Y-87569853D01*
X55836443Y-87626467D01*
X55762348Y-87765087D01*
X55752778Y-87782991D01*
X55723448Y-87818729D01*
X55640186Y-87920186D01*
X55538729Y-88003448D01*
X55502991Y-88032778D01*
X55502989Y-88032779D01*
X55346467Y-88116443D01*
X55289853Y-88133616D01*
X55176627Y-88167963D01*
X55110443Y-88174481D01*
X55044260Y-88181000D01*
X54955740Y-88181000D01*
X54889557Y-88174481D01*
X54823373Y-88167963D01*
X54710147Y-88133616D01*
X54653533Y-88116443D01*
X54497011Y-88032779D01*
X54497009Y-88032778D01*
X54461271Y-88003448D01*
X54359814Y-87920186D01*
X54276552Y-87818729D01*
X54247222Y-87782991D01*
X54237652Y-87765087D01*
X54163557Y-87626467D01*
X54146384Y-87569853D01*
X54112037Y-87456627D01*
X54094641Y-87280000D01*
X54112037Y-87103373D01*
X54163557Y-86933534D01*
X54163557Y-86933533D01*
X54247221Y-86777011D01*
X54247222Y-86777009D01*
X54309601Y-86701000D01*
X54359814Y-86639814D01*
X54461271Y-86556552D01*
X54497009Y-86527222D01*
X54548218Y-86499850D01*
X54653533Y-86443557D01*
X54710147Y-86426384D01*
X54823373Y-86392037D01*
X54889557Y-86385519D01*
X54955740Y-86379000D01*
X55044260Y-86379000D01*
X55110443Y-86385519D01*
X55110443Y-86385519D01*
G37*
G36*
X63601000Y-86701000D02*
X61799000Y-86701000D01*
X61799000Y-84899000D01*
X63601000Y-84899000D01*
X63601000Y-86701000D01*
X63601000Y-86701000D01*
G37*
G36*
X65502812Y-84933624D02*
X65666784Y-85001544D01*
X65814354Y-85100147D01*
X65939853Y-85225646D01*
X66038456Y-85373216D01*
X66106376Y-85537188D01*
X66141000Y-85711259D01*
X66141000Y-85888741D01*
X66106376Y-86062812D01*
X66038456Y-86226784D01*
X65939853Y-86374354D01*
X65814354Y-86499853D01*
X65666784Y-86598456D01*
X65502812Y-86666376D01*
X65328741Y-86701000D01*
X65151259Y-86701000D01*
X64977188Y-86666376D01*
X64813216Y-86598456D01*
X64665646Y-86499853D01*
X64540147Y-86374354D01*
X64441544Y-86226784D01*
X64373624Y-86062812D01*
X64339000Y-85888741D01*
X64339000Y-85711259D01*
X64373624Y-85537188D01*
X64441544Y-85373216D01*
X64540147Y-85225646D01*
X64665646Y-85100147D01*
X64813216Y-85001544D01*
X64977188Y-84933624D01*
X65151259Y-84899000D01*
X65328741Y-84899000D01*
X65502812Y-84933624D01*
X65502812Y-84933624D01*
G37*
G36*
X55110443Y-83845519D02*
X55176627Y-83852037D01*
X55289853Y-83886384D01*
X55346467Y-83903557D01*
X55451782Y-83959850D01*
X55502991Y-83987222D01*
X55538729Y-84016552D01*
X55640186Y-84099814D01*
X55690399Y-84161000D01*
X55752778Y-84237009D01*
X55752779Y-84237011D01*
X55836443Y-84393533D01*
X55836443Y-84393534D01*
X55887963Y-84563373D01*
X55905359Y-84740000D01*
X55887963Y-84916627D01*
X55862204Y-85001544D01*
X55836443Y-85086467D01*
X55829129Y-85100150D01*
X55752778Y-85242991D01*
X55723448Y-85278729D01*
X55640186Y-85380186D01*
X55538729Y-85463448D01*
X55502991Y-85492778D01*
X55502989Y-85492779D01*
X55346467Y-85576443D01*
X55289853Y-85593616D01*
X55176627Y-85627963D01*
X55110443Y-85634481D01*
X55044260Y-85641000D01*
X54955740Y-85641000D01*
X54889557Y-85634481D01*
X54823373Y-85627963D01*
X54710147Y-85593616D01*
X54653533Y-85576443D01*
X54497011Y-85492779D01*
X54497009Y-85492778D01*
X54461271Y-85463448D01*
X54359814Y-85380186D01*
X54276552Y-85278729D01*
X54247222Y-85242991D01*
X54170871Y-85100150D01*
X54163557Y-85086467D01*
X54137796Y-85001544D01*
X54112037Y-84916627D01*
X54094641Y-84740000D01*
X54112037Y-84563373D01*
X54163557Y-84393534D01*
X54163557Y-84393533D01*
X54247221Y-84237011D01*
X54247222Y-84237009D01*
X54309601Y-84161000D01*
X54359814Y-84099814D01*
X54461271Y-84016552D01*
X54497009Y-83987222D01*
X54548218Y-83959850D01*
X54653533Y-83903557D01*
X54710147Y-83886384D01*
X54823373Y-83852037D01*
X54889557Y-83845519D01*
X54955740Y-83839000D01*
X55044260Y-83839000D01*
X55110443Y-83845519D01*
X55110443Y-83845519D01*
G37*
G36*
X62962812Y-82393624D02*
X63126784Y-82461544D01*
X63274354Y-82560147D01*
X63399853Y-82685646D01*
X63498456Y-82833216D01*
X63566376Y-82997188D01*
X63601000Y-83171259D01*
X63601000Y-83348741D01*
X63566376Y-83522812D01*
X63498456Y-83686784D01*
X63399853Y-83834354D01*
X63274354Y-83959853D01*
X63126784Y-84058456D01*
X62962812Y-84126376D01*
X62788741Y-84161000D01*
X62611259Y-84161000D01*
X62437188Y-84126376D01*
X62273216Y-84058456D01*
X62125646Y-83959853D01*
X62000147Y-83834354D01*
X61901544Y-83686784D01*
X61833624Y-83522812D01*
X61799000Y-83348741D01*
X61799000Y-83171259D01*
X61833624Y-82997188D01*
X61901544Y-82833216D01*
X62000147Y-82685646D01*
X62125646Y-82560147D01*
X62273216Y-82461544D01*
X62437188Y-82393624D01*
X62611259Y-82359000D01*
X62788741Y-82359000D01*
X62962812Y-82393624D01*
X62962812Y-82393624D01*
G37*
G36*
X65502812Y-82393624D02*
X65666784Y-82461544D01*
X65814354Y-82560147D01*
X65939853Y-82685646D01*
X66038456Y-82833216D01*
X66106376Y-82997188D01*
X66141000Y-83171259D01*
X66141000Y-83348741D01*
X66106376Y-83522812D01*
X66038456Y-83686784D01*
X65939853Y-83834354D01*
X65814354Y-83959853D01*
X65666784Y-84058456D01*
X65502812Y-84126376D01*
X65328741Y-84161000D01*
X65151259Y-84161000D01*
X64977188Y-84126376D01*
X64813216Y-84058456D01*
X64665646Y-83959853D01*
X64540147Y-83834354D01*
X64441544Y-83686784D01*
X64373624Y-83522812D01*
X64339000Y-83348741D01*
X64339000Y-83171259D01*
X64373624Y-82997188D01*
X64441544Y-82833216D01*
X64540147Y-82685646D01*
X64665646Y-82560147D01*
X64813216Y-82461544D01*
X64977188Y-82393624D01*
X65151259Y-82359000D01*
X65328741Y-82359000D01*
X65502812Y-82393624D01*
X65502812Y-82393624D01*
G37*
G36*
X55110443Y-81305519D02*
X55176627Y-81312037D01*
X55289853Y-81346384D01*
X55346467Y-81363557D01*
X55451782Y-81419850D01*
X55502991Y-81447222D01*
X55538729Y-81476552D01*
X55640186Y-81559814D01*
X55690399Y-81621000D01*
X55752778Y-81697009D01*
X55752779Y-81697011D01*
X55836443Y-81853533D01*
X55836443Y-81853534D01*
X55887963Y-82023373D01*
X55905359Y-82200000D01*
X55887963Y-82376627D01*
X55862204Y-82461544D01*
X55836443Y-82546467D01*
X55829129Y-82560150D01*
X55752778Y-82702991D01*
X55723448Y-82738729D01*
X55640186Y-82840186D01*
X55538729Y-82923448D01*
X55502991Y-82952778D01*
X55502989Y-82952779D01*
X55346467Y-83036443D01*
X55289853Y-83053616D01*
X55176627Y-83087963D01*
X55110443Y-83094481D01*
X55044260Y-83101000D01*
X54955740Y-83101000D01*
X54889557Y-83094481D01*
X54823373Y-83087963D01*
X54710147Y-83053616D01*
X54653533Y-83036443D01*
X54497011Y-82952779D01*
X54497009Y-82952778D01*
X54461271Y-82923448D01*
X54359814Y-82840186D01*
X54276552Y-82738729D01*
X54247222Y-82702991D01*
X54170871Y-82560150D01*
X54163557Y-82546467D01*
X54137796Y-82461544D01*
X54112037Y-82376627D01*
X54094641Y-82200000D01*
X54112037Y-82023373D01*
X54163557Y-81853534D01*
X54163557Y-81853533D01*
X54247221Y-81697011D01*
X54247222Y-81697009D01*
X54309601Y-81621000D01*
X54359814Y-81559814D01*
X54461271Y-81476552D01*
X54497009Y-81447222D01*
X54548218Y-81419850D01*
X54653533Y-81363557D01*
X54710147Y-81346384D01*
X54823373Y-81312037D01*
X54889557Y-81305519D01*
X54955740Y-81299000D01*
X55044260Y-81299000D01*
X55110443Y-81305519D01*
X55110443Y-81305519D01*
G37*
G36*
X65502812Y-79853624D02*
X65666784Y-79921544D01*
X65814354Y-80020147D01*
X65939853Y-80145646D01*
X66038456Y-80293216D01*
X66106376Y-80457188D01*
X66141000Y-80631259D01*
X66141000Y-80808741D01*
X66106376Y-80982812D01*
X66038456Y-81146784D01*
X65939853Y-81294354D01*
X65814354Y-81419853D01*
X65666784Y-81518456D01*
X65502812Y-81586376D01*
X65328741Y-81621000D01*
X65151259Y-81621000D01*
X64977188Y-81586376D01*
X64813216Y-81518456D01*
X64665646Y-81419853D01*
X64540147Y-81294354D01*
X64441544Y-81146784D01*
X64373624Y-80982812D01*
X64339000Y-80808741D01*
X64339000Y-80631259D01*
X64373624Y-80457188D01*
X64441544Y-80293216D01*
X64540147Y-80145646D01*
X64665646Y-80020147D01*
X64813216Y-79921544D01*
X64977188Y-79853624D01*
X65151259Y-79819000D01*
X65328741Y-79819000D01*
X65502812Y-79853624D01*
X65502812Y-79853624D01*
G37*
G36*
X62962812Y-79853624D02*
X63126784Y-79921544D01*
X63274354Y-80020147D01*
X63399853Y-80145646D01*
X63498456Y-80293216D01*
X63566376Y-80457188D01*
X63601000Y-80631259D01*
X63601000Y-80808741D01*
X63566376Y-80982812D01*
X63498456Y-81146784D01*
X63399853Y-81294354D01*
X63274354Y-81419853D01*
X63126784Y-81518456D01*
X62962812Y-81586376D01*
X62788741Y-81621000D01*
X62611259Y-81621000D01*
X62437188Y-81586376D01*
X62273216Y-81518456D01*
X62125646Y-81419853D01*
X62000147Y-81294354D01*
X61901544Y-81146784D01*
X61833624Y-80982812D01*
X61799000Y-80808741D01*
X61799000Y-80631259D01*
X61833624Y-80457188D01*
X61901544Y-80293216D01*
X62000147Y-80145646D01*
X62125646Y-80020147D01*
X62273216Y-79921544D01*
X62437188Y-79853624D01*
X62611259Y-79819000D01*
X62788741Y-79819000D01*
X62962812Y-79853624D01*
X62962812Y-79853624D01*
G37*
G36*
X55110442Y-78765518D02*
X55176627Y-78772037D01*
X55289853Y-78806384D01*
X55346467Y-78823557D01*
X55451782Y-78879850D01*
X55502991Y-78907222D01*
X55538729Y-78936552D01*
X55640186Y-79019814D01*
X55690399Y-79081000D01*
X55752778Y-79157009D01*
X55752779Y-79157011D01*
X55836443Y-79313533D01*
X55836443Y-79313534D01*
X55887963Y-79483373D01*
X55905359Y-79660000D01*
X55887963Y-79836627D01*
X55862204Y-79921544D01*
X55836443Y-80006467D01*
X55829129Y-80020150D01*
X55752778Y-80162991D01*
X55723448Y-80198729D01*
X55640186Y-80300186D01*
X55538729Y-80383448D01*
X55502991Y-80412778D01*
X55502989Y-80412779D01*
X55346467Y-80496443D01*
X55289853Y-80513616D01*
X55176627Y-80547963D01*
X55110442Y-80554482D01*
X55044260Y-80561000D01*
X54955740Y-80561000D01*
X54889558Y-80554482D01*
X54823373Y-80547963D01*
X54710147Y-80513616D01*
X54653533Y-80496443D01*
X54497011Y-80412779D01*
X54497009Y-80412778D01*
X54461271Y-80383448D01*
X54359814Y-80300186D01*
X54276552Y-80198729D01*
X54247222Y-80162991D01*
X54170871Y-80020150D01*
X54163557Y-80006467D01*
X54137796Y-79921544D01*
X54112037Y-79836627D01*
X54094641Y-79660000D01*
X54112037Y-79483373D01*
X54163557Y-79313534D01*
X54163557Y-79313533D01*
X54247221Y-79157011D01*
X54247222Y-79157009D01*
X54309601Y-79081000D01*
X54359814Y-79019814D01*
X54461271Y-78936552D01*
X54497009Y-78907222D01*
X54548218Y-78879850D01*
X54653533Y-78823557D01*
X54710147Y-78806384D01*
X54823373Y-78772037D01*
X54889558Y-78765518D01*
X54955740Y-78759000D01*
X55044260Y-78759000D01*
X55110442Y-78765518D01*
X55110442Y-78765518D01*
G37*
G36*
X65502812Y-77313624D02*
X65666784Y-77381544D01*
X65814354Y-77480147D01*
X65939853Y-77605646D01*
X66038456Y-77753216D01*
X66106376Y-77917188D01*
X66141000Y-78091259D01*
X66141000Y-78268741D01*
X66106376Y-78442812D01*
X66038456Y-78606784D01*
X65939853Y-78754354D01*
X65814354Y-78879853D01*
X65666784Y-78978456D01*
X65502812Y-79046376D01*
X65328741Y-79081000D01*
X65151259Y-79081000D01*
X64977188Y-79046376D01*
X64813216Y-78978456D01*
X64665646Y-78879853D01*
X64540147Y-78754354D01*
X64441544Y-78606784D01*
X64373624Y-78442812D01*
X64339000Y-78268741D01*
X64339000Y-78091259D01*
X64373624Y-77917188D01*
X64441544Y-77753216D01*
X64540147Y-77605646D01*
X64665646Y-77480147D01*
X64813216Y-77381544D01*
X64977188Y-77313624D01*
X65151259Y-77279000D01*
X65328741Y-77279000D01*
X65502812Y-77313624D01*
X65502812Y-77313624D01*
G37*
G36*
X62962812Y-77313624D02*
X63126784Y-77381544D01*
X63274354Y-77480147D01*
X63399853Y-77605646D01*
X63498456Y-77753216D01*
X63566376Y-77917188D01*
X63601000Y-78091259D01*
X63601000Y-78268741D01*
X63566376Y-78442812D01*
X63498456Y-78606784D01*
X63399853Y-78754354D01*
X63274354Y-78879853D01*
X63126784Y-78978456D01*
X62962812Y-79046376D01*
X62788741Y-79081000D01*
X62611259Y-79081000D01*
X62437188Y-79046376D01*
X62273216Y-78978456D01*
X62125646Y-78879853D01*
X62000147Y-78754354D01*
X61901544Y-78606784D01*
X61833624Y-78442812D01*
X61799000Y-78268741D01*
X61799000Y-78091259D01*
X61833624Y-77917188D01*
X61901544Y-77753216D01*
X62000147Y-77605646D01*
X62125646Y-77480147D01*
X62273216Y-77381544D01*
X62437188Y-77313624D01*
X62611259Y-77279000D01*
X62788741Y-77279000D01*
X62962812Y-77313624D01*
X62962812Y-77313624D01*
G37*
G36*
X55110443Y-76225519D02*
X55176627Y-76232037D01*
X55289853Y-76266384D01*
X55346467Y-76283557D01*
X55451782Y-76339850D01*
X55502991Y-76367222D01*
X55538729Y-76396552D01*
X55640186Y-76479814D01*
X55690399Y-76541000D01*
X55752778Y-76617009D01*
X55752779Y-76617011D01*
X55836443Y-76773533D01*
X55836443Y-76773534D01*
X55887963Y-76943373D01*
X55905359Y-77120000D01*
X55887963Y-77296627D01*
X55862204Y-77381544D01*
X55836443Y-77466467D01*
X55829129Y-77480150D01*
X55752778Y-77622991D01*
X55723448Y-77658729D01*
X55640186Y-77760186D01*
X55538729Y-77843448D01*
X55502991Y-77872778D01*
X55502989Y-77872779D01*
X55346467Y-77956443D01*
X55289853Y-77973616D01*
X55176627Y-78007963D01*
X55110443Y-78014481D01*
X55044260Y-78021000D01*
X54955740Y-78021000D01*
X54889557Y-78014481D01*
X54823373Y-78007963D01*
X54710147Y-77973616D01*
X54653533Y-77956443D01*
X54497011Y-77872779D01*
X54497009Y-77872778D01*
X54461271Y-77843448D01*
X54359814Y-77760186D01*
X54276552Y-77658729D01*
X54247222Y-77622991D01*
X54170871Y-77480150D01*
X54163557Y-77466467D01*
X54137796Y-77381544D01*
X54112037Y-77296627D01*
X54094641Y-77120000D01*
X54112037Y-76943373D01*
X54163557Y-76773534D01*
X54163557Y-76773533D01*
X54247221Y-76617011D01*
X54247222Y-76617009D01*
X54309601Y-76541000D01*
X54359814Y-76479814D01*
X54461271Y-76396552D01*
X54497009Y-76367222D01*
X54548218Y-76339850D01*
X54653533Y-76283557D01*
X54710147Y-76266384D01*
X54823373Y-76232037D01*
X54889557Y-76225519D01*
X54955740Y-76219000D01*
X55044260Y-76219000D01*
X55110443Y-76225519D01*
X55110443Y-76225519D01*
G37*
G36*
X62962812Y-74773624D02*
X63126784Y-74841544D01*
X63274354Y-74940147D01*
X63399853Y-75065646D01*
X63498456Y-75213216D01*
X63566376Y-75377188D01*
X63601000Y-75551259D01*
X63601000Y-75728741D01*
X63566376Y-75902812D01*
X63498456Y-76066784D01*
X63399853Y-76214354D01*
X63274354Y-76339853D01*
X63126784Y-76438456D01*
X62962812Y-76506376D01*
X62788741Y-76541000D01*
X62611259Y-76541000D01*
X62437188Y-76506376D01*
X62273216Y-76438456D01*
X62125646Y-76339853D01*
X62000147Y-76214354D01*
X61901544Y-76066784D01*
X61833624Y-75902812D01*
X61799000Y-75728741D01*
X61799000Y-75551259D01*
X61833624Y-75377188D01*
X61901544Y-75213216D01*
X62000147Y-75065646D01*
X62125646Y-74940147D01*
X62273216Y-74841544D01*
X62437188Y-74773624D01*
X62611259Y-74739000D01*
X62788741Y-74739000D01*
X62962812Y-74773624D01*
X62962812Y-74773624D01*
G37*
G36*
X65502812Y-74773624D02*
X65666784Y-74841544D01*
X65814354Y-74940147D01*
X65939853Y-75065646D01*
X66038456Y-75213216D01*
X66106376Y-75377188D01*
X66141000Y-75551259D01*
X66141000Y-75728741D01*
X66106376Y-75902812D01*
X66038456Y-76066784D01*
X65939853Y-76214354D01*
X65814354Y-76339853D01*
X65666784Y-76438456D01*
X65502812Y-76506376D01*
X65328741Y-76541000D01*
X65151259Y-76541000D01*
X64977188Y-76506376D01*
X64813216Y-76438456D01*
X64665646Y-76339853D01*
X64540147Y-76214354D01*
X64441544Y-76066784D01*
X64373624Y-75902812D01*
X64339000Y-75728741D01*
X64339000Y-75551259D01*
X64373624Y-75377188D01*
X64441544Y-75213216D01*
X64540147Y-75065646D01*
X64665646Y-74940147D01*
X64813216Y-74841544D01*
X64977188Y-74773624D01*
X65151259Y-74739000D01*
X65328741Y-74739000D01*
X65502812Y-74773624D01*
X65502812Y-74773624D01*
G37*
G36*
X55110442Y-73685518D02*
X55176627Y-73692037D01*
X55289853Y-73726384D01*
X55346467Y-73743557D01*
X55451782Y-73799850D01*
X55502991Y-73827222D01*
X55538729Y-73856552D01*
X55640186Y-73939814D01*
X55690399Y-74001000D01*
X55752778Y-74077009D01*
X55752779Y-74077011D01*
X55836443Y-74233533D01*
X55836443Y-74233534D01*
X55887963Y-74403373D01*
X55905359Y-74580000D01*
X55887963Y-74756627D01*
X55862204Y-74841544D01*
X55836443Y-74926467D01*
X55829129Y-74940150D01*
X55752778Y-75082991D01*
X55723448Y-75118729D01*
X55640186Y-75220186D01*
X55538729Y-75303448D01*
X55502991Y-75332778D01*
X55502989Y-75332779D01*
X55346467Y-75416443D01*
X55289853Y-75433616D01*
X55176627Y-75467963D01*
X55110443Y-75474481D01*
X55044260Y-75481000D01*
X54955740Y-75481000D01*
X54889557Y-75474481D01*
X54823373Y-75467963D01*
X54710147Y-75433616D01*
X54653533Y-75416443D01*
X54497011Y-75332779D01*
X54497009Y-75332778D01*
X54461271Y-75303448D01*
X54359814Y-75220186D01*
X54276552Y-75118729D01*
X54247222Y-75082991D01*
X54170871Y-74940150D01*
X54163557Y-74926467D01*
X54137796Y-74841544D01*
X54112037Y-74756627D01*
X54094641Y-74580000D01*
X54112037Y-74403373D01*
X54163557Y-74233534D01*
X54163557Y-74233533D01*
X54247221Y-74077011D01*
X54247222Y-74077009D01*
X54309601Y-74001000D01*
X54359814Y-73939814D01*
X54461271Y-73856552D01*
X54497009Y-73827222D01*
X54548218Y-73799850D01*
X54653533Y-73743557D01*
X54710147Y-73726384D01*
X54823373Y-73692037D01*
X54889558Y-73685518D01*
X54955740Y-73679000D01*
X55044260Y-73679000D01*
X55110442Y-73685518D01*
X55110442Y-73685518D01*
G37*
G36*
X62962812Y-72233624D02*
X63126784Y-72301544D01*
X63274354Y-72400147D01*
X63399853Y-72525646D01*
X63498456Y-72673216D01*
X63566376Y-72837188D01*
X63601000Y-73011259D01*
X63601000Y-73188741D01*
X63566376Y-73362812D01*
X63498456Y-73526784D01*
X63399853Y-73674354D01*
X63274354Y-73799853D01*
X63126784Y-73898456D01*
X62962812Y-73966376D01*
X62788741Y-74001000D01*
X62611259Y-74001000D01*
X62437188Y-73966376D01*
X62273216Y-73898456D01*
X62125646Y-73799853D01*
X62000147Y-73674354D01*
X61901544Y-73526784D01*
X61833624Y-73362812D01*
X61799000Y-73188741D01*
X61799000Y-73011259D01*
X61833624Y-72837188D01*
X61901544Y-72673216D01*
X62000147Y-72525646D01*
X62125646Y-72400147D01*
X62273216Y-72301544D01*
X62437188Y-72233624D01*
X62611259Y-72199000D01*
X62788741Y-72199000D01*
X62962812Y-72233624D01*
X62962812Y-72233624D01*
G37*
G36*
X65502812Y-72233624D02*
X65666784Y-72301544D01*
X65814354Y-72400147D01*
X65939853Y-72525646D01*
X66038456Y-72673216D01*
X66106376Y-72837188D01*
X66141000Y-73011259D01*
X66141000Y-73188741D01*
X66106376Y-73362812D01*
X66038456Y-73526784D01*
X65939853Y-73674354D01*
X65814354Y-73799853D01*
X65666784Y-73898456D01*
X65502812Y-73966376D01*
X65328741Y-74001000D01*
X65151259Y-74001000D01*
X64977188Y-73966376D01*
X64813216Y-73898456D01*
X64665646Y-73799853D01*
X64540147Y-73674354D01*
X64441544Y-73526784D01*
X64373624Y-73362812D01*
X64339000Y-73188741D01*
X64339000Y-73011259D01*
X64373624Y-72837188D01*
X64441544Y-72673216D01*
X64540147Y-72525646D01*
X64665646Y-72400147D01*
X64813216Y-72301544D01*
X64977188Y-72233624D01*
X65151259Y-72199000D01*
X65328741Y-72199000D01*
X65502812Y-72233624D01*
X65502812Y-72233624D01*
G37*
G36*
X55110443Y-71145519D02*
X55176627Y-71152037D01*
X55289853Y-71186384D01*
X55346467Y-71203557D01*
X55451782Y-71259850D01*
X55502991Y-71287222D01*
X55538729Y-71316552D01*
X55640186Y-71399814D01*
X55690399Y-71461000D01*
X55752778Y-71537009D01*
X55752779Y-71537011D01*
X55836443Y-71693533D01*
X55836443Y-71693534D01*
X55887963Y-71863373D01*
X55905359Y-72040000D01*
X55887963Y-72216627D01*
X55862204Y-72301544D01*
X55836443Y-72386467D01*
X55829129Y-72400150D01*
X55752778Y-72542991D01*
X55723448Y-72578729D01*
X55640186Y-72680186D01*
X55538729Y-72763448D01*
X55502991Y-72792778D01*
X55502989Y-72792779D01*
X55346467Y-72876443D01*
X55289853Y-72893616D01*
X55176627Y-72927963D01*
X55110443Y-72934481D01*
X55044260Y-72941000D01*
X54955740Y-72941000D01*
X54889557Y-72934481D01*
X54823373Y-72927963D01*
X54710147Y-72893616D01*
X54653533Y-72876443D01*
X54497011Y-72792779D01*
X54497009Y-72792778D01*
X54461271Y-72763448D01*
X54359814Y-72680186D01*
X54276552Y-72578729D01*
X54247222Y-72542991D01*
X54170871Y-72400150D01*
X54163557Y-72386467D01*
X54137796Y-72301544D01*
X54112037Y-72216627D01*
X54094641Y-72040000D01*
X54112037Y-71863373D01*
X54163557Y-71693534D01*
X54163557Y-71693533D01*
X54247221Y-71537011D01*
X54247222Y-71537009D01*
X54309601Y-71461000D01*
X54359814Y-71399814D01*
X54461271Y-71316552D01*
X54497009Y-71287222D01*
X54548218Y-71259850D01*
X54653533Y-71203557D01*
X54710147Y-71186384D01*
X54823373Y-71152037D01*
X54889557Y-71145519D01*
X54955740Y-71139000D01*
X55044260Y-71139000D01*
X55110443Y-71145519D01*
X55110443Y-71145519D01*
G37*
G36*
X62962812Y-69693624D02*
X63126784Y-69761544D01*
X63274354Y-69860147D01*
X63399853Y-69985646D01*
X63498456Y-70133216D01*
X63566376Y-70297188D01*
X63601000Y-70471259D01*
X63601000Y-70648741D01*
X63566376Y-70822812D01*
X63498456Y-70986784D01*
X63399853Y-71134354D01*
X63274354Y-71259853D01*
X63126784Y-71358456D01*
X62962812Y-71426376D01*
X62788741Y-71461000D01*
X62611259Y-71461000D01*
X62437188Y-71426376D01*
X62273216Y-71358456D01*
X62125646Y-71259853D01*
X62000147Y-71134354D01*
X61901544Y-70986784D01*
X61833624Y-70822812D01*
X61799000Y-70648741D01*
X61799000Y-70471259D01*
X61833624Y-70297188D01*
X61901544Y-70133216D01*
X62000147Y-69985646D01*
X62125646Y-69860147D01*
X62273216Y-69761544D01*
X62437188Y-69693624D01*
X62611259Y-69659000D01*
X62788741Y-69659000D01*
X62962812Y-69693624D01*
X62962812Y-69693624D01*
G37*
G36*
X65502812Y-69693624D02*
X65666784Y-69761544D01*
X65814354Y-69860147D01*
X65939853Y-69985646D01*
X66038456Y-70133216D01*
X66106376Y-70297188D01*
X66141000Y-70471259D01*
X66141000Y-70648741D01*
X66106376Y-70822812D01*
X66038456Y-70986784D01*
X65939853Y-71134354D01*
X65814354Y-71259853D01*
X65666784Y-71358456D01*
X65502812Y-71426376D01*
X65328741Y-71461000D01*
X65151259Y-71461000D01*
X64977188Y-71426376D01*
X64813216Y-71358456D01*
X64665646Y-71259853D01*
X64540147Y-71134354D01*
X64441544Y-70986784D01*
X64373624Y-70822812D01*
X64339000Y-70648741D01*
X64339000Y-70471259D01*
X64373624Y-70297188D01*
X64441544Y-70133216D01*
X64540147Y-69985646D01*
X64665646Y-69860147D01*
X64813216Y-69761544D01*
X64977188Y-69693624D01*
X65151259Y-69659000D01*
X65328741Y-69659000D01*
X65502812Y-69693624D01*
X65502812Y-69693624D01*
G37*
G36*
X55901000Y-70401000D02*
X54099000Y-70401000D01*
X54099000Y-68599000D01*
X55901000Y-68599000D01*
X55901000Y-70401000D01*
X55901000Y-70401000D01*
G37*
G36*
X65502812Y-67153624D02*
X65666784Y-67221544D01*
X65814354Y-67320147D01*
X65939853Y-67445646D01*
X66038456Y-67593216D01*
X66106376Y-67757188D01*
X66141000Y-67931259D01*
X66141000Y-68108741D01*
X66106376Y-68282812D01*
X66038456Y-68446784D01*
X65939853Y-68594354D01*
X65814354Y-68719853D01*
X65666784Y-68818456D01*
X65502812Y-68886376D01*
X65328741Y-68921000D01*
X65151259Y-68921000D01*
X64977188Y-68886376D01*
X64813216Y-68818456D01*
X64665646Y-68719853D01*
X64540147Y-68594354D01*
X64441544Y-68446784D01*
X64373624Y-68282812D01*
X64339000Y-68108741D01*
X64339000Y-67931259D01*
X64373624Y-67757188D01*
X64441544Y-67593216D01*
X64540147Y-67445646D01*
X64665646Y-67320147D01*
X64813216Y-67221544D01*
X64977188Y-67153624D01*
X65151259Y-67119000D01*
X65328741Y-67119000D01*
X65502812Y-67153624D01*
X65502812Y-67153624D01*
G37*
G36*
X62962812Y-67153624D02*
X63126784Y-67221544D01*
X63274354Y-67320147D01*
X63399853Y-67445646D01*
X63498456Y-67593216D01*
X63566376Y-67757188D01*
X63601000Y-67931259D01*
X63601000Y-68108741D01*
X63566376Y-68282812D01*
X63498456Y-68446784D01*
X63399853Y-68594354D01*
X63274354Y-68719853D01*
X63126784Y-68818456D01*
X62962812Y-68886376D01*
X62788741Y-68921000D01*
X62611259Y-68921000D01*
X62437188Y-68886376D01*
X62273216Y-68818456D01*
X62125646Y-68719853D01*
X62000147Y-68594354D01*
X61901544Y-68446784D01*
X61833624Y-68282812D01*
X61799000Y-68108741D01*
X61799000Y-67931259D01*
X61833624Y-67757188D01*
X61901544Y-67593216D01*
X62000147Y-67445646D01*
X62125646Y-67320147D01*
X62273216Y-67221544D01*
X62437188Y-67153624D01*
X62611259Y-67119000D01*
X62788741Y-67119000D01*
X62962812Y-67153624D01*
X62962812Y-67153624D01*
G37*
M02*
