G04 #@! TF.GenerationSoftware,KiCad,Pcbnew,(5.0.1)-4*
G04 #@! TF.CreationDate,2018-12-03T15:58:59+00:00*
G04 #@! TF.ProjectId,DevBoard,446576426F6172642E6B696361645F70,rev?*
G04 #@! TF.SameCoordinates,Original*
G04 #@! TF.FileFunction,Copper,L1,Top,Signal*
G04 #@! TF.FilePolarity,Positive*
%FSLAX46Y46*%
G04 Gerber Fmt 4.6, Leading zero omitted, Abs format (unit mm)*
G04 Created by KiCad (PCBNEW (5.0.1)-4) date 03/12/2018 15:58:59*
%MOMM*%
%LPD*%
G01*
G04 APERTURE LIST*
G04 #@! TA.AperFunction,ComponentPad*
%ADD10C,1.500000*%
G04 #@! TD*
G04 #@! TA.AperFunction,ComponentPad*
%ADD11R,1.500000X1.500000*%
G04 #@! TD*
G04 #@! TA.AperFunction,WasherPad*
%ADD12C,3.300000*%
G04 #@! TD*
G04 #@! TA.AperFunction,ComponentPad*
%ADD13R,2.500000X1.000000*%
G04 #@! TD*
G04 #@! TA.AperFunction,ComponentPad*
%ADD14R,1.700000X1.700000*%
G04 #@! TD*
G04 #@! TA.AperFunction,ComponentPad*
%ADD15C,1.700000*%
G04 #@! TD*
G04 #@! TA.AperFunction,ComponentPad*
%ADD16O,1.700000X1.700000*%
G04 #@! TD*
G04 #@! TA.AperFunction,Conductor*
%ADD17C,0.250000*%
G04 #@! TD*
G04 #@! TA.AperFunction,Conductor*
%ADD18C,0.254000*%
G04 #@! TD*
G04 APERTURE END LIST*
D10*
G04 #@! TO.P,J7,8*
G04 #@! TO.N,Jack5*
X64890000Y-94710000D03*
G04 #@! TO.P,J7,7*
G04 #@! TO.N,GND*
X63620000Y-97250000D03*
G04 #@! TO.P,J7,6*
G04 #@! TO.N,Jack4*
X62350000Y-94710000D03*
G04 #@! TO.P,J7,5*
G04 #@! TO.N,-12V*
X61080000Y-97250000D03*
G04 #@! TO.P,J7,4*
G04 #@! TO.N,Jack3*
X59810000Y-94710000D03*
G04 #@! TO.P,J7,3*
G04 #@! TO.N,+12V*
X58540000Y-97250000D03*
G04 #@! TO.P,J7,2*
G04 #@! TO.N,Jack2*
X57270000Y-94710000D03*
D11*
G04 #@! TO.P,J7,1*
G04 #@! TO.N,Jack1*
X56000000Y-97250000D03*
D12*
G04 #@! TO.P,J7,*
G04 #@! TO.N,*
X54510000Y-103600000D03*
X66380000Y-103600000D03*
G04 #@! TD*
D13*
G04 #@! TO.P,J1,3*
G04 #@! TO.N,Jack1*
X55500000Y-126580000D03*
G04 #@! TO.P,J1,2*
G04 #@! TO.N,Net-(J1-Pad2)*
X55500000Y-134880000D03*
G04 #@! TO.P,J1,1*
G04 #@! TO.N,GND*
X55500000Y-137980000D03*
G04 #@! TD*
G04 #@! TO.P,J2,1*
G04 #@! TO.N,GND*
X64750000Y-152730000D03*
G04 #@! TO.P,J2,2*
G04 #@! TO.N,Net-(J2-Pad2)*
X64750000Y-149630000D03*
G04 #@! TO.P,J2,3*
G04 #@! TO.N,Jack2*
X64750000Y-141330000D03*
G04 #@! TD*
G04 #@! TO.P,J3,3*
G04 #@! TO.N,Jack3*
X55500000Y-141330000D03*
G04 #@! TO.P,J3,2*
G04 #@! TO.N,+5V*
X55500000Y-149630000D03*
G04 #@! TO.P,J3,1*
G04 #@! TO.N,GND*
X55500000Y-152730000D03*
G04 #@! TD*
G04 #@! TO.P,J4,1*
G04 #@! TO.N,GND*
X55500000Y-167480000D03*
G04 #@! TO.P,J4,2*
G04 #@! TO.N,CV*
X55500000Y-164380000D03*
G04 #@! TO.P,J4,3*
G04 #@! TO.N,Jack4*
X55500000Y-156080000D03*
G04 #@! TD*
G04 #@! TO.P,J5,3*
G04 #@! TO.N,Jack5*
X64750000Y-156080000D03*
G04 #@! TO.P,J5,2*
G04 #@! TO.N,Gate*
X64750000Y-164380000D03*
G04 #@! TO.P,J5,1*
G04 #@! TO.N,GND*
X64750000Y-167480000D03*
G04 #@! TD*
D14*
G04 #@! TO.P,J6,1*
G04 #@! TO.N,-12V*
X62700000Y-85800000D03*
D15*
G04 #@! TO.P,J6,2*
X65240000Y-85800000D03*
G04 #@! TO.P,J6,3*
G04 #@! TO.N,GND*
X62700000Y-83260000D03*
G04 #@! TO.P,J6,4*
X65240000Y-83260000D03*
G04 #@! TO.P,J6,5*
X62700000Y-80720000D03*
G04 #@! TO.P,J6,6*
X65240000Y-80720000D03*
G04 #@! TO.P,J6,7*
X62700000Y-78180000D03*
G04 #@! TO.P,J6,8*
X65240000Y-78180000D03*
G04 #@! TO.P,J6,9*
G04 #@! TO.N,+12V*
X62700000Y-75640000D03*
G04 #@! TO.P,J6,10*
X65240000Y-75640000D03*
G04 #@! TO.P,J6,11*
G04 #@! TO.N,+5V*
X62700000Y-73100000D03*
G04 #@! TO.P,J6,12*
X65240000Y-73100000D03*
G04 #@! TO.P,J6,14*
G04 #@! TO.N,CV*
X65240000Y-70560000D03*
G04 #@! TO.P,J6,13*
X62700000Y-70560000D03*
G04 #@! TO.P,J6,15*
G04 #@! TO.N,Gate*
X62700000Y-68020000D03*
G04 #@! TO.P,J6,16*
X65240000Y-68020000D03*
G04 #@! TD*
D16*
G04 #@! TO.P,J8,8*
G04 #@! TO.N,Jack1*
X55000000Y-87280000D03*
G04 #@! TO.P,J8,7*
G04 #@! TO.N,Jack2*
X55000000Y-84740000D03*
G04 #@! TO.P,J8,6*
G04 #@! TO.N,Jack3*
X55000000Y-82200000D03*
G04 #@! TO.P,J8,5*
G04 #@! TO.N,Jack4*
X55000000Y-79660000D03*
G04 #@! TO.P,J8,4*
G04 #@! TO.N,Jack5*
X55000000Y-77120000D03*
G04 #@! TO.P,J8,3*
G04 #@! TO.N,-12V*
X55000000Y-74580000D03*
G04 #@! TO.P,J8,2*
G04 #@! TO.N,GND*
X55000000Y-72040000D03*
D14*
G04 #@! TO.P,J8,1*
G04 #@! TO.N,+12V*
X55000000Y-69500000D03*
G04 #@! TD*
D17*
G04 #@! TO.N,Jack1*
X55000000Y-96250000D02*
X56000000Y-97250000D01*
X55000000Y-87280000D02*
X55000000Y-96250000D01*
X55500000Y-112000000D02*
X55500000Y-126580000D01*
X57040000Y-110460000D02*
X55500000Y-112000000D01*
X57040000Y-99290000D02*
X57040000Y-110460000D01*
X56000000Y-97250000D02*
X56000000Y-98250000D01*
X56000000Y-98250000D02*
X57040000Y-99290000D01*
G04 #@! TO.N,Jack2*
X57270000Y-87010000D02*
X57270000Y-94710000D01*
X55000000Y-84740000D02*
X57270000Y-87010000D01*
G04 #@! TO.N,Jack3*
X58149970Y-93049970D02*
X59810000Y-94710000D01*
X58149970Y-85349970D02*
X58149970Y-93049970D01*
X55000000Y-82200000D02*
X58149970Y-85349970D01*
X59810000Y-94710000D02*
X59810000Y-99840000D01*
X59810000Y-99840000D02*
X58220000Y-101430000D01*
X58220000Y-101430000D02*
X58220000Y-141110000D01*
X58000000Y-141330000D02*
X55500000Y-141330000D01*
X58220000Y-141110000D02*
X58000000Y-141330000D01*
G04 #@! TO.N,+5V*
X62710000Y-73050000D02*
X65250000Y-73050000D01*
X52800000Y-149630000D02*
X55500000Y-149630000D01*
X51510000Y-148340000D02*
X52800000Y-149630000D01*
X51510000Y-66890000D02*
X51510000Y-148340000D01*
X51750000Y-66650000D02*
X51510000Y-66890000D01*
X62710000Y-73050000D02*
X56310000Y-66650000D01*
X56310000Y-66650000D02*
X51750000Y-66650000D01*
G04 #@! TO.N,CV*
X62710000Y-70510000D02*
X65250000Y-70510000D01*
X65250000Y-70510000D02*
X67460000Y-70510000D01*
X67460000Y-70510000D02*
X68030000Y-71080000D01*
X68030000Y-71080000D02*
X68030000Y-98350000D01*
X68030000Y-98350000D02*
X60100000Y-106280000D01*
X60100000Y-106280000D02*
X60100000Y-163230000D01*
X58950000Y-164380000D02*
X55500000Y-164380000D01*
X60100000Y-163230000D02*
X58950000Y-164380000D01*
G04 #@! TO.N,Jack4*
X58599980Y-90959980D02*
X62350000Y-94710000D01*
X58599980Y-83259980D02*
X58599980Y-90959980D01*
X55000000Y-79660000D02*
X58599980Y-83259980D01*
X57470000Y-156080000D02*
X55500000Y-156080000D01*
X59649990Y-153900010D02*
X57470000Y-156080000D01*
X59649990Y-103750010D02*
X59649990Y-153900010D01*
X62350000Y-94710000D02*
X62350000Y-101050000D01*
X62350000Y-101050000D02*
X59649990Y-103750010D01*
G04 #@! TO.N,Jack5*
X59049990Y-88869990D02*
X64890000Y-94710000D01*
X59049990Y-81169990D02*
X59049990Y-88869990D01*
X55000000Y-77120000D02*
X59049990Y-81169990D01*
G04 #@! TO.N,Gate*
X62710000Y-67970000D02*
X65250000Y-67970000D01*
X67970000Y-164380000D02*
X64750000Y-164380000D01*
X68700000Y-163650000D02*
X67970000Y-164380000D01*
X68700000Y-101700000D02*
X68700000Y-163650000D01*
X68720000Y-68820000D02*
X68700000Y-101700000D01*
X65250000Y-67970000D02*
X67870000Y-67970000D01*
X67870000Y-67970000D02*
X68720000Y-68820000D01*
G04 #@! TO.N,-12V*
X59500000Y-82540000D02*
X62710000Y-85750000D01*
X59500000Y-79080000D02*
X59500000Y-82540000D01*
X55000000Y-74580000D02*
X59500000Y-79080000D01*
X62710000Y-85750000D02*
X65250000Y-85750000D01*
G04 #@! TO.N,+12V*
X56620000Y-69500000D02*
X62710000Y-75590000D01*
X55000000Y-69500000D02*
X56620000Y-69500000D01*
X62710000Y-75590000D02*
X65250000Y-75590000D01*
G04 #@! TD*
D18*
G04 #@! TO.N,GND*
G36*
X64095000Y-104054515D02*
X64442870Y-104894349D01*
X65085651Y-105537130D01*
X65925485Y-105885000D01*
X66834515Y-105885000D01*
X67674349Y-105537130D01*
X67940000Y-105271479D01*
X67940001Y-163335197D01*
X67655199Y-163620000D01*
X66589982Y-163620000D01*
X66457809Y-163422191D01*
X66247765Y-163281843D01*
X66000000Y-163232560D01*
X63500000Y-163232560D01*
X63252235Y-163281843D01*
X63042191Y-163422191D01*
X62901843Y-163632235D01*
X62852560Y-163880000D01*
X62852560Y-164880000D01*
X62901843Y-165127765D01*
X63042191Y-165337809D01*
X63252235Y-165478157D01*
X63500000Y-165527440D01*
X66000000Y-165527440D01*
X66247765Y-165478157D01*
X66457809Y-165337809D01*
X66589982Y-165140000D01*
X67895153Y-165140000D01*
X67970000Y-165154888D01*
X68044847Y-165140000D01*
X68044852Y-165140000D01*
X68266537Y-165095904D01*
X68517929Y-164927929D01*
X68560331Y-164864470D01*
X68790001Y-164634800D01*
X68790001Y-168540000D01*
X66307375Y-168540000D01*
X66359698Y-168518327D01*
X66538327Y-168339699D01*
X66635000Y-168106310D01*
X66635000Y-167765750D01*
X66476250Y-167607000D01*
X64877000Y-167607000D01*
X64877000Y-167627000D01*
X64623000Y-167627000D01*
X64623000Y-167607000D01*
X63023750Y-167607000D01*
X62865000Y-167765750D01*
X62865000Y-168106310D01*
X62961673Y-168339699D01*
X63140302Y-168518327D01*
X63192625Y-168540000D01*
X57057375Y-168540000D01*
X57109698Y-168518327D01*
X57288327Y-168339699D01*
X57385000Y-168106310D01*
X57385000Y-167765750D01*
X57226250Y-167607000D01*
X55627000Y-167607000D01*
X55627000Y-167627000D01*
X55373000Y-167627000D01*
X55373000Y-167607000D01*
X53773750Y-167607000D01*
X53615000Y-167765750D01*
X53615000Y-168106310D01*
X53711673Y-168339699D01*
X53890302Y-168518327D01*
X53942625Y-168540000D01*
X51460000Y-168540000D01*
X51460000Y-166853690D01*
X53615000Y-166853690D01*
X53615000Y-167194250D01*
X53773750Y-167353000D01*
X55373000Y-167353000D01*
X55373000Y-166503750D01*
X55627000Y-166503750D01*
X55627000Y-167353000D01*
X57226250Y-167353000D01*
X57385000Y-167194250D01*
X57385000Y-166853690D01*
X62865000Y-166853690D01*
X62865000Y-167194250D01*
X63023750Y-167353000D01*
X64623000Y-167353000D01*
X64623000Y-166503750D01*
X64877000Y-166503750D01*
X64877000Y-167353000D01*
X66476250Y-167353000D01*
X66635000Y-167194250D01*
X66635000Y-166853690D01*
X66538327Y-166620301D01*
X66359698Y-166441673D01*
X66126309Y-166345000D01*
X65035750Y-166345000D01*
X64877000Y-166503750D01*
X64623000Y-166503750D01*
X64464250Y-166345000D01*
X63373691Y-166345000D01*
X63140302Y-166441673D01*
X62961673Y-166620301D01*
X62865000Y-166853690D01*
X57385000Y-166853690D01*
X57288327Y-166620301D01*
X57109698Y-166441673D01*
X56876309Y-166345000D01*
X55785750Y-166345000D01*
X55627000Y-166503750D01*
X55373000Y-166503750D01*
X55214250Y-166345000D01*
X54123691Y-166345000D01*
X53890302Y-166441673D01*
X53711673Y-166620301D01*
X53615000Y-166853690D01*
X51460000Y-166853690D01*
X51460000Y-160625050D01*
X53615000Y-160625050D01*
X53615000Y-161374950D01*
X53901974Y-162067767D01*
X54432233Y-162598026D01*
X55125050Y-162885000D01*
X55874950Y-162885000D01*
X56567767Y-162598026D01*
X57098026Y-162067767D01*
X57385000Y-161374950D01*
X57385000Y-160625050D01*
X57098026Y-159932233D01*
X56567767Y-159401974D01*
X55874950Y-159115000D01*
X55125050Y-159115000D01*
X54432233Y-159401974D01*
X53901974Y-159932233D01*
X53615000Y-160625050D01*
X51460000Y-160625050D01*
X51460000Y-153015750D01*
X53615000Y-153015750D01*
X53615000Y-153356310D01*
X53711673Y-153589699D01*
X53890302Y-153768327D01*
X54123691Y-153865000D01*
X55214250Y-153865000D01*
X55373000Y-153706250D01*
X55373000Y-152857000D01*
X55627000Y-152857000D01*
X55627000Y-153706250D01*
X55785750Y-153865000D01*
X56876309Y-153865000D01*
X57109698Y-153768327D01*
X57288327Y-153589699D01*
X57385000Y-153356310D01*
X57385000Y-153015750D01*
X57226250Y-152857000D01*
X55627000Y-152857000D01*
X55373000Y-152857000D01*
X53773750Y-152857000D01*
X53615000Y-153015750D01*
X51460000Y-153015750D01*
X51460000Y-152103690D01*
X53615000Y-152103690D01*
X53615000Y-152444250D01*
X53773750Y-152603000D01*
X55373000Y-152603000D01*
X55373000Y-151753750D01*
X55627000Y-151753750D01*
X55627000Y-152603000D01*
X57226250Y-152603000D01*
X57385000Y-152444250D01*
X57385000Y-152103690D01*
X57288327Y-151870301D01*
X57109698Y-151691673D01*
X56876309Y-151595000D01*
X55785750Y-151595000D01*
X55627000Y-151753750D01*
X55373000Y-151753750D01*
X55214250Y-151595000D01*
X54123691Y-151595000D01*
X53890302Y-151691673D01*
X53711673Y-151870301D01*
X53615000Y-152103690D01*
X51460000Y-152103690D01*
X51460000Y-149364802D01*
X52209673Y-150114476D01*
X52252071Y-150177929D01*
X52315524Y-150220327D01*
X52315526Y-150220329D01*
X52440902Y-150304102D01*
X52503463Y-150345904D01*
X52725148Y-150390000D01*
X52725152Y-150390000D01*
X52799999Y-150404888D01*
X52874846Y-150390000D01*
X53660018Y-150390000D01*
X53792191Y-150587809D01*
X54002235Y-150728157D01*
X54250000Y-150777440D01*
X56750000Y-150777440D01*
X56997765Y-150728157D01*
X57207809Y-150587809D01*
X57348157Y-150377765D01*
X57397440Y-150130000D01*
X57397440Y-149130000D01*
X57348157Y-148882235D01*
X57207809Y-148672191D01*
X56997765Y-148531843D01*
X56750000Y-148482560D01*
X54250000Y-148482560D01*
X54002235Y-148531843D01*
X53792191Y-148672191D01*
X53660018Y-148870000D01*
X53114803Y-148870000D01*
X52270000Y-148025199D01*
X52270000Y-145875050D01*
X53615000Y-145875050D01*
X53615000Y-146624950D01*
X53901974Y-147317767D01*
X54432233Y-147848026D01*
X55125050Y-148135000D01*
X55874950Y-148135000D01*
X56567767Y-147848026D01*
X57098026Y-147317767D01*
X57385000Y-146624950D01*
X57385000Y-145875050D01*
X57098026Y-145182233D01*
X56567767Y-144651974D01*
X55874950Y-144365000D01*
X55125050Y-144365000D01*
X54432233Y-144651974D01*
X53901974Y-145182233D01*
X53615000Y-145875050D01*
X52270000Y-145875050D01*
X52270000Y-138265750D01*
X53615000Y-138265750D01*
X53615000Y-138606310D01*
X53711673Y-138839699D01*
X53890302Y-139018327D01*
X54123691Y-139115000D01*
X55214250Y-139115000D01*
X55373000Y-138956250D01*
X55373000Y-138107000D01*
X55627000Y-138107000D01*
X55627000Y-138956250D01*
X55785750Y-139115000D01*
X56876309Y-139115000D01*
X57109698Y-139018327D01*
X57288327Y-138839699D01*
X57385000Y-138606310D01*
X57385000Y-138265750D01*
X57226250Y-138107000D01*
X55627000Y-138107000D01*
X55373000Y-138107000D01*
X53773750Y-138107000D01*
X53615000Y-138265750D01*
X52270000Y-138265750D01*
X52270000Y-137353690D01*
X53615000Y-137353690D01*
X53615000Y-137694250D01*
X53773750Y-137853000D01*
X55373000Y-137853000D01*
X55373000Y-137003750D01*
X55627000Y-137003750D01*
X55627000Y-137853000D01*
X57226250Y-137853000D01*
X57385000Y-137694250D01*
X57385000Y-137353690D01*
X57288327Y-137120301D01*
X57109698Y-136941673D01*
X56876309Y-136845000D01*
X55785750Y-136845000D01*
X55627000Y-137003750D01*
X55373000Y-137003750D01*
X55214250Y-136845000D01*
X54123691Y-136845000D01*
X53890302Y-136941673D01*
X53711673Y-137120301D01*
X53615000Y-137353690D01*
X52270000Y-137353690D01*
X52270000Y-134380000D01*
X53602560Y-134380000D01*
X53602560Y-135380000D01*
X53651843Y-135627765D01*
X53792191Y-135837809D01*
X54002235Y-135978157D01*
X54250000Y-136027440D01*
X56750000Y-136027440D01*
X56997765Y-135978157D01*
X57207809Y-135837809D01*
X57348157Y-135627765D01*
X57397440Y-135380000D01*
X57397440Y-134380000D01*
X57348157Y-134132235D01*
X57207809Y-133922191D01*
X56997765Y-133781843D01*
X56750000Y-133732560D01*
X54250000Y-133732560D01*
X54002235Y-133781843D01*
X53792191Y-133922191D01*
X53651843Y-134132235D01*
X53602560Y-134380000D01*
X52270000Y-134380000D01*
X52270000Y-131125050D01*
X53615000Y-131125050D01*
X53615000Y-131874950D01*
X53901974Y-132567767D01*
X54432233Y-133098026D01*
X55125050Y-133385000D01*
X55874950Y-133385000D01*
X56567767Y-133098026D01*
X57098026Y-132567767D01*
X57385000Y-131874950D01*
X57385000Y-131125050D01*
X57098026Y-130432233D01*
X56567767Y-129901974D01*
X55874950Y-129615000D01*
X55125050Y-129615000D01*
X54432233Y-129901974D01*
X53901974Y-130432233D01*
X53615000Y-131125050D01*
X52270000Y-131125050D01*
X52270000Y-104163155D01*
X52572870Y-104894349D01*
X53215651Y-105537130D01*
X54055485Y-105885000D01*
X54964515Y-105885000D01*
X55804349Y-105537130D01*
X56280001Y-105061478D01*
X56280001Y-110145197D01*
X55015530Y-111409669D01*
X54952071Y-111452071D01*
X54784096Y-111703464D01*
X54740000Y-111925149D01*
X54740000Y-111925153D01*
X54725112Y-112000000D01*
X54740000Y-112074847D01*
X54740001Y-125432560D01*
X54250000Y-125432560D01*
X54002235Y-125481843D01*
X53792191Y-125622191D01*
X53651843Y-125832235D01*
X53602560Y-126080000D01*
X53602560Y-127080000D01*
X53651843Y-127327765D01*
X53792191Y-127537809D01*
X54002235Y-127678157D01*
X54250000Y-127727440D01*
X56750000Y-127727440D01*
X56997765Y-127678157D01*
X57207809Y-127537809D01*
X57348157Y-127327765D01*
X57397440Y-127080000D01*
X57397440Y-126080000D01*
X57348157Y-125832235D01*
X57207809Y-125622191D01*
X56997765Y-125481843D01*
X56750000Y-125432560D01*
X56260000Y-125432560D01*
X56260000Y-112314801D01*
X57460000Y-111114802D01*
X57460001Y-140570000D01*
X57339982Y-140570000D01*
X57207809Y-140372191D01*
X56997765Y-140231843D01*
X56750000Y-140182560D01*
X54250000Y-140182560D01*
X54002235Y-140231843D01*
X53792191Y-140372191D01*
X53651843Y-140582235D01*
X53602560Y-140830000D01*
X53602560Y-141830000D01*
X53651843Y-142077765D01*
X53792191Y-142287809D01*
X54002235Y-142428157D01*
X54250000Y-142477440D01*
X56750000Y-142477440D01*
X56997765Y-142428157D01*
X57207809Y-142287809D01*
X57339982Y-142090000D01*
X57925153Y-142090000D01*
X58000000Y-142104888D01*
X58074847Y-142090000D01*
X58074852Y-142090000D01*
X58296537Y-142045904D01*
X58547929Y-141877929D01*
X58590331Y-141814470D01*
X58704470Y-141700331D01*
X58767929Y-141657929D01*
X58889991Y-141475251D01*
X58889991Y-153585206D01*
X57265968Y-155209231D01*
X57207809Y-155122191D01*
X56997765Y-154981843D01*
X56750000Y-154932560D01*
X54250000Y-154932560D01*
X54002235Y-154981843D01*
X53792191Y-155122191D01*
X53651843Y-155332235D01*
X53602560Y-155580000D01*
X53602560Y-156580000D01*
X53651843Y-156827765D01*
X53792191Y-157037809D01*
X54002235Y-157178157D01*
X54250000Y-157227440D01*
X56750000Y-157227440D01*
X56997765Y-157178157D01*
X57207809Y-157037809D01*
X57339982Y-156840000D01*
X57395153Y-156840000D01*
X57470000Y-156854888D01*
X57544847Y-156840000D01*
X57544852Y-156840000D01*
X57766537Y-156795904D01*
X58017929Y-156627929D01*
X58060331Y-156564470D01*
X59340001Y-155284801D01*
X59340001Y-162915197D01*
X58635199Y-163620000D01*
X57339982Y-163620000D01*
X57207809Y-163422191D01*
X56997765Y-163281843D01*
X56750000Y-163232560D01*
X54250000Y-163232560D01*
X54002235Y-163281843D01*
X53792191Y-163422191D01*
X53651843Y-163632235D01*
X53602560Y-163880000D01*
X53602560Y-164880000D01*
X53651843Y-165127765D01*
X53792191Y-165337809D01*
X54002235Y-165478157D01*
X54250000Y-165527440D01*
X56750000Y-165527440D01*
X56997765Y-165478157D01*
X57207809Y-165337809D01*
X57339982Y-165140000D01*
X58875153Y-165140000D01*
X58950000Y-165154888D01*
X59024847Y-165140000D01*
X59024852Y-165140000D01*
X59246537Y-165095904D01*
X59497929Y-164927929D01*
X59540331Y-164864470D01*
X60584473Y-163820329D01*
X60647929Y-163777929D01*
X60815904Y-163526537D01*
X60860000Y-163304852D01*
X60860000Y-163304848D01*
X60874888Y-163230000D01*
X60860000Y-163155152D01*
X60860000Y-160625050D01*
X62865000Y-160625050D01*
X62865000Y-161374950D01*
X63151974Y-162067767D01*
X63682233Y-162598026D01*
X64375050Y-162885000D01*
X65124950Y-162885000D01*
X65817767Y-162598026D01*
X66348026Y-162067767D01*
X66635000Y-161374950D01*
X66635000Y-160625050D01*
X66348026Y-159932233D01*
X65817767Y-159401974D01*
X65124950Y-159115000D01*
X64375050Y-159115000D01*
X63682233Y-159401974D01*
X63151974Y-159932233D01*
X62865000Y-160625050D01*
X60860000Y-160625050D01*
X60860000Y-155580000D01*
X62852560Y-155580000D01*
X62852560Y-156580000D01*
X62901843Y-156827765D01*
X63042191Y-157037809D01*
X63252235Y-157178157D01*
X63500000Y-157227440D01*
X66000000Y-157227440D01*
X66247765Y-157178157D01*
X66457809Y-157037809D01*
X66598157Y-156827765D01*
X66647440Y-156580000D01*
X66647440Y-155580000D01*
X66598157Y-155332235D01*
X66457809Y-155122191D01*
X66247765Y-154981843D01*
X66000000Y-154932560D01*
X63500000Y-154932560D01*
X63252235Y-154981843D01*
X63042191Y-155122191D01*
X62901843Y-155332235D01*
X62852560Y-155580000D01*
X60860000Y-155580000D01*
X60860000Y-153015750D01*
X62865000Y-153015750D01*
X62865000Y-153356310D01*
X62961673Y-153589699D01*
X63140302Y-153768327D01*
X63373691Y-153865000D01*
X64464250Y-153865000D01*
X64623000Y-153706250D01*
X64623000Y-152857000D01*
X64877000Y-152857000D01*
X64877000Y-153706250D01*
X65035750Y-153865000D01*
X66126309Y-153865000D01*
X66359698Y-153768327D01*
X66538327Y-153589699D01*
X66635000Y-153356310D01*
X66635000Y-153015750D01*
X66476250Y-152857000D01*
X64877000Y-152857000D01*
X64623000Y-152857000D01*
X63023750Y-152857000D01*
X62865000Y-153015750D01*
X60860000Y-153015750D01*
X60860000Y-152103690D01*
X62865000Y-152103690D01*
X62865000Y-152444250D01*
X63023750Y-152603000D01*
X64623000Y-152603000D01*
X64623000Y-151753750D01*
X64877000Y-151753750D01*
X64877000Y-152603000D01*
X66476250Y-152603000D01*
X66635000Y-152444250D01*
X66635000Y-152103690D01*
X66538327Y-151870301D01*
X66359698Y-151691673D01*
X66126309Y-151595000D01*
X65035750Y-151595000D01*
X64877000Y-151753750D01*
X64623000Y-151753750D01*
X64464250Y-151595000D01*
X63373691Y-151595000D01*
X63140302Y-151691673D01*
X62961673Y-151870301D01*
X62865000Y-152103690D01*
X60860000Y-152103690D01*
X60860000Y-149130000D01*
X62852560Y-149130000D01*
X62852560Y-150130000D01*
X62901843Y-150377765D01*
X63042191Y-150587809D01*
X63252235Y-150728157D01*
X63500000Y-150777440D01*
X66000000Y-150777440D01*
X66247765Y-150728157D01*
X66457809Y-150587809D01*
X66598157Y-150377765D01*
X66647440Y-150130000D01*
X66647440Y-149130000D01*
X66598157Y-148882235D01*
X66457809Y-148672191D01*
X66247765Y-148531843D01*
X66000000Y-148482560D01*
X63500000Y-148482560D01*
X63252235Y-148531843D01*
X63042191Y-148672191D01*
X62901843Y-148882235D01*
X62852560Y-149130000D01*
X60860000Y-149130000D01*
X60860000Y-145875050D01*
X62865000Y-145875050D01*
X62865000Y-146624950D01*
X63151974Y-147317767D01*
X63682233Y-147848026D01*
X64375050Y-148135000D01*
X65124950Y-148135000D01*
X65817767Y-147848026D01*
X66348026Y-147317767D01*
X66635000Y-146624950D01*
X66635000Y-145875050D01*
X66348026Y-145182233D01*
X65817767Y-144651974D01*
X65124950Y-144365000D01*
X64375050Y-144365000D01*
X63682233Y-144651974D01*
X63151974Y-145182233D01*
X62865000Y-145875050D01*
X60860000Y-145875050D01*
X60860000Y-140830000D01*
X62852560Y-140830000D01*
X62852560Y-141830000D01*
X62901843Y-142077765D01*
X63042191Y-142287809D01*
X63252235Y-142428157D01*
X63500000Y-142477440D01*
X66000000Y-142477440D01*
X66247765Y-142428157D01*
X66457809Y-142287809D01*
X66598157Y-142077765D01*
X66647440Y-141830000D01*
X66647440Y-140830000D01*
X66598157Y-140582235D01*
X66457809Y-140372191D01*
X66247765Y-140231843D01*
X66000000Y-140182560D01*
X63500000Y-140182560D01*
X63252235Y-140231843D01*
X63042191Y-140372191D01*
X62901843Y-140582235D01*
X62852560Y-140830000D01*
X60860000Y-140830000D01*
X60860000Y-106594801D01*
X64095000Y-103359801D01*
X64095000Y-104054515D01*
X64095000Y-104054515D01*
G37*
X64095000Y-104054515D02*
X64442870Y-104894349D01*
X65085651Y-105537130D01*
X65925485Y-105885000D01*
X66834515Y-105885000D01*
X67674349Y-105537130D01*
X67940000Y-105271479D01*
X67940001Y-163335197D01*
X67655199Y-163620000D01*
X66589982Y-163620000D01*
X66457809Y-163422191D01*
X66247765Y-163281843D01*
X66000000Y-163232560D01*
X63500000Y-163232560D01*
X63252235Y-163281843D01*
X63042191Y-163422191D01*
X62901843Y-163632235D01*
X62852560Y-163880000D01*
X62852560Y-164880000D01*
X62901843Y-165127765D01*
X63042191Y-165337809D01*
X63252235Y-165478157D01*
X63500000Y-165527440D01*
X66000000Y-165527440D01*
X66247765Y-165478157D01*
X66457809Y-165337809D01*
X66589982Y-165140000D01*
X67895153Y-165140000D01*
X67970000Y-165154888D01*
X68044847Y-165140000D01*
X68044852Y-165140000D01*
X68266537Y-165095904D01*
X68517929Y-164927929D01*
X68560331Y-164864470D01*
X68790001Y-164634800D01*
X68790001Y-168540000D01*
X66307375Y-168540000D01*
X66359698Y-168518327D01*
X66538327Y-168339699D01*
X66635000Y-168106310D01*
X66635000Y-167765750D01*
X66476250Y-167607000D01*
X64877000Y-167607000D01*
X64877000Y-167627000D01*
X64623000Y-167627000D01*
X64623000Y-167607000D01*
X63023750Y-167607000D01*
X62865000Y-167765750D01*
X62865000Y-168106310D01*
X62961673Y-168339699D01*
X63140302Y-168518327D01*
X63192625Y-168540000D01*
X57057375Y-168540000D01*
X57109698Y-168518327D01*
X57288327Y-168339699D01*
X57385000Y-168106310D01*
X57385000Y-167765750D01*
X57226250Y-167607000D01*
X55627000Y-167607000D01*
X55627000Y-167627000D01*
X55373000Y-167627000D01*
X55373000Y-167607000D01*
X53773750Y-167607000D01*
X53615000Y-167765750D01*
X53615000Y-168106310D01*
X53711673Y-168339699D01*
X53890302Y-168518327D01*
X53942625Y-168540000D01*
X51460000Y-168540000D01*
X51460000Y-166853690D01*
X53615000Y-166853690D01*
X53615000Y-167194250D01*
X53773750Y-167353000D01*
X55373000Y-167353000D01*
X55373000Y-166503750D01*
X55627000Y-166503750D01*
X55627000Y-167353000D01*
X57226250Y-167353000D01*
X57385000Y-167194250D01*
X57385000Y-166853690D01*
X62865000Y-166853690D01*
X62865000Y-167194250D01*
X63023750Y-167353000D01*
X64623000Y-167353000D01*
X64623000Y-166503750D01*
X64877000Y-166503750D01*
X64877000Y-167353000D01*
X66476250Y-167353000D01*
X66635000Y-167194250D01*
X66635000Y-166853690D01*
X66538327Y-166620301D01*
X66359698Y-166441673D01*
X66126309Y-166345000D01*
X65035750Y-166345000D01*
X64877000Y-166503750D01*
X64623000Y-166503750D01*
X64464250Y-166345000D01*
X63373691Y-166345000D01*
X63140302Y-166441673D01*
X62961673Y-166620301D01*
X62865000Y-166853690D01*
X57385000Y-166853690D01*
X57288327Y-166620301D01*
X57109698Y-166441673D01*
X56876309Y-166345000D01*
X55785750Y-166345000D01*
X55627000Y-166503750D01*
X55373000Y-166503750D01*
X55214250Y-166345000D01*
X54123691Y-166345000D01*
X53890302Y-166441673D01*
X53711673Y-166620301D01*
X53615000Y-166853690D01*
X51460000Y-166853690D01*
X51460000Y-160625050D01*
X53615000Y-160625050D01*
X53615000Y-161374950D01*
X53901974Y-162067767D01*
X54432233Y-162598026D01*
X55125050Y-162885000D01*
X55874950Y-162885000D01*
X56567767Y-162598026D01*
X57098026Y-162067767D01*
X57385000Y-161374950D01*
X57385000Y-160625050D01*
X57098026Y-159932233D01*
X56567767Y-159401974D01*
X55874950Y-159115000D01*
X55125050Y-159115000D01*
X54432233Y-159401974D01*
X53901974Y-159932233D01*
X53615000Y-160625050D01*
X51460000Y-160625050D01*
X51460000Y-153015750D01*
X53615000Y-153015750D01*
X53615000Y-153356310D01*
X53711673Y-153589699D01*
X53890302Y-153768327D01*
X54123691Y-153865000D01*
X55214250Y-153865000D01*
X55373000Y-153706250D01*
X55373000Y-152857000D01*
X55627000Y-152857000D01*
X55627000Y-153706250D01*
X55785750Y-153865000D01*
X56876309Y-153865000D01*
X57109698Y-153768327D01*
X57288327Y-153589699D01*
X57385000Y-153356310D01*
X57385000Y-153015750D01*
X57226250Y-152857000D01*
X55627000Y-152857000D01*
X55373000Y-152857000D01*
X53773750Y-152857000D01*
X53615000Y-153015750D01*
X51460000Y-153015750D01*
X51460000Y-152103690D01*
X53615000Y-152103690D01*
X53615000Y-152444250D01*
X53773750Y-152603000D01*
X55373000Y-152603000D01*
X55373000Y-151753750D01*
X55627000Y-151753750D01*
X55627000Y-152603000D01*
X57226250Y-152603000D01*
X57385000Y-152444250D01*
X57385000Y-152103690D01*
X57288327Y-151870301D01*
X57109698Y-151691673D01*
X56876309Y-151595000D01*
X55785750Y-151595000D01*
X55627000Y-151753750D01*
X55373000Y-151753750D01*
X55214250Y-151595000D01*
X54123691Y-151595000D01*
X53890302Y-151691673D01*
X53711673Y-151870301D01*
X53615000Y-152103690D01*
X51460000Y-152103690D01*
X51460000Y-149364802D01*
X52209673Y-150114476D01*
X52252071Y-150177929D01*
X52315524Y-150220327D01*
X52315526Y-150220329D01*
X52440902Y-150304102D01*
X52503463Y-150345904D01*
X52725148Y-150390000D01*
X52725152Y-150390000D01*
X52799999Y-150404888D01*
X52874846Y-150390000D01*
X53660018Y-150390000D01*
X53792191Y-150587809D01*
X54002235Y-150728157D01*
X54250000Y-150777440D01*
X56750000Y-150777440D01*
X56997765Y-150728157D01*
X57207809Y-150587809D01*
X57348157Y-150377765D01*
X57397440Y-150130000D01*
X57397440Y-149130000D01*
X57348157Y-148882235D01*
X57207809Y-148672191D01*
X56997765Y-148531843D01*
X56750000Y-148482560D01*
X54250000Y-148482560D01*
X54002235Y-148531843D01*
X53792191Y-148672191D01*
X53660018Y-148870000D01*
X53114803Y-148870000D01*
X52270000Y-148025199D01*
X52270000Y-145875050D01*
X53615000Y-145875050D01*
X53615000Y-146624950D01*
X53901974Y-147317767D01*
X54432233Y-147848026D01*
X55125050Y-148135000D01*
X55874950Y-148135000D01*
X56567767Y-147848026D01*
X57098026Y-147317767D01*
X57385000Y-146624950D01*
X57385000Y-145875050D01*
X57098026Y-145182233D01*
X56567767Y-144651974D01*
X55874950Y-144365000D01*
X55125050Y-144365000D01*
X54432233Y-144651974D01*
X53901974Y-145182233D01*
X53615000Y-145875050D01*
X52270000Y-145875050D01*
X52270000Y-138265750D01*
X53615000Y-138265750D01*
X53615000Y-138606310D01*
X53711673Y-138839699D01*
X53890302Y-139018327D01*
X54123691Y-139115000D01*
X55214250Y-139115000D01*
X55373000Y-138956250D01*
X55373000Y-138107000D01*
X55627000Y-138107000D01*
X55627000Y-138956250D01*
X55785750Y-139115000D01*
X56876309Y-139115000D01*
X57109698Y-139018327D01*
X57288327Y-138839699D01*
X57385000Y-138606310D01*
X57385000Y-138265750D01*
X57226250Y-138107000D01*
X55627000Y-138107000D01*
X55373000Y-138107000D01*
X53773750Y-138107000D01*
X53615000Y-138265750D01*
X52270000Y-138265750D01*
X52270000Y-137353690D01*
X53615000Y-137353690D01*
X53615000Y-137694250D01*
X53773750Y-137853000D01*
X55373000Y-137853000D01*
X55373000Y-137003750D01*
X55627000Y-137003750D01*
X55627000Y-137853000D01*
X57226250Y-137853000D01*
X57385000Y-137694250D01*
X57385000Y-137353690D01*
X57288327Y-137120301D01*
X57109698Y-136941673D01*
X56876309Y-136845000D01*
X55785750Y-136845000D01*
X55627000Y-137003750D01*
X55373000Y-137003750D01*
X55214250Y-136845000D01*
X54123691Y-136845000D01*
X53890302Y-136941673D01*
X53711673Y-137120301D01*
X53615000Y-137353690D01*
X52270000Y-137353690D01*
X52270000Y-134380000D01*
X53602560Y-134380000D01*
X53602560Y-135380000D01*
X53651843Y-135627765D01*
X53792191Y-135837809D01*
X54002235Y-135978157D01*
X54250000Y-136027440D01*
X56750000Y-136027440D01*
X56997765Y-135978157D01*
X57207809Y-135837809D01*
X57348157Y-135627765D01*
X57397440Y-135380000D01*
X57397440Y-134380000D01*
X57348157Y-134132235D01*
X57207809Y-133922191D01*
X56997765Y-133781843D01*
X56750000Y-133732560D01*
X54250000Y-133732560D01*
X54002235Y-133781843D01*
X53792191Y-133922191D01*
X53651843Y-134132235D01*
X53602560Y-134380000D01*
X52270000Y-134380000D01*
X52270000Y-131125050D01*
X53615000Y-131125050D01*
X53615000Y-131874950D01*
X53901974Y-132567767D01*
X54432233Y-133098026D01*
X55125050Y-133385000D01*
X55874950Y-133385000D01*
X56567767Y-133098026D01*
X57098026Y-132567767D01*
X57385000Y-131874950D01*
X57385000Y-131125050D01*
X57098026Y-130432233D01*
X56567767Y-129901974D01*
X55874950Y-129615000D01*
X55125050Y-129615000D01*
X54432233Y-129901974D01*
X53901974Y-130432233D01*
X53615000Y-131125050D01*
X52270000Y-131125050D01*
X52270000Y-104163155D01*
X52572870Y-104894349D01*
X53215651Y-105537130D01*
X54055485Y-105885000D01*
X54964515Y-105885000D01*
X55804349Y-105537130D01*
X56280001Y-105061478D01*
X56280001Y-110145197D01*
X55015530Y-111409669D01*
X54952071Y-111452071D01*
X54784096Y-111703464D01*
X54740000Y-111925149D01*
X54740000Y-111925153D01*
X54725112Y-112000000D01*
X54740000Y-112074847D01*
X54740001Y-125432560D01*
X54250000Y-125432560D01*
X54002235Y-125481843D01*
X53792191Y-125622191D01*
X53651843Y-125832235D01*
X53602560Y-126080000D01*
X53602560Y-127080000D01*
X53651843Y-127327765D01*
X53792191Y-127537809D01*
X54002235Y-127678157D01*
X54250000Y-127727440D01*
X56750000Y-127727440D01*
X56997765Y-127678157D01*
X57207809Y-127537809D01*
X57348157Y-127327765D01*
X57397440Y-127080000D01*
X57397440Y-126080000D01*
X57348157Y-125832235D01*
X57207809Y-125622191D01*
X56997765Y-125481843D01*
X56750000Y-125432560D01*
X56260000Y-125432560D01*
X56260000Y-112314801D01*
X57460000Y-111114802D01*
X57460001Y-140570000D01*
X57339982Y-140570000D01*
X57207809Y-140372191D01*
X56997765Y-140231843D01*
X56750000Y-140182560D01*
X54250000Y-140182560D01*
X54002235Y-140231843D01*
X53792191Y-140372191D01*
X53651843Y-140582235D01*
X53602560Y-140830000D01*
X53602560Y-141830000D01*
X53651843Y-142077765D01*
X53792191Y-142287809D01*
X54002235Y-142428157D01*
X54250000Y-142477440D01*
X56750000Y-142477440D01*
X56997765Y-142428157D01*
X57207809Y-142287809D01*
X57339982Y-142090000D01*
X57925153Y-142090000D01*
X58000000Y-142104888D01*
X58074847Y-142090000D01*
X58074852Y-142090000D01*
X58296537Y-142045904D01*
X58547929Y-141877929D01*
X58590331Y-141814470D01*
X58704470Y-141700331D01*
X58767929Y-141657929D01*
X58889991Y-141475251D01*
X58889991Y-153585206D01*
X57265968Y-155209231D01*
X57207809Y-155122191D01*
X56997765Y-154981843D01*
X56750000Y-154932560D01*
X54250000Y-154932560D01*
X54002235Y-154981843D01*
X53792191Y-155122191D01*
X53651843Y-155332235D01*
X53602560Y-155580000D01*
X53602560Y-156580000D01*
X53651843Y-156827765D01*
X53792191Y-157037809D01*
X54002235Y-157178157D01*
X54250000Y-157227440D01*
X56750000Y-157227440D01*
X56997765Y-157178157D01*
X57207809Y-157037809D01*
X57339982Y-156840000D01*
X57395153Y-156840000D01*
X57470000Y-156854888D01*
X57544847Y-156840000D01*
X57544852Y-156840000D01*
X57766537Y-156795904D01*
X58017929Y-156627929D01*
X58060331Y-156564470D01*
X59340001Y-155284801D01*
X59340001Y-162915197D01*
X58635199Y-163620000D01*
X57339982Y-163620000D01*
X57207809Y-163422191D01*
X56997765Y-163281843D01*
X56750000Y-163232560D01*
X54250000Y-163232560D01*
X54002235Y-163281843D01*
X53792191Y-163422191D01*
X53651843Y-163632235D01*
X53602560Y-163880000D01*
X53602560Y-164880000D01*
X53651843Y-165127765D01*
X53792191Y-165337809D01*
X54002235Y-165478157D01*
X54250000Y-165527440D01*
X56750000Y-165527440D01*
X56997765Y-165478157D01*
X57207809Y-165337809D01*
X57339982Y-165140000D01*
X58875153Y-165140000D01*
X58950000Y-165154888D01*
X59024847Y-165140000D01*
X59024852Y-165140000D01*
X59246537Y-165095904D01*
X59497929Y-164927929D01*
X59540331Y-164864470D01*
X60584473Y-163820329D01*
X60647929Y-163777929D01*
X60815904Y-163526537D01*
X60860000Y-163304852D01*
X60860000Y-163304848D01*
X60874888Y-163230000D01*
X60860000Y-163155152D01*
X60860000Y-160625050D01*
X62865000Y-160625050D01*
X62865000Y-161374950D01*
X63151974Y-162067767D01*
X63682233Y-162598026D01*
X64375050Y-162885000D01*
X65124950Y-162885000D01*
X65817767Y-162598026D01*
X66348026Y-162067767D01*
X66635000Y-161374950D01*
X66635000Y-160625050D01*
X66348026Y-159932233D01*
X65817767Y-159401974D01*
X65124950Y-159115000D01*
X64375050Y-159115000D01*
X63682233Y-159401974D01*
X63151974Y-159932233D01*
X62865000Y-160625050D01*
X60860000Y-160625050D01*
X60860000Y-155580000D01*
X62852560Y-155580000D01*
X62852560Y-156580000D01*
X62901843Y-156827765D01*
X63042191Y-157037809D01*
X63252235Y-157178157D01*
X63500000Y-157227440D01*
X66000000Y-157227440D01*
X66247765Y-157178157D01*
X66457809Y-157037809D01*
X66598157Y-156827765D01*
X66647440Y-156580000D01*
X66647440Y-155580000D01*
X66598157Y-155332235D01*
X66457809Y-155122191D01*
X66247765Y-154981843D01*
X66000000Y-154932560D01*
X63500000Y-154932560D01*
X63252235Y-154981843D01*
X63042191Y-155122191D01*
X62901843Y-155332235D01*
X62852560Y-155580000D01*
X60860000Y-155580000D01*
X60860000Y-153015750D01*
X62865000Y-153015750D01*
X62865000Y-153356310D01*
X62961673Y-153589699D01*
X63140302Y-153768327D01*
X63373691Y-153865000D01*
X64464250Y-153865000D01*
X64623000Y-153706250D01*
X64623000Y-152857000D01*
X64877000Y-152857000D01*
X64877000Y-153706250D01*
X65035750Y-153865000D01*
X66126309Y-153865000D01*
X66359698Y-153768327D01*
X66538327Y-153589699D01*
X66635000Y-153356310D01*
X66635000Y-153015750D01*
X66476250Y-152857000D01*
X64877000Y-152857000D01*
X64623000Y-152857000D01*
X63023750Y-152857000D01*
X62865000Y-153015750D01*
X60860000Y-153015750D01*
X60860000Y-152103690D01*
X62865000Y-152103690D01*
X62865000Y-152444250D01*
X63023750Y-152603000D01*
X64623000Y-152603000D01*
X64623000Y-151753750D01*
X64877000Y-151753750D01*
X64877000Y-152603000D01*
X66476250Y-152603000D01*
X66635000Y-152444250D01*
X66635000Y-152103690D01*
X66538327Y-151870301D01*
X66359698Y-151691673D01*
X66126309Y-151595000D01*
X65035750Y-151595000D01*
X64877000Y-151753750D01*
X64623000Y-151753750D01*
X64464250Y-151595000D01*
X63373691Y-151595000D01*
X63140302Y-151691673D01*
X62961673Y-151870301D01*
X62865000Y-152103690D01*
X60860000Y-152103690D01*
X60860000Y-149130000D01*
X62852560Y-149130000D01*
X62852560Y-150130000D01*
X62901843Y-150377765D01*
X63042191Y-150587809D01*
X63252235Y-150728157D01*
X63500000Y-150777440D01*
X66000000Y-150777440D01*
X66247765Y-150728157D01*
X66457809Y-150587809D01*
X66598157Y-150377765D01*
X66647440Y-150130000D01*
X66647440Y-149130000D01*
X66598157Y-148882235D01*
X66457809Y-148672191D01*
X66247765Y-148531843D01*
X66000000Y-148482560D01*
X63500000Y-148482560D01*
X63252235Y-148531843D01*
X63042191Y-148672191D01*
X62901843Y-148882235D01*
X62852560Y-149130000D01*
X60860000Y-149130000D01*
X60860000Y-145875050D01*
X62865000Y-145875050D01*
X62865000Y-146624950D01*
X63151974Y-147317767D01*
X63682233Y-147848026D01*
X64375050Y-148135000D01*
X65124950Y-148135000D01*
X65817767Y-147848026D01*
X66348026Y-147317767D01*
X66635000Y-146624950D01*
X66635000Y-145875050D01*
X66348026Y-145182233D01*
X65817767Y-144651974D01*
X65124950Y-144365000D01*
X64375050Y-144365000D01*
X63682233Y-144651974D01*
X63151974Y-145182233D01*
X62865000Y-145875050D01*
X60860000Y-145875050D01*
X60860000Y-140830000D01*
X62852560Y-140830000D01*
X62852560Y-141830000D01*
X62901843Y-142077765D01*
X63042191Y-142287809D01*
X63252235Y-142428157D01*
X63500000Y-142477440D01*
X66000000Y-142477440D01*
X66247765Y-142428157D01*
X66457809Y-142287809D01*
X66598157Y-142077765D01*
X66647440Y-141830000D01*
X66647440Y-140830000D01*
X66598157Y-140582235D01*
X66457809Y-140372191D01*
X66247765Y-140231843D01*
X66000000Y-140182560D01*
X63500000Y-140182560D01*
X63252235Y-140231843D01*
X63042191Y-140372191D01*
X62901843Y-140582235D01*
X62852560Y-140830000D01*
X60860000Y-140830000D01*
X60860000Y-106594801D01*
X64095000Y-103359801D01*
X64095000Y-104054515D01*
G36*
X61266202Y-72681003D02*
X61215000Y-72804615D01*
X61215000Y-73020198D01*
X57210331Y-69015530D01*
X57167929Y-68952071D01*
X56916537Y-68784096D01*
X56694852Y-68740000D01*
X56694847Y-68740000D01*
X56620000Y-68725112D01*
X56545153Y-68740000D01*
X56497440Y-68740000D01*
X56497440Y-68650000D01*
X56448157Y-68402235D01*
X56307809Y-68192191D01*
X56097765Y-68051843D01*
X55850000Y-68002560D01*
X54150000Y-68002560D01*
X53902235Y-68051843D01*
X53692191Y-68192191D01*
X53551843Y-68402235D01*
X53502560Y-68650000D01*
X53502560Y-70350000D01*
X53551843Y-70597765D01*
X53692191Y-70807809D01*
X53902235Y-70948157D01*
X54005708Y-70968739D01*
X53728355Y-71273076D01*
X53558524Y-71683110D01*
X53679845Y-71913000D01*
X54873000Y-71913000D01*
X54873000Y-71893000D01*
X55127000Y-71893000D01*
X55127000Y-71913000D01*
X56320155Y-71913000D01*
X56441476Y-71683110D01*
X56271645Y-71273076D01*
X55994292Y-70968739D01*
X56097765Y-70948157D01*
X56307809Y-70807809D01*
X56448157Y-70597765D01*
X56480477Y-70435278D01*
X61266202Y-75221003D01*
X61215000Y-75344615D01*
X61215000Y-75935385D01*
X61441078Y-76481185D01*
X61858815Y-76898922D01*
X61905247Y-76918155D01*
X61835647Y-77136042D01*
X62700000Y-78000395D01*
X63564353Y-77136042D01*
X63494753Y-76918155D01*
X63541185Y-76898922D01*
X63958922Y-76481185D01*
X63970000Y-76454440D01*
X63981078Y-76481185D01*
X64398815Y-76898922D01*
X64445247Y-76918155D01*
X64375647Y-77136042D01*
X65240000Y-78000395D01*
X66104353Y-77136042D01*
X66034753Y-76918155D01*
X66081185Y-76898922D01*
X66498922Y-76481185D01*
X66725000Y-75935385D01*
X66725000Y-75344615D01*
X66498922Y-74798815D01*
X66081185Y-74381078D01*
X66054440Y-74370000D01*
X66081185Y-74358922D01*
X66498922Y-73941185D01*
X66725000Y-73395385D01*
X66725000Y-72804615D01*
X66498922Y-72258815D01*
X66081185Y-71841078D01*
X66054440Y-71830000D01*
X66081185Y-71818922D01*
X66498922Y-71401185D01*
X66553261Y-71270000D01*
X67145199Y-71270000D01*
X67270000Y-71394802D01*
X67270001Y-98035197D01*
X60409990Y-104895209D01*
X60409990Y-104064811D01*
X62834473Y-101640329D01*
X62897929Y-101597929D01*
X63027867Y-101403464D01*
X63065904Y-101346538D01*
X63075480Y-101298395D01*
X63110000Y-101124852D01*
X63110000Y-101124848D01*
X63124888Y-101050000D01*
X63110000Y-100975152D01*
X63110000Y-98538593D01*
X63415171Y-98647201D01*
X63965448Y-98619230D01*
X64343923Y-98462460D01*
X64411912Y-98221517D01*
X63620000Y-97429605D01*
X63605858Y-97443748D01*
X63426253Y-97264143D01*
X63440395Y-97250000D01*
X63799605Y-97250000D01*
X64591517Y-98041912D01*
X64832460Y-97973923D01*
X65017201Y-97454829D01*
X64989230Y-96904552D01*
X64832460Y-96526077D01*
X64591517Y-96458088D01*
X63799605Y-97250000D01*
X63440395Y-97250000D01*
X63426253Y-97235858D01*
X63605858Y-97056253D01*
X63620000Y-97070395D01*
X64411912Y-96278483D01*
X64343923Y-96037540D01*
X63824829Y-95852799D01*
X63274552Y-95880770D01*
X63110000Y-95948930D01*
X63110000Y-95894312D01*
X63134540Y-95884147D01*
X63524147Y-95494540D01*
X63620000Y-95263130D01*
X63715853Y-95494540D01*
X64105460Y-95884147D01*
X64614506Y-96095000D01*
X65165494Y-96095000D01*
X65674540Y-95884147D01*
X66064147Y-95494540D01*
X66275000Y-94985494D01*
X66275000Y-94434506D01*
X66064147Y-93925460D01*
X65674540Y-93535853D01*
X65165494Y-93325000D01*
X64614506Y-93325000D01*
X64589967Y-93335164D01*
X59809990Y-88555189D01*
X59809990Y-83924791D01*
X61202560Y-85317362D01*
X61202560Y-86650000D01*
X61251843Y-86897765D01*
X61392191Y-87107809D01*
X61602235Y-87248157D01*
X61850000Y-87297440D01*
X63550000Y-87297440D01*
X63797765Y-87248157D01*
X64007809Y-87107809D01*
X64148157Y-86897765D01*
X64163006Y-86823113D01*
X64398815Y-87058922D01*
X64944615Y-87285000D01*
X65535385Y-87285000D01*
X66081185Y-87058922D01*
X66498922Y-86641185D01*
X66725000Y-86095385D01*
X66725000Y-85504615D01*
X66498922Y-84958815D01*
X66081185Y-84541078D01*
X66034753Y-84521845D01*
X66104353Y-84303958D01*
X65240000Y-83439605D01*
X64375647Y-84303958D01*
X64445247Y-84521845D01*
X64398815Y-84541078D01*
X64163006Y-84776887D01*
X64148157Y-84702235D01*
X64007809Y-84492191D01*
X63797765Y-84351843D01*
X63563915Y-84305328D01*
X63564353Y-84303958D01*
X62700000Y-83439605D01*
X62685858Y-83453748D01*
X62506253Y-83274143D01*
X62520395Y-83260000D01*
X62879605Y-83260000D01*
X63743958Y-84124353D01*
X63970000Y-84052148D01*
X64196042Y-84124353D01*
X65060395Y-83260000D01*
X65419605Y-83260000D01*
X66283958Y-84124353D01*
X66535259Y-84044080D01*
X66736718Y-83488721D01*
X66710315Y-82898542D01*
X66535259Y-82475920D01*
X66283958Y-82395647D01*
X65419605Y-83260000D01*
X65060395Y-83260000D01*
X64196042Y-82395647D01*
X63970000Y-82467852D01*
X63743958Y-82395647D01*
X62879605Y-83260000D01*
X62520395Y-83260000D01*
X61656042Y-82395647D01*
X61404741Y-82475920D01*
X61203282Y-83031279D01*
X61209707Y-83174906D01*
X60260000Y-82225199D01*
X60260000Y-81763958D01*
X61835647Y-81763958D01*
X61907852Y-81990000D01*
X61835647Y-82216042D01*
X62700000Y-83080395D01*
X63564353Y-82216042D01*
X63492148Y-81990000D01*
X63564353Y-81763958D01*
X64375647Y-81763958D01*
X64447852Y-81990000D01*
X64375647Y-82216042D01*
X65240000Y-83080395D01*
X66104353Y-82216042D01*
X66032148Y-81990000D01*
X66104353Y-81763958D01*
X65240000Y-80899605D01*
X64375647Y-81763958D01*
X63564353Y-81763958D01*
X62700000Y-80899605D01*
X61835647Y-81763958D01*
X60260000Y-81763958D01*
X60260000Y-80491279D01*
X61203282Y-80491279D01*
X61229685Y-81081458D01*
X61404741Y-81504080D01*
X61656042Y-81584353D01*
X62520395Y-80720000D01*
X62879605Y-80720000D01*
X63743958Y-81584353D01*
X63970000Y-81512148D01*
X64196042Y-81584353D01*
X65060395Y-80720000D01*
X65419605Y-80720000D01*
X66283958Y-81584353D01*
X66535259Y-81504080D01*
X66736718Y-80948721D01*
X66710315Y-80358542D01*
X66535259Y-79935920D01*
X66283958Y-79855647D01*
X65419605Y-80720000D01*
X65060395Y-80720000D01*
X64196042Y-79855647D01*
X63970000Y-79927852D01*
X63743958Y-79855647D01*
X62879605Y-80720000D01*
X62520395Y-80720000D01*
X61656042Y-79855647D01*
X61404741Y-79935920D01*
X61203282Y-80491279D01*
X60260000Y-80491279D01*
X60260000Y-79223958D01*
X61835647Y-79223958D01*
X61907852Y-79450000D01*
X61835647Y-79676042D01*
X62700000Y-80540395D01*
X63564353Y-79676042D01*
X63492148Y-79450000D01*
X63564353Y-79223958D01*
X64375647Y-79223958D01*
X64447852Y-79450000D01*
X64375647Y-79676042D01*
X65240000Y-80540395D01*
X66104353Y-79676042D01*
X66032148Y-79450000D01*
X66104353Y-79223958D01*
X65240000Y-78359605D01*
X64375647Y-79223958D01*
X63564353Y-79223958D01*
X62700000Y-78359605D01*
X61835647Y-79223958D01*
X60260000Y-79223958D01*
X60260000Y-79154846D01*
X60274888Y-79079999D01*
X60260000Y-79005152D01*
X60260000Y-79005148D01*
X60215904Y-78783463D01*
X60047929Y-78532071D01*
X59984473Y-78489671D01*
X59446081Y-77951279D01*
X61203282Y-77951279D01*
X61229685Y-78541458D01*
X61404741Y-78964080D01*
X61656042Y-79044353D01*
X62520395Y-78180000D01*
X62879605Y-78180000D01*
X63743958Y-79044353D01*
X63970000Y-78972148D01*
X64196042Y-79044353D01*
X65060395Y-78180000D01*
X65419605Y-78180000D01*
X66283958Y-79044353D01*
X66535259Y-78964080D01*
X66736718Y-78408721D01*
X66710315Y-77818542D01*
X66535259Y-77395920D01*
X66283958Y-77315647D01*
X65419605Y-78180000D01*
X65060395Y-78180000D01*
X64196042Y-77315647D01*
X63970000Y-77387852D01*
X63743958Y-77315647D01*
X62879605Y-78180000D01*
X62520395Y-78180000D01*
X61656042Y-77315647D01*
X61404741Y-77395920D01*
X61203282Y-77951279D01*
X59446081Y-77951279D01*
X56441209Y-74946408D01*
X56514092Y-74580000D01*
X56398839Y-74000582D01*
X56070625Y-73509375D01*
X55751522Y-73296157D01*
X55881358Y-73235183D01*
X56271645Y-72806924D01*
X56441476Y-72396890D01*
X56320155Y-72167000D01*
X55127000Y-72167000D01*
X55127000Y-72187000D01*
X54873000Y-72187000D01*
X54873000Y-72167000D01*
X53679845Y-72167000D01*
X53558524Y-72396890D01*
X53728355Y-72806924D01*
X54118642Y-73235183D01*
X54248478Y-73296157D01*
X53929375Y-73509375D01*
X53601161Y-74000582D01*
X53485908Y-74580000D01*
X53601161Y-75159418D01*
X53929375Y-75650625D01*
X54227761Y-75850000D01*
X53929375Y-76049375D01*
X53601161Y-76540582D01*
X53485908Y-77120000D01*
X53601161Y-77699418D01*
X53929375Y-78190625D01*
X54227761Y-78390000D01*
X53929375Y-78589375D01*
X53601161Y-79080582D01*
X53485908Y-79660000D01*
X53601161Y-80239418D01*
X53929375Y-80730625D01*
X54227761Y-80930000D01*
X53929375Y-81129375D01*
X53601161Y-81620582D01*
X53485908Y-82200000D01*
X53601161Y-82779418D01*
X53929375Y-83270625D01*
X54227761Y-83470000D01*
X53929375Y-83669375D01*
X53601161Y-84160582D01*
X53485908Y-84740000D01*
X53601161Y-85319418D01*
X53929375Y-85810625D01*
X54227761Y-86010000D01*
X53929375Y-86209375D01*
X53601161Y-86700582D01*
X53485908Y-87280000D01*
X53601161Y-87859418D01*
X53929375Y-88350625D01*
X54240000Y-88558178D01*
X54240001Y-96175148D01*
X54225112Y-96250000D01*
X54284097Y-96546537D01*
X54388022Y-96702071D01*
X54452072Y-96797929D01*
X54515528Y-96840329D01*
X54602560Y-96927361D01*
X54602560Y-98000000D01*
X54651843Y-98247765D01*
X54792191Y-98457809D01*
X55002235Y-98598157D01*
X55250000Y-98647440D01*
X55351518Y-98647440D01*
X55452072Y-98797929D01*
X55515528Y-98840329D01*
X56280000Y-99604802D01*
X56280000Y-102138521D01*
X55804349Y-101662870D01*
X54964515Y-101315000D01*
X54055485Y-101315000D01*
X53215651Y-101662870D01*
X52572870Y-102305651D01*
X52270000Y-103036845D01*
X52270000Y-67410000D01*
X55995199Y-67410000D01*
X61266202Y-72681003D01*
X61266202Y-72681003D01*
G37*
X61266202Y-72681003D02*
X61215000Y-72804615D01*
X61215000Y-73020198D01*
X57210331Y-69015530D01*
X57167929Y-68952071D01*
X56916537Y-68784096D01*
X56694852Y-68740000D01*
X56694847Y-68740000D01*
X56620000Y-68725112D01*
X56545153Y-68740000D01*
X56497440Y-68740000D01*
X56497440Y-68650000D01*
X56448157Y-68402235D01*
X56307809Y-68192191D01*
X56097765Y-68051843D01*
X55850000Y-68002560D01*
X54150000Y-68002560D01*
X53902235Y-68051843D01*
X53692191Y-68192191D01*
X53551843Y-68402235D01*
X53502560Y-68650000D01*
X53502560Y-70350000D01*
X53551843Y-70597765D01*
X53692191Y-70807809D01*
X53902235Y-70948157D01*
X54005708Y-70968739D01*
X53728355Y-71273076D01*
X53558524Y-71683110D01*
X53679845Y-71913000D01*
X54873000Y-71913000D01*
X54873000Y-71893000D01*
X55127000Y-71893000D01*
X55127000Y-71913000D01*
X56320155Y-71913000D01*
X56441476Y-71683110D01*
X56271645Y-71273076D01*
X55994292Y-70968739D01*
X56097765Y-70948157D01*
X56307809Y-70807809D01*
X56448157Y-70597765D01*
X56480477Y-70435278D01*
X61266202Y-75221003D01*
X61215000Y-75344615D01*
X61215000Y-75935385D01*
X61441078Y-76481185D01*
X61858815Y-76898922D01*
X61905247Y-76918155D01*
X61835647Y-77136042D01*
X62700000Y-78000395D01*
X63564353Y-77136042D01*
X63494753Y-76918155D01*
X63541185Y-76898922D01*
X63958922Y-76481185D01*
X63970000Y-76454440D01*
X63981078Y-76481185D01*
X64398815Y-76898922D01*
X64445247Y-76918155D01*
X64375647Y-77136042D01*
X65240000Y-78000395D01*
X66104353Y-77136042D01*
X66034753Y-76918155D01*
X66081185Y-76898922D01*
X66498922Y-76481185D01*
X66725000Y-75935385D01*
X66725000Y-75344615D01*
X66498922Y-74798815D01*
X66081185Y-74381078D01*
X66054440Y-74370000D01*
X66081185Y-74358922D01*
X66498922Y-73941185D01*
X66725000Y-73395385D01*
X66725000Y-72804615D01*
X66498922Y-72258815D01*
X66081185Y-71841078D01*
X66054440Y-71830000D01*
X66081185Y-71818922D01*
X66498922Y-71401185D01*
X66553261Y-71270000D01*
X67145199Y-71270000D01*
X67270000Y-71394802D01*
X67270001Y-98035197D01*
X60409990Y-104895209D01*
X60409990Y-104064811D01*
X62834473Y-101640329D01*
X62897929Y-101597929D01*
X63027867Y-101403464D01*
X63065904Y-101346538D01*
X63075480Y-101298395D01*
X63110000Y-101124852D01*
X63110000Y-101124848D01*
X63124888Y-101050000D01*
X63110000Y-100975152D01*
X63110000Y-98538593D01*
X63415171Y-98647201D01*
X63965448Y-98619230D01*
X64343923Y-98462460D01*
X64411912Y-98221517D01*
X63620000Y-97429605D01*
X63605858Y-97443748D01*
X63426253Y-97264143D01*
X63440395Y-97250000D01*
X63799605Y-97250000D01*
X64591517Y-98041912D01*
X64832460Y-97973923D01*
X65017201Y-97454829D01*
X64989230Y-96904552D01*
X64832460Y-96526077D01*
X64591517Y-96458088D01*
X63799605Y-97250000D01*
X63440395Y-97250000D01*
X63426253Y-97235858D01*
X63605858Y-97056253D01*
X63620000Y-97070395D01*
X64411912Y-96278483D01*
X64343923Y-96037540D01*
X63824829Y-95852799D01*
X63274552Y-95880770D01*
X63110000Y-95948930D01*
X63110000Y-95894312D01*
X63134540Y-95884147D01*
X63524147Y-95494540D01*
X63620000Y-95263130D01*
X63715853Y-95494540D01*
X64105460Y-95884147D01*
X64614506Y-96095000D01*
X65165494Y-96095000D01*
X65674540Y-95884147D01*
X66064147Y-95494540D01*
X66275000Y-94985494D01*
X66275000Y-94434506D01*
X66064147Y-93925460D01*
X65674540Y-93535853D01*
X65165494Y-93325000D01*
X64614506Y-93325000D01*
X64589967Y-93335164D01*
X59809990Y-88555189D01*
X59809990Y-83924791D01*
X61202560Y-85317362D01*
X61202560Y-86650000D01*
X61251843Y-86897765D01*
X61392191Y-87107809D01*
X61602235Y-87248157D01*
X61850000Y-87297440D01*
X63550000Y-87297440D01*
X63797765Y-87248157D01*
X64007809Y-87107809D01*
X64148157Y-86897765D01*
X64163006Y-86823113D01*
X64398815Y-87058922D01*
X64944615Y-87285000D01*
X65535385Y-87285000D01*
X66081185Y-87058922D01*
X66498922Y-86641185D01*
X66725000Y-86095385D01*
X66725000Y-85504615D01*
X66498922Y-84958815D01*
X66081185Y-84541078D01*
X66034753Y-84521845D01*
X66104353Y-84303958D01*
X65240000Y-83439605D01*
X64375647Y-84303958D01*
X64445247Y-84521845D01*
X64398815Y-84541078D01*
X64163006Y-84776887D01*
X64148157Y-84702235D01*
X64007809Y-84492191D01*
X63797765Y-84351843D01*
X63563915Y-84305328D01*
X63564353Y-84303958D01*
X62700000Y-83439605D01*
X62685858Y-83453748D01*
X62506253Y-83274143D01*
X62520395Y-83260000D01*
X62879605Y-83260000D01*
X63743958Y-84124353D01*
X63970000Y-84052148D01*
X64196042Y-84124353D01*
X65060395Y-83260000D01*
X65419605Y-83260000D01*
X66283958Y-84124353D01*
X66535259Y-84044080D01*
X66736718Y-83488721D01*
X66710315Y-82898542D01*
X66535259Y-82475920D01*
X66283958Y-82395647D01*
X65419605Y-83260000D01*
X65060395Y-83260000D01*
X64196042Y-82395647D01*
X63970000Y-82467852D01*
X63743958Y-82395647D01*
X62879605Y-83260000D01*
X62520395Y-83260000D01*
X61656042Y-82395647D01*
X61404741Y-82475920D01*
X61203282Y-83031279D01*
X61209707Y-83174906D01*
X60260000Y-82225199D01*
X60260000Y-81763958D01*
X61835647Y-81763958D01*
X61907852Y-81990000D01*
X61835647Y-82216042D01*
X62700000Y-83080395D01*
X63564353Y-82216042D01*
X63492148Y-81990000D01*
X63564353Y-81763958D01*
X64375647Y-81763958D01*
X64447852Y-81990000D01*
X64375647Y-82216042D01*
X65240000Y-83080395D01*
X66104353Y-82216042D01*
X66032148Y-81990000D01*
X66104353Y-81763958D01*
X65240000Y-80899605D01*
X64375647Y-81763958D01*
X63564353Y-81763958D01*
X62700000Y-80899605D01*
X61835647Y-81763958D01*
X60260000Y-81763958D01*
X60260000Y-80491279D01*
X61203282Y-80491279D01*
X61229685Y-81081458D01*
X61404741Y-81504080D01*
X61656042Y-81584353D01*
X62520395Y-80720000D01*
X62879605Y-80720000D01*
X63743958Y-81584353D01*
X63970000Y-81512148D01*
X64196042Y-81584353D01*
X65060395Y-80720000D01*
X65419605Y-80720000D01*
X66283958Y-81584353D01*
X66535259Y-81504080D01*
X66736718Y-80948721D01*
X66710315Y-80358542D01*
X66535259Y-79935920D01*
X66283958Y-79855647D01*
X65419605Y-80720000D01*
X65060395Y-80720000D01*
X64196042Y-79855647D01*
X63970000Y-79927852D01*
X63743958Y-79855647D01*
X62879605Y-80720000D01*
X62520395Y-80720000D01*
X61656042Y-79855647D01*
X61404741Y-79935920D01*
X61203282Y-80491279D01*
X60260000Y-80491279D01*
X60260000Y-79223958D01*
X61835647Y-79223958D01*
X61907852Y-79450000D01*
X61835647Y-79676042D01*
X62700000Y-80540395D01*
X63564353Y-79676042D01*
X63492148Y-79450000D01*
X63564353Y-79223958D01*
X64375647Y-79223958D01*
X64447852Y-79450000D01*
X64375647Y-79676042D01*
X65240000Y-80540395D01*
X66104353Y-79676042D01*
X66032148Y-79450000D01*
X66104353Y-79223958D01*
X65240000Y-78359605D01*
X64375647Y-79223958D01*
X63564353Y-79223958D01*
X62700000Y-78359605D01*
X61835647Y-79223958D01*
X60260000Y-79223958D01*
X60260000Y-79154846D01*
X60274888Y-79079999D01*
X60260000Y-79005152D01*
X60260000Y-79005148D01*
X60215904Y-78783463D01*
X60047929Y-78532071D01*
X59984473Y-78489671D01*
X59446081Y-77951279D01*
X61203282Y-77951279D01*
X61229685Y-78541458D01*
X61404741Y-78964080D01*
X61656042Y-79044353D01*
X62520395Y-78180000D01*
X62879605Y-78180000D01*
X63743958Y-79044353D01*
X63970000Y-78972148D01*
X64196042Y-79044353D01*
X65060395Y-78180000D01*
X65419605Y-78180000D01*
X66283958Y-79044353D01*
X66535259Y-78964080D01*
X66736718Y-78408721D01*
X66710315Y-77818542D01*
X66535259Y-77395920D01*
X66283958Y-77315647D01*
X65419605Y-78180000D01*
X65060395Y-78180000D01*
X64196042Y-77315647D01*
X63970000Y-77387852D01*
X63743958Y-77315647D01*
X62879605Y-78180000D01*
X62520395Y-78180000D01*
X61656042Y-77315647D01*
X61404741Y-77395920D01*
X61203282Y-77951279D01*
X59446081Y-77951279D01*
X56441209Y-74946408D01*
X56514092Y-74580000D01*
X56398839Y-74000582D01*
X56070625Y-73509375D01*
X55751522Y-73296157D01*
X55881358Y-73235183D01*
X56271645Y-72806924D01*
X56441476Y-72396890D01*
X56320155Y-72167000D01*
X55127000Y-72167000D01*
X55127000Y-72187000D01*
X54873000Y-72187000D01*
X54873000Y-72167000D01*
X53679845Y-72167000D01*
X53558524Y-72396890D01*
X53728355Y-72806924D01*
X54118642Y-73235183D01*
X54248478Y-73296157D01*
X53929375Y-73509375D01*
X53601161Y-74000582D01*
X53485908Y-74580000D01*
X53601161Y-75159418D01*
X53929375Y-75650625D01*
X54227761Y-75850000D01*
X53929375Y-76049375D01*
X53601161Y-76540582D01*
X53485908Y-77120000D01*
X53601161Y-77699418D01*
X53929375Y-78190625D01*
X54227761Y-78390000D01*
X53929375Y-78589375D01*
X53601161Y-79080582D01*
X53485908Y-79660000D01*
X53601161Y-80239418D01*
X53929375Y-80730625D01*
X54227761Y-80930000D01*
X53929375Y-81129375D01*
X53601161Y-81620582D01*
X53485908Y-82200000D01*
X53601161Y-82779418D01*
X53929375Y-83270625D01*
X54227761Y-83470000D01*
X53929375Y-83669375D01*
X53601161Y-84160582D01*
X53485908Y-84740000D01*
X53601161Y-85319418D01*
X53929375Y-85810625D01*
X54227761Y-86010000D01*
X53929375Y-86209375D01*
X53601161Y-86700582D01*
X53485908Y-87280000D01*
X53601161Y-87859418D01*
X53929375Y-88350625D01*
X54240000Y-88558178D01*
X54240001Y-96175148D01*
X54225112Y-96250000D01*
X54284097Y-96546537D01*
X54388022Y-96702071D01*
X54452072Y-96797929D01*
X54515528Y-96840329D01*
X54602560Y-96927361D01*
X54602560Y-98000000D01*
X54651843Y-98247765D01*
X54792191Y-98457809D01*
X55002235Y-98598157D01*
X55250000Y-98647440D01*
X55351518Y-98647440D01*
X55452072Y-98797929D01*
X55515528Y-98840329D01*
X56280000Y-99604802D01*
X56280000Y-102138521D01*
X55804349Y-101662870D01*
X54964515Y-101315000D01*
X54055485Y-101315000D01*
X53215651Y-101662870D01*
X52572870Y-102305651D01*
X52270000Y-103036845D01*
X52270000Y-67410000D01*
X55995199Y-67410000D01*
X61266202Y-72681003D01*
G04 #@! TD*
M02*
