G04 #@! TF.GenerationSoftware,KiCad,Pcbnew,(5.0.1)-4*
G04 #@! TF.CreationDate,2018-12-03T15:58:59+00:00*
G04 #@! TF.ProjectId,DevBoard,446576426F6172642E6B696361645F70,rev?*
G04 #@! TF.SameCoordinates,Original*
G04 #@! TF.FileFunction,Legend,Bot*
G04 #@! TF.FilePolarity,Positive*
%FSLAX46Y46*%
G04 Gerber Fmt 4.6, Leading zero omitted, Abs format (unit mm)*
G04 Created by KiCad (PCBNEW (5.0.1)-4) date 03/12/2018 15:58:59*
%MOMM*%
%LPD*%
G01*
G04 APERTURE LIST*
%ADD10C,0.300000*%
%ADD11C,0.150000*%
G04 APERTURE END LIST*
D10*
X66842857Y-88507142D02*
X65700000Y-88507142D01*
X64200000Y-89078571D02*
X65057142Y-89078571D01*
X64628571Y-89078571D02*
X64628571Y-87578571D01*
X64771428Y-87792857D01*
X64914285Y-87935714D01*
X65057142Y-88007142D01*
X63628571Y-87721428D02*
X63557142Y-87650000D01*
X63414285Y-87578571D01*
X63057142Y-87578571D01*
X62914285Y-87650000D01*
X62842857Y-87721428D01*
X62771428Y-87864285D01*
X62771428Y-88007142D01*
X62842857Y-88221428D01*
X63700000Y-89078571D01*
X62771428Y-89078571D01*
X62342857Y-87578571D02*
X61842857Y-89078571D01*
X61342857Y-87578571D01*
D11*
G04 #@! TO.C,J6*
X59500000Y-90870000D02*
X68440000Y-90870000D01*
X68440000Y-90870000D02*
X68440000Y-62950000D01*
X68440000Y-62950000D02*
X59500000Y-62950000D01*
X59500000Y-62950000D02*
X59500000Y-90870000D01*
X59500000Y-79045000D02*
X60800000Y-79045000D01*
X60800000Y-79100000D02*
X60800000Y-89670000D01*
X60800000Y-89670000D02*
X67140000Y-89670000D01*
X67140000Y-89670000D02*
X67140000Y-64150000D01*
X67140000Y-64150000D02*
X60800000Y-64150000D01*
X60800000Y-64150000D02*
X60800000Y-74600000D01*
X60800000Y-74595000D02*
X59500000Y-74595000D01*
G04 #@! TD*
M02*
