M48
;DRILL file {KiCad (5.0.1)-4} date 03/12/2018 15:59:02
;FORMAT={-:-/ absolute / inch / decimal}
FMAT,2
INCH,TZ
T1C0.0197
T2C0.0354
T3C0.0394
%
G90
G05
M72
T2
X2.2047Y-3.8287
X2.2547Y-3.7287
X2.3047Y-3.8287
X2.3547Y-3.7287
X2.4047Y-3.8287
X2.4547Y-3.7287
X2.5047Y-3.8287
X2.5547Y-3.7287
T3
X2.4685Y-2.678
X2.4685Y-2.778
X2.4685Y-2.878
X2.4685Y-2.978
X2.4685Y-3.078
X2.4685Y-3.178
X2.4685Y-3.278
X2.4685Y-3.378
X2.5685Y-2.678
X2.5685Y-2.778
X2.5685Y-2.878
X2.5685Y-2.978
X2.5685Y-3.078
X2.5685Y-3.178
X2.5685Y-3.278
X2.5685Y-3.378
X2.1654Y-2.7362
X2.1654Y-2.8362
X2.1654Y-2.9362
X2.1654Y-3.0362
X2.1654Y-3.1362
X2.1654Y-3.2362
X2.1654Y-3.3362
X2.1654Y-3.4362
T1
X2.1654Y-5.5642G85X2.2047Y-5.5642
G05
X2.5295Y-5.5642G85X2.5689Y-5.5642
G05
X2.5295Y-5.8909G85X2.5689Y-5.8909
G05
X2.5295Y-6.013G85X2.5689Y-6.013
G05
X2.1654Y-6.1449G85X2.2047Y-6.1449
G05
X2.1654Y-6.4717G85X2.2047Y-6.4717
G05
X2.1654Y-6.5937G85X2.2047Y-6.5937
G05
X2.1654Y-4.9835G85X2.2047Y-4.9835
G05
X2.1654Y-5.3102G85X2.2047Y-5.3102
G05
X2.1654Y-5.4323G85X2.2047Y-5.4323
G05
X2.5295Y-6.1449G85X2.5689Y-6.1449
G05
X2.5295Y-6.4717G85X2.5689Y-6.4717
G05
X2.5295Y-6.5937G85X2.5689Y-6.5937
G05
X2.1654Y-5.8909G85X2.2047Y-5.8909
G05
X2.1654Y-6.013G85X2.2047Y-6.013
G05
T0
M30
