%TF.GenerationSoftware,KiCad,Pcbnew,7.0.1*%
%TF.CreationDate,2023-03-30T11:01:24+01:00*%
%TF.ProjectId,Base_Controls,42617365-5f43-46f6-9e74-726f6c732e6b,rev?*%
%TF.SameCoordinates,Original*%
%TF.FileFunction,Copper,L2,Bot*%
%TF.FilePolarity,Positive*%
%FSLAX46Y46*%
G04 Gerber Fmt 4.6, Leading zero omitted, Abs format (unit mm)*
G04 Created by KiCad (PCBNEW 7.0.1) date 2023-03-30 11:01:24*
%MOMM*%
%LPD*%
G01*
G04 APERTURE LIST*
%TA.AperFunction,WasherPad*%
%ADD10C,3.650000*%
%TD*%
%TA.AperFunction,ComponentPad*%
%ADD11R,1.500000X1.500000*%
%TD*%
%TA.AperFunction,ComponentPad*%
%ADD12C,1.500000*%
%TD*%
%TA.AperFunction,ComponentPad*%
%ADD13R,2.500000X1.000000*%
%TD*%
%TA.AperFunction,ComponentPad*%
%ADD14R,1.700000X1.700000*%
%TD*%
%TA.AperFunction,ComponentPad*%
%ADD15O,1.700000X1.700000*%
%TD*%
%TA.AperFunction,Conductor*%
%ADD16C,0.400000*%
%TD*%
G04 APERTURE END LIST*
D10*
%TO.P,J1,*%
%TO.N,*%
X53730000Y-73800000D03*
X65160000Y-73800000D03*
D11*
%TO.P,J1,1*%
%TO.N,/Interconnect1*%
X55000000Y-67450000D03*
D12*
%TO.P,J1,2*%
%TO.N,/Interconnect2*%
X56270000Y-64910000D03*
%TO.P,J1,3*%
%TO.N,/Interconnect3*%
X57540000Y-67450000D03*
%TO.P,J1,4*%
%TO.N,/Interconnect4*%
X58810000Y-64910000D03*
%TO.P,J1,5*%
%TO.N,/Interconnect5*%
X60080000Y-67450000D03*
%TO.P,J1,6*%
%TO.N,-12V*%
X61350000Y-64910000D03*
%TO.P,J1,7*%
%TO.N,GND*%
X62620000Y-67450000D03*
%TO.P,J1,8*%
%TO.N,+12V*%
X63890000Y-64910000D03*
%TD*%
D13*
%TO.P,J2,1*%
%TO.N,GND*%
X59400000Y-99380000D03*
%TO.P,J2,2*%
X59400000Y-96280000D03*
%TO.P,J2,3*%
%TO.N,/Interconnect1*%
X59400000Y-87980000D03*
%TD*%
%TO.P,J6,1*%
%TO.N,GND*%
X59400000Y-157980000D03*
%TO.P,J6,2*%
X59400000Y-154880000D03*
%TO.P,J6,3*%
%TO.N,/Interconnect5*%
X59400000Y-146580000D03*
%TD*%
%TO.P,J5,1*%
%TO.N,GND*%
X59400000Y-143280000D03*
%TO.P,J5,2*%
X59400000Y-140180000D03*
%TO.P,J5,3*%
%TO.N,/Interconnect4*%
X59400000Y-131880000D03*
%TD*%
%TO.P,J4,1*%
%TO.N,GND*%
X59400000Y-128680000D03*
%TO.P,J4,2*%
X59400000Y-125580000D03*
%TO.P,J4,3*%
%TO.N,/Interconnect3*%
X59400000Y-117280000D03*
%TD*%
%TO.P,J3,1*%
%TO.N,GND*%
X59400000Y-114080000D03*
%TO.P,J3,2*%
X59400000Y-110980000D03*
%TO.P,J3,3*%
%TO.N,/Interconnect2*%
X59400000Y-102680000D03*
%TD*%
D14*
%TO.P,J7,1,Pin_1*%
%TO.N,-12V*%
X54300000Y-53000000D03*
D15*
%TO.P,J7,2,Pin_2*%
X54300000Y-55540000D03*
%TO.P,J7,3,Pin_3*%
%TO.N,GND*%
X56840000Y-53000000D03*
%TO.P,J7,4,Pin_4*%
X56840000Y-55540000D03*
%TO.P,J7,5,Pin_5*%
X59380000Y-53000000D03*
%TO.P,J7,6,Pin_6*%
X59380000Y-55540000D03*
%TO.P,J7,7,Pin_7*%
X61920000Y-53000000D03*
%TO.P,J7,8,Pin_8*%
X61920000Y-55540000D03*
%TO.P,J7,9,Pin_9*%
%TO.N,+12V*%
X64460000Y-53000000D03*
%TO.P,J7,10,Pin_10*%
X64460000Y-55540000D03*
%TD*%
D16*
%TO.N,/Interconnect3*%
X53700000Y-111780000D02*
X59200000Y-117280000D01*
X53700000Y-110380000D02*
X53700000Y-111780000D01*
X53700000Y-80000000D02*
X57540000Y-76160000D01*
X57540000Y-76160000D02*
X57540000Y-67450000D01*
X53700000Y-110380000D02*
X53700000Y-80000000D01*
%TD*%
%TA.AperFunction,Conductor*%
%TO.N,GND*%
G36*
X68736500Y-50017381D02*
G01*
X68782619Y-50063500D01*
X68799500Y-50126500D01*
X68799500Y-159873500D01*
X68782619Y-159936500D01*
X68736500Y-159982619D01*
X68673500Y-159999500D01*
X50126500Y-159999500D01*
X50063500Y-159982619D01*
X50017381Y-159936500D01*
X50000500Y-159873500D01*
X50000500Y-158234000D01*
X57642000Y-158234000D01*
X57642000Y-158528589D01*
X57648505Y-158589093D01*
X57699554Y-158725962D01*
X57787095Y-158842904D01*
X57904037Y-158930445D01*
X58040906Y-158981494D01*
X58101411Y-158988000D01*
X59146000Y-158988000D01*
X59146000Y-158234000D01*
X59654000Y-158234000D01*
X59654000Y-158988000D01*
X60698589Y-158988000D01*
X60759093Y-158981494D01*
X60895962Y-158930445D01*
X61012904Y-158842904D01*
X61100445Y-158725962D01*
X61151494Y-158589093D01*
X61158000Y-158528589D01*
X61158000Y-158234000D01*
X59654000Y-158234000D01*
X59146000Y-158234000D01*
X57642000Y-158234000D01*
X50000500Y-158234000D01*
X50000500Y-157726000D01*
X57642000Y-157726000D01*
X59146000Y-157726000D01*
X59146000Y-156972000D01*
X59654000Y-156972000D01*
X59654000Y-157726000D01*
X61158000Y-157726000D01*
X61158000Y-157431411D01*
X61151494Y-157370906D01*
X61100445Y-157234037D01*
X61012904Y-157117095D01*
X60895962Y-157029554D01*
X60759093Y-156978505D01*
X60698589Y-156972000D01*
X59654000Y-156972000D01*
X59146000Y-156972000D01*
X58101411Y-156972000D01*
X58040906Y-156978505D01*
X57904037Y-157029554D01*
X57787095Y-157117095D01*
X57699554Y-157234037D01*
X57648505Y-157370906D01*
X57642000Y-157431411D01*
X57642000Y-157726000D01*
X50000500Y-157726000D01*
X50000500Y-155134000D01*
X57642000Y-155134000D01*
X57642000Y-155428589D01*
X57648505Y-155489093D01*
X57699554Y-155625962D01*
X57787095Y-155742904D01*
X57904037Y-155830445D01*
X58040906Y-155881494D01*
X58101411Y-155888000D01*
X59146000Y-155888000D01*
X59146000Y-155134000D01*
X59654000Y-155134000D01*
X59654000Y-155888000D01*
X60698589Y-155888000D01*
X60759093Y-155881494D01*
X60895962Y-155830445D01*
X61012904Y-155742904D01*
X61100445Y-155625962D01*
X61151494Y-155489093D01*
X61158000Y-155428589D01*
X61158000Y-155134000D01*
X59654000Y-155134000D01*
X59146000Y-155134000D01*
X57642000Y-155134000D01*
X50000500Y-155134000D01*
X50000500Y-154626000D01*
X57642000Y-154626000D01*
X59146000Y-154626000D01*
X59146000Y-153872000D01*
X59654000Y-153872000D01*
X59654000Y-154626000D01*
X61158000Y-154626000D01*
X61158000Y-154331411D01*
X61151494Y-154270906D01*
X61100445Y-154134037D01*
X61012904Y-154017095D01*
X60895962Y-153929554D01*
X60759093Y-153878505D01*
X60698589Y-153872000D01*
X59654000Y-153872000D01*
X59146000Y-153872000D01*
X58101411Y-153872000D01*
X58040906Y-153878505D01*
X57904037Y-153929554D01*
X57787095Y-154017095D01*
X57699554Y-154134037D01*
X57648505Y-154270906D01*
X57642000Y-154331411D01*
X57642000Y-154626000D01*
X50000500Y-154626000D01*
X50000500Y-151624335D01*
X57899500Y-151624335D01*
X57940429Y-151869614D01*
X57940430Y-151869616D01*
X58021170Y-152104806D01*
X58139527Y-152323510D01*
X58292262Y-152519744D01*
X58475217Y-152688166D01*
X58683389Y-152824171D01*
X58683391Y-152824172D01*
X58683393Y-152824173D01*
X58911119Y-152924063D01*
X59152179Y-152985108D01*
X59337933Y-153000500D01*
X59462062Y-153000500D01*
X59462067Y-153000500D01*
X59647821Y-152985108D01*
X59888881Y-152924063D01*
X60116607Y-152824173D01*
X60324785Y-152688164D01*
X60507738Y-152519744D01*
X60660474Y-152323509D01*
X60778828Y-152104810D01*
X60859571Y-151869614D01*
X60900500Y-151624335D01*
X60900500Y-151375665D01*
X60859571Y-151130386D01*
X60778828Y-150895190D01*
X60660474Y-150676491D01*
X60507738Y-150480256D01*
X60324785Y-150311836D01*
X60324782Y-150311833D01*
X60116610Y-150175828D01*
X59888876Y-150075935D01*
X59647825Y-150014893D01*
X59647824Y-150014892D01*
X59647821Y-150014892D01*
X59462067Y-149999500D01*
X59337933Y-149999500D01*
X59152179Y-150014892D01*
X59152175Y-150014892D01*
X59152174Y-150014893D01*
X58911123Y-150075935D01*
X58683389Y-150175828D01*
X58475217Y-150311833D01*
X58292262Y-150480255D01*
X58139527Y-150676489D01*
X58021170Y-150895193D01*
X57940430Y-151130383D01*
X57940429Y-151130386D01*
X57899500Y-151375665D01*
X57899500Y-151624335D01*
X50000500Y-151624335D01*
X50000500Y-147128638D01*
X57641500Y-147128638D01*
X57648011Y-147189200D01*
X57699111Y-147326205D01*
X57786738Y-147443261D01*
X57903794Y-147530888D01*
X57903795Y-147530888D01*
X57903796Y-147530889D01*
X58040799Y-147581989D01*
X58101362Y-147588500D01*
X60698638Y-147588500D01*
X60759201Y-147581989D01*
X60896204Y-147530889D01*
X61013261Y-147443261D01*
X61100889Y-147326204D01*
X61151989Y-147189201D01*
X61158500Y-147128638D01*
X61158500Y-146031362D01*
X61151989Y-145970799D01*
X61100889Y-145833796D01*
X61100888Y-145833794D01*
X61013261Y-145716738D01*
X60896205Y-145629111D01*
X60827702Y-145603560D01*
X60759201Y-145578011D01*
X60698638Y-145571500D01*
X58101362Y-145571500D01*
X58040799Y-145578011D01*
X57903794Y-145629111D01*
X57786738Y-145716738D01*
X57699111Y-145833794D01*
X57648011Y-145970799D01*
X57641500Y-146031362D01*
X57641500Y-147128638D01*
X50000500Y-147128638D01*
X50000500Y-143534000D01*
X57642000Y-143534000D01*
X57642000Y-143828589D01*
X57648505Y-143889093D01*
X57699554Y-144025962D01*
X57787095Y-144142904D01*
X57904037Y-144230445D01*
X58040906Y-144281494D01*
X58101411Y-144288000D01*
X59146000Y-144288000D01*
X59146000Y-143534000D01*
X59654000Y-143534000D01*
X59654000Y-144288000D01*
X60698589Y-144288000D01*
X60759093Y-144281494D01*
X60895962Y-144230445D01*
X61012904Y-144142904D01*
X61100445Y-144025962D01*
X61151494Y-143889093D01*
X61158000Y-143828589D01*
X61158000Y-143534000D01*
X59654000Y-143534000D01*
X59146000Y-143534000D01*
X57642000Y-143534000D01*
X50000500Y-143534000D01*
X50000500Y-143026000D01*
X57642000Y-143026000D01*
X59146000Y-143026000D01*
X59146000Y-142272000D01*
X59654000Y-142272000D01*
X59654000Y-143026000D01*
X61158000Y-143026000D01*
X61158000Y-142731411D01*
X61151494Y-142670906D01*
X61100445Y-142534037D01*
X61012904Y-142417095D01*
X60895962Y-142329554D01*
X60759093Y-142278505D01*
X60698589Y-142272000D01*
X59654000Y-142272000D01*
X59146000Y-142272000D01*
X58101411Y-142272000D01*
X58040906Y-142278505D01*
X57904037Y-142329554D01*
X57787095Y-142417095D01*
X57699554Y-142534037D01*
X57648505Y-142670906D01*
X57642000Y-142731411D01*
X57642000Y-143026000D01*
X50000500Y-143026000D01*
X50000500Y-140434000D01*
X57642000Y-140434000D01*
X57642000Y-140728589D01*
X57648505Y-140789093D01*
X57699554Y-140925962D01*
X57787095Y-141042904D01*
X57904037Y-141130445D01*
X58040906Y-141181494D01*
X58101411Y-141188000D01*
X59146000Y-141188000D01*
X59146000Y-140434000D01*
X59654000Y-140434000D01*
X59654000Y-141188000D01*
X60698589Y-141188000D01*
X60759093Y-141181494D01*
X60895962Y-141130445D01*
X61012904Y-141042904D01*
X61100445Y-140925962D01*
X61151494Y-140789093D01*
X61158000Y-140728589D01*
X61158000Y-140434000D01*
X59654000Y-140434000D01*
X59146000Y-140434000D01*
X57642000Y-140434000D01*
X50000500Y-140434000D01*
X50000500Y-139926000D01*
X57642000Y-139926000D01*
X59146000Y-139926000D01*
X59146000Y-139172000D01*
X59654000Y-139172000D01*
X59654000Y-139926000D01*
X61158000Y-139926000D01*
X61158000Y-139631411D01*
X61151494Y-139570906D01*
X61100445Y-139434037D01*
X61012904Y-139317095D01*
X60895962Y-139229554D01*
X60759093Y-139178505D01*
X60698589Y-139172000D01*
X59654000Y-139172000D01*
X59146000Y-139172000D01*
X58101411Y-139172000D01*
X58040906Y-139178505D01*
X57904037Y-139229554D01*
X57787095Y-139317095D01*
X57699554Y-139434037D01*
X57648505Y-139570906D01*
X57642000Y-139631411D01*
X57642000Y-139926000D01*
X50000500Y-139926000D01*
X50000500Y-136924335D01*
X57899500Y-136924335D01*
X57940429Y-137169614D01*
X57940430Y-137169616D01*
X58021170Y-137404806D01*
X58139527Y-137623510D01*
X58292262Y-137819744D01*
X58475217Y-137988166D01*
X58683389Y-138124171D01*
X58683391Y-138124172D01*
X58683393Y-138124173D01*
X58911119Y-138224063D01*
X59152179Y-138285108D01*
X59337933Y-138300500D01*
X59462062Y-138300500D01*
X59462067Y-138300500D01*
X59647821Y-138285108D01*
X59888881Y-138224063D01*
X60116607Y-138124173D01*
X60324785Y-137988164D01*
X60507738Y-137819744D01*
X60660474Y-137623509D01*
X60778828Y-137404810D01*
X60859571Y-137169614D01*
X60900500Y-136924335D01*
X60900500Y-136675665D01*
X60859571Y-136430386D01*
X60778828Y-136195190D01*
X60660474Y-135976491D01*
X60507738Y-135780256D01*
X60324785Y-135611836D01*
X60324782Y-135611833D01*
X60116610Y-135475828D01*
X59888876Y-135375935D01*
X59647825Y-135314893D01*
X59647824Y-135314892D01*
X59647821Y-135314892D01*
X59462067Y-135299500D01*
X59337933Y-135299500D01*
X59152179Y-135314892D01*
X59152175Y-135314892D01*
X59152174Y-135314893D01*
X58911123Y-135375935D01*
X58683389Y-135475828D01*
X58475217Y-135611833D01*
X58292262Y-135780255D01*
X58139527Y-135976489D01*
X58021170Y-136195193D01*
X57940430Y-136430383D01*
X57940429Y-136430386D01*
X57899500Y-136675665D01*
X57899500Y-136924335D01*
X50000500Y-136924335D01*
X50000500Y-132428638D01*
X57641500Y-132428638D01*
X57648011Y-132489200D01*
X57699111Y-132626205D01*
X57786738Y-132743261D01*
X57903794Y-132830888D01*
X57903795Y-132830888D01*
X57903796Y-132830889D01*
X58040799Y-132881989D01*
X58101362Y-132888500D01*
X60698638Y-132888500D01*
X60759201Y-132881989D01*
X60896204Y-132830889D01*
X61013261Y-132743261D01*
X61100889Y-132626204D01*
X61151989Y-132489201D01*
X61158500Y-132428638D01*
X61158500Y-131331362D01*
X61151989Y-131270799D01*
X61100889Y-131133796D01*
X61100888Y-131133794D01*
X61013261Y-131016738D01*
X60896205Y-130929111D01*
X60827702Y-130903560D01*
X60759201Y-130878011D01*
X60698638Y-130871500D01*
X58101362Y-130871500D01*
X58040799Y-130878011D01*
X57903794Y-130929111D01*
X57786738Y-131016738D01*
X57699111Y-131133794D01*
X57648011Y-131270799D01*
X57641500Y-131331362D01*
X57641500Y-132428638D01*
X50000500Y-132428638D01*
X50000500Y-128934000D01*
X57642000Y-128934000D01*
X57642000Y-129228589D01*
X57648505Y-129289093D01*
X57699554Y-129425962D01*
X57787095Y-129542904D01*
X57904037Y-129630445D01*
X58040906Y-129681494D01*
X58101411Y-129688000D01*
X59146000Y-129688000D01*
X59146000Y-128934000D01*
X59654000Y-128934000D01*
X59654000Y-129688000D01*
X60698589Y-129688000D01*
X60759093Y-129681494D01*
X60895962Y-129630445D01*
X61012904Y-129542904D01*
X61100445Y-129425962D01*
X61151494Y-129289093D01*
X61158000Y-129228589D01*
X61158000Y-128934000D01*
X59654000Y-128934000D01*
X59146000Y-128934000D01*
X57642000Y-128934000D01*
X50000500Y-128934000D01*
X50000500Y-128426000D01*
X57642000Y-128426000D01*
X59146000Y-128426000D01*
X59146000Y-127672000D01*
X59654000Y-127672000D01*
X59654000Y-128426000D01*
X61158000Y-128426000D01*
X61158000Y-128131411D01*
X61151494Y-128070906D01*
X61100445Y-127934037D01*
X61012904Y-127817095D01*
X60895962Y-127729554D01*
X60759093Y-127678505D01*
X60698589Y-127672000D01*
X59654000Y-127672000D01*
X59146000Y-127672000D01*
X58101411Y-127672000D01*
X58040906Y-127678505D01*
X57904037Y-127729554D01*
X57787095Y-127817095D01*
X57699554Y-127934037D01*
X57648505Y-128070906D01*
X57642000Y-128131411D01*
X57642000Y-128426000D01*
X50000500Y-128426000D01*
X50000500Y-125834000D01*
X57642000Y-125834000D01*
X57642000Y-126128589D01*
X57648505Y-126189093D01*
X57699554Y-126325962D01*
X57787095Y-126442904D01*
X57904037Y-126530445D01*
X58040906Y-126581494D01*
X58101411Y-126588000D01*
X59146000Y-126588000D01*
X59146000Y-125834000D01*
X59654000Y-125834000D01*
X59654000Y-126588000D01*
X60698589Y-126588000D01*
X60759093Y-126581494D01*
X60895962Y-126530445D01*
X61012904Y-126442904D01*
X61100445Y-126325962D01*
X61151494Y-126189093D01*
X61158000Y-126128589D01*
X61158000Y-125834000D01*
X59654000Y-125834000D01*
X59146000Y-125834000D01*
X57642000Y-125834000D01*
X50000500Y-125834000D01*
X50000500Y-125326000D01*
X57642000Y-125326000D01*
X59146000Y-125326000D01*
X59146000Y-124572000D01*
X59654000Y-124572000D01*
X59654000Y-125326000D01*
X61158000Y-125326000D01*
X61158000Y-125031411D01*
X61151494Y-124970906D01*
X61100445Y-124834037D01*
X61012904Y-124717095D01*
X60895962Y-124629554D01*
X60759093Y-124578505D01*
X60698589Y-124572000D01*
X59654000Y-124572000D01*
X59146000Y-124572000D01*
X58101411Y-124572000D01*
X58040906Y-124578505D01*
X57904037Y-124629554D01*
X57787095Y-124717095D01*
X57699554Y-124834037D01*
X57648505Y-124970906D01*
X57642000Y-125031411D01*
X57642000Y-125326000D01*
X50000500Y-125326000D01*
X50000500Y-122324335D01*
X57899500Y-122324335D01*
X57940429Y-122569614D01*
X57940430Y-122569616D01*
X58021170Y-122804806D01*
X58139527Y-123023510D01*
X58292262Y-123219744D01*
X58475217Y-123388166D01*
X58683389Y-123524171D01*
X58683391Y-123524172D01*
X58683393Y-123524173D01*
X58911119Y-123624063D01*
X59152179Y-123685108D01*
X59337933Y-123700500D01*
X59462062Y-123700500D01*
X59462067Y-123700500D01*
X59647821Y-123685108D01*
X59888881Y-123624063D01*
X60116607Y-123524173D01*
X60324785Y-123388164D01*
X60507738Y-123219744D01*
X60660474Y-123023509D01*
X60778828Y-122804810D01*
X60859571Y-122569614D01*
X60900500Y-122324335D01*
X60900500Y-122075665D01*
X60859571Y-121830386D01*
X60778828Y-121595190D01*
X60660474Y-121376491D01*
X60507738Y-121180256D01*
X60324785Y-121011836D01*
X60324782Y-121011833D01*
X60116610Y-120875828D01*
X59888876Y-120775935D01*
X59647825Y-120714893D01*
X59647824Y-120714892D01*
X59647821Y-120714892D01*
X59462067Y-120699500D01*
X59337933Y-120699500D01*
X59152179Y-120714892D01*
X59152175Y-120714892D01*
X59152174Y-120714893D01*
X58911123Y-120775935D01*
X58683389Y-120875828D01*
X58475217Y-121011833D01*
X58292262Y-121180255D01*
X58139527Y-121376489D01*
X58021170Y-121595193D01*
X57940430Y-121830383D01*
X57940429Y-121830386D01*
X57899500Y-122075665D01*
X57899500Y-122324335D01*
X50000500Y-122324335D01*
X50000500Y-111823093D01*
X52987597Y-111823093D01*
X52998559Y-111882910D01*
X52999704Y-111890432D01*
X53007035Y-111950801D01*
X53010649Y-111960332D01*
X53016770Y-111982289D01*
X53018610Y-111992329D01*
X53043572Y-112047794D01*
X53046483Y-112054822D01*
X53068045Y-112111673D01*
X53073839Y-112120068D01*
X53085036Y-112139922D01*
X53089223Y-112149224D01*
X53126725Y-112197092D01*
X53131235Y-112203220D01*
X53165785Y-112253273D01*
X53211316Y-112293610D01*
X53216857Y-112298827D01*
X57604595Y-116686565D01*
X57631909Y-116727442D01*
X57641500Y-116775660D01*
X57641500Y-117828638D01*
X57648011Y-117889200D01*
X57699111Y-118026205D01*
X57786738Y-118143261D01*
X57903794Y-118230888D01*
X57903795Y-118230888D01*
X57903796Y-118230889D01*
X58040799Y-118281989D01*
X58101362Y-118288500D01*
X60698638Y-118288500D01*
X60759201Y-118281989D01*
X60896204Y-118230889D01*
X61013261Y-118143261D01*
X61100889Y-118026204D01*
X61151989Y-117889201D01*
X61158500Y-117828638D01*
X61158500Y-116731362D01*
X61151989Y-116670799D01*
X61100889Y-116533796D01*
X61100888Y-116533794D01*
X61013261Y-116416738D01*
X60896205Y-116329111D01*
X60827702Y-116303560D01*
X60759201Y-116278011D01*
X60698638Y-116271500D01*
X59245660Y-116271500D01*
X59197442Y-116261909D01*
X59156565Y-116234595D01*
X58225065Y-115303095D01*
X58194327Y-115252936D01*
X58189711Y-115194289D01*
X58212224Y-115139939D01*
X58256957Y-115101733D01*
X58314160Y-115088000D01*
X59146000Y-115088000D01*
X59146000Y-114334000D01*
X59654000Y-114334000D01*
X59654000Y-115088000D01*
X60698589Y-115088000D01*
X60759093Y-115081494D01*
X60895962Y-115030445D01*
X61012904Y-114942904D01*
X61100445Y-114825962D01*
X61151494Y-114689093D01*
X61158000Y-114628589D01*
X61158000Y-114334000D01*
X59654000Y-114334000D01*
X59146000Y-114334000D01*
X57642000Y-114334000D01*
X57642000Y-114415840D01*
X57628267Y-114473043D01*
X57590061Y-114517776D01*
X57535711Y-114540289D01*
X57477064Y-114535673D01*
X57426905Y-114504935D01*
X56747970Y-113826000D01*
X57642000Y-113826000D01*
X59146000Y-113826000D01*
X59146000Y-113072000D01*
X59654000Y-113072000D01*
X59654000Y-113826000D01*
X61158000Y-113826000D01*
X61158000Y-113531411D01*
X61151494Y-113470906D01*
X61100445Y-113334037D01*
X61012904Y-113217095D01*
X60895962Y-113129554D01*
X60759093Y-113078505D01*
X60698589Y-113072000D01*
X59654000Y-113072000D01*
X59146000Y-113072000D01*
X58101411Y-113072000D01*
X58040906Y-113078505D01*
X57904037Y-113129554D01*
X57787095Y-113217095D01*
X57699554Y-113334037D01*
X57648505Y-113470906D01*
X57642000Y-113531411D01*
X57642000Y-113826000D01*
X56747970Y-113826000D01*
X54445405Y-111523435D01*
X54418091Y-111482558D01*
X54408500Y-111434340D01*
X54408500Y-111234000D01*
X57642000Y-111234000D01*
X57642000Y-111528589D01*
X57648505Y-111589093D01*
X57699554Y-111725962D01*
X57787095Y-111842904D01*
X57904037Y-111930445D01*
X58040906Y-111981494D01*
X58101411Y-111988000D01*
X59146000Y-111988000D01*
X59146000Y-111234000D01*
X59654000Y-111234000D01*
X59654000Y-111988000D01*
X60698589Y-111988000D01*
X60759093Y-111981494D01*
X60895962Y-111930445D01*
X61012904Y-111842904D01*
X61100445Y-111725962D01*
X61151494Y-111589093D01*
X61158000Y-111528589D01*
X61158000Y-111234000D01*
X59654000Y-111234000D01*
X59146000Y-111234000D01*
X57642000Y-111234000D01*
X54408500Y-111234000D01*
X54408500Y-110726000D01*
X57642000Y-110726000D01*
X59146000Y-110726000D01*
X59146000Y-109972000D01*
X59654000Y-109972000D01*
X59654000Y-110726000D01*
X61158000Y-110726000D01*
X61158000Y-110431411D01*
X61151494Y-110370906D01*
X61100445Y-110234037D01*
X61012904Y-110117095D01*
X60895962Y-110029554D01*
X60759093Y-109978505D01*
X60698589Y-109972000D01*
X59654000Y-109972000D01*
X59146000Y-109972000D01*
X58101411Y-109972000D01*
X58040906Y-109978505D01*
X57904037Y-110029554D01*
X57787095Y-110117095D01*
X57699554Y-110234037D01*
X57648505Y-110370906D01*
X57642000Y-110431411D01*
X57642000Y-110726000D01*
X54408500Y-110726000D01*
X54408500Y-107724335D01*
X57899500Y-107724335D01*
X57940429Y-107969614D01*
X57940430Y-107969616D01*
X58021170Y-108204806D01*
X58139527Y-108423510D01*
X58292262Y-108619744D01*
X58475217Y-108788166D01*
X58683389Y-108924171D01*
X58683391Y-108924172D01*
X58683393Y-108924173D01*
X58911119Y-109024063D01*
X59152179Y-109085108D01*
X59337933Y-109100500D01*
X59462062Y-109100500D01*
X59462067Y-109100500D01*
X59647821Y-109085108D01*
X59888881Y-109024063D01*
X60116607Y-108924173D01*
X60324785Y-108788164D01*
X60507738Y-108619744D01*
X60660474Y-108423509D01*
X60778828Y-108204810D01*
X60859571Y-107969614D01*
X60900500Y-107724335D01*
X60900500Y-107475665D01*
X60859571Y-107230386D01*
X60778828Y-106995190D01*
X60660474Y-106776491D01*
X60507738Y-106580256D01*
X60324785Y-106411836D01*
X60324782Y-106411833D01*
X60116610Y-106275828D01*
X59888876Y-106175935D01*
X59647825Y-106114893D01*
X59647824Y-106114892D01*
X59647821Y-106114892D01*
X59462067Y-106099500D01*
X59337933Y-106099500D01*
X59152179Y-106114892D01*
X59152175Y-106114892D01*
X59152174Y-106114893D01*
X58911123Y-106175935D01*
X58683389Y-106275828D01*
X58475217Y-106411833D01*
X58292262Y-106580255D01*
X58139527Y-106776489D01*
X58021170Y-106995193D01*
X57940430Y-107230383D01*
X57940429Y-107230386D01*
X57899500Y-107475665D01*
X57899500Y-107724335D01*
X54408500Y-107724335D01*
X54408500Y-103228638D01*
X57641500Y-103228638D01*
X57648011Y-103289200D01*
X57699111Y-103426205D01*
X57786738Y-103543261D01*
X57903794Y-103630888D01*
X57903795Y-103630888D01*
X57903796Y-103630889D01*
X58040799Y-103681989D01*
X58101362Y-103688500D01*
X60698638Y-103688500D01*
X60759201Y-103681989D01*
X60896204Y-103630889D01*
X61013261Y-103543261D01*
X61100889Y-103426204D01*
X61151989Y-103289201D01*
X61158500Y-103228638D01*
X61158500Y-102131362D01*
X61151989Y-102070799D01*
X61100889Y-101933796D01*
X61100888Y-101933794D01*
X61013261Y-101816738D01*
X60896205Y-101729111D01*
X60827702Y-101703561D01*
X60759201Y-101678011D01*
X60698638Y-101671500D01*
X58101362Y-101671500D01*
X58040799Y-101678011D01*
X57903794Y-101729111D01*
X57786738Y-101816738D01*
X57699111Y-101933794D01*
X57648011Y-102070799D01*
X57641500Y-102131362D01*
X57641500Y-103228638D01*
X54408500Y-103228638D01*
X54408500Y-99634000D01*
X57642000Y-99634000D01*
X57642000Y-99928589D01*
X57648505Y-99989093D01*
X57699554Y-100125962D01*
X57787095Y-100242904D01*
X57904037Y-100330445D01*
X58040906Y-100381494D01*
X58101411Y-100388000D01*
X59146000Y-100388000D01*
X59146000Y-99634000D01*
X59654000Y-99634000D01*
X59654000Y-100388000D01*
X60698589Y-100388000D01*
X60759093Y-100381494D01*
X60895962Y-100330445D01*
X61012904Y-100242904D01*
X61100445Y-100125962D01*
X61151494Y-99989093D01*
X61158000Y-99928589D01*
X61158000Y-99634000D01*
X59654000Y-99634000D01*
X59146000Y-99634000D01*
X57642000Y-99634000D01*
X54408500Y-99634000D01*
X54408500Y-99126000D01*
X57642000Y-99126000D01*
X59146000Y-99126000D01*
X59146000Y-98372000D01*
X59654000Y-98372000D01*
X59654000Y-99126000D01*
X61158000Y-99126000D01*
X61158000Y-98831411D01*
X61151494Y-98770906D01*
X61100445Y-98634037D01*
X61012904Y-98517095D01*
X60895962Y-98429554D01*
X60759093Y-98378505D01*
X60698589Y-98372000D01*
X59654000Y-98372000D01*
X59146000Y-98372000D01*
X58101411Y-98372000D01*
X58040906Y-98378505D01*
X57904037Y-98429554D01*
X57787095Y-98517095D01*
X57699554Y-98634037D01*
X57648505Y-98770906D01*
X57642000Y-98831411D01*
X57642000Y-99126000D01*
X54408500Y-99126000D01*
X54408500Y-96534000D01*
X57642000Y-96534000D01*
X57642000Y-96828589D01*
X57648505Y-96889093D01*
X57699554Y-97025962D01*
X57787095Y-97142904D01*
X57904037Y-97230445D01*
X58040906Y-97281494D01*
X58101411Y-97288000D01*
X59146000Y-97288000D01*
X59146000Y-96534000D01*
X59654000Y-96534000D01*
X59654000Y-97288000D01*
X60698589Y-97288000D01*
X60759093Y-97281494D01*
X60895962Y-97230445D01*
X61012904Y-97142904D01*
X61100445Y-97025962D01*
X61151494Y-96889093D01*
X61158000Y-96828589D01*
X61158000Y-96534000D01*
X59654000Y-96534000D01*
X59146000Y-96534000D01*
X57642000Y-96534000D01*
X54408500Y-96534000D01*
X54408500Y-96026000D01*
X57642000Y-96026000D01*
X59146000Y-96026000D01*
X59146000Y-95272000D01*
X59654000Y-95272000D01*
X59654000Y-96026000D01*
X61158000Y-96026000D01*
X61158000Y-95731411D01*
X61151494Y-95670906D01*
X61100445Y-95534037D01*
X61012904Y-95417095D01*
X60895962Y-95329554D01*
X60759093Y-95278505D01*
X60698589Y-95272000D01*
X59654000Y-95272000D01*
X59146000Y-95272000D01*
X58101411Y-95272000D01*
X58040906Y-95278505D01*
X57904037Y-95329554D01*
X57787095Y-95417095D01*
X57699554Y-95534037D01*
X57648505Y-95670906D01*
X57642000Y-95731411D01*
X57642000Y-96026000D01*
X54408500Y-96026000D01*
X54408500Y-93024335D01*
X57899500Y-93024335D01*
X57940429Y-93269614D01*
X57940430Y-93269616D01*
X58021170Y-93504806D01*
X58139527Y-93723510D01*
X58292262Y-93919744D01*
X58475217Y-94088166D01*
X58683389Y-94224171D01*
X58683391Y-94224172D01*
X58683393Y-94224173D01*
X58911119Y-94324063D01*
X59152179Y-94385108D01*
X59337933Y-94400500D01*
X59462062Y-94400500D01*
X59462067Y-94400500D01*
X59647821Y-94385108D01*
X59888881Y-94324063D01*
X60116607Y-94224173D01*
X60324785Y-94088164D01*
X60507738Y-93919744D01*
X60660474Y-93723509D01*
X60778828Y-93504810D01*
X60859571Y-93269614D01*
X60900500Y-93024335D01*
X60900500Y-92775665D01*
X60859571Y-92530386D01*
X60778828Y-92295190D01*
X60660474Y-92076491D01*
X60507738Y-91880256D01*
X60324785Y-91711836D01*
X60324782Y-91711833D01*
X60116610Y-91575828D01*
X59888876Y-91475935D01*
X59647825Y-91414893D01*
X59647824Y-91414892D01*
X59647821Y-91414892D01*
X59462067Y-91399500D01*
X59337933Y-91399500D01*
X59152179Y-91414892D01*
X59152175Y-91414892D01*
X59152174Y-91414893D01*
X58911123Y-91475935D01*
X58683389Y-91575828D01*
X58475217Y-91711833D01*
X58292262Y-91880255D01*
X58139527Y-92076489D01*
X58021170Y-92295193D01*
X57940430Y-92530383D01*
X57940429Y-92530386D01*
X57899500Y-92775665D01*
X57899500Y-93024335D01*
X54408500Y-93024335D01*
X54408500Y-88528638D01*
X57641500Y-88528638D01*
X57648011Y-88589200D01*
X57699111Y-88726205D01*
X57786738Y-88843261D01*
X57903794Y-88930888D01*
X57903795Y-88930888D01*
X57903796Y-88930889D01*
X58040799Y-88981989D01*
X58101362Y-88988500D01*
X60698638Y-88988500D01*
X60759201Y-88981989D01*
X60896204Y-88930889D01*
X61013261Y-88843261D01*
X61100889Y-88726204D01*
X61151989Y-88589201D01*
X61158500Y-88528638D01*
X61158500Y-87431362D01*
X61151989Y-87370799D01*
X61100889Y-87233796D01*
X61100888Y-87233794D01*
X61013261Y-87116738D01*
X60896205Y-87029111D01*
X60827702Y-87003561D01*
X60759201Y-86978011D01*
X60698638Y-86971500D01*
X58101362Y-86971500D01*
X58040799Y-86978011D01*
X57903794Y-87029111D01*
X57786738Y-87116738D01*
X57699111Y-87233794D01*
X57648011Y-87370799D01*
X57641500Y-87431362D01*
X57641500Y-88528638D01*
X54408500Y-88528638D01*
X54408500Y-80345660D01*
X54418091Y-80297442D01*
X54445405Y-80256565D01*
X55220798Y-79481172D01*
X58023157Y-76678811D01*
X58028683Y-76673610D01*
X58074215Y-76633273D01*
X58108791Y-76583179D01*
X58113235Y-76577140D01*
X58150775Y-76529226D01*
X58154960Y-76519926D01*
X58166159Y-76500069D01*
X58171954Y-76491675D01*
X58193522Y-76434802D01*
X58196423Y-76427797D01*
X58221389Y-76372329D01*
X58223227Y-76362294D01*
X58229352Y-76340327D01*
X58232965Y-76330801D01*
X58240299Y-76270398D01*
X58241434Y-76262941D01*
X58252402Y-76203093D01*
X58248730Y-76142390D01*
X58248500Y-76134782D01*
X58248500Y-73800000D01*
X62821493Y-73800000D01*
X62841498Y-74105233D01*
X62901176Y-74405253D01*
X62999498Y-74694904D01*
X63133013Y-74965644D01*
X63134794Y-74969254D01*
X63304738Y-75223593D01*
X63382760Y-75312560D01*
X63506425Y-75453574D01*
X63630090Y-75562025D01*
X63736407Y-75655262D01*
X63990746Y-75825206D01*
X64127919Y-75892852D01*
X64265095Y-75960501D01*
X64554746Y-76058823D01*
X64554748Y-76058823D01*
X64554750Y-76058824D01*
X64854764Y-76118501D01*
X65160000Y-76138507D01*
X65465236Y-76118501D01*
X65765250Y-76058824D01*
X65765253Y-76058823D01*
X66054904Y-75960501D01*
X66062127Y-75956938D01*
X66329254Y-75825206D01*
X66583593Y-75655262D01*
X66813574Y-75453574D01*
X67015262Y-75223593D01*
X67185206Y-74969254D01*
X67320499Y-74694908D01*
X67320498Y-74694908D01*
X67320501Y-74694904D01*
X67418823Y-74405253D01*
X67418824Y-74405250D01*
X67478501Y-74105236D01*
X67498507Y-73800000D01*
X67478501Y-73494764D01*
X67418824Y-73194750D01*
X67418823Y-73194746D01*
X67320501Y-72905096D01*
X67316939Y-72897874D01*
X67185206Y-72630747D01*
X67015262Y-72376407D01*
X66813574Y-72146426D01*
X66583593Y-71944738D01*
X66580204Y-71942474D01*
X66329256Y-71774795D01*
X66054904Y-71639498D01*
X65765253Y-71541176D01*
X65465233Y-71481498D01*
X65160000Y-71461493D01*
X64854766Y-71481498D01*
X64554746Y-71541176D01*
X64265096Y-71639498D01*
X63990745Y-71774795D01*
X63736406Y-71944738D01*
X63506425Y-72146425D01*
X63304738Y-72376406D01*
X63134795Y-72630745D01*
X62999498Y-72905096D01*
X62901176Y-73194746D01*
X62841498Y-73494766D01*
X62821493Y-73800000D01*
X58248500Y-73800000D01*
X58248500Y-68555839D01*
X58262736Y-68497659D01*
X58302229Y-68452626D01*
X58311399Y-68446205D01*
X58352038Y-68417749D01*
X58507749Y-68262038D01*
X58634056Y-68081654D01*
X58695805Y-67949230D01*
X58742300Y-67896213D01*
X58810000Y-67876480D01*
X58877700Y-67896213D01*
X58924195Y-67949231D01*
X58985943Y-68081653D01*
X59112253Y-68262041D01*
X59267958Y-68417746D01*
X59267961Y-68417748D01*
X59267962Y-68417749D01*
X59448346Y-68544056D01*
X59647924Y-68637120D01*
X59699310Y-68650889D01*
X59860624Y-68694114D01*
X59860625Y-68694114D01*
X59860629Y-68694115D01*
X60080000Y-68713307D01*
X60299371Y-68694115D01*
X60512076Y-68637120D01*
X60711654Y-68544056D01*
X60772861Y-68501198D01*
X61928012Y-68501198D01*
X61988595Y-68543620D01*
X62188094Y-68636649D01*
X62400715Y-68693619D01*
X62619999Y-68712804D01*
X62839284Y-68693619D01*
X63051904Y-68636649D01*
X63251405Y-68543619D01*
X63311986Y-68501198D01*
X63311986Y-68501197D01*
X62620000Y-67809210D01*
X62619999Y-67809210D01*
X61928012Y-68501196D01*
X61928012Y-68501198D01*
X60772861Y-68501198D01*
X60892038Y-68417749D01*
X61047749Y-68262038D01*
X61174056Y-68081654D01*
X61236081Y-67948639D01*
X61282575Y-67895623D01*
X61350274Y-67875890D01*
X61417974Y-67895622D01*
X61464470Y-67948640D01*
X61526379Y-68081403D01*
X61568801Y-68141986D01*
X62260789Y-67450000D01*
X62979210Y-67450000D01*
X63671197Y-68141986D01*
X63671198Y-68141986D01*
X63713619Y-68081405D01*
X63806649Y-67881904D01*
X63863619Y-67669284D01*
X63882804Y-67450000D01*
X63863619Y-67230715D01*
X63806649Y-67018095D01*
X63713620Y-66818597D01*
X63671198Y-66758012D01*
X63671196Y-66758012D01*
X62979210Y-67449999D01*
X62979210Y-67450000D01*
X62260789Y-67450000D01*
X62260789Y-67449999D01*
X61568801Y-66758011D01*
X61526378Y-66818598D01*
X61464469Y-66951361D01*
X61417974Y-67004378D01*
X61350274Y-67024110D01*
X61282575Y-67004377D01*
X61236080Y-66951359D01*
X61174056Y-66818347D01*
X61047746Y-66637958D01*
X60892041Y-66482253D01*
X60772860Y-66398801D01*
X61928011Y-66398801D01*
X62619999Y-67090789D01*
X62620000Y-67090789D01*
X63311986Y-66398801D01*
X63311986Y-66398800D01*
X63251403Y-66356379D01*
X63051905Y-66263350D01*
X62839284Y-66206380D01*
X62620000Y-66187195D01*
X62400715Y-66206380D01*
X62188092Y-66263351D01*
X61988598Y-66356378D01*
X61928011Y-66398801D01*
X60772860Y-66398801D01*
X60711653Y-66355943D01*
X60512074Y-66262879D01*
X60299375Y-66205885D01*
X60080000Y-66186693D01*
X59860624Y-66205885D01*
X59647925Y-66262879D01*
X59448347Y-66355943D01*
X59267958Y-66482253D01*
X59112253Y-66637958D01*
X58985944Y-66818345D01*
X58924195Y-66950769D01*
X58877700Y-67003786D01*
X58810000Y-67023519D01*
X58742300Y-67003786D01*
X58695805Y-66950769D01*
X58634055Y-66818345D01*
X58507746Y-66637958D01*
X58352041Y-66482253D01*
X58171653Y-66355943D01*
X57972074Y-66262879D01*
X57759375Y-66205885D01*
X57540000Y-66186693D01*
X57320624Y-66205885D01*
X57107925Y-66262879D01*
X56908347Y-66355943D01*
X56727958Y-66482253D01*
X56572253Y-66637958D01*
X56487713Y-66758695D01*
X56439735Y-66799672D01*
X56377906Y-66812251D01*
X56317730Y-66793278D01*
X56274298Y-66747510D01*
X56258500Y-66686424D01*
X56258500Y-66651362D01*
X56257059Y-66637958D01*
X56251989Y-66590799D01*
X56200889Y-66453796D01*
X56200888Y-66453794D01*
X56140233Y-66372768D01*
X56117193Y-66320122D01*
X56119927Y-66262720D01*
X56147868Y-66212503D01*
X56195203Y-66179916D01*
X56252082Y-66171739D01*
X56270000Y-66173307D01*
X56489371Y-66154115D01*
X56702076Y-66097120D01*
X56901654Y-66004056D01*
X57082038Y-65877749D01*
X57237749Y-65722038D01*
X57364056Y-65541654D01*
X57425805Y-65409230D01*
X57472300Y-65356213D01*
X57540000Y-65336480D01*
X57607700Y-65356213D01*
X57654195Y-65409231D01*
X57715943Y-65541653D01*
X57842253Y-65722041D01*
X57997958Y-65877746D01*
X57997961Y-65877748D01*
X57997962Y-65877749D01*
X58178346Y-66004056D01*
X58377924Y-66097120D01*
X58471707Y-66122249D01*
X58590624Y-66154114D01*
X58590625Y-66154114D01*
X58590629Y-66154115D01*
X58810000Y-66173307D01*
X59029371Y-66154115D01*
X59242076Y-66097120D01*
X59441654Y-66004056D01*
X59622038Y-65877749D01*
X59777749Y-65722038D01*
X59904056Y-65541654D01*
X59965805Y-65409230D01*
X60012300Y-65356213D01*
X60080000Y-65336480D01*
X60147700Y-65356213D01*
X60194195Y-65409231D01*
X60255943Y-65541653D01*
X60382253Y-65722041D01*
X60537958Y-65877746D01*
X60537961Y-65877748D01*
X60537962Y-65877749D01*
X60718346Y-66004056D01*
X60917924Y-66097120D01*
X61011707Y-66122249D01*
X61130624Y-66154114D01*
X61130625Y-66154114D01*
X61130629Y-66154115D01*
X61350000Y-66173307D01*
X61569371Y-66154115D01*
X61782076Y-66097120D01*
X61981654Y-66004056D01*
X62162038Y-65877749D01*
X62317749Y-65722038D01*
X62444056Y-65541654D01*
X62505805Y-65409230D01*
X62552300Y-65356213D01*
X62620000Y-65336480D01*
X62687700Y-65356213D01*
X62734195Y-65409231D01*
X62795943Y-65541653D01*
X62922253Y-65722041D01*
X63077958Y-65877746D01*
X63077961Y-65877748D01*
X63077962Y-65877749D01*
X63258346Y-66004056D01*
X63457924Y-66097120D01*
X63551707Y-66122249D01*
X63670624Y-66154114D01*
X63670625Y-66154114D01*
X63670629Y-66154115D01*
X63890000Y-66173307D01*
X64109371Y-66154115D01*
X64322076Y-66097120D01*
X64521654Y-66004056D01*
X64702038Y-65877749D01*
X64857749Y-65722038D01*
X64984056Y-65541654D01*
X65077120Y-65342076D01*
X65134115Y-65129371D01*
X65153307Y-64910000D01*
X65134115Y-64690629D01*
X65077120Y-64477924D01*
X64984056Y-64278347D01*
X64857749Y-64097962D01*
X64857748Y-64097961D01*
X64857746Y-64097958D01*
X64702041Y-63942253D01*
X64521653Y-63815943D01*
X64322074Y-63722879D01*
X64109375Y-63665885D01*
X63890000Y-63646693D01*
X63670624Y-63665885D01*
X63457925Y-63722879D01*
X63258347Y-63815943D01*
X63077958Y-63942253D01*
X62922253Y-64097958D01*
X62795944Y-64278345D01*
X62734195Y-64410769D01*
X62687700Y-64463786D01*
X62620000Y-64483519D01*
X62552300Y-64463786D01*
X62505805Y-64410769D01*
X62444055Y-64278345D01*
X62317746Y-64097958D01*
X62162041Y-63942253D01*
X61981653Y-63815943D01*
X61782074Y-63722879D01*
X61569375Y-63665885D01*
X61350000Y-63646693D01*
X61130624Y-63665885D01*
X60917925Y-63722879D01*
X60718347Y-63815943D01*
X60537958Y-63942253D01*
X60382253Y-64097958D01*
X60255944Y-64278345D01*
X60194195Y-64410769D01*
X60147700Y-64463786D01*
X60080000Y-64483519D01*
X60012300Y-64463786D01*
X59965805Y-64410769D01*
X59904055Y-64278345D01*
X59777746Y-64097958D01*
X59622041Y-63942253D01*
X59441653Y-63815943D01*
X59242074Y-63722879D01*
X59029375Y-63665885D01*
X58810000Y-63646693D01*
X58590624Y-63665885D01*
X58377925Y-63722879D01*
X58178347Y-63815943D01*
X57997958Y-63942253D01*
X57842253Y-64097958D01*
X57715944Y-64278345D01*
X57654195Y-64410769D01*
X57607700Y-64463786D01*
X57540000Y-64483519D01*
X57472300Y-64463786D01*
X57425805Y-64410769D01*
X57364055Y-64278345D01*
X57237746Y-64097958D01*
X57082041Y-63942253D01*
X56901653Y-63815943D01*
X56702074Y-63722879D01*
X56489375Y-63665885D01*
X56270000Y-63646693D01*
X56050624Y-63665885D01*
X55837925Y-63722879D01*
X55638347Y-63815943D01*
X55457958Y-63942253D01*
X55302253Y-64097958D01*
X55175943Y-64278347D01*
X55082879Y-64477925D01*
X55025885Y-64690624D01*
X55006693Y-64909999D01*
X55025885Y-65129375D01*
X55082879Y-65342074D01*
X55175943Y-65541653D01*
X55302253Y-65722041D01*
X55457958Y-65877746D01*
X55578694Y-65962287D01*
X55619671Y-66010266D01*
X55632250Y-66072095D01*
X55613277Y-66132270D01*
X55567509Y-66175702D01*
X55506423Y-66191500D01*
X54201362Y-66191500D01*
X54140799Y-66198011D01*
X54003794Y-66249111D01*
X53886738Y-66336738D01*
X53799111Y-66453794D01*
X53748011Y-66590799D01*
X53741500Y-66651362D01*
X53741500Y-68248638D01*
X53748011Y-68309200D01*
X53799111Y-68446205D01*
X53886738Y-68563261D01*
X54003794Y-68650888D01*
X54003795Y-68650888D01*
X54003796Y-68650889D01*
X54140799Y-68701989D01*
X54201362Y-68708500D01*
X55798638Y-68708500D01*
X55859201Y-68701989D01*
X55996204Y-68650889D01*
X56113261Y-68563261D01*
X56200889Y-68446204D01*
X56251989Y-68309201D01*
X56258500Y-68248638D01*
X56258500Y-68213577D01*
X56274298Y-68152491D01*
X56317730Y-68106723D01*
X56377905Y-68087750D01*
X56439734Y-68100329D01*
X56487713Y-68141306D01*
X56572253Y-68262041D01*
X56727958Y-68417746D01*
X56727961Y-68417748D01*
X56727962Y-68417749D01*
X56768601Y-68446205D01*
X56777771Y-68452626D01*
X56817264Y-68497659D01*
X56831500Y-68555839D01*
X56831500Y-75814340D01*
X56821909Y-75862558D01*
X56794595Y-75903435D01*
X53216856Y-79481172D01*
X53211317Y-79486388D01*
X53165782Y-79526729D01*
X53131238Y-79576773D01*
X53126731Y-79582898D01*
X53089224Y-79630774D01*
X53085036Y-79640078D01*
X53073843Y-79659923D01*
X53068048Y-79668319D01*
X53046482Y-79725183D01*
X53043570Y-79732211D01*
X53018611Y-79787668D01*
X53016771Y-79797710D01*
X53010651Y-79819662D01*
X53007035Y-79829197D01*
X52999705Y-79889554D01*
X52998561Y-79897071D01*
X52987597Y-79956906D01*
X52991270Y-80017610D01*
X52991500Y-80025218D01*
X52991500Y-111754782D01*
X52991270Y-111762390D01*
X52987597Y-111823093D01*
X50000500Y-111823093D01*
X50000500Y-73800000D01*
X51391493Y-73800000D01*
X51411498Y-74105233D01*
X51471176Y-74405253D01*
X51569498Y-74694904D01*
X51703013Y-74965644D01*
X51704794Y-74969254D01*
X51874738Y-75223593D01*
X51952760Y-75312560D01*
X52076425Y-75453574D01*
X52200090Y-75562025D01*
X52306407Y-75655262D01*
X52560746Y-75825206D01*
X52697919Y-75892852D01*
X52835095Y-75960501D01*
X53124746Y-76058823D01*
X53124748Y-76058823D01*
X53124750Y-76058824D01*
X53424764Y-76118501D01*
X53730000Y-76138507D01*
X54035236Y-76118501D01*
X54335250Y-76058824D01*
X54335253Y-76058823D01*
X54624904Y-75960501D01*
X54632127Y-75956938D01*
X54899254Y-75825206D01*
X55153593Y-75655262D01*
X55383574Y-75453574D01*
X55585262Y-75223593D01*
X55755206Y-74969254D01*
X55890499Y-74694908D01*
X55890498Y-74694908D01*
X55890501Y-74694904D01*
X55988823Y-74405253D01*
X55988824Y-74405250D01*
X56048501Y-74105236D01*
X56068507Y-73800000D01*
X56048501Y-73494764D01*
X55988824Y-73194750D01*
X55988823Y-73194746D01*
X55890501Y-72905096D01*
X55886939Y-72897874D01*
X55755206Y-72630747D01*
X55585262Y-72376407D01*
X55383574Y-72146426D01*
X55153593Y-71944738D01*
X55150204Y-71942474D01*
X54899256Y-71774795D01*
X54624904Y-71639498D01*
X54335253Y-71541176D01*
X54035233Y-71481498D01*
X53730000Y-71461493D01*
X53424766Y-71481498D01*
X53124746Y-71541176D01*
X52835096Y-71639498D01*
X52560745Y-71774795D01*
X52306406Y-71944738D01*
X52076425Y-72146425D01*
X51874738Y-72376406D01*
X51704795Y-72630745D01*
X51569498Y-72905096D01*
X51471176Y-73194746D01*
X51411498Y-73494766D01*
X51391493Y-73800000D01*
X50000500Y-73800000D01*
X50000500Y-60567766D01*
X57545787Y-60567766D01*
X57575413Y-60837015D01*
X57575414Y-60837018D01*
X57643928Y-61099088D01*
X57749870Y-61348390D01*
X57890982Y-61579610D01*
X58064255Y-61787820D01*
X58064256Y-61787821D01*
X58064258Y-61787823D01*
X58265993Y-61968578D01*
X58265995Y-61968579D01*
X58265998Y-61968582D01*
X58491910Y-62118044D01*
X58624104Y-62180014D01*
X58737171Y-62233018D01*
X58737173Y-62233018D01*
X58737176Y-62233020D01*
X58996569Y-62311060D01*
X58996572Y-62311060D01*
X58996574Y-62311061D01*
X59264558Y-62350500D01*
X59264561Y-62350500D01*
X59467630Y-62350500D01*
X59467631Y-62350500D01*
X59670156Y-62335677D01*
X59934553Y-62276780D01*
X60187558Y-62180014D01*
X60423777Y-62047441D01*
X60638177Y-61881888D01*
X60826186Y-61686881D01*
X60983799Y-61466579D01*
X61107656Y-61225675D01*
X61195118Y-60969305D01*
X61244319Y-60702933D01*
X61254212Y-60432235D01*
X61224586Y-60162982D01*
X61156072Y-59900912D01*
X61050130Y-59651610D01*
X60909018Y-59420390D01*
X60735745Y-59212180D01*
X60630759Y-59118112D01*
X60534006Y-59031421D01*
X60534003Y-59031419D01*
X60534002Y-59031418D01*
X60308090Y-58881956D01*
X60308086Y-58881954D01*
X60062828Y-58766981D01*
X59803425Y-58688938D01*
X59535442Y-58649500D01*
X59535439Y-58649500D01*
X59332369Y-58649500D01*
X59298614Y-58651970D01*
X59129839Y-58664323D01*
X58865449Y-58723219D01*
X58612441Y-58819985D01*
X58376225Y-58952557D01*
X58161820Y-59118114D01*
X57973815Y-59313117D01*
X57816200Y-59533422D01*
X57692342Y-59774328D01*
X57604882Y-60030693D01*
X57555681Y-60297065D01*
X57545787Y-60567766D01*
X50000500Y-60567766D01*
X50000500Y-55540000D01*
X52936844Y-55540000D01*
X52955436Y-55764368D01*
X52955436Y-55764371D01*
X52955437Y-55764372D01*
X53010702Y-55982611D01*
X53101139Y-56188790D01*
X53224278Y-56377268D01*
X53376762Y-56542908D01*
X53554421Y-56681187D01*
X53554424Y-56681189D01*
X53752426Y-56788342D01*
X53965365Y-56861444D01*
X54187431Y-56898500D01*
X54412566Y-56898500D01*
X54412569Y-56898500D01*
X54634635Y-56861444D01*
X54847574Y-56788342D01*
X55045576Y-56681189D01*
X55223240Y-56542906D01*
X55375722Y-56377268D01*
X55464818Y-56240896D01*
X55510329Y-56198999D01*
X55570299Y-56183813D01*
X55630268Y-56198999D01*
X55675782Y-56240897D01*
X55764678Y-56376962D01*
X55917096Y-56542533D01*
X56094697Y-56680766D01*
X56292631Y-56787883D01*
X56505485Y-56860955D01*
X56586000Y-56874391D01*
X56586000Y-55794000D01*
X57094000Y-55794000D01*
X57094000Y-56874391D01*
X57174514Y-56860955D01*
X57387368Y-56787883D01*
X57585302Y-56680766D01*
X57762903Y-56542533D01*
X57915323Y-56376960D01*
X58004516Y-56240440D01*
X58050029Y-56198542D01*
X58109998Y-56183355D01*
X58169968Y-56198541D01*
X58215482Y-56240439D01*
X58304678Y-56376962D01*
X58457096Y-56542533D01*
X58634697Y-56680766D01*
X58832631Y-56787883D01*
X59045485Y-56860955D01*
X59126000Y-56874391D01*
X59126000Y-55794000D01*
X59634000Y-55794000D01*
X59634000Y-56874391D01*
X59714514Y-56860955D01*
X59927368Y-56787883D01*
X60125302Y-56680766D01*
X60302903Y-56542533D01*
X60455323Y-56376960D01*
X60544516Y-56240440D01*
X60590029Y-56198542D01*
X60649998Y-56183355D01*
X60709968Y-56198541D01*
X60755482Y-56240439D01*
X60844678Y-56376962D01*
X60997096Y-56542533D01*
X61174697Y-56680766D01*
X61372631Y-56787883D01*
X61585485Y-56860955D01*
X61666000Y-56874391D01*
X62174000Y-56874391D01*
X62254514Y-56860955D01*
X62467368Y-56787883D01*
X62665302Y-56680766D01*
X62842903Y-56542533D01*
X62995323Y-56376960D01*
X63084217Y-56240899D01*
X63129730Y-56199000D01*
X63189700Y-56183814D01*
X63249669Y-56199000D01*
X63295183Y-56240898D01*
X63384278Y-56377268D01*
X63536762Y-56542908D01*
X63714421Y-56681187D01*
X63714424Y-56681189D01*
X63912426Y-56788342D01*
X64125365Y-56861444D01*
X64347431Y-56898500D01*
X64572566Y-56898500D01*
X64572569Y-56898500D01*
X64794635Y-56861444D01*
X65007574Y-56788342D01*
X65205576Y-56681189D01*
X65383240Y-56542906D01*
X65535722Y-56377268D01*
X65658860Y-56188791D01*
X65749296Y-55982616D01*
X65804564Y-55764368D01*
X65823156Y-55540000D01*
X65804564Y-55315632D01*
X65749296Y-55097384D01*
X65658860Y-54891209D01*
X65535722Y-54702732D01*
X65383240Y-54537094D01*
X65383239Y-54537093D01*
X65383237Y-54537091D01*
X65205579Y-54398813D01*
X65205577Y-54398812D01*
X65205576Y-54398811D01*
X65172317Y-54380812D01*
X65124047Y-54334498D01*
X65106288Y-54270000D01*
X65124047Y-54205502D01*
X65172317Y-54159187D01*
X65205576Y-54141189D01*
X65383240Y-54002906D01*
X65535722Y-53837268D01*
X65658860Y-53648791D01*
X65749296Y-53442616D01*
X65804564Y-53224368D01*
X65823156Y-53000000D01*
X65804564Y-52775632D01*
X65749296Y-52557384D01*
X65658860Y-52351209D01*
X65535722Y-52162732D01*
X65383240Y-51997094D01*
X65383239Y-51997093D01*
X65383237Y-51997091D01*
X65205578Y-51858812D01*
X65007573Y-51751657D01*
X64796056Y-51679044D01*
X64794635Y-51678556D01*
X64572569Y-51641500D01*
X64347431Y-51641500D01*
X64125365Y-51678556D01*
X64125362Y-51678556D01*
X64125362Y-51678557D01*
X63912426Y-51751657D01*
X63714421Y-51858812D01*
X63536762Y-51997091D01*
X63384275Y-52162735D01*
X63295182Y-52299101D01*
X63249669Y-52340999D01*
X63189700Y-52356185D01*
X63129731Y-52340999D01*
X63084217Y-52299101D01*
X62995321Y-52163037D01*
X62842903Y-51997466D01*
X62665302Y-51859233D01*
X62467368Y-51752116D01*
X62254514Y-51679044D01*
X62174000Y-51665609D01*
X62174000Y-56874391D01*
X61666000Y-56874391D01*
X61666000Y-55794000D01*
X59634000Y-55794000D01*
X59126000Y-55794000D01*
X57094000Y-55794000D01*
X56586000Y-55794000D01*
X56586000Y-53254000D01*
X57094000Y-53254000D01*
X57094000Y-55286000D01*
X59126000Y-55286000D01*
X59126000Y-53254000D01*
X59634000Y-53254000D01*
X59634000Y-55286000D01*
X61666000Y-55286000D01*
X61666000Y-53254000D01*
X59634000Y-53254000D01*
X59126000Y-53254000D01*
X57094000Y-53254000D01*
X56586000Y-53254000D01*
X56586000Y-52746000D01*
X57094000Y-52746000D01*
X59126000Y-52746000D01*
X59634000Y-52746000D01*
X61666000Y-52746000D01*
X61666000Y-51665609D01*
X61585485Y-51679044D01*
X61372631Y-51752116D01*
X61174697Y-51859233D01*
X60997096Y-51997466D01*
X60844678Y-52163037D01*
X60755483Y-52299560D01*
X60709969Y-52341458D01*
X60650000Y-52356644D01*
X60590031Y-52341458D01*
X60544517Y-52299560D01*
X60455321Y-52163037D01*
X60302903Y-51997466D01*
X60125302Y-51859233D01*
X59927368Y-51752116D01*
X59714514Y-51679044D01*
X59634000Y-51665609D01*
X59634000Y-52746000D01*
X59126000Y-52746000D01*
X59126000Y-51665609D01*
X59045485Y-51679044D01*
X58832631Y-51752116D01*
X58634697Y-51859233D01*
X58457096Y-51997466D01*
X58304678Y-52163037D01*
X58215483Y-52299560D01*
X58169969Y-52341458D01*
X58110000Y-52356644D01*
X58050031Y-52341458D01*
X58004517Y-52299560D01*
X57915321Y-52163037D01*
X57762903Y-51997466D01*
X57585302Y-51859233D01*
X57387368Y-51752116D01*
X57174514Y-51679044D01*
X57094000Y-51665609D01*
X57094000Y-52746000D01*
X56586000Y-52746000D01*
X56586000Y-51665609D01*
X56505485Y-51679044D01*
X56292631Y-51752116D01*
X56094697Y-51859233D01*
X55917099Y-51997463D01*
X55855951Y-52063888D01*
X55802478Y-52098288D01*
X55739017Y-52102198D01*
X55681726Y-52074622D01*
X55645194Y-52022582D01*
X55635687Y-51997094D01*
X55600889Y-51903796D01*
X55600888Y-51903794D01*
X55513261Y-51786738D01*
X55396205Y-51699111D01*
X55327702Y-51673560D01*
X55259201Y-51648011D01*
X55198638Y-51641500D01*
X53401362Y-51641500D01*
X53340799Y-51648011D01*
X53203794Y-51699111D01*
X53086738Y-51786738D01*
X52999111Y-51903794D01*
X52954806Y-52022582D01*
X52948011Y-52040799D01*
X52941500Y-52101362D01*
X52941500Y-53898638D01*
X52948011Y-53959201D01*
X52964173Y-54002533D01*
X52999111Y-54096205D01*
X53086738Y-54213261D01*
X53203794Y-54300888D01*
X53203795Y-54300888D01*
X53203796Y-54300889D01*
X53318809Y-54343787D01*
X53369140Y-54378348D01*
X53397315Y-54432519D01*
X53396712Y-54493574D01*
X53367475Y-54547178D01*
X53224281Y-54702728D01*
X53224279Y-54702730D01*
X53224278Y-54702732D01*
X53189942Y-54755285D01*
X53101139Y-54891209D01*
X53010702Y-55097388D01*
X52955437Y-55315627D01*
X52955436Y-55315632D01*
X52936844Y-55540000D01*
X50000500Y-55540000D01*
X50000500Y-50126500D01*
X50017381Y-50063500D01*
X50063500Y-50017381D01*
X50126500Y-50000500D01*
X68673500Y-50000500D01*
X68736500Y-50017381D01*
G37*
%TD.AperFunction*%
%TD*%
M02*
