M48
; DRILL file {KiCad 7.0.7} date Fri Aug 18 12:33:09 2023
; FORMAT={-:-/ absolute / inch / decimal}
; #@! TF.CreationDate,2023-08-18T12:33:09+01:00
; #@! TF.GenerationSoftware,Kicad,Pcbnew,7.0.7
; #@! TF.FileFunction,Plated,1,2,PTH
FMAT,2
INCH
; #@! TA.AperFunction,Plated,PTH,ComponentDrill
T1C0.0197
; #@! TA.AperFunction,Plated,PTH,ComponentDrill
T2C0.0354
; #@! TA.AperFunction,Plated,PTH,ComponentDrill
T3C0.0394
%
G90
G05
T2
X2.1654Y-2.6555
X2.2154Y-2.5555
X2.2654Y-2.6555
X2.3154Y-2.5555
X2.3654Y-2.6555
X2.4154Y-2.5555
X2.4654Y-2.6555
X2.5154Y-2.5555
T3
X2.1378Y-2.0866
X2.1378Y-2.1866
X2.2378Y-2.0866
X2.2378Y-2.1866
X2.3378Y-2.0866
X2.3378Y-2.1866
X2.4378Y-2.0866
X2.4378Y-2.1866
X2.5378Y-2.0866
X2.5378Y-2.1866
T1
G00X2.3189Y-3.4638
M15
G01X2.3583Y-3.4638
M16
G05
G00X2.3189Y-3.7906
M15
G01X2.3583Y-3.7906
M16
G05
G00X2.3189Y-3.9126
M15
G01X2.3583Y-3.9126
M16
G05
G00X2.3189Y-4.0425
M15
G01X2.3583Y-4.0425
M16
G05
G00X2.3189Y-4.3693
M15
G01X2.3583Y-4.3693
M16
G05
G00X2.3189Y-4.4913
M15
G01X2.3583Y-4.4913
M16
G05
G00X2.3189Y-4.6173
M15
G01X2.3583Y-4.6173
M16
G05
G00X2.3189Y-4.9441
M15
G01X2.3583Y-4.9441
M16
G05
G00X2.3189Y-5.0661
M15
G01X2.3583Y-5.0661
M16
G05
G00X2.3189Y-5.1921
M15
G01X2.3583Y-5.1921
M16
G05
G00X2.3189Y-5.5189
M15
G01X2.3583Y-5.5189
M16
G05
G00X2.3189Y-5.6409
M15
G01X2.3583Y-5.6409
M16
G05
G00X2.3189Y-5.7709
M15
G01X2.3583Y-5.7709
M16
G05
G00X2.3189Y-6.0976
M15
G01X2.3583Y-6.0976
M16
G05
G00X2.3189Y-6.2197
M15
G01X2.3583Y-6.2197
M16
G05
T0
M30
