%TF.GenerationSoftware,KiCad,Pcbnew,7.0.7*%
%TF.CreationDate,2023-08-18T12:33:07+01:00*%
%TF.ProjectId,Base_Controls,42617365-5f43-46f6-9e74-726f6c732e6b,rev?*%
%TF.SameCoordinates,Original*%
%TF.FileFunction,Soldermask,Bot*%
%TF.FilePolarity,Negative*%
%FSLAX46Y46*%
G04 Gerber Fmt 4.6, Leading zero omitted, Abs format (unit mm)*
G04 Created by KiCad (PCBNEW 7.0.7) date 2023-08-18 12:33:07*
%MOMM*%
%LPD*%
G01*
G04 APERTURE LIST*
%ADD10C,3.650000*%
%ADD11R,1.500000X1.500000*%
%ADD12C,1.500000*%
%ADD13C,2.500000*%
%ADD14R,2.500000X1.000000*%
%ADD15C,3.200000*%
%ADD16R,1.700000X1.700000*%
%ADD17O,1.700000X1.700000*%
G04 APERTURE END LIST*
D10*
%TO.C,J1*%
X53730000Y-73800000D03*
X65160000Y-73800000D03*
D11*
X55000000Y-67450000D03*
D12*
X56270000Y-64910000D03*
X57540000Y-67450000D03*
X58810000Y-64910000D03*
X60080000Y-67450000D03*
X61350000Y-64910000D03*
X62620000Y-67450000D03*
X63890000Y-64910000D03*
%TD*%
D13*
%TO.C,J2*%
X59400000Y-92900000D03*
D14*
X59400000Y-99380000D03*
X59400000Y-96280000D03*
X59400000Y-87980000D03*
%TD*%
D13*
%TO.C,J6*%
X59400000Y-151500000D03*
D14*
X59400000Y-157980000D03*
X59400000Y-154880000D03*
X59400000Y-146580000D03*
%TD*%
D13*
%TO.C,J5*%
X59400000Y-136800000D03*
D14*
X59400000Y-143280000D03*
X59400000Y-140180000D03*
X59400000Y-131880000D03*
%TD*%
D13*
%TO.C,J4*%
X59400000Y-122200000D03*
D14*
X59400000Y-128680000D03*
X59400000Y-125580000D03*
X59400000Y-117280000D03*
%TD*%
D13*
%TO.C,J3*%
X59400000Y-107600000D03*
D14*
X59400000Y-114080000D03*
X59400000Y-110980000D03*
X59400000Y-102680000D03*
%TD*%
D15*
%TO.C,H1*%
X59400000Y-60500000D03*
%TD*%
D16*
%TO.C,J7*%
X54300000Y-53000000D03*
D17*
X54300000Y-55540000D03*
X56840000Y-53000000D03*
X56840000Y-55540000D03*
X59380000Y-53000000D03*
X59380000Y-55540000D03*
X61920000Y-53000000D03*
X61920000Y-55540000D03*
X64460000Y-53000000D03*
X64460000Y-55540000D03*
%TD*%
M02*
