%TF.GenerationSoftware,KiCad,Pcbnew,7.0.1*%
%TF.CreationDate,2023-03-30T11:01:24+01:00*%
%TF.ProjectId,Base_Controls,42617365-5f43-46f6-9e74-726f6c732e6b,rev?*%
%TF.SameCoordinates,Original*%
%TF.FileFunction,Legend,Top*%
%TF.FilePolarity,Positive*%
%FSLAX46Y46*%
G04 Gerber Fmt 4.6, Leading zero omitted, Abs format (unit mm)*
G04 Created by KiCad (PCBNEW 7.0.1) date 2023-03-30 11:01:24*
%MOMM*%
%LPD*%
G01*
G04 APERTURE LIST*
%ADD10C,0.150000*%
%ADD11C,0.120000*%
%ADD12C,3.650000*%
%ADD13R,2.500000X1.000000*%
G04 APERTURE END LIST*
D10*
%TO.C,J2*%
X57352380Y-84742619D02*
X57352380Y-85456904D01*
X57352380Y-85456904D02*
X57304761Y-85599761D01*
X57304761Y-85599761D02*
X57209523Y-85695000D01*
X57209523Y-85695000D02*
X57066666Y-85742619D01*
X57066666Y-85742619D02*
X56971428Y-85742619D01*
X58257142Y-85742619D02*
X58257142Y-85218809D01*
X58257142Y-85218809D02*
X58209523Y-85123571D01*
X58209523Y-85123571D02*
X58114285Y-85075952D01*
X58114285Y-85075952D02*
X57923809Y-85075952D01*
X57923809Y-85075952D02*
X57828571Y-85123571D01*
X58257142Y-85695000D02*
X58161904Y-85742619D01*
X58161904Y-85742619D02*
X57923809Y-85742619D01*
X57923809Y-85742619D02*
X57828571Y-85695000D01*
X57828571Y-85695000D02*
X57780952Y-85599761D01*
X57780952Y-85599761D02*
X57780952Y-85504523D01*
X57780952Y-85504523D02*
X57828571Y-85409285D01*
X57828571Y-85409285D02*
X57923809Y-85361666D01*
X57923809Y-85361666D02*
X58161904Y-85361666D01*
X58161904Y-85361666D02*
X58257142Y-85314047D01*
X59161904Y-85695000D02*
X59066666Y-85742619D01*
X59066666Y-85742619D02*
X58876190Y-85742619D01*
X58876190Y-85742619D02*
X58780952Y-85695000D01*
X58780952Y-85695000D02*
X58733333Y-85647380D01*
X58733333Y-85647380D02*
X58685714Y-85552142D01*
X58685714Y-85552142D02*
X58685714Y-85266428D01*
X58685714Y-85266428D02*
X58733333Y-85171190D01*
X58733333Y-85171190D02*
X58780952Y-85123571D01*
X58780952Y-85123571D02*
X58876190Y-85075952D01*
X58876190Y-85075952D02*
X59066666Y-85075952D01*
X59066666Y-85075952D02*
X59161904Y-85123571D01*
X59590476Y-85742619D02*
X59590476Y-84742619D01*
X59685714Y-85361666D02*
X59971428Y-85742619D01*
X59971428Y-85075952D02*
X59590476Y-85456904D01*
X60352381Y-85456904D02*
X60828571Y-85456904D01*
X60257143Y-85742619D02*
X60590476Y-84742619D01*
X60590476Y-84742619D02*
X60923809Y-85742619D01*
X61780952Y-85742619D02*
X61209524Y-85742619D01*
X61495238Y-85742619D02*
X61495238Y-84742619D01*
X61495238Y-84742619D02*
X61400000Y-84885476D01*
X61400000Y-84885476D02*
X61304762Y-84980714D01*
X61304762Y-84980714D02*
X61209524Y-85028333D01*
%TO.C,J6*%
X57352380Y-147660119D02*
X57352380Y-148374404D01*
X57352380Y-148374404D02*
X57304761Y-148517261D01*
X57304761Y-148517261D02*
X57209523Y-148612500D01*
X57209523Y-148612500D02*
X57066666Y-148660119D01*
X57066666Y-148660119D02*
X56971428Y-148660119D01*
X58257142Y-148660119D02*
X58257142Y-148136309D01*
X58257142Y-148136309D02*
X58209523Y-148041071D01*
X58209523Y-148041071D02*
X58114285Y-147993452D01*
X58114285Y-147993452D02*
X57923809Y-147993452D01*
X57923809Y-147993452D02*
X57828571Y-148041071D01*
X58257142Y-148612500D02*
X58161904Y-148660119D01*
X58161904Y-148660119D02*
X57923809Y-148660119D01*
X57923809Y-148660119D02*
X57828571Y-148612500D01*
X57828571Y-148612500D02*
X57780952Y-148517261D01*
X57780952Y-148517261D02*
X57780952Y-148422023D01*
X57780952Y-148422023D02*
X57828571Y-148326785D01*
X57828571Y-148326785D02*
X57923809Y-148279166D01*
X57923809Y-148279166D02*
X58161904Y-148279166D01*
X58161904Y-148279166D02*
X58257142Y-148231547D01*
X59161904Y-148612500D02*
X59066666Y-148660119D01*
X59066666Y-148660119D02*
X58876190Y-148660119D01*
X58876190Y-148660119D02*
X58780952Y-148612500D01*
X58780952Y-148612500D02*
X58733333Y-148564880D01*
X58733333Y-148564880D02*
X58685714Y-148469642D01*
X58685714Y-148469642D02*
X58685714Y-148183928D01*
X58685714Y-148183928D02*
X58733333Y-148088690D01*
X58733333Y-148088690D02*
X58780952Y-148041071D01*
X58780952Y-148041071D02*
X58876190Y-147993452D01*
X58876190Y-147993452D02*
X59066666Y-147993452D01*
X59066666Y-147993452D02*
X59161904Y-148041071D01*
X59590476Y-148660119D02*
X59590476Y-147660119D01*
X59685714Y-148279166D02*
X59971428Y-148660119D01*
X59971428Y-147993452D02*
X59590476Y-148374404D01*
X60352381Y-148374404D02*
X60828571Y-148374404D01*
X60257143Y-148660119D02*
X60590476Y-147660119D01*
X60590476Y-147660119D02*
X60923809Y-148660119D01*
X61733333Y-147660119D02*
X61257143Y-147660119D01*
X61257143Y-147660119D02*
X61209524Y-148136309D01*
X61209524Y-148136309D02*
X61257143Y-148088690D01*
X61257143Y-148088690D02*
X61352381Y-148041071D01*
X61352381Y-148041071D02*
X61590476Y-148041071D01*
X61590476Y-148041071D02*
X61685714Y-148088690D01*
X61685714Y-148088690D02*
X61733333Y-148136309D01*
X61733333Y-148136309D02*
X61780952Y-148231547D01*
X61780952Y-148231547D02*
X61780952Y-148469642D01*
X61780952Y-148469642D02*
X61733333Y-148564880D01*
X61733333Y-148564880D02*
X61685714Y-148612500D01*
X61685714Y-148612500D02*
X61590476Y-148660119D01*
X61590476Y-148660119D02*
X61352381Y-148660119D01*
X61352381Y-148660119D02*
X61257143Y-148612500D01*
X61257143Y-148612500D02*
X61209524Y-148564880D01*
%TO.C,J5*%
X57352380Y-132960119D02*
X57352380Y-133674404D01*
X57352380Y-133674404D02*
X57304761Y-133817261D01*
X57304761Y-133817261D02*
X57209523Y-133912500D01*
X57209523Y-133912500D02*
X57066666Y-133960119D01*
X57066666Y-133960119D02*
X56971428Y-133960119D01*
X58257142Y-133960119D02*
X58257142Y-133436309D01*
X58257142Y-133436309D02*
X58209523Y-133341071D01*
X58209523Y-133341071D02*
X58114285Y-133293452D01*
X58114285Y-133293452D02*
X57923809Y-133293452D01*
X57923809Y-133293452D02*
X57828571Y-133341071D01*
X58257142Y-133912500D02*
X58161904Y-133960119D01*
X58161904Y-133960119D02*
X57923809Y-133960119D01*
X57923809Y-133960119D02*
X57828571Y-133912500D01*
X57828571Y-133912500D02*
X57780952Y-133817261D01*
X57780952Y-133817261D02*
X57780952Y-133722023D01*
X57780952Y-133722023D02*
X57828571Y-133626785D01*
X57828571Y-133626785D02*
X57923809Y-133579166D01*
X57923809Y-133579166D02*
X58161904Y-133579166D01*
X58161904Y-133579166D02*
X58257142Y-133531547D01*
X59161904Y-133912500D02*
X59066666Y-133960119D01*
X59066666Y-133960119D02*
X58876190Y-133960119D01*
X58876190Y-133960119D02*
X58780952Y-133912500D01*
X58780952Y-133912500D02*
X58733333Y-133864880D01*
X58733333Y-133864880D02*
X58685714Y-133769642D01*
X58685714Y-133769642D02*
X58685714Y-133483928D01*
X58685714Y-133483928D02*
X58733333Y-133388690D01*
X58733333Y-133388690D02*
X58780952Y-133341071D01*
X58780952Y-133341071D02*
X58876190Y-133293452D01*
X58876190Y-133293452D02*
X59066666Y-133293452D01*
X59066666Y-133293452D02*
X59161904Y-133341071D01*
X59590476Y-133960119D02*
X59590476Y-132960119D01*
X59685714Y-133579166D02*
X59971428Y-133960119D01*
X59971428Y-133293452D02*
X59590476Y-133674404D01*
X60352381Y-133674404D02*
X60828571Y-133674404D01*
X60257143Y-133960119D02*
X60590476Y-132960119D01*
X60590476Y-132960119D02*
X60923809Y-133960119D01*
X61685714Y-133293452D02*
X61685714Y-133960119D01*
X61447619Y-132912500D02*
X61209524Y-133626785D01*
X61209524Y-133626785D02*
X61828571Y-133626785D01*
%TO.C,J4*%
X57352380Y-118360119D02*
X57352380Y-119074404D01*
X57352380Y-119074404D02*
X57304761Y-119217261D01*
X57304761Y-119217261D02*
X57209523Y-119312500D01*
X57209523Y-119312500D02*
X57066666Y-119360119D01*
X57066666Y-119360119D02*
X56971428Y-119360119D01*
X58257142Y-119360119D02*
X58257142Y-118836309D01*
X58257142Y-118836309D02*
X58209523Y-118741071D01*
X58209523Y-118741071D02*
X58114285Y-118693452D01*
X58114285Y-118693452D02*
X57923809Y-118693452D01*
X57923809Y-118693452D02*
X57828571Y-118741071D01*
X58257142Y-119312500D02*
X58161904Y-119360119D01*
X58161904Y-119360119D02*
X57923809Y-119360119D01*
X57923809Y-119360119D02*
X57828571Y-119312500D01*
X57828571Y-119312500D02*
X57780952Y-119217261D01*
X57780952Y-119217261D02*
X57780952Y-119122023D01*
X57780952Y-119122023D02*
X57828571Y-119026785D01*
X57828571Y-119026785D02*
X57923809Y-118979166D01*
X57923809Y-118979166D02*
X58161904Y-118979166D01*
X58161904Y-118979166D02*
X58257142Y-118931547D01*
X59161904Y-119312500D02*
X59066666Y-119360119D01*
X59066666Y-119360119D02*
X58876190Y-119360119D01*
X58876190Y-119360119D02*
X58780952Y-119312500D01*
X58780952Y-119312500D02*
X58733333Y-119264880D01*
X58733333Y-119264880D02*
X58685714Y-119169642D01*
X58685714Y-119169642D02*
X58685714Y-118883928D01*
X58685714Y-118883928D02*
X58733333Y-118788690D01*
X58733333Y-118788690D02*
X58780952Y-118741071D01*
X58780952Y-118741071D02*
X58876190Y-118693452D01*
X58876190Y-118693452D02*
X59066666Y-118693452D01*
X59066666Y-118693452D02*
X59161904Y-118741071D01*
X59590476Y-119360119D02*
X59590476Y-118360119D01*
X59685714Y-118979166D02*
X59971428Y-119360119D01*
X59971428Y-118693452D02*
X59590476Y-119074404D01*
X60352381Y-119074404D02*
X60828571Y-119074404D01*
X60257143Y-119360119D02*
X60590476Y-118360119D01*
X60590476Y-118360119D02*
X60923809Y-119360119D01*
X61161905Y-118360119D02*
X61780952Y-118360119D01*
X61780952Y-118360119D02*
X61447619Y-118741071D01*
X61447619Y-118741071D02*
X61590476Y-118741071D01*
X61590476Y-118741071D02*
X61685714Y-118788690D01*
X61685714Y-118788690D02*
X61733333Y-118836309D01*
X61733333Y-118836309D02*
X61780952Y-118931547D01*
X61780952Y-118931547D02*
X61780952Y-119169642D01*
X61780952Y-119169642D02*
X61733333Y-119264880D01*
X61733333Y-119264880D02*
X61685714Y-119312500D01*
X61685714Y-119312500D02*
X61590476Y-119360119D01*
X61590476Y-119360119D02*
X61304762Y-119360119D01*
X61304762Y-119360119D02*
X61209524Y-119312500D01*
X61209524Y-119312500D02*
X61161905Y-119264880D01*
%TO.C,J3*%
X57352380Y-103760119D02*
X57352380Y-104474404D01*
X57352380Y-104474404D02*
X57304761Y-104617261D01*
X57304761Y-104617261D02*
X57209523Y-104712500D01*
X57209523Y-104712500D02*
X57066666Y-104760119D01*
X57066666Y-104760119D02*
X56971428Y-104760119D01*
X58257142Y-104760119D02*
X58257142Y-104236309D01*
X58257142Y-104236309D02*
X58209523Y-104141071D01*
X58209523Y-104141071D02*
X58114285Y-104093452D01*
X58114285Y-104093452D02*
X57923809Y-104093452D01*
X57923809Y-104093452D02*
X57828571Y-104141071D01*
X58257142Y-104712500D02*
X58161904Y-104760119D01*
X58161904Y-104760119D02*
X57923809Y-104760119D01*
X57923809Y-104760119D02*
X57828571Y-104712500D01*
X57828571Y-104712500D02*
X57780952Y-104617261D01*
X57780952Y-104617261D02*
X57780952Y-104522023D01*
X57780952Y-104522023D02*
X57828571Y-104426785D01*
X57828571Y-104426785D02*
X57923809Y-104379166D01*
X57923809Y-104379166D02*
X58161904Y-104379166D01*
X58161904Y-104379166D02*
X58257142Y-104331547D01*
X59161904Y-104712500D02*
X59066666Y-104760119D01*
X59066666Y-104760119D02*
X58876190Y-104760119D01*
X58876190Y-104760119D02*
X58780952Y-104712500D01*
X58780952Y-104712500D02*
X58733333Y-104664880D01*
X58733333Y-104664880D02*
X58685714Y-104569642D01*
X58685714Y-104569642D02*
X58685714Y-104283928D01*
X58685714Y-104283928D02*
X58733333Y-104188690D01*
X58733333Y-104188690D02*
X58780952Y-104141071D01*
X58780952Y-104141071D02*
X58876190Y-104093452D01*
X58876190Y-104093452D02*
X59066666Y-104093452D01*
X59066666Y-104093452D02*
X59161904Y-104141071D01*
X59590476Y-104760119D02*
X59590476Y-103760119D01*
X59685714Y-104379166D02*
X59971428Y-104760119D01*
X59971428Y-104093452D02*
X59590476Y-104474404D01*
X60352381Y-104474404D02*
X60828571Y-104474404D01*
X60257143Y-104760119D02*
X60590476Y-103760119D01*
X60590476Y-103760119D02*
X60923809Y-104760119D01*
X61209524Y-103855357D02*
X61257143Y-103807738D01*
X61257143Y-103807738D02*
X61352381Y-103760119D01*
X61352381Y-103760119D02*
X61590476Y-103760119D01*
X61590476Y-103760119D02*
X61685714Y-103807738D01*
X61685714Y-103807738D02*
X61733333Y-103855357D01*
X61733333Y-103855357D02*
X61780952Y-103950595D01*
X61780952Y-103950595D02*
X61780952Y-104045833D01*
X61780952Y-104045833D02*
X61733333Y-104188690D01*
X61733333Y-104188690D02*
X61161905Y-104760119D01*
X61161905Y-104760119D02*
X61780952Y-104760119D01*
D11*
%TO.C,J1*%
X51000000Y-66950000D02*
X51000000Y-67950000D01*
X51000000Y-67950000D02*
X51500000Y-67450000D01*
X51250000Y-63780000D02*
X51250000Y-80420000D01*
X51500000Y-67450000D02*
X51000000Y-66950000D01*
X67600000Y-63780000D02*
X51250000Y-63780000D01*
X67600000Y-63780000D02*
X67600000Y-80420000D01*
X67600000Y-80420000D02*
X51250000Y-80420000D01*
D10*
%TO.C,J2*%
X54900000Y-86900000D02*
X54900000Y-97400000D01*
X54900000Y-86900000D02*
X63900000Y-86900000D01*
X54900000Y-97400000D02*
X63900000Y-97400000D01*
X54955000Y-96710000D02*
X57495000Y-96710000D01*
X57495000Y-90995000D02*
X61305000Y-90995000D01*
X57495000Y-96710000D02*
X57495000Y-97345000D01*
X57495000Y-97345000D02*
X61305000Y-97345000D01*
X61305000Y-94805000D02*
X57495000Y-94805000D01*
X61305000Y-96710000D02*
X63845000Y-96710000D01*
X61305000Y-97345000D02*
X61305000Y-96710000D01*
X63900000Y-86900000D02*
X63900000Y-97400000D01*
X57495000Y-90995000D02*
G75*
G03*
X57495000Y-94805000I1904999J-1905000D01*
G01*
X61304999Y-94804999D02*
G75*
G03*
X61304999Y-90995001I-1904999J1904999D01*
G01*
X61196051Y-92900000D02*
G75*
G03*
X61196051Y-92900000I-1796051J0D01*
G01*
%TO.C,J6*%
X54900000Y-145500000D02*
X54900000Y-156000000D01*
X54900000Y-145500000D02*
X63900000Y-145500000D01*
X54900000Y-156000000D02*
X63900000Y-156000000D01*
X54955000Y-155310000D02*
X57495000Y-155310000D01*
X57495000Y-149595000D02*
X61305000Y-149595000D01*
X57495000Y-155310000D02*
X57495000Y-155945000D01*
X57495000Y-155945000D02*
X61305000Y-155945000D01*
X61305000Y-153405000D02*
X57495000Y-153405000D01*
X61305000Y-155310000D02*
X63845000Y-155310000D01*
X61305000Y-155945000D02*
X61305000Y-155310000D01*
X63900000Y-145500000D02*
X63900000Y-156000000D01*
X57495000Y-149595000D02*
G75*
G03*
X57495000Y-153405000I1904999J-1905000D01*
G01*
X61304999Y-153404999D02*
G75*
G03*
X61304999Y-149595001I-1904999J1904999D01*
G01*
X61196051Y-151500000D02*
G75*
G03*
X61196051Y-151500000I-1796051J0D01*
G01*
%TO.C,J5*%
X54900000Y-130800000D02*
X54900000Y-141300000D01*
X54900000Y-130800000D02*
X63900000Y-130800000D01*
X54900000Y-141300000D02*
X63900000Y-141300000D01*
X54955000Y-140610000D02*
X57495000Y-140610000D01*
X57495000Y-134895000D02*
X61305000Y-134895000D01*
X57495000Y-140610000D02*
X57495000Y-141245000D01*
X57495000Y-141245000D02*
X61305000Y-141245000D01*
X61305000Y-138705000D02*
X57495000Y-138705000D01*
X61305000Y-140610000D02*
X63845000Y-140610000D01*
X61305000Y-141245000D02*
X61305000Y-140610000D01*
X63900000Y-130800000D02*
X63900000Y-141300000D01*
X57495000Y-134895000D02*
G75*
G03*
X57495000Y-138705000I1904999J-1905000D01*
G01*
X61304999Y-138704999D02*
G75*
G03*
X61304999Y-134895001I-1904999J1904999D01*
G01*
X61196051Y-136800000D02*
G75*
G03*
X61196051Y-136800000I-1796051J0D01*
G01*
%TO.C,J4*%
X54900000Y-116200000D02*
X54900000Y-126700000D01*
X54900000Y-116200000D02*
X63900000Y-116200000D01*
X54900000Y-126700000D02*
X63900000Y-126700000D01*
X54955000Y-126010000D02*
X57495000Y-126010000D01*
X57495000Y-120295000D02*
X61305000Y-120295000D01*
X57495000Y-126010000D02*
X57495000Y-126645000D01*
X57495000Y-126645000D02*
X61305000Y-126645000D01*
X61305000Y-124105000D02*
X57495000Y-124105000D01*
X61305000Y-126010000D02*
X63845000Y-126010000D01*
X61305000Y-126645000D02*
X61305000Y-126010000D01*
X63900000Y-116200000D02*
X63900000Y-126700000D01*
X57495000Y-120295000D02*
G75*
G03*
X57495000Y-124105000I1904999J-1905000D01*
G01*
X61304999Y-124104999D02*
G75*
G03*
X61304999Y-120295001I-1904999J1904999D01*
G01*
X61196051Y-122200000D02*
G75*
G03*
X61196051Y-122200000I-1796051J0D01*
G01*
%TO.C,J3*%
X54900000Y-101600000D02*
X54900000Y-112100000D01*
X54900000Y-101600000D02*
X63900000Y-101600000D01*
X54900000Y-112100000D02*
X63900000Y-112100000D01*
X54955000Y-111410000D02*
X57495000Y-111410000D01*
X57495000Y-105695000D02*
X61305000Y-105695000D01*
X57495000Y-111410000D02*
X57495000Y-112045000D01*
X57495000Y-112045000D02*
X61305000Y-112045000D01*
X61305000Y-109505000D02*
X57495000Y-109505000D01*
X61305000Y-111410000D02*
X63845000Y-111410000D01*
X61305000Y-112045000D02*
X61305000Y-111410000D01*
X63900000Y-101600000D02*
X63900000Y-112100000D01*
X57495000Y-105695000D02*
G75*
G03*
X57495000Y-109505000I1904999J-1905000D01*
G01*
X61304999Y-109504999D02*
G75*
G03*
X61304999Y-105695001I-1904999J1904999D01*
G01*
X61196051Y-107600000D02*
G75*
G03*
X61196051Y-107600000I-1796051J0D01*
G01*
%TD*%
D12*
%TO.C,J1*%
X53730000Y-73800000D03*
X65160000Y-73800000D03*
%TD*%
D13*
%TO.C,J2*%
X59400000Y-99380000D03*
X59400000Y-96280000D03*
X59400000Y-87980000D03*
%TD*%
%TO.C,J6*%
X59400000Y-157980000D03*
X59400000Y-154880000D03*
X59400000Y-146580000D03*
%TD*%
%TO.C,J5*%
X59400000Y-143280000D03*
X59400000Y-140180000D03*
X59400000Y-131880000D03*
%TD*%
%TO.C,J4*%
X59400000Y-128680000D03*
X59400000Y-125580000D03*
X59400000Y-117280000D03*
%TD*%
%TO.C,J3*%
X59400000Y-114080000D03*
X59400000Y-110980000D03*
X59400000Y-102680000D03*
%TD*%
M02*
