%TF.GenerationSoftware,KiCad,Pcbnew,7.0.1*%
%TF.CreationDate,2023-03-30T11:01:24+01:00*%
%TF.ProjectId,Base_Controls,42617365-5f43-46f6-9e74-726f6c732e6b,rev?*%
%TF.SameCoordinates,Original*%
%TF.FileFunction,Legend,Bot*%
%TF.FilePolarity,Positive*%
%FSLAX46Y46*%
G04 Gerber Fmt 4.6, Leading zero omitted, Abs format (unit mm)*
G04 Created by KiCad (PCBNEW 7.0.1) date 2023-03-30 11:01:24*
%MOMM*%
%LPD*%
G01*
G04 APERTURE LIST*
%ADD10C,0.150000*%
%ADD11C,0.200000*%
%ADD12C,0.120000*%
%ADD13C,3.650000*%
G04 APERTURE END LIST*
D10*
G36*
X52417857Y-58367857D02*
G01*
X50307143Y-58367857D01*
X50307143Y-56248876D01*
X51103333Y-56248876D01*
X51112576Y-56280354D01*
X51145862Y-56309196D01*
X51189457Y-56315464D01*
X51229521Y-56297168D01*
X51253333Y-56260116D01*
X51253333Y-55465408D01*
X51244090Y-55433930D01*
X51210804Y-55405088D01*
X51167209Y-55398820D01*
X51127145Y-55417116D01*
X51103333Y-55454168D01*
X51103333Y-56248876D01*
X50307143Y-56248876D01*
X50307143Y-54773028D01*
X50720010Y-54773028D01*
X50722380Y-54778218D01*
X50722380Y-55058400D01*
X50731623Y-55089878D01*
X50764909Y-55118720D01*
X50808504Y-55124988D01*
X50848568Y-55106692D01*
X50872380Y-55069640D01*
X50872380Y-54836904D01*
X51568695Y-54836904D01*
X51512900Y-54892698D01*
X51502051Y-54899142D01*
X51492800Y-54917642D01*
X51482905Y-54935765D01*
X51483009Y-54937225D01*
X51439762Y-55023721D01*
X51433952Y-55056009D01*
X51450825Y-55096692D01*
X51487015Y-55121795D01*
X51531031Y-55123347D01*
X51568900Y-55100856D01*
X51620925Y-54996806D01*
X51702305Y-54915425D01*
X51829476Y-54830645D01*
X51839640Y-54827661D01*
X51847418Y-54818684D01*
X51847954Y-54818327D01*
X51854480Y-54810533D01*
X51868482Y-54794375D01*
X51868579Y-54793698D01*
X51869018Y-54793175D01*
X51871706Y-54771949D01*
X51874750Y-54750780D01*
X51874466Y-54750158D01*
X51874552Y-54749481D01*
X51865347Y-54730190D01*
X51856454Y-54710716D01*
X51855878Y-54710346D01*
X51855585Y-54709731D01*
X51837419Y-54698482D01*
X51819402Y-54686904D01*
X51818719Y-54686904D01*
X51818139Y-54686545D01*
X51796746Y-54686904D01*
X50872380Y-54686904D01*
X50872380Y-54465408D01*
X50863137Y-54433930D01*
X50829851Y-54405088D01*
X50786256Y-54398820D01*
X50746192Y-54417116D01*
X50722380Y-54454168D01*
X50722380Y-54756544D01*
X50720010Y-54773028D01*
X50307143Y-54773028D01*
X50307143Y-54126241D01*
X50721000Y-54126241D01*
X50722380Y-54145530D01*
X50722380Y-54153638D01*
X50723146Y-54156249D01*
X50724143Y-54170172D01*
X50729230Y-54176968D01*
X50731623Y-54185116D01*
X50742172Y-54194256D01*
X50750537Y-54205431D01*
X50758492Y-54208398D01*
X50764909Y-54213958D01*
X50778723Y-54215944D01*
X50791804Y-54220823D01*
X50800101Y-54219017D01*
X50808504Y-54220226D01*
X50821198Y-54214428D01*
X50834841Y-54211461D01*
X50840845Y-54205456D01*
X50848568Y-54201930D01*
X50856114Y-54190187D01*
X51409322Y-53636980D01*
X51523837Y-53598809D01*
X51589198Y-53598809D01*
X51657716Y-53633068D01*
X51688121Y-53663473D01*
X51722380Y-53731989D01*
X51722380Y-53934674D01*
X51688121Y-54003191D01*
X51641485Y-54049828D01*
X51625762Y-54078622D01*
X51628905Y-54122553D01*
X51655299Y-54157812D01*
X51696566Y-54173204D01*
X51739603Y-54163842D01*
X51796145Y-54107299D01*
X51806995Y-54100856D01*
X51816249Y-54082346D01*
X51826140Y-54064233D01*
X51826035Y-54062774D01*
X51862658Y-53989528D01*
X51872380Y-53974402D01*
X51872380Y-53959072D01*
X51875094Y-53943989D01*
X51872380Y-53937445D01*
X51872380Y-53718316D01*
X51874310Y-53700441D01*
X51867455Y-53686731D01*
X51863137Y-53672025D01*
X51857782Y-53667385D01*
X51821048Y-53593916D01*
X51818366Y-53581586D01*
X51803746Y-53566966D01*
X51789677Y-53551841D01*
X51788258Y-53551478D01*
X51761823Y-53525043D01*
X51755380Y-53514194D01*
X51736879Y-53504943D01*
X51718757Y-53495048D01*
X51717296Y-53495152D01*
X51644055Y-53458532D01*
X51628926Y-53448809D01*
X51613596Y-53448809D01*
X51598513Y-53446095D01*
X51591969Y-53448809D01*
X51521068Y-53448809D01*
X51508840Y-53445694D01*
X51489220Y-53452233D01*
X51469406Y-53458052D01*
X51468447Y-53459158D01*
X51348918Y-53499000D01*
X51331348Y-53502823D01*
X51320509Y-53513661D01*
X51307923Y-53522409D01*
X51305214Y-53528956D01*
X50872380Y-53961790D01*
X50872380Y-53513027D01*
X50863137Y-53481549D01*
X50829851Y-53452707D01*
X50786256Y-53446439D01*
X50746192Y-53464735D01*
X50722380Y-53501787D01*
X50722380Y-54123714D01*
X50721000Y-54126241D01*
X50307143Y-54126241D01*
X50307143Y-52896441D01*
X50719658Y-52896441D01*
X50723095Y-52915442D01*
X50725150Y-52934641D01*
X50726979Y-52936912D01*
X50727498Y-52939781D01*
X50740658Y-52953903D01*
X50752771Y-52968948D01*
X50755537Y-52969870D01*
X50757525Y-52972003D01*
X50776236Y-52976769D01*
X51783891Y-53312655D01*
X51816677Y-53313840D01*
X51854565Y-53291383D01*
X51874297Y-53252007D01*
X51869609Y-53208213D01*
X51841989Y-53173907D01*
X51034550Y-52904760D01*
X51831325Y-52639170D01*
X51858265Y-52620447D01*
X51875101Y-52579748D01*
X51867261Y-52536408D01*
X51837235Y-52504186D01*
X51794554Y-52493313D01*
X50786530Y-52829320D01*
X50778083Y-52829015D01*
X50766050Y-52836146D01*
X50763434Y-52837019D01*
X50756796Y-52841631D01*
X50740195Y-52851472D01*
X50738889Y-52854077D01*
X50736494Y-52855742D01*
X50729108Y-52873595D01*
X50720463Y-52890848D01*
X50720773Y-52893745D01*
X50719658Y-52896441D01*
X50307143Y-52896441D01*
X50307143Y-50409523D01*
X52417857Y-50409523D01*
X52417857Y-58367857D01*
G37*
D11*
X65071428Y-159555142D02*
X65071428Y-158355142D01*
X65071428Y-158355142D02*
X64785714Y-158355142D01*
X64785714Y-158355142D02*
X64614285Y-158412285D01*
X64614285Y-158412285D02*
X64500000Y-158526571D01*
X64500000Y-158526571D02*
X64442857Y-158640857D01*
X64442857Y-158640857D02*
X64385714Y-158869428D01*
X64385714Y-158869428D02*
X64385714Y-159040857D01*
X64385714Y-159040857D02*
X64442857Y-159269428D01*
X64442857Y-159269428D02*
X64500000Y-159383714D01*
X64500000Y-159383714D02*
X64614285Y-159498000D01*
X64614285Y-159498000D02*
X64785714Y-159555142D01*
X64785714Y-159555142D02*
X65071428Y-159555142D01*
X63414285Y-159498000D02*
X63528571Y-159555142D01*
X63528571Y-159555142D02*
X63757143Y-159555142D01*
X63757143Y-159555142D02*
X63871428Y-159498000D01*
X63871428Y-159498000D02*
X63928571Y-159383714D01*
X63928571Y-159383714D02*
X63928571Y-158926571D01*
X63928571Y-158926571D02*
X63871428Y-158812285D01*
X63871428Y-158812285D02*
X63757143Y-158755142D01*
X63757143Y-158755142D02*
X63528571Y-158755142D01*
X63528571Y-158755142D02*
X63414285Y-158812285D01*
X63414285Y-158812285D02*
X63357143Y-158926571D01*
X63357143Y-158926571D02*
X63357143Y-159040857D01*
X63357143Y-159040857D02*
X63928571Y-159155142D01*
X62957143Y-158755142D02*
X62671429Y-159555142D01*
X62671429Y-159555142D02*
X62385714Y-158755142D01*
X61528571Y-158926571D02*
X61357143Y-158983714D01*
X61357143Y-158983714D02*
X61300000Y-159040857D01*
X61300000Y-159040857D02*
X61242857Y-159155142D01*
X61242857Y-159155142D02*
X61242857Y-159326571D01*
X61242857Y-159326571D02*
X61300000Y-159440857D01*
X61300000Y-159440857D02*
X61357143Y-159498000D01*
X61357143Y-159498000D02*
X61471428Y-159555142D01*
X61471428Y-159555142D02*
X61928571Y-159555142D01*
X61928571Y-159555142D02*
X61928571Y-158355142D01*
X61928571Y-158355142D02*
X61528571Y-158355142D01*
X61528571Y-158355142D02*
X61414286Y-158412285D01*
X61414286Y-158412285D02*
X61357143Y-158469428D01*
X61357143Y-158469428D02*
X61300000Y-158583714D01*
X61300000Y-158583714D02*
X61300000Y-158698000D01*
X61300000Y-158698000D02*
X61357143Y-158812285D01*
X61357143Y-158812285D02*
X61414286Y-158869428D01*
X61414286Y-158869428D02*
X61528571Y-158926571D01*
X61528571Y-158926571D02*
X61928571Y-158926571D01*
X60214286Y-159555142D02*
X60214286Y-158926571D01*
X60214286Y-158926571D02*
X60271428Y-158812285D01*
X60271428Y-158812285D02*
X60385714Y-158755142D01*
X60385714Y-158755142D02*
X60614286Y-158755142D01*
X60614286Y-158755142D02*
X60728571Y-158812285D01*
X60214286Y-159498000D02*
X60328571Y-159555142D01*
X60328571Y-159555142D02*
X60614286Y-159555142D01*
X60614286Y-159555142D02*
X60728571Y-159498000D01*
X60728571Y-159498000D02*
X60785714Y-159383714D01*
X60785714Y-159383714D02*
X60785714Y-159269428D01*
X60785714Y-159269428D02*
X60728571Y-159155142D01*
X60728571Y-159155142D02*
X60614286Y-159098000D01*
X60614286Y-159098000D02*
X60328571Y-159098000D01*
X60328571Y-159098000D02*
X60214286Y-159040857D01*
X59700000Y-159498000D02*
X59585714Y-159555142D01*
X59585714Y-159555142D02*
X59357143Y-159555142D01*
X59357143Y-159555142D02*
X59242857Y-159498000D01*
X59242857Y-159498000D02*
X59185714Y-159383714D01*
X59185714Y-159383714D02*
X59185714Y-159326571D01*
X59185714Y-159326571D02*
X59242857Y-159212285D01*
X59242857Y-159212285D02*
X59357143Y-159155142D01*
X59357143Y-159155142D02*
X59528572Y-159155142D01*
X59528572Y-159155142D02*
X59642857Y-159098000D01*
X59642857Y-159098000D02*
X59700000Y-158983714D01*
X59700000Y-158983714D02*
X59700000Y-158926571D01*
X59700000Y-158926571D02*
X59642857Y-158812285D01*
X59642857Y-158812285D02*
X59528572Y-158755142D01*
X59528572Y-158755142D02*
X59357143Y-158755142D01*
X59357143Y-158755142D02*
X59242857Y-158812285D01*
X58214285Y-159498000D02*
X58328571Y-159555142D01*
X58328571Y-159555142D02*
X58557143Y-159555142D01*
X58557143Y-159555142D02*
X58671428Y-159498000D01*
X58671428Y-159498000D02*
X58728571Y-159383714D01*
X58728571Y-159383714D02*
X58728571Y-158926571D01*
X58728571Y-158926571D02*
X58671428Y-158812285D01*
X58671428Y-158812285D02*
X58557143Y-158755142D01*
X58557143Y-158755142D02*
X58328571Y-158755142D01*
X58328571Y-158755142D02*
X58214285Y-158812285D01*
X58214285Y-158812285D02*
X58157143Y-158926571D01*
X58157143Y-158926571D02*
X58157143Y-159040857D01*
X58157143Y-159040857D02*
X58728571Y-159155142D01*
X56842857Y-158755142D02*
X56557143Y-159555142D01*
X56557143Y-159555142D02*
X56271428Y-158755142D01*
X55185714Y-159555142D02*
X55871428Y-159555142D01*
X55528571Y-159555142D02*
X55528571Y-158355142D01*
X55528571Y-158355142D02*
X55642857Y-158526571D01*
X55642857Y-158526571D02*
X55757142Y-158640857D01*
X55757142Y-158640857D02*
X55871428Y-158698000D01*
X54671428Y-159440857D02*
X54614285Y-159498000D01*
X54614285Y-159498000D02*
X54671428Y-159555142D01*
X54671428Y-159555142D02*
X54728571Y-159498000D01*
X54728571Y-159498000D02*
X54671428Y-159440857D01*
X54671428Y-159440857D02*
X54671428Y-159555142D01*
X53871428Y-158355142D02*
X53757142Y-158355142D01*
X53757142Y-158355142D02*
X53642856Y-158412285D01*
X53642856Y-158412285D02*
X53585714Y-158469428D01*
X53585714Y-158469428D02*
X53528571Y-158583714D01*
X53528571Y-158583714D02*
X53471428Y-158812285D01*
X53471428Y-158812285D02*
X53471428Y-159098000D01*
X53471428Y-159098000D02*
X53528571Y-159326571D01*
X53528571Y-159326571D02*
X53585714Y-159440857D01*
X53585714Y-159440857D02*
X53642856Y-159498000D01*
X53642856Y-159498000D02*
X53757142Y-159555142D01*
X53757142Y-159555142D02*
X53871428Y-159555142D01*
X53871428Y-159555142D02*
X53985714Y-159498000D01*
X53985714Y-159498000D02*
X54042856Y-159440857D01*
X54042856Y-159440857D02*
X54099999Y-159326571D01*
X54099999Y-159326571D02*
X54157142Y-159098000D01*
X54157142Y-159098000D02*
X54157142Y-158812285D01*
X54157142Y-158812285D02*
X54099999Y-158583714D01*
X54099999Y-158583714D02*
X54042856Y-158469428D01*
X54042856Y-158469428D02*
X53985714Y-158412285D01*
X53985714Y-158412285D02*
X53871428Y-158355142D01*
D12*
%TO.C,J7*%
X65790000Y-51670000D02*
X65790000Y-56870000D01*
X55570000Y-51670000D02*
X65790000Y-51670000D01*
X55570000Y-51670000D02*
X55570000Y-54270000D01*
X54300000Y-51670000D02*
X52970000Y-51670000D01*
X52970000Y-51670000D02*
X52970000Y-53000000D01*
X55570000Y-54270000D02*
X52970000Y-54270000D01*
X52970000Y-54270000D02*
X52970000Y-56870000D01*
X52970000Y-56870000D02*
X65790000Y-56870000D01*
%TD*%
D13*
%TO.C,J1*%
X53730000Y-73800000D03*
X65160000Y-73800000D03*
%TD*%
M02*
